<svg xmlns="http://www.w3.org/2000/svg" xml:space="preserve" viewBox="0 0 3783.9641 3733.24">
  <defs>
    <linearGradient id="b" x1="0" x2="1" y1="0" y2="0" gradientTransform="matrix(-20220.6 22606.5 22606.5 20220.6 33891.5 595.701)" gradientUnits="userSpaceOnUse" spreadMethod="pad">
      <stop offset="0" stop-color="#dae3fe"/>
      <stop offset="1" stop-color="#e9effd"/>
    </linearGradient>
    <linearGradient id="d" x1="0" x2="1" y1="0" y2="0" gradientTransform="matrix(-5685.39 17056.2 -17056.2 -5685.39 20992.8 8620.4)" gradientUnits="userSpaceOnUse" spreadMethod="pad">
      <stop offset="0" stop-color="#09005d"/>
      <stop offset="1" stop-color="#1a0f91"/>
    </linearGradient>
    <linearGradient id="f" x1="0" x2="1" y1="0" y2="0" gradientTransform="matrix(-20736.1 -18205.8 -18205.8 20736.1 28286.3 23758.8)" gradientUnits="userSpaceOnUse" spreadMethod="pad">
      <stop offset="0" stop-color="#4042e2"/>
      <stop offset="1" stop-color="#4f52ff"/>
    </linearGradient>
    <linearGradient id="h" x1="0" x2="1" y1="0" y2="0" gradientTransform="matrix(343.844 -14304.3 -14304.3 -343.844 18195.2 21775.4)" gradientUnits="userSpaceOnUse" spreadMethod="pad">
      <stop offset="0" stop-color="#09005d"/>
      <stop offset="1" stop-color="#1a0f91"/>
    </linearGradient>
    <linearGradient id="j" x1="0" x2="1" y1="0" y2="0" gradientTransform="matrix(224.156 -1927.74 -1927.74 -224.156 18792.5 26894.7)" gradientUnits="userSpaceOnUse" spreadMethod="pad">
      <stop offset="0" stop-color="#e1473d"/>
      <stop offset="1" stop-color="#e9605a"/>
    </linearGradient>
    <linearGradient id="l" x1="0" x2="1" y1="0" y2="0" gradientTransform="matrix(-3837.93 -9389.24 -9389.24 3837.93 13375.3 24875)" gradientUnits="userSpaceOnUse" spreadMethod="pad">
      <stop offset="0" stop-color="#e1473d"/>
      <stop offset="1" stop-color="#e9605a"/>
    </linearGradient>
    <linearGradient id="n" x1="0" x2="1" y1="0" y2="0" gradientTransform="matrix(-7950 -11650.9 -11650.9 7950 12657.1 16539.9)" gradientUnits="userSpaceOnUse" spreadMethod="pad">
      <stop offset="0" stop-color="#ff928e"/>
      <stop offset="1" stop-color="#fe7062"/>
    </linearGradient>
    <linearGradient id="p" x1="0" x2="1" y1="0" y2="0" gradientTransform="matrix(-5825.45 -1850.44 -1850.44 5825.45 22109.5 15758.3)" gradientUnits="userSpaceOnUse" spreadMethod="pad">
      <stop offset="0" stop-color="#ff928e"/>
      <stop offset="1" stop-color="#fe7062"/>
    </linearGradient>
    <linearGradient id="r" x1="0" x2="1" y1="0" y2="0" gradientTransform="matrix(-3837.94 -9389.27 -9389.27 3837.94 12349 25294.4)" gradientUnits="userSpaceOnUse" spreadMethod="pad">
      <stop offset="0" stop-color="#e1473d"/>
      <stop offset="1" stop-color="#e9605a"/>
    </linearGradient>
    <linearGradient id="t" x1="0" x2="1" y1="0" y2="0" gradientTransform="rotate(180 14113.85 2677.65) scale(2115.14)" gradientUnits="userSpaceOnUse" spreadMethod="pad">
      <stop offset="0" stop-color="#4042e2"/>
      <stop offset="1" stop-color="#4f52ff"/>
    </linearGradient>
    <linearGradient id="v" x1="0" x2="1" y1="0" y2="0" gradientTransform="rotate(180 14113.9 2884.9) scale(2055.53)" gradientUnits="userSpaceOnUse" spreadMethod="pad">
      <stop offset="0" stop-color="#09005d"/>
      <stop offset="1" stop-color="#1a0f91"/>
    </linearGradient>
    <linearGradient id="x" x1="0" x2="1" y1="0" y2="0" gradientTransform="rotate(180 14016.2 3174.3) scale(595.789)" gradientUnits="userSpaceOnUse" spreadMethod="pad">
      <stop offset="0" stop-color="#febbba"/>
      <stop offset="1" stop-color="#ff928e"/>
    </linearGradient>
    <linearGradient id="z" x1="0" x2="1" y1="0" y2="0" gradientTransform="rotate(180 16001.45 2415.4) scale(810.554)" gradientUnits="userSpaceOnUse" spreadMethod="pad">
      <stop offset="0" stop-color="#4042e2"/>
      <stop offset="1" stop-color="#4f52ff"/>
    </linearGradient>
    <linearGradient id="B" x1="0" x2="1" y1="0" y2="0" gradientTransform="rotate(180 15998.55 2818.7) scale(1189.74)" gradientUnits="userSpaceOnUse" spreadMethod="pad">
      <stop offset="0" stop-color="#09005d"/>
      <stop offset="1" stop-color="#1a0f91"/>
    </linearGradient>
    <linearGradient id="D" x1="0" x2="1" y1="0" y2="0" gradientTransform="rotate(180 15689.3 3329.65) scale(712.031)" gradientUnits="userSpaceOnUse" spreadMethod="pad">
      <stop offset="0" stop-color="#febbba"/>
      <stop offset="1" stop-color="#ff928e"/>
    </linearGradient>
    <linearGradient id="F" x1="0" x2="1" y1="0" y2="0" gradientTransform="matrix(-2467.25 10965.6 10965.6 2467.25 29805 4733.7)" gradientUnits="userSpaceOnUse" spreadMethod="pad">
      <stop offset="0" stop-color="#09005d"/>
      <stop offset="1" stop-color="#1a0f91"/>
    </linearGradient>
    <linearGradient id="H" x1="0" x2="1" y1="0" y2="0" gradientTransform="matrix(-3632.34 -5688.39 -5688.39 3632.34 30030.8 17404.1)" gradientUnits="userSpaceOnUse" spreadMethod="pad">
      <stop offset="0" stop-color="#cb236d"/>
      <stop offset="1" stop-color="#4c246d"/>
    </linearGradient>
    <linearGradient id="J" x1="0" x2="1" y1="0" y2="0" gradientTransform="matrix(2820.04 -3668.79 3668.79 2820.04 21585 21657.4)" gradientUnits="userSpaceOnUse" spreadMethod="pad">
      <stop offset="0" stop-color="#febbba"/>
      <stop offset="1" stop-color="#ff928e"/>
    </linearGradient>
    <linearGradient id="L" x1="0" x2="1" y1="0" y2="0" gradientTransform="matrix(-8087.09 -4249.15 -4249.15 8087.09 36079 22910.2)" gradientUnits="userSpaceOnUse" spreadMethod="pad">
      <stop offset="0" stop-color="#ff928e"/>
      <stop offset="1" stop-color="#fe7062"/>
    </linearGradient>
    <linearGradient id="N" x1="0" x2="1" y1="0" y2="0" gradientTransform="matrix(415.025 0 0 -415.025 25639.8 19336.4)" gradientUnits="userSpaceOnUse" spreadMethod="pad">
      <stop offset="0" stop-color="#e1473d"/>
      <stop offset="1" stop-color="#e9605a"/>
    </linearGradient>
    <linearGradient id="P" x1="0" x2="1" y1="0" y2="0" gradientTransform="matrix(-308.516 1619.71 -1619.71 -308.516 27870.8 19286.2)" gradientUnits="userSpaceOnUse" spreadMethod="pad">
      <stop offset="0" stop-color="#febbba"/>
      <stop offset="1" stop-color="#ff928e"/>
    </linearGradient>
    <linearGradient id="R" x1="0" x2="1" y1="0" y2="0" gradientTransform="matrix(1760.27 -1346.88 1346.88 1760.27 27036 22257.9)" gradientUnits="userSpaceOnUse" spreadMethod="pad">
      <stop offset="0" stop-color="#febbba"/>
      <stop offset="1" stop-color="#ff928e"/>
    </linearGradient>
    <linearGradient id="T" x1="0" x2="1" y1="0" y2="0" gradientTransform="rotate(-127.837 19846.21569502 4741.78767143) scale(2672.63)" gradientUnits="userSpaceOnUse" spreadMethod="pad">
      <stop offset="0" stop-color="#09005d"/>
      <stop offset="1" stop-color="#1a0f91"/>
    </linearGradient>
    <linearGradient id="V" x1="0" x2="1" y1="0" y2="0" gradientTransform="matrix(1760.28 -1346.88 1346.88 1760.28 27254.3 22543.2)" gradientUnits="userSpaceOnUse" spreadMethod="pad">
      <stop offset="0" stop-color="#febbba"/>
      <stop offset="1" stop-color="#ff928e"/>
    </linearGradient>
    <linearGradient id="X" x1="0" x2="1" y1="0" y2="0" gradientTransform="matrix(692.075 0 0 -692.075 20799.3 21946.2)" gradientUnits="userSpaceOnUse" spreadMethod="pad">
      <stop offset="0" stop-color="#ff928e"/>
      <stop offset="1" stop-color="#fe7062"/>
    </linearGradient>
    <linearGradient id="Z" x1="0" x2="1" y1="0" y2="0" gradientTransform="matrix(1232.06 -1848.08 1848.08 1232.06 26222.3 18135.6)" gradientUnits="userSpaceOnUse" spreadMethod="pad">
      <stop offset="0" stop-color="#febbba"/>
      <stop offset="1" stop-color="#ff928e"/>
    </linearGradient>
    <linearGradient id="ab" x1="0" x2="1" y1="0" y2="0" gradientTransform="matrix(-2742.37 -899.44 -899.44 2742.37 28381.6 15904.6)" gradientUnits="userSpaceOnUse" spreadMethod="pad">
      <stop offset="0" stop-color="#09005d"/>
      <stop offset="1" stop-color="#1a0f91"/>
    </linearGradient>
    <linearGradient id="ad" x1="0" x2="1" y1="0" y2="0" gradientTransform="matrix(-1963.33 -2075.12 -2075.12 1963.33 24607.1 17680.7)" gradientUnits="userSpaceOnUse" spreadMethod="pad">
      <stop offset="0" stop-color="#09005d"/>
      <stop offset="1" stop-color="#1a0f91"/>
    </linearGradient>
    <linearGradient id="af" x1="0" x2="1" y1="0" y2="0" gradientTransform="matrix(-887.485 -1336.45 -1336.45 887.485 23416.5 17162.1)" gradientUnits="userSpaceOnUse" spreadMethod="pad">
      <stop offset="0" stop-color="#4042e2"/>
      <stop offset="1" stop-color="#4f52ff"/>
    </linearGradient>
    <clipPath id="a" clipPathUnits="userSpaceOnUse">
      <path d="M16504.2 4550c-538.3 0-1067.8 26.1-1584.4 78-1596.9 160.3-4809.9 482.8-7280.84 2902.7-8.97 8.8-17.72 17.3-26.65 26.2H26363C23403.2 5523.2 19790.4 4550 16504.2 4550M6283.9 9216.7c-3145.74 4994.4-1964.98 13090.2 2236.64 18019.9C9116.95 27936.4 13178.4 32550 19397 32550c115.2 0 230.9-1.6 347.6-4.8 4696.5-129.6 7947.1-2840.7 8342.3-3178.3 499.1-426.4 1598.8-1438.3 2578-3030.2 2251.8-3660.7 2412.3-8688.7 691.4-12749.9l119.4 8248.6c0 235.8-267.9 688.1-760.4 688.1-18.3 0-37-.6-55.9-1.9l-2628.6 68 179.7 3691.5-2683.9 2964.9-14439.3 88.4h-5.2c-472.1 0-848.8-395.2-825.4-867.4l262.7-5424.3-3386.28 87.7c-9.7.2-19.43.3-29.1.3-296.82 0-581.99-117.5-792.67-327.5-217.54-216.8-336.57-513.2-329.31-820.2L6283.9 9216.7"/>
    </clipPath>
    <clipPath id="c" clipPathUnits="userSpaceOnUse">
      <path d="M30830.2 7556.9H6757.79c-244.84 0-445.16 200.1-445.16 444.7l-28.73 1215.1L5982.04 21983c-7.26 307 111.77 603.4 329.31 820.2 210.68 210 495.85 327.5 792.67 327.5 9.67 0 19.4-.1 29.1-.3l3386.28-87.7 25.6-528.8-3319.35 89c-7.04.2-14.1.3-21.12.3-208.28 0-408.36-82.6-556.24-230.1-152.85-152.5-236.92-361.1-231.51-576.9l335.33-13367.9c0-231.6 189.52-421.2 421.16-421.2h4074.13l2.7-54.9h16068.2l2.7 54.9h2928.7c231.7 0 421.2 189.6 421.2 421.2l189 12558.4c-21.6 734.8-648.7 1012-1052.6 1012-11.5 0-22.8-.2-33.9-.7l-1769.1 47.5 26.5 544.1 2628.6-68c18.9 1.3 37.6 1.9 55.9 1.9 492.5 0 760.4-452.3 760.4-688.1l-119.4-8248.6-80.9-5585.2c0-244.6-200.3-444.7-445.2-444.7"/>
    </clipPath>
    <clipPath id="e" clipPathUnits="userSpaceOnUse">
      <path d="M30249.7 8007.1H27321l665.4 13670.2 1576.2-42.3c1.9.1 8.8.3 20 .3 87.5 0 434.2-14.8 662.1-233.1 137.6-131.9 207.9-316.9 209-548.6l-57.3-3900.8c-.5-34 26.7-62.1 60.8-62.6h1c33.6 0 61.1 27 61.6 60.8l57.3 3902c-1.2 267.6-84.3 482.4-247.1 638.3-256.3 245.6-626.4 267.7-738.7 267.7-14.4 0-24.6-.4-29.7-.7l-1569.2 42.1 11.9 245.1 1769.1-47.5c11.1.5 22.4.7 33.9.7 403.9 0 1031-277.2 1052.6-1012l-189-12558.4c0-231.6-189.5-421.2-421.2-421.2m-19002.3 0H7173.27c-231.64 0-421.16 189.6-421.16 421.2l-335.33 13367.9c-5.41 215.8 78.66 424.4 231.51 576.9 147.88 147.5 347.96 230.1 556.24 230.1 7.02 0 14.08-.1 21.12-.3l3319.35-89 702.4-14506.8"/>
    </clipPath>
    <clipPath id="g" clipPathUnits="userSpaceOnUse">
      <path d="M4416.3 6408.5h28267.4c31.1 0 56.5 25.4 56.5 56.5v1102.5c0 31-25.4 56.5-56.5 56.5H4416.3c-31.09 0-56.54-25.5-56.54-56.5V6465c0-31.1 25.45-56.5 56.54-56.5z"/>
    </clipPath>
    <clipPath id="i" clipPathUnits="userSpaceOnUse">
      <path d="M19091.8 22012.4c-85-5.6-164.2 34-208.2 104.7l-739.5 1187.5c-69.3 111.2-32 263.7 83.4 340.4 115.2 76.6 264.7 48.6 334-62.6l512.8-824.3 676.7 1378.2c60.7 123.7 206.6 180.4 325.8 126.8 119.1-53.7 166.5-197.3 105.9-320.9l-874.5-1782.5c-40-81.6-119.6-137.7-207.8-146.6-2.9-.3-5.7-.5-8.6-.7z"/>
    </clipPath>
    <clipPath id="k" clipPathUnits="userSpaceOnUse">
      <path d="M8720.3 17583.8c-46.11 0-84.16 36.6-85.58 83-.94 31.1-20.73 771.6 197.27 1562.4 293.65 1065 882.56 1696.3 1703.11 1825.4 402 63.4 760.3-31.6 1064.9-282 992.6-816.5 1087-3007.1 1090.6-3099.9 1.8-47.3-35.1-87.1-82.4-88.9-47.6-1.1-87 35.1-88.8 82.4-.9 21.9-95.1 2206.7-1028.4 2974.2-265.1 217.9-577.7 300.4-929.3 245-1823.73-287.1-1756.61-3184.1-1755.71-3213.4 1.44-47.3-35.74-86.8-83.03-88.2z"/>
    </clipPath>
    <clipPath id="m" clipPathUnits="userSpaceOnUse">
      <path d="m5111.79 8204 1472.03 10151.1 5529.88 93L13896 7639.8H5590.62c-295.43 0-521.94 266.9-478.83 564.2z"/>
    </clipPath>
    <clipPath id="o" clipPathUnits="userSpaceOnUse">
      <path d="m13187.6 18355.1-1073.9 93L13896 7639.8h1066.2c216.2 0 377.7 202 333.7 417.3z"/>
    </clipPath>
    <clipPath id="q" clipPathUnits="userSpaceOnUse">
      <path d="M11416.7 17607c-45.8 0-83.8 36.2-85.6 82.4-.8 22-95.1 2206.8-1028.4 2974.2-265 217.9-577.6 300.4-929.21 245-1822.32-286.8-1756.63-3184.1-1755.75-3213.3 1.41-47.3-35.75-86.8-83.04-88.2-47.8-2-86.77 35.7-88.23 83-.93 31.1-20.73 771.6 197.29 1562.3 293.63 1065.1 882.55 1696.3 1703.1 1825.5 402.07 63.3 760.34-31.6 1064.84-282.1 992.7-816.5 1087.1-3007 1090.6-3099.9 1.8-47.3-35-87-82.3-88.8-1.1-.1-2.2-.1-3.3-.1z"/>
    </clipPath>
    <clipPath id="s" clipPathUnits="userSpaceOnUse">
      <path d="M26172.3 5457.6c362.4-31.3 991.2-82.2 1487-104 298-13.1 469.6 16 568.4 55.6-.2-11.1-.5-21.7-.9-31.4-2.3-52.2-44.7-93.9-97.4-96.9-936.8-52.3-1681.9-18.1-1947.1-1.9-54.8 3.3-87.5 62.9-59.5 109.7 14.1 23.4 31 46.3 49.5 68.9z"/>
    </clipPath>
    <clipPath id="u" clipPathUnits="userSpaceOnUse">
      <path d="M27659.3 5353.6c-495.8 21.8-1124.6 72.7-1487 104 356.3 437.1 1487 731.7 1487 731.7h319.4c219.6-316.6 251.4-618.1 249-780.1-98.8-39.6-270.4-68.7-568.4-55.6z"/>
    </clipPath>
    <clipPath id="w" clipPathUnits="userSpaceOnUse">
      <path d="m28032.4 6710.6-29.9-591.4c-3.2-64-51.1-117.8-115.3-127-63.8-9.1-149.2-10.3-239.9 19.9-55.7 18.6-97.1 65.5-107.4 122.8l-103.2 575.7z"/>
    </clipPath>
    <clipPath id="y" clipPathUnits="userSpaceOnUse">
      <path d="M31739 4775.4c157.1 28.3 228.2 133.8 258.1 246.6.1-1 .3-2 .5-3 23.2-119-30.4-242.3-137.6-301-129.5-70.8-271.1-82.9-381-77.1-118 6.3-226.2 69.4-285.7 170.3l-.9 1.6c118.4-75.7 284.6-84.7 546.6-37.4z"/>
    </clipPath>
    <clipPath id="A" clipPathUnits="userSpaceOnUse">
      <path d="M30998.1 6528.4h263.4c401.2 10.6 653.1-1082.9 735.6-1506.4-29.9-112.8-101-218.3-258.1-246.6-262-47.3-428.2-38.3-546.6 37.4-216.7 368.6-324.2 908.4-375.8 1223.5-58.8 358.3 181.5 492.1 181.5 492.1z"/>
    </clipPath>
    <clipPath id="C" clipPathUnits="userSpaceOnUse">
      <path d="m31227.7 7077.4 146.2-581.7c17.9-71.3-16.2-145.1-82.1-178.9-81.8-42-197-86.1-302.9-73.4-49.8 6-91.1 41.1-107.6 88l-214.7 612z"/>
    </clipPath>
    <clipPath id="E" clipPathUnits="userSpaceOnUse">
      <path d="M26083.1 14738.2S27390 6568.9 27368.5 6524c0 0 360.9-164.1 754.4-21 0 0-118.1 4367.1-395.1 6041.6 0 0 2230.5-3903.3 2938.8-5848.3 0 0 369.4 44.1 675.2 245.3 0 0-2401.5 7025.8-3042.3 7961.6z"/>
    </clipPath>
    <clipPath id="G" clipPathUnits="userSpaceOnUse">
      <path d="M27675.7 12587.1c7 0 14 1.9 20.4 5.9 18.1 11.3 23.5 35.1 12.2 53.2l-488.3 780.1c-5.7 9-14.8 15.3-25.1 17.4l-359.5 72.3c-21 4.2-41.2-9.4-45.4-30.2-4.2-20.9 9.3-41.3 30.2-45.5l343.1-69 479.6-766c7.3-11.7 19.9-18.2 32.8-18.2z"/>
    </clipPath>
    <clipPath id="I" clipPathUnits="userSpaceOnUse">
      <path d="M20085.7 22737.8s881.9-194.5 1418.3-442.2c106.5-49.2 191.5-135.2 239.9-241.2 160.4-351.4 640.4-1232.6 1571.2-1653.1-134.1-177.9-349.9-548-443.9-1170-559.1 416.1-1041.7 1111-1273.4 2250.6 0 0-176.5-95.9-396.6 11-116.3 56.5-250.5 136.6-351.3 199.6-100.5 62.7-175.3 160.3-204.3 274.3-38.4 150.5-15.8 282.8-15.8 424.8l-453.3 140.5s-136.3 51.4-90.8 205.7z"/>
    </clipPath>
    <clipPath id="K" clipPathUnits="userSpaceOnUse">
      <path d="M22871.2 19231.3c94 622 309.8 992.1 443.9 1170 578.2-261.3 1330.4-344.8 2288.2-12.9 88.3 30.6 180.4 48.5 273.7 54 509.9 29.9 2190.2 84.5 3580.6-374.9 292.6-96.7 529.6-313 651.7-593.3 376.1-863.1 985-2828.7-705.4-3821.1-129.9 322.4-279.8 581.6-407.9 772.1 272.2 459.1 352.8 1086.3-130.3 1903-352.2-951.2-517.5-2339-552-2953.2-11.4-202.2 24.1-404.1 103.4-590.7l8.7-20.4c17-40-6.4-85.9-49.1-95.5-951.6-213.7-1941.4-155.7-2237.1-131.2-52.8 4.3-96.7 42.1-108.8 93.1-462.7 1949.9-463.8 3280-350.5 4120.8-432.9-96.8-1756.6-303.2-2809.1 480.2z"/>
    </clipPath>
    <clipPath id="M" clipPathUnits="userSpaceOnUse">
      <path d="M25678.4 18698.6c19.1 0 35.7 14.2 38.3 33.6 108.6 820.9 330 1179.2 332.1 1182.7 11.4 18 6.1 41.9-11.9 53.3-18 11.3-41.8 6-53.2-11.9-9.5-14.9-232.3-373.6-343.6-1214-2.8-21.1 12.1-40.5 33.2-43.3 1.8-.3 3.4-.4 5.1-.4z"/>
    </clipPath>
    <clipPath id="O" clipPathUnits="userSpaceOnUse">
      <path d="M28026.9 21578.3s96.3-1017.9 181.1-1319c12.8-45.7-7-93.9-48.5-117.6-143.9-82.2-488.9-216.3-960.9 15-76.5 37.5-122.4 117.2-118.9 201.6l41.6 983.6z"/>
    </clipPath>
    <clipPath id="Q" clipPathUnits="userSpaceOnUse">
      <path d="M27100.5 22880.5s-307.9-707.3-328.6-1078.6c-20.6-371.3-100.6-612.2 328.6-686.9 429.3-74.8 790.9 139.1 986.9 508.9 0 0 306.9 569.8 238.1 803.2-68.9 233.4-1225 453.4-1225 453.4z"/>
    </clipPath>
    <clipPath id="S" clipPathUnits="userSpaceOnUse">
      <path d="m27940.7 21889.8-24.5 10.7c-31.1 13.8-44.4 50.8-28.8 81 60.6 116.9 178.6 385 26.1 447.5-196.4 80.6-974.7 239.3-1142.6 515.4-161.4 265.4-18.4 608 196.5 705.4 14.4 6.6 31.4 1.4 38.7-12.6l17.9-33.9c12.3-23.2 46.6-19.6 53.9 5.6 6.9 24.2 39.1 28.8 52.5 7.5 51.6-82.6 190.9-216.6 563.6-285.3 529.5-97.8 879.7-312.1 888.4-678 .5-23.3 25.3-36.2 45.1-24.1 39.1 23.8 101.7 35 185.3-35.3 145.5-122.3 86-439.5-232.9-700.5-15.1-12.4-15-36 1.4-46.7 57.8-37.6 144-127.2-79.3-246.5-230.9-123.5-403.4-113.3-469.8-102.4-16.5 2.7-27.1 18.7-23.5 35.1l70.9 321.6c4 18.2-9.9 35.5-28.5 35.5z"/>
    </clipPath>
    <clipPath id="U" clipPathUnits="userSpaceOnUse">
      <path d="M27927.3 21821.9s117.5 451.8 320.1 325.2c202.6-126.7-105.1-506.3-268-523.2z"/>
    </clipPath>
    <clipPath id="W" clipPathUnits="userSpaceOnUse">
      <path d="M21362.6 21587c8.5 0 17.2 2.8 24.3 8.7 16.5 13.4 19 37.7 5.6 54.3-33.4 41-329.3 402.8-443.3 467.2-41.5 23.5-66.2 47.7-71.5 70-2.5 10.7-.8 22.7 5.2 36.3l347.7-69.7 197-169c16.1-13.9 40.6-12.1 54.4 4.1 13.9 16.2 12.1 40.6-4.1 54.5l-204.7 175.6c-5 4.3-11 7.2-17.5 8.6l-385 77.1c-15.4 3.1-30.9-3.4-39.6-16.3-28.2-41.8-37.5-80.8-28.5-118.9 10.6-45.1 46.1-84.2 108.6-119.5 85.8-48.4 333.3-340.4 421.4-448.8 7.6-9.3 18.8-14.2 30-14.2z"/>
    </clipPath>
    <clipPath id="Y" clipPathUnits="userSpaceOnUse">
      <path d="m27942.3 15163.9-1361.1-16.8 476.4 448.4c118.4 111.4 299.1 129.5 435.8 40.8 80-51.9 166.8-122.3 242-215.6 0 0 849 310.2 1260.6 1004.5 128.1-190.5 278-449.7 407.9-772.1-368.9-216.6-847.2-386.9-1461.6-489.2z"/>
    </clipPath>
    <clipPath id="aa" clipPathUnits="userSpaceOnUse">
      <path d="M27795.6 14988.4c-2.6-.2-5.2-.2-7.9-.2l-3454.9 3.7c-85.4.1-154.6 68.7-154.5 153.2.1 84.5 69.7 154.3 154.8 152.8l3454.9-3.7c85.4-.1 154.6-68.7 154.5-153.2-.1-81.8-65.2-148.6-146.9-152.6z"/>
    </clipPath>
    <clipPath id="ac" clipPathUnits="userSpaceOnUse">
      <path d="M21227 18092.1h2877.2c212.3 0 405.5-121.2 496-311.2l1330.2-2790.7h-3575.7c-136.8 0-259.7 82.7-309.9 208.6l-1031.5 2582.4c-59.6 149.2 51.5 310.9 213.7 310.9z"/>
    </clipPath>
    <clipPath id="ae" clipPathUnits="userSpaceOnUse">
      <path d="M23254.1 16661.2c62.3-191.7 16.2-377.8-102.9-415.8-119.2-37.9-266.4 86.7-328.7 278.3-62.4 191.7-16.3 377.9 102.9 415.8 119.1 38 266.3-86.6 328.7-278.3z"/>
    </clipPath>
  </defs>
  <g clip-path="url(#a)" transform="matrix(.13333 0 0 -.13333 -581.2868 4339.8915)">
    <path fill="url(#b)" d="M16504.2 4550c-538.3 0-1067.8 26.1-1584.4 78-1596.9 160.3-4809.9 482.8-7280.84 2902.7-8.97 8.8-17.72 17.3-26.65 26.2H26363C23403.2 5523.2 19790.4 4550 16504.2 4550M6283.9 9216.7c-3145.74 4994.4-1964.98 13090.2 2236.64 18019.9C9116.95 27936.4 13178.4 32550 19397 32550c115.2 0 230.9-1.6 347.6-4.8 4696.5-129.6 7947.1-2840.7 8342.3-3178.3 499.1-426.4 1598.8-1438.3 2578-3030.2 2251.8-3660.7 2412.3-8688.7 691.4-12749.9l119.4 8248.6c0 235.8-267.9 688.1-760.4 688.1-18.3 0-37-.6-55.9-1.9l-2628.6 68 179.7 3691.5-2683.9 2964.9-14439.3 88.4h-5.2c-472.1 0-848.8-395.2-825.4-867.4l262.7-5424.3-3386.28 87.7c-9.7.2-19.43.3-29.1.3-296.82 0-581.99-117.5-792.67-327.5-217.54-216.8-336.57-513.2-329.31-820.2L6283.9 9216.7"/>
  </g>
  <g clip-path="url(#c)" transform="matrix(.13333 0 0 -.13333 -581.2868 4339.8915)">
    <path fill="url(#d)" d="M30830.2 7556.9H6757.79c-244.84 0-445.16 200.1-445.16 444.7l-28.73 1215.1L5982.04 21983c-7.26 307 111.77 603.4 329.31 820.2 210.68 210 495.85 327.5 792.67 327.5 9.67 0 19.4-.1 29.1-.3l3386.28-87.7 25.6-528.8-3319.35 89c-7.04.2-14.1.3-21.12.3-208.28 0-408.36-82.6-556.24-230.1-152.85-152.5-236.92-361.1-231.51-576.9l335.33-13367.9c0-231.6 189.52-421.2 421.16-421.2h4074.13l2.7-54.9h16068.2l2.7 54.9h2928.7c231.7 0 421.2 189.6 421.2 421.2l189 12558.4c-21.6 734.8-648.7 1012-1052.6 1012-11.5 0-22.8-.2-33.9-.7l-1769.1 47.5 26.5 544.1 2628.6-68c18.9 1.3 37.6 1.9 55.9 1.9 492.5 0 760.4-452.3 760.4-688.1l-119.4-8248.6-80.9-5585.2c0-244.6-200.3-444.7-445.2-444.7"/>
  </g>
  <g clip-path="url(#e)" transform="matrix(.13333 0 0 -.13333 -581.2868 4339.8915)">
    <path fill="url(#f)" d="M30249.7 8007.1H27321l665.4 13670.2 1576.2-42.3c1.9.1 8.8.3 20 .3 87.5 0 434.2-14.8 662.1-233.1 137.6-131.9 207.9-316.9 209-548.6l-57.3-3900.8c-.5-34 26.7-62.1 60.8-62.6h1c33.6 0 61.1 27 61.6 60.8l57.3 3902c-1.2 267.6-84.3 482.4-247.1 638.3-256.3 245.6-626.4 267.7-738.7 267.7-14.4 0-24.6-.4-29.7-.7l-1569.2 42.1 11.9 245.1 1769.1-47.5c11.1.5 22.4.7 33.9.7 403.9 0 1031-277.2 1052.6-1012l-189-12558.4c0-231.6-189.5-421.2-421.2-421.2m-19002.3 0H7173.27c-231.64 0-421.16 189.6-421.16 421.2l-335.33 13367.9c-5.41 215.8 78.66 424.4 231.51 576.9 147.88 147.5 347.96 230.1 556.24 230.1 7.02 0 14.08-.1 21.12-.3l3319.35-89 702.4-14506.8"/>
  </g>
  <path fill="#91b3fa" d="M3474.9131 2420.6382h-.12c-4.5467-.067-8.1733-3.8-8.1067-8.36l1.9867-135.7866c.067-4.5067 3.7467-8.1067 8.2267-8.1067h.12c4.5466.067 8.1866 3.8 8.1066 8.3467l-1.9866 135.7999c-.067 4.4934-3.7334 8.1067-8.2267 8.1067m4.8933-332.7733h-.1333c-4.5467-.067-8.1733-3.8133-8.1067-8.3467l7.64-520.1066c-.1466-30.8934-9.52-55.56-27.8666-73.1467-34.2667-32.8267-88.6667-31.1467-90.9467-31.04l-960.9066-25.7733c-4.5467-.1067-8.1334-3.8934-8.0134-8.44.12-4.5467 3.6134-8.4134 8.4534-8l960.3333 25.7733c5.9733-.36 63.8933-1.36 102.4533 35.6 21.7067 20.7867 32.7867 49.4267 32.9467 85.1067l-7.64 520.2666c-.067 4.5067-3.7334 8.1067-8.2134 8.1067"/>
  <g clip-path="url(#g)" transform="matrix(.13333 0 0 -.13333 -581.2868 4339.8915)">
    <path fill="url(#h)" d="M4416.3 6408.5h28267.4c31.1 0 56.5 25.4 56.5 56.5v1102.5c0 31-25.4 56.5-56.5 56.5H4416.3c-31.09 0-56.54-25.5-56.54-56.5V6465c0-31.1 25.45-56.5 56.54-56.5"/>
  </g>
  <path fill="#91b3fa" d="m2822.2598 440.4249-1925.24-11.7866c-63.2666-.3867-113.88 52.4666-110.7466 115.6533l132.4533 2735.3066h2142.4266l118.96-2443.8533-357.8533-395.32"/>
  <path fill="#7d97f4" d="M2902.3131 824.0383c-62.72-2.2134-110.9333-56.2667-105.9867-118.8267l20.64-261.1867 363.52 390.12-278.1733-10.1066"/>
  <path fill="#bdd0fb" d="M1219.8198 2177.1982c266.8933-4.32 1291.3867-22 1550.08-26.4666 32.64-.56 59.4666 19.2133 59.2933 43.64-.16 23.2533-24.88 42.1733-55.9333 42.8133l-1549.12 32.0667c-29.84.6266-55.4933-15.88-59.1733-38.0667l-.9333-5.6c-4.2-25.3733 21.6666-47.84 55.7866-48.3867m-18.68 271.56c4.4934 5.7067 12.7334 9.2 21.5734 9.12l1063.6266-9.7733c13.36-.12 24.0933-8.2134 24.1733-18.2134l.3734-52.4666c.067-10.4267-11.44-18.8534-25.36-18.56l-1034.0533 21.6133c-46.0534.96-73.72 38.4933-50.3334 68.28m13.5467 203.0933c266.88-4.32 1291.3733-22 1550.0799-26.4666 32.6267-.56 59.4534 19.2 59.28 43.64-.16 23.2533-24.8666 42.16-55.9333 42.8133l-1549.1199 32.0667c-29.84.6266-55.48-15.88-59.1734-38.0667l-.92-5.6133c-4.2133-25.36 21.6534-47.8267 55.7867-48.3734m-18.68 271.5467c4.48 5.72 12.7333 9.2 21.5733 9.12l1063.6267-9.76c13.36-.12 24.0933-8.2133 24.16-18.2133l.3733-52.48c.067-10.4267-11.44-18.84-25.36-18.5467l-1034.0533 21.6133c-46.0533.96-73.72 38.48-50.32 68.2667"/>
  <path fill="#e9f0fe" d="M2309.4731 1630.2249h-.44l-600.44-8.0533c-10.3866-.1467-19.56-6.8667-22.6266-16.6267l-181.6134-580.3467-100.3599 2.3734h-.6667c-12.28 0-22.1333-8.1734-22.1333-20.52 0-12.5733 10.2-21.3333 22.8-21.6667l117.4399-3.08c.2134-.013.4267-.013.64-.013 9.9067 0 18.5867 6.0667 21.5334 15.4267l21.6133 68.6399 855.44-17.9333c.3067-.013.6-.013.9067-.013 9.0533 0 17.5333 2.9066 23 9.64 5.6533 6.9466 7.4266 15.72 4.8 24.2533l-101.1067 326.8933c-3.6667 11.88-15.2 20.4667-28.3067 20.4667h-.04l-640.5733-.9733 46.7733 150.68 582.92 6.28c14.0934.16 25.5334 9.28 25.5334 22.6 0 13.1866-11.2 21.9733-25.0934 21.9733m-510.5866 202.9333c-.8134 0-1.6267-.013-2.4534-.04-49.4-1.2933-89.3733-41.4133-89.3733-89.44 0-47.56 39.1867-85.72 87.92-85.72h1.4533c49.7067.7734 90.36 40.92 90.36 89.48 0 47.76-39.32 85.72-87.9066 85.72m-3.2534-128.4933c-22.72 0-41.0266 17.7867-41.0266 40 0 22.48 18.7333 41.2133 41.8266 41.7467.3467.013.68.013 1.0267.013 22.68 0 41.0133-17.7467 41.0133-40 0-22.6-18.88-41.32-42.04-41.7467-.2666-.013-.5333-.013-.8-.013m403.6934 139.0133c-.8667 0-1.7467-.013-2.64-.04-51.84-1.36-93.7867-42.4933-93.7867-91.6933 0-48.6933 41.0933-87.7733 92.2267-87.7733.52 0 1.04.013 1.56.013 52.1733.8133 94.8666 41.96 94.8666 91.7067 0 48.92-41.2533 87.7866-92.2266 87.7866m-3.4934-131.64c-23.84 0-43.04 18.2-43.04 40.96 0 23.0267 19.6667 42.2134 43.8934 42.7867.3733.013.7333.013 1.1066.013 23.8 0 43.0267-18.16 43.0267-40.96 0-23.1466-19.8267-42.3466-44.1333-42.8h-.8534"/>
  <path fill="#eaf1fe" d="M1954.6598 2048.0249c-405.04 0-734.5466-329.52-734.5466-734.5467 0-405.0399 329.5066-734.5599 734.5466-734.5599 405.0267 0 734.5467 329.52 734.5467 734.5599 0 405.0267-329.52 734.5467-734.5467 734.5467m0-1432.5466c-384.88 0-698 313.12-698 697.9999 0 384.88 313.12 698 698 698s698-313.12 698-698c0-384.8799-313.12-697.9999-698-697.9999"/>
  <g clip-path="url(#i)" transform="matrix(.13333 0 0 -.13333 -581.2868 4339.8915)">
    <path fill="url(#j)" d="M19091.8 22012.4c-85-5.6-164.2 34-208.2 104.7l-739.5 1187.5c-69.3 111.2-32 263.7 83.4 340.4 115.2 76.6 264.7 48.6 334-62.6l512.8-824.3 676.7 1378.2c60.7 123.7 206.6 180.4 325.8 126.8 119.1-53.7 166.5-197.3 105.9-320.9l-874.5-1782.5c-40-81.6-119.6-137.7-207.8-146.6-2.9-.3-5.7-.5-8.6-.7"/>
  </g>
  <g clip-path="url(#k)" transform="matrix(.13333 0 0 -.13333 -581.2868 4339.8915)">
    <path fill="url(#l)" d="M8720.3 17583.8c-46.11 0-84.16 36.6-85.58 83-.94 31.1-20.73 771.6 197.27 1562.4 293.65 1065 882.56 1696.3 1703.11 1825.4 402 63.4 760.3-31.6 1064.9-282 992.6-816.5 1087-3007.1 1090.6-3099.9 1.8-47.3-35.1-87.1-82.4-88.9-47.6-1.1-87 35.1-88.8 82.4-.9 21.9-95.1 2206.7-1028.4 2974.2-265.1 217.9-577.7 300.4-929.3 245-1823.73-287.1-1756.61-3184.1-1755.71-3213.4 1.44-47.3-35.74-86.8-83.03-88.2h-2.66"/>
  </g>
  <g clip-path="url(#m)" transform="matrix(.13333 0 0 -.13333 -581.2868 4339.8915)">
    <path fill="url(#n)" d="m5111.79 8204 1472.03 10151.1 5529.88 93L13896 7639.8H5590.62c-295.43 0-521.94 266.9-478.83 564.2"/>
  </g>
  <g clip-path="url(#o)" transform="matrix(.13333 0 0 -.13333 -581.2868 4339.8915)">
    <path fill="url(#p)" d="m13187.6 18355.1-1073.9 93L13896 7639.8h1066.2c216.2 0 377.7 202 333.7 417.3l-2108.3 10298"/>
  </g>
  <g clip-path="url(#q)" transform="matrix(.13333 0 0 -.13333 -581.2868 4339.8915)">
    <path fill="url(#r)" d="M11416.7 17607c-45.8 0-83.8 36.2-85.6 82.4-.8 22-95.1 2206.8-1028.4 2974.2-265 217.9-577.6 300.4-929.21 245-1822.32-286.8-1756.63-3184.1-1755.75-3213.3 1.41-47.3-35.75-86.8-83.04-88.2-47.8-2-86.77 35.7-88.23 83-.93 31.1-20.73 771.6 197.29 1562.3 293.63 1065.1 882.55 1696.3 1703.1 1825.5 402.07 63.3 760.34-31.6 1064.84-282.1 992.7-816.5 1087.1-3007 1090.6-3099.9 1.8-47.3-35-87-82.3-88.8-1.1-.1-2.2-.1-3.3-.1"/>
  </g>
  <g clip-path="url(#s)" transform="matrix(.13333 0 0 -.13333 -581.2868 4339.8915)">
    <path fill="url(#t)" d="M26172.3 5457.6c362.4-31.3 991.2-82.2 1487-104 298-13.1 469.6 16 568.4 55.6-.2-11.1-.5-21.7-.9-31.4-2.3-52.2-44.7-93.9-97.4-96.9-936.8-52.3-1681.9-18.1-1947.1-1.9-54.8 3.3-87.5 62.9-59.5 109.7 14.1 23.4 31 46.3 49.5 68.9"/>
  </g>
  <g clip-path="url(#u)" transform="matrix(.13333 0 0 -.13333 -581.2868 4339.8915)">
    <path fill="url(#v)" d="M27659.3 5353.6c-495.8 21.8-1124.6 72.7-1487 104 356.3 437.1 1487 731.7 1487 731.7h319.4c219.6-316.6 251.4-618.1 249-780.1-98.8-39.6-270.4-68.7-568.4-55.6"/>
  </g>
  <g clip-path="url(#w)" transform="matrix(.13333 0 0 -.13333 -581.2868 4339.8915)">
    <path fill="url(#x)" d="m28032.4 6710.6-29.9-591.4c-3.2-64-51.1-117.8-115.3-127-63.8-9.1-149.2-10.3-239.9 19.9-55.7 18.6-97.1 65.5-107.4 122.8l-103.2 575.7h595.7"/>
  </g>
  <g clip-path="url(#y)" transform="matrix(.13333 0 0 -.13333 -581.2868 4339.8915)">
    <path fill="url(#z)" d="M31739 4775.4c157.1 28.3 228.2 133.8 258.1 246.6.1-1 .3-2 .5-3 23.2-119-30.4-242.3-137.6-301-129.5-70.8-271.1-82.9-381-77.1-118 6.3-226.2 69.4-285.7 170.3l-.9 1.6c118.4-75.7 284.6-84.7 546.6-37.4"/>
  </g>
  <g clip-path="url(#A)" transform="matrix(.13333 0 0 -.13333 -581.2868 4339.8915)">
    <path fill="url(#B)" d="M30998.1 6528.4h263.4c401.2 10.6 653.1-1082.9 735.6-1506.4-29.9-112.8-101-218.3-258.1-246.6-262-47.3-428.2-38.3-546.6 37.4-216.7 368.6-324.2 908.4-375.8 1223.5-58.8 358.3 181.5 492.1 181.5 492.1"/>
  </g>
  <g clip-path="url(#C)" transform="matrix(.13333 0 0 -.13333 -581.2868 4339.8915)">
    <path fill="url(#D)" d="m31227.7 7077.4 146.2-581.7c17.9-71.3-16.2-145.1-82.1-178.9-81.8-42-197-86.1-302.9-73.4-49.8 6-91.1 41.1-107.6 88l-214.7 612 561.1 134"/>
  </g>
  <g clip-path="url(#E)" transform="matrix(.13333 0 0 -.13333 -581.2868 4339.8915)">
    <path fill="url(#F)" d="M26083.1 14738.2S27390 6568.9 27368.5 6524c0 0 360.9-164.1 754.4-21 0 0-118.1 4367.1-395.1 6041.6 0 0 2230.5-3903.3 2938.8-5848.3 0 0 369.4 44.1 675.2 245.3 0 0-2401.5 7025.8-3042.3 7961.6l-2216.4-165"/>
  </g>
  <g clip-path="url(#G)" transform="matrix(.13333 0 0 -.13333 -581.2868 4339.8915)">
    <path fill="url(#H)" d="M27675.7 12587.1c7 0 14 1.9 20.4 5.9 18.1 11.3 23.5 35.1 12.2 53.2l-488.3 780.1c-5.7 9-14.8 15.3-25.1 17.4l-359.5 72.3c-21 4.2-41.2-9.4-45.4-30.2-4.2-20.9 9.3-41.3 30.2-45.5l343.1-69 479.6-766c7.3-11.7 19.9-18.2 32.8-18.2"/>
  </g>
  <g clip-path="url(#I)" transform="matrix(.13333 0 0 -.13333 -581.2868 4339.8915)">
    <path fill="url(#J)" d="M20085.7 22737.8s881.9-194.5 1418.3-442.2c106.5-49.2 191.5-135.2 239.9-241.2 160.4-351.4 640.4-1232.6 1571.2-1653.1-134.1-177.9-349.9-548-443.9-1170-559.1 416.1-1041.7 1111-1273.4 2250.6 0 0-176.5-95.9-396.6 11-116.3 56.5-250.5 136.6-351.3 199.6-100.5 62.7-175.3 160.3-204.3 274.3-38.4 150.5-15.8 282.8-15.8 424.8l-453.3 140.5s-136.3 51.4-90.8 205.7"/>
  </g>
  <g clip-path="url(#K)" transform="matrix(.13333 0 0 -.13333 -581.2868 4339.8915)">
    <path fill="url(#L)" d="M22871.2 19231.3c94 622 309.8 992.1 443.9 1170 578.2-261.3 1330.4-344.8 2288.2-12.9 88.3 30.6 180.4 48.5 273.7 54 509.9 29.9 2190.2 84.5 3580.6-374.9 292.6-96.7 529.6-313 651.7-593.3 376.1-863.1 985-2828.7-705.4-3821.1-129.9 322.4-279.8 581.6-407.9 772.1 272.2 459.1 352.8 1086.3-130.3 1903-352.2-951.2-517.5-2339-552-2953.2-11.4-202.2 24.1-404.1 103.4-590.7l8.7-20.4c17-40-6.4-85.9-49.1-95.5-951.6-213.7-1941.4-155.7-2237.1-131.2-52.8 4.3-96.7 42.1-108.8 93.1-462.7 1949.9-463.8 3280-350.5 4120.8-432.9-96.8-1756.6-303.2-2809.1 480.2"/>
  </g>
  <g clip-path="url(#M)" transform="matrix(.13333 0 0 -.13333 -581.2868 4339.8915)">
    <path fill="url(#N)" d="M25678.4 18698.6c19.1 0 35.7 14.2 38.3 33.6 108.6 820.9 330 1179.2 332.1 1182.7 11.4 18 6.1 41.9-11.9 53.3-18 11.3-41.8 6-53.2-11.9-9.5-14.9-232.3-373.6-343.6-1214-2.8-21.1 12.1-40.5 33.2-43.3 1.8-.3 3.4-.4 5.1-.4"/>
  </g>
  <g clip-path="url(#O)" transform="matrix(.13333 0 0 -.13333 -581.2868 4339.8915)">
    <path fill="url(#P)" d="M28026.9 21578.3s96.3-1017.9 181.1-1319c12.8-45.7-7-93.9-48.5-117.6-143.9-82.2-488.9-216.3-960.9 15-76.5 37.5-122.4 117.2-118.9 201.6l41.6 983.6 905.6 236.4"/>
  </g>
  <g clip-path="url(#Q)" transform="matrix(.13333 0 0 -.13333 -581.2868 4339.8915)">
    <path fill="url(#R)" d="M27100.5 22880.5s-307.9-707.3-328.6-1078.6c-20.6-371.3-100.6-612.2 328.6-686.9 429.3-74.8 790.9 139.1 986.9 508.9 0 0 306.9 569.8 238.1 803.2-68.9 233.4-1225 453.4-1225 453.4"/>
  </g>
  <g clip-path="url(#S)" transform="matrix(.13333 0 0 -.13333 -581.2868 4339.8915)">
    <path fill="url(#T)" d="m27940.7 21889.8-24.5 10.7c-31.1 13.8-44.4 50.8-28.8 81 60.6 116.9 178.6 385 26.1 447.5-196.4 80.6-974.7 239.3-1142.6 515.4-161.4 265.4-18.4 608 196.5 705.4 14.4 6.6 31.4 1.4 38.7-12.6l17.9-33.9c12.3-23.2 46.6-19.6 53.9 5.6 6.9 24.2 39.1 28.8 52.5 7.5 51.6-82.6 190.9-216.6 563.6-285.3 529.5-97.8 879.7-312.1 888.4-678 .5-23.3 25.3-36.2 45.1-24.1 39.1 23.8 101.7 35 185.3-35.3 145.5-122.3 86-439.5-232.9-700.5-15.1-12.4-15-36 1.4-46.7 57.8-37.6 144-127.2-79.3-246.5-230.9-123.5-403.4-113.3-469.8-102.4-16.5 2.7-27.1 18.7-23.5 35.1l70.9 321.6c4 18.2-9.9 35.5-28.5 35.5h-110.4"/>
  </g>
  <g clip-path="url(#U)" transform="matrix(.13333 0 0 -.13333 -581.2868 4339.8915)">
    <path fill="url(#V)" d="M27927.3 21821.9s117.5 451.8 320.1 325.2c202.6-126.7-105.1-506.3-268-523.2l-52.1 198"/>
  </g>
  <g clip-path="url(#W)" transform="matrix(.13333 0 0 -.13333 -581.2868 4339.8915)">
    <path fill="url(#X)" d="M21362.6 21587c8.5 0 17.2 2.8 24.3 8.7 16.5 13.4 19 37.7 5.6 54.3-33.4 41-329.3 402.8-443.3 467.2-41.5 23.5-66.2 47.7-71.5 70-2.5 10.7-.8 22.7 5.2 36.3l347.7-69.7 197-169c16.1-13.9 40.6-12.1 54.4 4.1 13.9 16.2 12.1 40.6-4.1 54.5l-204.7 175.6c-5 4.3-11 7.2-17.5 8.6l-385 77.1c-15.4 3.1-30.9-3.4-39.6-16.3-28.2-41.8-37.5-80.8-28.5-118.9 10.6-45.1 46.1-84.2 108.6-119.5 85.8-48.4 333.3-340.4 421.4-448.8 7.6-9.3 18.8-14.2 30-14.2"/>
  </g>
  <g clip-path="url(#Y)" transform="matrix(.13333 0 0 -.13333 -581.2868 4339.8915)">
    <path fill="url(#Z)" d="m27942.3 15163.9-1361.1-16.8 476.4 448.4c118.4 111.4 299.1 129.5 435.8 40.8 80-51.9 166.8-122.3 242-215.6 0 0 849 310.2 1260.6 1004.5 128.1-190.5 278-449.7 407.9-772.1-368.9-216.6-847.2-386.9-1461.6-489.2"/>
  </g>
  <g clip-path="url(#aa)" transform="matrix(.13333 0 0 -.13333 -581.2868 4339.8915)">
    <path fill="url(#ab)" d="M27795.6 14988.4c-2.6-.2-5.2-.2-7.9-.2l-3454.9 3.7c-85.4.1-154.6 68.7-154.5 153.2.1 84.5 69.7 154.3 154.8 152.8l3454.9-3.7c85.4-.1 154.6-68.7 154.5-153.2-.1-81.8-65.2-148.6-146.9-152.6"/>
  </g>
  <g clip-path="url(#ac)" transform="matrix(.13333 0 0 -.13333 -581.2868 4339.8915)">
    <path fill="url(#ad)" d="M21227 18092.1h2877.2c212.3 0 405.5-121.2 496-311.2l1330.2-2790.7h-3575.7c-136.8 0-259.7 82.7-309.9 208.6l-1031.5 2582.4c-59.6 149.2 51.5 310.9 213.7 310.9"/>
  </g>
  <g clip-path="url(#ae)" transform="matrix(.13333 0 0 -.13333 -581.2868 4339.8915)">
    <path fill="url(#af)" d="M23254.1 16661.2c62.3-191.7 16.2-377.8-102.9-415.8-119.2-37.9-266.4 86.7-328.7 278.3-62.4 191.7-16.3 377.9 102.9 415.8 119.1 38 266.3-86.6 328.7-278.3"/>
  </g>
</svg>
