<svg xmlns="http://www.w3.org/2000/svg" xml:space="preserve" viewBox="0 0 3733.309 3730.027">
  <defs>
    <linearGradient id="b" x1="0" x2="1" y1="0" y2="0" gradientTransform="scale(-39243.7 39243.7) rotate(51.159 -.36 -1.005)" gradientUnits="userSpaceOnUse" spreadMethod="pad">
      <stop offset="0" stop-color="#dae3fe"/>
      <stop offset="1" stop-color="#e9effd"/>
    </linearGradient>
    <linearGradient id="d" x1="0" x2="1" y1="0" y2="0" gradientTransform="scale(-39243.7 39243.7) rotate(51.159 -.36 -1.005)" gradientUnits="userSpaceOnUse" spreadMethod="pad">
      <stop offset="0" stop-color="#c5d5fc"/>
      <stop offset="1" stop-color="#c9d9fc"/>
    </linearGradient>
    <linearGradient id="f" x1="0" x2="1" y1="0" y2="0" gradientTransform="matrix(12152.4 0 0 -12152.4 16630.8 17458.9)" gradientUnits="userSpaceOnUse" spreadMethod="pad">
      <stop offset="0" stop-color="#4042e2"/>
      <stop offset="1" stop-color="#4f52ff"/>
    </linearGradient>
    <linearGradient id="h" x1="0" x2="1" y1="0" y2="0" gradientTransform="matrix(2892.46 0 0 -2892.46 8343.89 14940.5)" gradientUnits="userSpaceOnUse" spreadMethod="pad">
      <stop offset="0" stop-color="#4042e2"/>
      <stop offset="1" stop-color="#4f52ff"/>
    </linearGradient>
    <linearGradient id="j" x1="0" x2="1" y1="0" y2="0" gradientTransform="matrix(2945.05 0 0 -2945.05 11324 14940.5)" gradientUnits="userSpaceOnUse" spreadMethod="pad">
      <stop offset="0" stop-color="#4042e2"/>
      <stop offset="1" stop-color="#4f52ff"/>
    </linearGradient>
    <linearGradient id="l" x1="0" x2="1" y1="0" y2="0" gradientTransform="scale(-6077.0151 6077.0151) rotate(89.363 -3.104 .885)" gradientUnits="userSpaceOnUse" spreadMethod="pad">
      <stop offset="0" stop-color="#4042e2"/>
      <stop offset="1" stop-color="#4f52ff"/>
    </linearGradient>
    <linearGradient id="n" x1="0" x2="1" y1="0" y2="0" gradientTransform="scale(-30682.3 30682.3) rotate(-29.745 1.7 1.852)" gradientUnits="userSpaceOnUse" spreadMethod="pad">
      <stop offset="0" stop-color="#ff928e"/>
      <stop offset="1" stop-color="#fe7062"/>
    </linearGradient>
    <linearGradient id="p" x1="0" x2="1" y1="0" y2="0" gradientTransform="scale(-30682.3 30682.3) rotate(-29.745 1.492 1.907)" gradientUnits="userSpaceOnUse" spreadMethod="pad">
      <stop offset="0" stop-color="#ff928e"/>
      <stop offset="1" stop-color="#fe7062"/>
    </linearGradient>
    <linearGradient id="r" x1="0" x2="1" y1="0" y2="0" gradientTransform="scale(-6077.025 6077.025) rotate(89.363 -2.611 1.372)" gradientUnits="userSpaceOnUse" spreadMethod="pad">
      <stop offset="0" stop-color="#4042e2"/>
      <stop offset="1" stop-color="#4f52ff"/>
    </linearGradient>
    <linearGradient id="t" x1="0" x2="1" y1="0" y2="0" gradientTransform="scale(-6077.0051 6077.0051) rotate(89.363 -4.24 -.238)" gradientUnits="userSpaceOnUse" spreadMethod="pad">
      <stop offset="0" stop-color="#4042e2"/>
      <stop offset="1" stop-color="#4f52ff"/>
    </linearGradient>
    <linearGradient id="v" x1="0" x2="1" y1="0" y2="0" gradientTransform="scale(-15394.76 15394.76) rotate(-73.17 .293 2.296)" gradientUnits="userSpaceOnUse" spreadMethod="pad">
      <stop offset="0" stop-color="#ff928e"/>
      <stop offset="1" stop-color="#fe7062"/>
    </linearGradient>
    <linearGradient id="x" x1="0" x2="1" y1="0" y2="0" gradientTransform="scale(-6076.9951 6076.9951) rotate(89.363 -3.682 .313)" gradientUnits="userSpaceOnUse" spreadMethod="pad">
      <stop offset="0" stop-color="#4042e2"/>
      <stop offset="1" stop-color="#4f52ff"/>
    </linearGradient>
    <linearGradient id="z" x1="0" x2="1" y1="0" y2="0" gradientTransform="scale(-11948.41 11948.41) rotate(-64.79 .874 2.816)" gradientUnits="userSpaceOnUse" spreadMethod="pad">
      <stop offset="0" stop-color="#ff928e"/>
      <stop offset="1" stop-color="#fe7062"/>
    </linearGradient>
    <linearGradient id="B" x1="0" x2="1" y1="0" y2="0" gradientTransform="scale(-17713.22 17713.22) rotate(-78.134 .922 1.214)" gradientUnits="userSpaceOnUse" spreadMethod="pad">
      <stop offset="0" stop-color="#4042e2"/>
      <stop offset="1" stop-color="#4f52ff"/>
    </linearGradient>
    <linearGradient id="D" x1="0" x2="1" y1="0" y2="0" gradientTransform="scale(-37732.9 37732.9) rotate(-18.482 2.06 2.363)" gradientUnits="userSpaceOnUse" spreadMethod="pad">
      <stop offset="0" stop-color="#ff928e"/>
      <stop offset="1" stop-color="#fe7062"/>
    </linearGradient>
    <linearGradient id="F" x1="0" x2="1" y1="0" y2="0" gradientTransform="scale(-17710.8 17710.8) rotate(-78.134 .7 1.395)" gradientUnits="userSpaceOnUse" spreadMethod="pad">
      <stop offset="0" stop-color="#4042e2"/>
      <stop offset="1" stop-color="#4f52ff"/>
    </linearGradient>
    <linearGradient id="H" x1="0" x2="1" y1="0" y2="0" gradientTransform="scale(-37733.5 37733.5) rotate(-18.482 1.867 2.395)" gradientUnits="userSpaceOnUse" spreadMethod="pad">
      <stop offset="0" stop-color="#ff928e"/>
      <stop offset="1" stop-color="#fe7062"/>
    </linearGradient>
    <linearGradient id="J" x1="0" x2="1" y1="0" y2="0" gradientTransform="scale(-15371.36 15371.36) rotate(-73.17 .191 2.331)" gradientUnits="userSpaceOnUse" spreadMethod="pad">
      <stop offset="0" stop-color="#ff928e"/>
      <stop offset="1" stop-color="#fe7062"/>
    </linearGradient>
    <linearGradient id="L" x1="0" x2="1" y1="0" y2="0" gradientTransform="scale(-17707.9 17707.9) rotate(-78.134 .188 1.81)" gradientUnits="userSpaceOnUse" spreadMethod="pad">
      <stop offset="0" stop-color="#4042e2"/>
      <stop offset="1" stop-color="#4f52ff"/>
    </linearGradient>
    <linearGradient id="N" x1="0" x2="1" y1="0" y2="0" gradientTransform="scale(-11921.12 11921.12) rotate(-64.79 .747 2.848)" gradientUnits="userSpaceOnUse" spreadMethod="pad">
      <stop offset="0" stop-color="#ff928e"/>
      <stop offset="1" stop-color="#fe7062"/>
    </linearGradient>
    <linearGradient id="P" x1="0" x2="1" y1="0" y2="0" gradientTransform="scale(-17707.9 17707.9) rotate(-78.134 .442 1.603)" gradientUnits="userSpaceOnUse" spreadMethod="pad">
      <stop offset="0" stop-color="#4042e2"/>
      <stop offset="1" stop-color="#4f52ff"/>
    </linearGradient>
    <linearGradient id="R" x1="0" x2="1" y1="0" y2="0" gradientTransform="matrix(27555 0 0 -27555 4995 24622.1)" gradientUnits="userSpaceOnUse" spreadMethod="pad">
      <stop offset="0" stop-color="#dae3fe"/>
      <stop offset="1" stop-color="#e9effd"/>
    </linearGradient>
    <linearGradient id="T" x1="0" x2="1" y1="0" y2="0" gradientTransform="scale(-6841.59 6841.59) rotate(-47.406 .025 2.57)" gradientUnits="userSpaceOnUse" spreadMethod="pad">
      <stop offset="0" stop-color="#09005d"/>
      <stop offset="1" stop-color="#1a0f91"/>
    </linearGradient>
    <linearGradient id="V" x1="0" x2="1" y1="0" y2="0" gradientTransform="matrix(411.294 0 0 -411.294 11389.9 5438)" gradientUnits="userSpaceOnUse" spreadMethod="pad">
      <stop offset="0" stop-color="#febbba"/>
      <stop offset="1" stop-color="#ff928e"/>
    </linearGradient>
    <linearGradient id="X" x1="0" x2="1" y1="0" y2="0" gradientTransform="scale(-13095.8 13095.8) rotate(-58.446 .366 1.45)" gradientUnits="userSpaceOnUse" spreadMethod="pad">
      <stop offset="0" stop-color="#09005d"/>
      <stop offset="1" stop-color="#1a0f91"/>
    </linearGradient>
    <linearGradient id="Z" x1="0" x2="1" y1="0" y2="0" gradientTransform="scale(-6841.58 6841.58) rotate(-47.406 .26 2.468)" gradientUnits="userSpaceOnUse" spreadMethod="pad">
      <stop offset="0" stop-color="#09005d"/>
      <stop offset="1" stop-color="#1a0f91"/>
    </linearGradient>
    <linearGradient id="ab" x1="0" x2="1" y1="0" y2="0" gradientTransform="matrix(355.11 0 0 -355.11 9907.63 5459.1)" gradientUnits="userSpaceOnUse" spreadMethod="pad">
      <stop offset="0" stop-color="#febbba"/>
      <stop offset="1" stop-color="#ff928e"/>
    </linearGradient>
    <linearGradient id="ad" x1="0" x2="1" y1="0" y2="0" gradientTransform="scale(-13095.69 13095.69) rotate(-58.446 .43 1.414)" gradientUnits="userSpaceOnUse" spreadMethod="pad">
      <stop offset="0" stop-color="#09005d"/>
      <stop offset="1" stop-color="#1a0f91"/>
    </linearGradient>
    <linearGradient id="af" x1="0" x2="1" y1="0" y2="0" gradientTransform="scale(-2062.63 2062.63) rotate(-48.991 7.18 14.067)" gradientUnits="userSpaceOnUse" spreadMethod="pad">
      <stop offset="0" stop-color="#ff928e"/>
      <stop offset="1" stop-color="#fe7062"/>
    </linearGradient>
    <linearGradient id="ah" x1="0" x2="1" y1="0" y2="0" gradientTransform="scale(975.484 -975.484) rotate(8.604 115.34 58.754)" gradientUnits="userSpaceOnUse" spreadMethod="pad">
      <stop offset="0" stop-color="#febbba"/>
      <stop offset="1" stop-color="#ff928e"/>
    </linearGradient>
    <linearGradient id="aj" x1="0" x2="1" y1="0" y2="0" gradientTransform="scale(-1353.977 1353.977) rotate(47.79 -17.805 -2.997)" gradientUnits="userSpaceOnUse" spreadMethod="pad">
      <stop offset="0" stop-color="#febbba"/>
      <stop offset="1" stop-color="#ff928e"/>
    </linearGradient>
    <linearGradient id="al" x1="0" x2="1" y1="0" y2="0" gradientTransform="scale(1902.94 -1902.94) rotate(54.713 11.881 .052)" gradientUnits="userSpaceOnUse" spreadMethod="pad">
      <stop offset="0" stop-color="#09005d"/>
      <stop offset="1" stop-color="#1a0f91"/>
    </linearGradient>
    <linearGradient id="an" x1="0" x2="1" y1="0" y2="0" gradientTransform="scale(-1218.2 1218.2) rotate(47.79 -19.485 -3.06)" gradientUnits="userSpaceOnUse" spreadMethod="pad">
      <stop offset="0" stop-color="#febbba"/>
      <stop offset="1" stop-color="#ff928e"/>
    </linearGradient>
    <linearGradient id="ap" x1="0" x2="1" y1="0" y2="0" gradientTransform="rotate(91.377 -31.289 13859.12) scale(1885.2944)" gradientUnits="userSpaceOnUse" spreadMethod="pad">
      <stop offset="0" stop-color="#febbba"/>
      <stop offset="1" stop-color="#ff928e"/>
    </linearGradient>
    <linearGradient id="ar" x1="0" x2="1" y1="0" y2="0" gradientTransform="scale(-4915.06 4915.06) rotate(-51.71 2.658 7.322)" gradientUnits="userSpaceOnUse" spreadMethod="pad">
      <stop offset="0" stop-color="#ff928e"/>
      <stop offset="1" stop-color="#fe7062"/>
    </linearGradient>
    <linearGradient id="at" x1="0" x2="1" y1="0" y2="0" gradientTransform="rotate(-59.199 53873.085 53438.454) scale(1024.214)" gradientUnits="userSpaceOnUse" spreadMethod="pad">
      <stop offset="0" stop-color="#ff928e"/>
      <stop offset="1" stop-color="#fe7062"/>
    </linearGradient>
    <linearGradient id="av" x1="0" x2="1" y1="0" y2="0" gradientTransform="scale(-2062.64 2062.64) rotate(-48.991 6.805 14.237)" gradientUnits="userSpaceOnUse" spreadMethod="pad">
      <stop offset="0" stop-color="#ff928e"/>
      <stop offset="1" stop-color="#fe7062"/>
    </linearGradient>
    <linearGradient id="ax" x1="0" x2="1" y1="0" y2="0" gradientTransform="rotate(91.377 -1038.356 10241.336) scale(2398.7327)" gradientUnits="userSpaceOnUse" spreadMethod="pad">
      <stop offset="0" stop-color="#febbba"/>
      <stop offset="1" stop-color="#ff928e"/>
    </linearGradient>
    <linearGradient id="az" x1="0" x2="1" y1="0" y2="0" gradientTransform="scale(-2062.63 2062.63) rotate(-48.991 8.017 13.686)" gradientUnits="userSpaceOnUse" spreadMethod="pad">
      <stop offset="0" stop-color="#ff928e"/>
      <stop offset="1" stop-color="#fe7062"/>
    </linearGradient>
    <linearGradient id="aB" x1="0" x2="1" y1="0" y2="0" gradientTransform="rotate(-54.549 25326.981 -18013.26) scale(2962.22)" gradientUnits="userSpaceOnUse" spreadMethod="pad">
      <stop offset="0" stop-color="#e1473d"/>
      <stop offset="1" stop-color="#e9605a"/>
    </linearGradient>
    <linearGradient id="aD" x1="0" x2="1" y1="0" y2="0" gradientTransform="rotate(-86.987 19723.725 -6938.197) scale(3672.947)" gradientUnits="userSpaceOnUse" spreadMethod="pad">
      <stop offset="0" stop-color="#ff928e"/>
      <stop offset="1" stop-color="#fe7062"/>
    </linearGradient>
    <linearGradient id="aF" x1="0" x2="1" y1="0" y2="0" gradientTransform="rotate(-80.473 18023.557 -10438.035) scale(4323.089)" gradientUnits="userSpaceOnUse" spreadMethod="pad">
      <stop offset="0" stop-color="#ff928e"/>
      <stop offset="1" stop-color="#fe7062"/>
    </linearGradient>
    <linearGradient id="aH" x1="0" x2="1" y1="0" y2="0" gradientTransform="rotate(-80.473 15766.87 -8543.975) scale(4323.089)" gradientUnits="userSpaceOnUse" spreadMethod="pad">
      <stop offset="0" stop-color="#ff928e"/>
      <stop offset="1" stop-color="#fe7062"/>
    </linearGradient>
    <linearGradient id="aJ" x1="0" x2="1" y1="0" y2="0" gradientTransform="scale(-7225.63 7225.63) rotate(-45 .05 5.234)" gradientUnits="userSpaceOnUse" spreadMethod="pad">
      <stop offset="0" stop-color="#ff928e"/>
      <stop offset="1" stop-color="#fe7062"/>
    </linearGradient>
    <linearGradient id="aL" x1="0" x2="1" y1="0" y2="0" gradientTransform="rotate(27.329 -6355.153 58286.753) scale(687.936)" gradientUnits="userSpaceOnUse" spreadMethod="pad">
      <stop offset="0" stop-color="#2b3582"/>
      <stop offset=".65" stop-color="#150e42"/>
      <stop offset="1" stop-color="#150e42"/>
    </linearGradient>
    <linearGradient id="aN" x1="0" x2="1" y1="0" y2="0" gradientTransform="matrix(0 -2842.26 -2842.26 0 22786.6 17927.7)" gradientUnits="userSpaceOnUse" spreadMethod="pad">
      <stop offset="0" stop-color="#e1473d"/>
      <stop offset="1" stop-color="#e9605a"/>
    </linearGradient>
    <linearGradient id="aP" x1="0" x2="1" y1="0" y2="0" gradientTransform="rotate(-54.549 24957.766 -17821.695) scale(2962.23)" gradientUnits="userSpaceOnUse" spreadMethod="pad">
      <stop offset="0" stop-color="#e1473d"/>
      <stop offset="1" stop-color="#e9605a"/>
    </linearGradient>
    <linearGradient id="aR" x1="0" x2="1" y1="0" y2="0" gradientTransform="scale(-2429.22 2429.22) rotate(-75.48 -1.643 9.464)" gradientUnits="userSpaceOnUse" spreadMethod="pad">
      <stop offset="0" stop-color="#ff928e"/>
      <stop offset="1" stop-color="#fe7062"/>
    </linearGradient>
    <linearGradient id="aT" x1="0" x2="1" y1="0" y2="0" gradientTransform="rotate(-93.439 15767.333 -2765.784) scale(12551.2)" gradientUnits="userSpaceOnUse" spreadMethod="pad">
      <stop offset="0" stop-color="#ff928e"/>
      <stop offset="1" stop-color="#fe7062"/>
    </linearGradient>
    <linearGradient id="aV" x1="0" x2="1" y1="0" y2="0" gradientTransform="scale(-7225.63 7225.63) rotate(-45 .05 5.234)" gradientUnits="userSpaceOnUse" spreadMethod="pad">
      <stop offset="0" stop-color="#ffe3e2"/>
      <stop offset="1" stop-color="#ffdad6"/>
    </linearGradient>
    <linearGradient id="aX" x1="0" x2="1" y1="0" y2="0" gradientTransform="scale(-7225.63 7225.63) rotate(-45 .05 5.234)" gradientUnits="userSpaceOnUse" spreadMethod="pad">
      <stop offset="0" stop-color="#ffe3e2"/>
      <stop offset="1" stop-color="#ffdad6"/>
    </linearGradient>
    <linearGradient id="aZ" x1="0" x2="1" y1="0" y2="0" gradientTransform="scale(2723.75 -2723.75) rotate(-49.254 -3.654 -9.049)" gradientUnits="userSpaceOnUse" spreadMethod="pad">
      <stop offset="0" stop-color="#ff928e"/>
      <stop offset="1" stop-color="#fe7062"/>
    </linearGradient>
    <linearGradient id="bb" x1="0" x2="1" y1="0" y2="0" gradientTransform="scale(-10034.101 10034.101) rotate(-86.52 .311 2.017)" gradientUnits="userSpaceOnUse" spreadMethod="pad">
      <stop offset="0" stop-color="#ff928e"/>
      <stop offset="1" stop-color="#fe7062"/>
    </linearGradient>
    <linearGradient id="bd" x1="0" x2="1" y1="0" y2="0" gradientTransform="scale(-10034.101 10034.101) rotate(-86.52 .311 2.017)" gradientUnits="userSpaceOnUse" spreadMethod="pad">
      <stop offset="0" stop-color="#ffdedd"/>
      <stop offset="1" stop-color="#ffd4d0"/>
    </linearGradient>
    <linearGradient id="bf" x1="0" x2="1" y1="0" y2="0" gradientTransform="scale(-10034.101 10034.101) rotate(-86.52 .311 2.017)" gradientUnits="userSpaceOnUse" spreadMethod="pad">
      <stop offset="0" stop-color="#ffe7e6"/>
      <stop offset="1" stop-color="#ffe0dd"/>
    </linearGradient>
    <linearGradient id="bh" x1="0" x2="1" y1="0" y2="0" gradientTransform="scale(-1696.633 1696.633) rotate(-80.82 1.927 12.048)" gradientUnits="userSpaceOnUse" spreadMethod="pad">
      <stop offset="0" stop-color="#ff928e"/>
      <stop offset="1" stop-color="#fe7062"/>
    </linearGradient>
    <linearGradient id="bj" x1="0" x2="1" y1="0" y2="0" gradientTransform="scale(4741.58 -4741.58) rotate(-49.254 -1.846 -5.758)" gradientUnits="userSpaceOnUse" spreadMethod="pad">
      <stop offset="0" stop-color="#ff928e"/>
      <stop offset="1" stop-color="#fe7062"/>
    </linearGradient>
    <linearGradient id="bl" x1="0" x2="1" y1="0" y2="0" gradientTransform="scale(-12406.06 12406.06) rotate(-83.108 .194 1.894)" gradientUnits="userSpaceOnUse" spreadMethod="pad">
      <stop offset="0" stop-color="#ff928e"/>
      <stop offset="1" stop-color="#fe7062"/>
    </linearGradient>
    <linearGradient id="bn" x1="0" x2="1" y1="0" y2="0" gradientTransform="scale(-12406.06 12406.06) rotate(-83.108 .194 1.894)" gradientUnits="userSpaceOnUse" spreadMethod="pad">
      <stop offset="0" stop-color="#ffdedd"/>
      <stop offset="1" stop-color="#ffd4d0"/>
    </linearGradient>
    <linearGradient id="bp" x1="0" x2="1" y1="0" y2="0" gradientTransform="scale(-12406.06 12406.06) rotate(-83.108 .194 1.894)" gradientUnits="userSpaceOnUse" spreadMethod="pad">
      <stop offset="0" stop-color="#ffe7e6"/>
      <stop offset="1" stop-color="#ffe0dd"/>
    </linearGradient>
    <linearGradient id="br" x1="0" x2="1" y1="0" y2="0" gradientTransform="scale(-1294.88 1294.88) rotate(-72.512 3.382 20.059)" gradientUnits="userSpaceOnUse" spreadMethod="pad">
      <stop offset="0" stop-color="#ff928e"/>
      <stop offset="1" stop-color="#fe7062"/>
    </linearGradient>
    <linearGradient id="bt" x1="0" x2="1" y1="0" y2="0" gradientTransform="scale(-1390.692 1390.692) rotate(-53.409 4.728 25.891)" gradientUnits="userSpaceOnUse" spreadMethod="pad">
      <stop offset="0" stop-color="#ff928e"/>
      <stop offset="1" stop-color="#fe7062"/>
    </linearGradient>
    <linearGradient id="bv" x1="0" x2="1" y1="0" y2="0" gradientTransform="scale(-14629.983 14629.983) rotate(-87.614 -.12 1.428)" gradientUnits="userSpaceOnUse" spreadMethod="pad">
      <stop offset="0" stop-color="#ff928e"/>
      <stop offset="1" stop-color="#fe7062"/>
    </linearGradient>
    <linearGradient id="bx" x1="0" x2="1" y1="0" y2="0" gradientTransform="scale(-14629.983 14629.983) rotate(-87.614 -.12 1.428)" gradientUnits="userSpaceOnUse" spreadMethod="pad">
      <stop offset="0" stop-color="#ffdedd"/>
      <stop offset="1" stop-color="#ffd4d0"/>
    </linearGradient>
    <linearGradient id="bz" x1="0" x2="1" y1="0" y2="0" gradientTransform="scale(-14629.983 14629.983) rotate(-87.614 -.12 1.428)" gradientUnits="userSpaceOnUse" spreadMethod="pad">
      <stop offset="0" stop-color="#ffe7e6"/>
      <stop offset="1" stop-color="#ffe0dd"/>
    </linearGradient>
    <linearGradient id="bB" x1="0" x2="1" y1="0" y2="0" gradientTransform="scale(-2980.675 2980.675) rotate(-87.397 -.82 6.794)" gradientUnits="userSpaceOnUse" spreadMethod="pad">
      <stop offset="0" stop-color="#ff928e"/>
      <stop offset="1" stop-color="#fe7062"/>
    </linearGradient>
    <linearGradient id="bD" x1="0" x2="1" y1="0" y2="0" gradientTransform="scale(3574.83 -3574.83) rotate(-49.254 -1.38 -9.147)" gradientUnits="userSpaceOnUse" spreadMethod="pad">
      <stop offset="0" stop-color="#ff928e"/>
      <stop offset="1" stop-color="#fe7062"/>
    </linearGradient>
    <linearGradient id="bF" x1="0" x2="1" y1="0" y2="0" gradientTransform="scale(-9905.44 9905.44) rotate(-82.147 -.072 2.578)" gradientUnits="userSpaceOnUse" spreadMethod="pad">
      <stop offset="0" stop-color="#ff928e"/>
      <stop offset="1" stop-color="#fe7062"/>
    </linearGradient>
    <linearGradient id="bH" x1="0" x2="1" y1="0" y2="0" gradientTransform="scale(-9905.44 9905.44) rotate(-82.147 -.072 2.578)" gradientUnits="userSpaceOnUse" spreadMethod="pad">
      <stop offset="0" stop-color="#ffdedd"/>
      <stop offset="1" stop-color="#ffd4d0"/>
    </linearGradient>
    <linearGradient id="bJ" x1="0" x2="1" y1="0" y2="0" gradientTransform="scale(-9905.44 9905.44) rotate(-82.147 -.072 2.578)" gradientUnits="userSpaceOnUse" spreadMethod="pad">
      <stop offset="0" stop-color="#ffe7e6"/>
      <stop offset="1" stop-color="#ffe0dd"/>
    </linearGradient>
    <linearGradient id="bL" x1="0" x2="1" y1="0" y2="0" gradientTransform="scale(-1954.403 1954.403) rotate(-78.009 -.288 13.361)" gradientUnits="userSpaceOnUse" spreadMethod="pad">
      <stop offset="0" stop-color="#ff928e"/>
      <stop offset="1" stop-color="#fe7062"/>
    </linearGradient>
    <linearGradient id="bN" x1="0" x2="1" y1="0" y2="0" gradientTransform="scale(7613.023 -7613.023) rotate(-83.037 .25 -1.998)" gradientUnits="userSpaceOnUse" spreadMethod="pad">
      <stop offset="0" stop-color="#ff928e"/>
      <stop offset="1" stop-color="#fe7062"/>
    </linearGradient>
    <linearGradient id="bP" x1="0" x2="1" y1="0" y2="0" gradientTransform="scale(7613.003 -7613.003) rotate(-83.037 .379 -2.112)" gradientUnits="userSpaceOnUse" spreadMethod="pad">
      <stop offset="0" stop-color="#ff928e"/>
      <stop offset="1" stop-color="#fe7062"/>
    </linearGradient>
    <linearGradient id="bR" x1="0" x2="1" y1="0" y2="0" gradientTransform="scale(7613.003 -7613.003) rotate(-83.037 .495 -2.214)" gradientUnits="userSpaceOnUse" spreadMethod="pad">
      <stop offset="0" stop-color="#ff928e"/>
      <stop offset="1" stop-color="#fe7062"/>
    </linearGradient>
    <linearGradient id="bT" x1="0" x2="1" y1="0" y2="0" gradientTransform="scale(7613.013 -7613.013) rotate(-83.037 .606 -2.313)" gradientUnits="userSpaceOnUse" spreadMethod="pad">
      <stop offset="0" stop-color="#ff928e"/>
      <stop offset="1" stop-color="#fe7062"/>
    </linearGradient>
    <clipPath id="a" clipPathUnits="userSpaceOnUse">
      <path d="M19046 4562.4c-1682.5 0-2967.8 232.3-3480.4 335-1859.1 372.8-5452.7 1093.4-8050.75 4109.9-255.26 296.4-491.63 604.2-709.15 921.3h13002.4c-211.3-382.4-327.9-801.9-327.9-1242.1 0-1194 858.6-2236.8 2135.8-2796.2v-852.9c0-49.5 40.4-89.9 89.9-89.9h686.1c49.5 0 89.9 40.4 89.9 89.9v565.1c405.2-95.8 836.1-147.4 1283.1-147.4 304.6 0 601.9 24 888.5 69.6-2012.3-748.2-3992.7-962.3-5607.5-962.3m8230.9 2272.3c210.5 226.6 383.3 474.4 511.8 738.5h520.5c4.8 0 9.7 0 14.5.2-204.7-157.6-396.3-293.3-569.2-415.8-158.3-112.1-317.7-219.8-477.6-322.9M28685.6 7866c7.7 30.5 11.8 62.5 11.8 95.4v733.9c1.9 1.3 3.9 2.5 5.9 3.8 187.4 120.5 396.4 205.1 614.5 250.5 206.5 43 413.6 121.4 612.9 232.4-203.2-265.5-417-515.3-641.5-748.7-206.6-214.7-409.1-401.7-603.6-567.3M5911.79 11498.5c-1270.7 2730-1430.25 5931.1-766.37 8911.1 197.08-637.3 449.06-1267.5 766.37-1885.5v-7025.6m26310.51 3146.9c-27.6 24-56.9 46.3-87.9 66.7-143 94.3-307.5 139-479.6 139-160.8 0-328.3-39.1-491.1-113.2v9524c1355.2-3040.9 1634.1-6531.5 1058.6-9616.5m-2449.4 12038.9h-18916c-323 668.3-665.6 1329.2-1027.5 1973.3 1559 1447.9 3832 2911.9 6906.9 3308.7 594.2 76.7 1205.2 115.5 1824 115.5 3154.3 0 6525.1-1006 9082.3-3121.2 820.3-678.4 1528.3-1445.3 2130.3-2276.3"/>
    </clipPath>
    <clipPath id="c" clipPathUnits="userSpaceOnUse">
      <path d="M5911.79 18524.1c-317.31 618-569.29 1248.2-766.37 1885.5 190.18 853.7 447.78 1688.7 766.37 2489.8v-4375.3m4945.11 8160.2H8053.4c430.6 571.4 1019.09 1270.4 1776 1973.3 361.9-644.1 704.5-1305 1027.5-1973.3"/>
    </clipPath>
    <clipPath id="e" clipPathUnits="userSpaceOnUse">
      <path d="M24584.4 13545.1h-74.5c34.5 67.6 65.9 137.2 93.9 208.4-5.5-47.9-10.3-96-14.4-144.4-1.8-21.4-3.5-42.7-5-64m-4306.9 0h-3373.1c-151.1 0-273.6 122.5-273.6 273.7v3121.3c125.8-39.7 259.8-61.1 398.8-61.1 732 0 1325.4 593.4 1325.4 1325.5 0 732-593.4 1325.4-1325.4 1325.4-139 0-273-21.4-398.8-61v1630.2c0 151.1 122.5 273.6 273.6 273.6h2232.1c-397.3-414.5-641.4-976.9-641.4-1596.4 0-1274.3 1033-2307.4 2307.3-2307.4 1274.3 0 2307.4 1033.1 2307.4 2307.4 0 619.5-244.2 1181.9-641.5 1596.4h6041.2c151.1 0 273.6-122.5 273.6-273.6v-44.9c-18.2 2.3-36.6 4.2-55 5.8-40 3.4-79.8 5.1-119.4 5.1-901.6 0-1700.3-868.1-1884.5-2035.3-318.1 348.2-775.9 566.6-1284.7 566.6-960.7 0-1739.5-778.8-1739.5-1739.5 0-960.8 778.8-1739.6 1739.5-1739.6 45.5 0 90.7 1.7 135.3 5.2-353.8-426.4-634-955.4-807.4-1551.5.4 17.2.5 34.4.5 51.7 0 1311.2-1062.9 2374.2-2374.2 2374.2-1311.2 0-2374.2-1063-2374.2-2374.2 0-387.9 93.1-754.2 258-1077.6"/>
    </clipPath>
    <clipPath id="g" clipPathUnits="userSpaceOnUse">
      <path d="M11236.4 19410.7H8882.86c-286.67 0-538.97-209.4-538.97-471.7v-8468.6h2892.51z"/>
    </clipPath>
    <clipPath id="i" clipPathUnits="userSpaceOnUse">
      <path d="M13685.1 19428.2H11324v-8975.4h2945.1v8447.9c0 280-258.9 527.5-584 527.5z"/>
    </clipPath>
    <clipPath id="k" clipPathUnits="userSpaceOnUse">
      <path d="M10765 24491.3c171.2 1456.7 638.5 3537.5 1805.5 4995.3H15724c-810.6-1390.5-1060.7-3521.3-1130.9-5007z"/>
    </clipPath>
    <clipPath id="m" clipPathUnits="userSpaceOnUse">
      <path d="M7327.32 24501.9c250.18 1381.4 852.3 3504.6 2278.07 4984.7h2965.11c-1167-1457.8-1634.3-3538.6-1805.5-4995.3Z"/>
    </clipPath>
    <clipPath id="o" clipPathUnits="userSpaceOnUse">
      <path d="M14593.1 24479.6c70.2 1485.7 320.3 3616.5 1130.9 5007h2483.4v-5018.1z"/>
    </clipPath>
    <clipPath id="q" clipPathUnits="userSpaceOnUse">
      <path d="M5045.9 24508.8s-337.47 3121.7 2868.52 4977.8h1690.97c-1425.77-1480.1-2027.89-3603.3-2278.07-4984.7Z"/>
    </clipPath>
    <clipPath id="s" clipPathUnits="userSpaceOnUse">
      <path d="M26077 24444.3c-166.6 1458.6-631.3 3568.7-1810.9 5042.3h2965.1c1449.3-1504.5 2047.7-3673.9 2290.3-5052.8z"/>
    </clipPath>
    <clipPath id="u" clipPathUnits="userSpaceOnUse">
      <path d="M29521.5 24433.8c-242.6 1378.9-841 3548.3-2290.3 5052.8h1775.3s3543.5-1518.7 3543.5-5062.1z"/>
    </clipPath>
    <clipPath id="w" clipPathUnits="userSpaceOnUse">
      <path d="M18207.4 24468.5v5018.1h2905.2c814.8-1397.8 1063.4-3543.8 1132.1-5030.5z"/>
    </clipPath>
    <clipPath id="y" clipPathUnits="userSpaceOnUse">
      <path d="M22244.7 24456.1c-68.7 1486.7-317.3 3632.7-1132.1 5030.5h3153.5c1179.6-1473.6 1644.3-3583.7 1810.9-5042.3Z"/>
    </clipPath>
    <clipPath id="A" clipPathUnits="userSpaceOnUse">
      <path d="M5066.39 24503.1s-167.5-1047.9 1005.03-1047.9 1423.78 1135.2 1423.78 1135.2z"/>
    </clipPath>
    <clipPath id="C" clipPathUnits="userSpaceOnUse">
      <path d="M10929 24590.4H7495.2s332.69-1135.2 1842.55-1135.2c1005.05 0 1507.55 349.3 1591.25 1135.2z"/>
    </clipPath>
    <clipPath id="E" clipPathUnits="userSpaceOnUse">
      <path d="M14739.8 24590.4H10929s334.5-1309.8 2010.1-1309.8c1115.3 0 1707.7 523.9 1800.7 1309.8z"/>
    </clipPath>
    <clipPath id="G" clipPathUnits="userSpaceOnUse">
      <path d="M18341.1 24590.4h-3643.2s319.8-1309.8 1921.7-1309.8c1066.3 0 1632.6 523.9 1721.5 1309.8z"/>
    </clipPath>
    <clipPath id="I" clipPathUnits="userSpaceOnUse">
      <path d="M32537.7 24503.1s207.3-1047.9-1243.4-1047.9c-1450.6 0-1761.4 1135.2-1761.4 1135.2z"/>
    </clipPath>
    <clipPath id="K" clipPathUnits="userSpaceOnUse">
      <path d="M26121.8 24590.4h3433.8s-332.7-1135.2-1842.6-1135.2c-1005 0-1507.5 349.3-1591.2 1135.2z"/>
    </clipPath>
    <clipPath id="M" clipPathUnits="userSpaceOnUse">
      <path d="M22277.4 24590.4H26130s-338.1-1309.8-2032.1-1309.8c-1127.6 0-1726.5 523.9-1820.5 1309.8z"/>
    </clipPath>
    <clipPath id="O" clipPathUnits="userSpaceOnUse">
      <path d="M18341.1 24590.4h4095.6s-359.5-1309.8-2160.3-1309.8c-1198.7 0-1835.4 523.9-1935.3 1309.8z"/>
    </clipPath>
    <clipPath id="Q" clipPathUnits="userSpaceOnUse">
      <path d="M32292.8 24522.8H5045.12l-48.15 142.1c-18.73 29.9 98.14 56.3 249.21 56.4l26990.12.2c106.6-.2 201.7-13.4 239.1-33.4l58-30.8c63-33.6-61.2-69.4-240.6-134.5z"/>
    </clipPath>
    <clipPath id="S" clipPathUnits="userSpaceOnUse">
      <path d="M11429.2 5436.9s-47.9-271.5-71.5-540.2c-9.1-105 71.8-196.2 177.2-200.6 357.8-14.9 1123.3-43.9 1398-31.6 41.3 1.8 68.3 44.1 53 82.5-12.8 32.2-37.5 58.2-69 72.6l-1264.4 581.2z"/>
    </clipPath>
    <clipPath id="U" clipPathUnits="userSpaceOnUse">
      <path d="m11389.9 5596.4 38.6-324.7s221.5-103.1 372.7 13l-91.7 361.9z"/>
    </clipPath>
    <clipPath id="W" clipPathUnits="userSpaceOnUse">
      <path d="M11418.9 11701.2c-16.7-84.8-89.3-4231.6 353.9-6090 7.3-30.3-8.1-61.5-37-73.3-68-27.8-201.2-68-361-73.4-49.4-1.6-93.8 30.5-107.8 78-126.7 431.1-733.8 2591.4-813 4655-88.5 2305.9 0 78.5 0 78.5l51.9 1425.4z"/>
    </clipPath>
    <clipPath id="Y" clipPathUnits="userSpaceOnUse">
      <path d="M9974.67 5295.3s-76.33-137.1-150.24-501.2c-13.33-65.8 32.62-128.8 99.4-135.3 118.17-11.6 300.07-26.6 445.77-25.6 67.2.5 119.6 59 111.5 125.7-16.1 132.9-66.4 351-221.7 520.9z"/>
    </clipPath>
    <clipPath id="aa" clipPathUnits="userSpaceOnUse">
      <path d="m9907.63 5712.9 90.03-491s89.04-66.2 265.04-18.2l-42.9 528.3z"/>
    </clipPath>
    <clipPath id="ac" clipPathUnits="userSpaceOnUse">
      <path d="M9664.43 11573.9c-362.53-2187.9 78.64-5407.5 227.43-6037.7 9.12-38.6 40.25-68.1 79.36-74.6 66.38-11 175.78-20 283.58 11.3 37.1 10.8 63.2 44.3 64.7 82.9 20 509.5-16 3637.2 321.8 4873.2 17.2 62.7 55.4 117.3 108.3 154.9l655.7 466.1 50.3 753.4z"/>
    </clipPath>
    <clipPath id="ae" clipPathUnits="userSpaceOnUse">
      <path d="M11801.2 15641.5s-1665.4 415.1-2830.16-201.8l693.39-3865.8s1103.17-88.9 1791.17 129.9z"/>
    </clipPath>
    <clipPath id="ag" clipPathUnits="userSpaceOnUse">
      <path d="m9933.37 16799.7-127.44-1097c-8.13-15.5-4.15-34.6 9.75-45.3 85.37-65.6 398.52-265.3 841.82-70 46.2 20.3 81.5 59.5 95.4 108l-180.4 950.8z"/>
    </clipPath>
    <clipPath id="ai" clipPathUnits="userSpaceOnUse">
      <path d="M10955.6 17371.6s162.3-792.7 34.1-1055.8c-128.3-263.2-573.7-110.4-901.5 230.6l-57.4 821.2z"/>
    </clipPath>
    <clipPath id="ak" clipPathUnits="userSpaceOnUse">
      <path d="M10212.6 16904.7c18.1 2.4 29.8 20.3 24.5 37.8-16 53.1-43.9 160.1-37.9 244.9 0 0-53.1 61.2 195.3 48.4 248.4-12.8 619.9-28.6 750.8 147.6 127.7 171.7 84 710.9-327 412.5-15.6-11.3-37.9-5.1-44.8 12.9-30.1 77.8-119.4 247.2-320.8 219.8-188.5-25.7-243.2-142.1-259-204.3-4.7-18.3-25-27.6-41.8-19-79.4 40.9-277.3 114.2-432.6-65.3-127.92-147.8-105.9-259.2-73.86-320 10.39-19.7-3.56-43-25.83-43.2-60.3-.7-145.54-26.5-176.56-158.2-42.89-182.1 162.07-225.3 221.51-234 9.74-1.4 18.2-7.4 22.48-16.2 32.96-68.5 185.6-363.2 415.86-461.1 20-8.5 42 7.2 41 28.8l-14.8 330.4c-.7 15.3 10.4 28.6 25.7 30.6z"/>
    </clipPath>
    <clipPath id="am" clipPathUnits="userSpaceOnUse">
      <path d="M10241.6 16849.9s-206.9 254.3-269.96 110.1c-63.07-144.3 169.56-285.8 311.06-266.8z"/>
    </clipPath>
    <clipPath id="ao" clipPathUnits="userSpaceOnUse">
      <path d="M12670.3 14881.9s628.2-292 1362.8 487.5c502.2 532.7 809.3 206.1 906.4-8.9 97.1-215.1-135.1-197.2-216.1-197.2s-91.1 234-233.9 202.1c-142.8-31.8-100.8 10.8-109.7-132.5-9-143.4-776.7-1762.2-1726.4-973.7z"/>
    </clipPath>
    <clipPath id="aq" clipPathUnits="userSpaceOnUse">
      <path d="m15541.3 14776.7-1660.1 104.6c-151.4 9.6-284.1-100-303.5-250.4l-371.8-2887.1c-22.1-172.1 111.9-324.6 285.5-324.6h2166.1c164.4 0 295.4 137.5 287.4 301.7l-134.3 2782.5c-7 146.4-123 264.1-269.3 273.3z"/>
    </clipPath>
    <clipPath id="as" clipPathUnits="userSpaceOnUse">
      <path d="M15296.5 14483.4c28.7 0 52.5 22.6 53.7 51.5 1.6 37.1 30.8 909.1-583 1005.1-131.3 20.4-247.8-10.4-346.3-91.8-298.8-246.9-324-882.3-324.9-909.2-1.1-29.7 22.2-54.5 51.8-55.6 29.5-.4 54.6 22.2 55.6 51.9.2 6.1 24.5 614.1 286.1 830.1 74.7 61.8 160.2 84 261.1 68.3 520-81.2 492.5-886.2 492.2-894.3-1.2-29.7 21.8-54.7 51.5-56z"/>
    </clipPath>
    <clipPath id="au" clipPathUnits="userSpaceOnUse">
      <path d="m11801.2 15641.5 1013.5-759.6s17.9-569.1-116.5-838.2l-1128.9 277.5z"/>
    </clipPath>
    <clipPath id="aw" clipPathUnits="userSpaceOnUse">
      <path d="M8666.43 13317.7s113.56-1451.7 1069.2-1514.3c0 0 409.57 37.6 587.37-102 177.8-139.7 91.7-354.8 91.7-354.8l-771.05 94s-1102.66-183.6-1765.66 1662.1z"/>
    </clipPath>
    <clipPath id="ay" clipPathUnits="userSpaceOnUse">
      <path d="M8971.04 15439.7s-1308.08-778.1-1093.05-2337c0 0 467.29-202.6 807.05 68.9 0 0 264.76 1012.9 839.83 1063.3z"/>
    </clipPath>
    <clipPath id="aA" clipPathUnits="userSpaceOnUse">
      <path d="M26278.6 11068.3c-584.3 678-436.1 1124.2-160.2 1530l269-1378.5z"/>
    </clipPath>
    <clipPath id="aC" clipPathUnits="userSpaceOnUse">
      <path d="M26278.6 11068.3c-262.3 510-315.6 1020-160.2 1530-577.2-196.1-939.2-539.4-973.3-1107z"/>
    </clipPath>
    <clipPath id="aE" clipPathUnits="userSpaceOnUse">
      <path d="M26230.8 5069.7h-686.1c-49.5 0-89.9 40.4-89.9 89.9v556.5c309 100.1 599.5 227 865.9 376.5v-933c0-49.5-40.5-89.9-89.9-89.9"/>
    </clipPath>
    <clipPath id="aG" clipPathUnits="userSpaceOnUse">
      <path d="M22392 4947.5h-686.1c-49.5 0-89.9 40.4-89.9 89.9v852.9c271.1-118.7 561.3-215.8 865.9-287.8v-565.1c0-49.5-40.4-89.9-89.9-89.9"/>
    </clipPath>
    <clipPath id="aI" clipPathUnits="userSpaceOnUse">
      <path d="M23765 5455.1c-447 0-877.9 51.6-1283.1 147.4-304.6 72-594.8 169.1-865.9 287.8-1277.2 559.4-2135.8 1602.2-2135.8 2796.2 0 440.2 116.6 859.7 327.9 1242.1 508.4 920 1564.7 1624.8 2861.3 1882.7 349.8 69.6 716.9 106.6 1095.6 106.6 344.7 0 680-30.7 1001.1-88.6 799.8-144.4 1512.4-457.9 2067.7-887.6 24.5-19 48.7-38.1 72.6-57.5 214.8-174.6 404.4-367.3 564.3-574.4 211.8-274.4 371.5-574.3 469-892.3 4.3-13.9 8.4-27.8 12.5-41.8 17.7-61.5 33.1-123.7 46.1-186.4h310.9c214.4 0 388.2-173.8 388.2-388.2v-839.7c0-32.9-4.1-64.9-11.8-95.4-41.4-163.8-186.9-286.1-361.9-292.6-4.8-.2-9.7-.2-14.5-.2h-520.5c-128.5-264.1-301.3-511.9-511.8-738.5-264.1-284.3-587.3-535-956.2-742.1-266.4-149.5-556.9-276.4-865.9-376.5-255.3-82.7-523.3-147.2-801.3-191.4-286.6-45.6-583.9-69.6-888.5-69.6M21368.1 6527c-11.3 0-22.2-6.1-27.9-16.8-8.3-15.4-2.4-34.5 13-42.8 774.4-413.8 1739.2-646.4 2669.6-646.4 50.2 0 100.5.7 150.6 2.1 1020.7 27.9 1893.7 330.7 2458 852.6 12.8 11.8 13.6 31.8 1.7 44.7-6.3 6.7-14.7 10.1-23.2 10.1-7.7 0-15.4-2.7-21.5-8.4-553.1-511.5-1411.3-808.3-2416.7-835.8-49.5-1.3-98.9-2-148.5-2-920.9 0-1874.6 229.9-2640.2 639-4.8 2.5-9.8 3.7-14.9 3.7m-1507.2 1451.2c-4.8 0-9.7-1.1-14.3-3.5-15.6-7.8-21.8-26.9-13.9-42.5 193.7-382 481.4-728 855.2-1028.4 5.9-4.7 12.9-7 19.8-7 9.3 0 18.5 4 24.7 11.8 11 13.6 8.8 33.5-4.8 44.5-366.8 294.7-648.9 633.8-838.5 1007.7-5.5 11-16.6 17.4-28.2 17.4"/>
    </clipPath>
    <clipPath id="aK" clipPathUnits="userSpaceOnUse">
      <path d="M26081.7 9541.4c0-108.8 88.1-196.9 196.9-196.9 108.7 0 196.9 88.1 196.9 196.9 0 108.7-88.2 196.9-196.9 196.9-108.8 0-196.9-88.2-196.9-196.9z"/>
    </clipPath>
    <clipPath id="aM" clipPathUnits="userSpaceOnUse">
      <path d="M21808.4 11342c796.5 258.2 1251.4 333.7 1969.7 326.2 23.2-.3 42.6 17.9 43.6 41.1 1 24.3-18.4 44.6-42.6 44.8-729.7 7.6-1192.5-68.8-1997.7-329.4-24.1-7.8-36.4-34.7-26.3-58l.4-.9c8.8-20.4 31.8-30.6 52.9-23.8z"/>
    </clipPath>
    <clipPath id="aO" clipPathUnits="userSpaceOnUse">
      <path d="M25545.9 11211.1c-789 915.6-588.9 1518.2-216.2 2066.1l363.1-1861.5z"/>
    </clipPath>
    <clipPath id="aQ" clipPathUnits="userSpaceOnUse">
      <path d="M25545.9 11211.1c-354.1 688.7-426.2 1377.4-216.2 2066.1-779.5-264.9-1268.4-728.4-1314.4-1494.8z"/>
    </clipPath>
    <clipPath id="aS" clipPathUnits="userSpaceOnUse">
      <path d="M19952.3 9175.6s-1.6 13.6-4.7 39.2c-.7 6.4-1.6 13.5-2.5 21.4-2.1 11.4-4.4 23.9-6.9 37.4-2.8 13.5-5.8 27.9-9 43.4-3.5 15.1-8.4 28.2-13 43.6-18.1 60.4-50 130.9-98.9 202.8-48.8 71.8-116.3 144.5-203.9 203.9-87.1 59.5-194.5 105.4-312.9 124.1-29.6 4-59.8 6.9-90.2 8.4l-45.9-.3-23.1-.4c1.2.1-15.7-.8-9.1-.5l-1.2-.1-2.3-.3-4.6-.5-9.2-1.1-18.5-2.2c-6.5-.8-11.1-1-21.5-3.1-18.2-3.2-36.4-6.9-54.6-10.9-33.2-9.5-64.5-18.7-95.4-33.1-61.7-27-120.2-63.6-170.7-110-50.4-46.4-93.6-101.2-126.7-161.9-32.9-60.8-56.8-127.2-67-195.9-4.6-34.4-8.2-68.9-6.9-103.4l.3-25.8.4-7.7.2-1.3.3-2.6.6-5.1 1.2-10.2 2.6-21 5.6-29.9c2.1-9.6 4-20.4 6.7-28.9l8.1-25.9c5-17.3 12.7-33.6 19.8-50.1 6.6-16.7 16.5-31.8 24.9-47.6 8.9-15.4 19.7-29.7 29.7-44.3 42.6-56.8 97.3-103.1 157.9-136.3 60.7-33.3 127.8-53 194.5-58.3 16.6-2 33.3-1.5 49.8-1.4l12.4.2h3.1l1.5.1c-.5-.1 10.4.5 6.4.3l4.8.6 19.6 2.3c5.1.4 16.6 2.6 25.6 4.3 9.3 2 19.2 3.8 27.7 6.1 16.2 5.4 32.8 9.5 48.1 16.7 125.8 51.3 212.3 164.7 235.8 282.1 3.1 14.7 5.8 29.3 6.7 44.1.6 7.3 1.5 14.6 1.8 21.8l-.1 21.7-.2 10.8v2.7l-.3 6.6-.5 4.3-2 16.8c-1.9 12.7-5.4 32.7-9.5 46-7.9 28.2-20.2 54.2-34.3 78.3-15.1 23.4-31.6 45.3-51.2 63.4-76.3 74.8-182.5 97.7-261.5 84.4-93.8-16-150.9-72-181.5-125.2a240.58 240.58 0 0 1-28.2-76.5c-4.8-23.3-4.8-43.4-4.3-59.5.7-16.8 3.3-29.7 5.3-38.2 2.1-8.5 3.5-12.8 3.5-12.8 8.6-25.8 36.5-39.8 62.3-31.2 23.5 7.8 37.2 31.6 33 55.2l-.3 1.9s-.4 2.3-1.2 6.8c-.6 4.5-1.4 11.1-.9 20.1 1 18.9 5.3 47.7 25.3 76.2 9.8 14.2 23.3 28.1 40.6 38.9 8.8 5.1 18 10.2 28.4 13.4 9.9 3.9 22.3 5.4 29.7 6.4 2 .5 7.8.4 11.6.6l6.4.3 3.2.1c-6.2-.4-1.4-.2-2.6-.2l.6-.1 1.2-.1c6.4-.8 12.9-.7 19.4-1.9 12.9-2.2 26-5.1 38.6-10.4 25.3-10 49.8-25.9 68.7-48.4 10.1-10.7 17.6-23.7 24.7-36.7 6.2-13.6 11.6-27.7 14.3-42.8 1.2-4 .9-6.5 1.3-9.5l.7-4.3.3-2.2.2-4 .6-16.9.2-4.3c-.4 7.6-.2 1.6-.3 3.1l-.1-.8-.1-1.6-.6-6.3-.9-12.8c-.5-4.2-1.6-8.4-2.3-12.6-1.1-8.5-3.5-16.8-6-25-19.2-65.9-74.3-124-142.6-144.5-8.2-3.4-17.3-4.1-25.8-6.5-4-.7-7-.6-10.5-1.2-3.9-.4-5-1.3-13-1.3l-19.7-.7-4.9-.2c-4.9-.3 5.2.3 3.9.3h-.9l-1.9.2-7.3.7c-9.8.8-19.6 1-29.1 3.4-38.5 6.5-75.3 21.1-107.7 42.7-32.3 21.6-60.3 49.9-80.5 82.7-4.3 8.6-9.8 16.5-13.7 25.3-3.3 8.9-8.5 17-10.8 26.3-2.8 9.1-6.6 17.8-8 27.2l-3.1 13.8c-1.2 4.6-.7 7.6-1.4 11.4-.4 3.5-.9 7.1-1.6 10.6l-.8 20-.3 10.3-.2 5.1-.1 2.6-.1 1.3c-.1 1.8.6-11 .4-5.1l1.3 15.3c.8 20.4 5.2 40.3 9.2 59.8 9.1 39.1 26.5 75.3 47.9 107.7 21.6 32.3 48.3 60.5 77.9 83.4 29.7 23.1 63.1 39.3 96.7 50.7 16.3 6.3 34.8 9.2 50.3 12.7 6.7.4 13.2 1.2 19.7 2.3 1.8.8 9.8.8 15.7 1.1l18.6.6 9.3.4 4.6.1 2.3.1h1.1c7.4.4-8.7-.4-6.7-.4l13.7-1.2c9.1-.7 18.1-1.4 27-2.1 17.8-2.6 35.1-5.9 52-9.4 67.1-17.1 125-48.4 170.6-85.8 45.8-37.4 79.1-80.7 101.8-121.5 22.6-41 36.4-79.4 42.5-111.8 1.5-7.8 4.2-16.3 4.7-22.1.4-5.7.9-10.9 1.6-15.8.8-4.9 1.5-9.4 2.1-13.5.3-7.9.6-15.1.8-21.5.9-25.8 1.4-39.5 1.4-39.5 3.8-106.6 93.3-190 200-186.2 106.6 3.8 190 93.3 186.2 200-.2 5.2-.7 10.7-1.2 15.8z"/>
    </clipPath>
    <clipPath id="aU" clipPathUnits="userSpaceOnUse">
      <path d="M20707.7 6896.8c-6.9 0-13.9 2.3-19.8 7-373.8 300.4-661.5 646.4-855.2 1028.4-7.9 15.6-1.7 34.7 13.9 42.5 4.6 2.4 9.5 3.5 14.3 3.5 11.6 0 22.7-6.4 28.2-17.4 189.6-373.9 471.7-713 838.5-1007.7 13.6-11 15.8-30.9 4.8-44.5-6.2-7.8-15.4-11.8-24.7-11.8"/>
    </clipPath>
    <clipPath id="aW" clipPathUnits="userSpaceOnUse">
      <path d="M24022.8 5821c-930.4 0-1895.2 232.6-2669.6 646.4-15.4 8.3-21.3 27.4-13 42.8a31.58 31.58 0 0 0 27.9 16.8c5.1 0 10.1-1.2 14.9-3.7 765.6-409.1 1719.3-639 2640.2-639 49.6 0 99 .7 148.5 2 1005.4 27.5 1863.6 324.3 2416.7 835.8 6.1 5.7 13.8 8.4 21.5 8.4 8.5 0 16.9-3.4 23.2-10.1 11.9-12.9 11.1-32.9-1.7-44.7-564.3-521.9-1437.3-824.7-2458-852.6-50.1-1.4-100.4-2.1-150.6-2.1"/>
    </clipPath>
    <clipPath id="aY" clipPathUnits="userSpaceOnUse">
      <path d="M17029.6 16879c-139 0-273 21.4-398.8 61.1-64.5 20.3-126.9 45.4-186.7 74.9-438.4 216.2-740 667.6-740 1189.5 0 521.8 301.6 973.2 740 1189.4 59.8 29.5 122.2 54.6 186.7 75 125.8 39.6 259.8 61 398.8 61 732 0 1325.4-593.4 1325.4-1325.4 0-732.1-593.4-1325.5-1325.4-1325.5m0 2606.8c-707.7 0-1281.4-573.7-1281.4-1281.3 0-707.7 573.7-1281.4 1281.4-1281.4 707.6 0 1281.3 573.7 1281.3 1281.4 0 707.6-573.7 1281.3-1281.3 1281.3"/>
    </clipPath>
    <clipPath id="ba" clipPathUnits="userSpaceOnUse">
      <path d="M17029.6 16923.1c-707.7 0-1281.4 573.7-1281.4 1281.4 0 707.6 573.7 1281.3 1281.4 1281.3 707.6 0 1281.3-573.7 1281.3-1281.3 0-707.7-573.7-1281.4-1281.3-1281.4m27.9 2338c-599 0-1084.5-485.6-1084.5-1084.6 0-598.9 485.5-1084.5 1084.5-1084.5 598.9 0 1084.5 485.6 1084.5 1084.5 0 599-485.6 1084.6-1084.5 1084.6m-27.9 180c-469.6 0-892.9-260.6-1104.7-680.1-13.4-26.5-2.7-58.9 23.8-72.3 7.8-4 16.1-5.8 24.2-5.8 19.7 0 38.6 10.8 48.1 29.6 193.4 383 579.8 621 1008.6 621 68.5 0 137-6.2 203.7-18.3 3.4-.7 6.7-1 10-1 25.4 0 47.9 18.4 52.6 44.2 5.3 29.3-14.1 57.3-43.3 62.6-73 13.4-148.1 20.1-223 20.1"/>
    </clipPath>
    <clipPath id="bc" clipPathUnits="userSpaceOnUse">
      <path d="M15972.9 18682.9c-8.1 0-16.4 1.8-24.2 5.8-26.5 13.4-37.2 45.8-23.8 72.3 211.8 419.5 635.1 680.1 1104.7 680.1 74.9 0 150-6.7 223-20.1 29.2-5.3 48.6-33.3 43.3-62.6-4.7-25.8-27.2-44.2-52.6-44.2-3.3 0-6.6.3-10 1-66.7 12.1-135.2 18.3-203.7 18.3-428.8 0-815.2-238-1008.6-621-9.5-18.8-28.4-29.6-48.1-29.6"/>
    </clipPath>
    <clipPath id="be" clipPathUnits="userSpaceOnUse">
      <path d="M17057.5 17092c-599 0-1084.5 485.6-1084.5 1084.5 0 599 485.5 1084.6 1084.5 1084.6 598.9 0 1084.5-485.6 1084.5-1084.6 0-598.9-485.6-1084.5-1084.5-1084.5"/>
    </clipPath>
    <clipPath id="bg" clipPathUnits="userSpaceOnUse">
      <path d="M16951.1 17370.3v118c-123 4.9-244.7 33.9-331.1 71.8-30.9 13.5-46.6 48.1-37.7 80.6l29.9 109.9c11 40.3 54.9 61.2 93.4 45 85.7-35.9 191.6-64.3 305.7-64.3 118.5 0 206.8 40.1 206.8 122.5 0 74.2-68.3 118.4-232.9 162.6-234.9 64.2-403.6 166.7-403.6 373.5 0 186.7 136.5 329.3 373.5 367.4v118c0 38 30.8 68.8 68.7 68.8h69.3c38 0 68.8-30.8 68.8-68.8v-105.9c113.8-4.6 196.7-24 262.4-47.1 33.7-11.9 52.1-48.1 42.8-82.6l-27.6-101.7c-10.6-39.2-52.5-60.6-90.5-46.3-60.5 22.9-146.1 46.8-257.4 46.8-140.5 0-180.7-58.3-180.7-110.5 0-64.2 84.3-108.4 267.1-164.6 261-78.3 369.4-186.8 369.4-381.5 0-178.7-132.5-339.4-389.5-379.5v-132.1c0-38-30.8-68.7-68.8-68.7h-69.3c-38 0-68.7 30.7-68.7 68.7z"/>
    </clipPath>
    <clipPath id="bi" clipPathUnits="userSpaceOnUse">
      <path d="M20802.4 17468.9c-1274.3 0-2307.3 1033.1-2307.3 2307.4 0 619.5 244.1 1181.9 641.4 1596.4 72 75.1 149 145.3 230.4 210.1 394 313.5 892.9 500.8 1435.5 500.8 542.7 0 1041.6-187.3 1435.6-500.8 81.4-64.8 158.4-135 230.3-210.1 397.3-414.5 641.5-976.9 641.5-1596.4 0-1274.3-1033.1-2307.4-2307.4-2307.4m0 4538c-1231.9 0-2230.6-998.7-2230.6-2230.6 0-1232 998.7-2230.7 2230.6-2230.7 1232 0 2230.6 998.7 2230.6 2230.7 0 1231.9-998.6 2230.6-2230.6 2230.6"/>
    </clipPath>
    <clipPath id="bk" clipPathUnits="userSpaceOnUse">
      <path d="M20802.4 17545.6c-1231.9 0-2230.6 998.7-2230.6 2230.7 0 1231.9 998.7 2230.6 2230.6 2230.6 1232 0 2230.6-998.7 2230.6-2230.6 0-1232-998.6-2230.7-2230.6-2230.7m48.6 4070c-1042.7 0-1887.9-845.2-1887.9-1887.9s845.2-1888 1887.9-1888 1888 845.3 1888 1888-845.3 1887.9-1888 1887.9m-48.6 273.6c-802.3 0-1525.5-445.3-1887.4-1162.1-13.4-26.5-2.7-58.8 23.8-72.2 7.8-4 16.1-5.8 24.2-5.8 19.7 0 38.7 10.8 48.1 29.6 343.4 680.3 1029.8 1102.9 1791.3 1102.9 121.6 0 243.3-11 361.9-32.6 3.4-.7 6.9-1 10.3-1 25.3 0 47.6 18.5 52.2 44.3 5.4 29.3-14 57.3-43.3 62.6-124.8 22.7-253 34.3-381.1 34.3"/>
    </clipPath>
    <clipPath id="bm" clipPathUnits="userSpaceOnUse">
      <path d="M18963 20649.1c-8.1 0-16.4 1.8-24.2 5.8-26.5 13.4-37.2 45.7-23.8 72.2 361.9 716.8 1085.1 1162.1 1887.4 1162.1 128.1 0 256.3-11.6 381.1-34.3 29.3-5.3 48.7-33.3 43.3-62.6-4.6-25.8-26.9-44.3-52.2-44.3-3.4 0-6.9.3-10.3 1-118.6 21.6-240.3 32.6-361.9 32.6-761.5 0-1447.9-422.6-1791.3-1102.9-9.4-18.8-28.4-29.6-48.1-29.6"/>
    </clipPath>
    <clipPath id="bo" clipPathUnits="userSpaceOnUse">
      <path d="M20851 17839.7c-1042.7 0-1887.9 845.3-1887.9 1888s845.2 1887.9 1887.9 1887.9 1888-845.2 1888-1887.9-845.3-1888-1888-1888"/>
    </clipPath>
    <clipPath id="bq" clipPathUnits="userSpaceOnUse">
      <path d="M20665.8 18324.1v205.4c-214.2 8.6-426 59.1-576.4 125-53.7 23.5-81.1 83.8-65.6 140.4l52.1 191.3c19.2 70.2 95.5 106.5 162.6 78.3 149.2-62.5 333.5-112 532.1-112 206.3 0 360.1 69.9 360.1 213.2 0 129.4-118.9 206.3-405.5 283.2-409 111.8-702.6 290.1-702.6 650.1 0 325.1 237.7 573.3 650.2 639.7v205.5c0 66 53.5 119.6 119.6 119.6h120.7c66.1 0 119.7-53.6 119.7-119.6v-184.5c198.1-7.9 342.4-41.8 456.8-82 58.7-20.6 90.7-83.8 74.4-143.8l-48-176.9c-18.5-68.3-91.4-105.6-157.5-80.6-105.4 39.8-254.4 81.3-448.1 81.3-244.6 0-314.5-101.3-314.5-192.2 0-111.9 146.8-188.8 464.9-286.7 454.4-136.3 643.1-325.1 643.1-664.1 0-311.1-230.7-590.8-678.1-660.7v-229.9c0-66.1-53.6-119.6-119.7-119.6h-120.7c-66.1 0-119.6 53.5-119.6 119.6z"/>
    </clipPath>
    <clipPath id="bs" clipPathUnits="userSpaceOnUse">
      <path d="M22393.7 12248.5c-847.7 0-1591.6 444.2-2011.7 1112.6-37.4 59.6-72.3 121-104.5 184-164.9 323.4-258 689.7-258 1077.6 0 1311.2 1063 2374.2 2374.2 2374.2 1311.3 0 2374.2-1063 2374.2-2374.2 0-17.3-.1-34.5-.5-51.7-6.2-288.1-63.6-563.5-163.6-817.5-28-71.2-59.4-140.8-93.9-208.4-32.2-63-67-124.4-104.5-184-420.1-668.4-1164-1112.6-2011.7-1112.6m0 4669.5c-1267.6 0-2295.3-1027.7-2295.3-2295.3 0-1267.7 1027.7-2295.3 2295.3-2295.3 1267.7 0 2295.3 1027.6 2295.3 2295.3 0 1267.6-1027.6 2295.3-2295.3 2295.3"/>
    </clipPath>
    <clipPath id="bu" clipPathUnits="userSpaceOnUse">
      <path d="M22393.7 12327.4c-1267.6 0-2295.3 1027.6-2295.3 2295.3 0 1267.6 1027.7 2295.3 2295.3 2295.3 1267.7 0 2295.3-1027.7 2295.3-2295.3 0-1267.7-1027.6-2295.3-2295.3-2295.3m50 4188c-1072.9 0-1942.7-869.8-1942.7-1942.7s869.8-1942.7 1942.7-1942.7 1942.7 869.8 1942.7 1942.7-869.8 1942.7-1942.7 1942.7m-50 279.9c-825 0-1568.7-457.8-1940.7-1194.9-13.4-26.5-2.8-58.9 23.8-72.3 7.8-3.9 16.1-5.8 24.2-5.8 19.7 0 38.6 10.9 48.1 29.6 353.6 700.6 1060.4 1135.8 1844.6 1135.8 125 0 250.4-11.3 372.6-33.5 3.4-.7 6.8-1 10.2-1 25.3 0 47.7 18.5 52.4 44.3 5.3 29.2-14.1 57.2-43.3 62.6-128.6 23.3-260.5 35.2-391.9 35.2"/>
    </clipPath>
    <clipPath id="bw" clipPathUnits="userSpaceOnUse">
      <path d="M20501 15522.3c-8.1 0-16.4 1.9-24.2 5.8-26.6 13.4-37.2 45.8-23.8 72.3 372 737.1 1115.7 1194.9 1940.7 1194.9 131.4 0 263.3-11.9 391.9-35.2 29.2-5.4 48.6-33.4 43.3-62.6-4.7-25.8-27.1-44.3-52.4-44.3-3.4 0-6.8.3-10.2 1-122.2 22.2-247.6 33.5-372.6 33.5-784.2 0-1491-435.2-1844.6-1135.8-9.5-18.7-28.4-29.6-48.1-29.6"/>
    </clipPath>
    <clipPath id="by" clipPathUnits="userSpaceOnUse">
      <path d="M22443.7 12630c-1072.9 0-1942.7 869.8-1942.7 1942.7s869.8 1942.7 1942.7 1942.7 1942.7-869.8 1942.7-1942.7-869.8-1942.7-1942.7-1942.7"/>
    </clipPath>
    <clipPath id="bA" clipPathUnits="userSpaceOnUse">
      <path d="M22253.1 13128.5v211.3c-220.3 8.8-438.3 60.8-593.1 128.6-55.2 24.2-83.4 86.2-67.5 144.4l53.7 196.9c19.7 72.2 98.2 109.6 167.2 80.6 153.6-64.3 343.2-115.3 547.6-115.3 212.2 0 370.5 72 370.5 219.5 0 133-122.3 212.2-417.3 291.3-420.8 115.1-722.9 298.5-722.9 669 0 334.5 244.6 589.9 669 658.2v211.4c0 68 55.1 123.2 123.1 123.2h124.2c68 0 123.2-55.2 123.2-123.2v-189.8c203.8-8.1 352.2-43 470-84.4 60.4-21.2 93.3-86.2 76.6-147.9l-49.4-182.1c-19-70.2-94.1-108.6-162.1-82.9-108.4 41-261.7 83.7-461 83.7-251.8 0-323.7-104.3-323.7-197.8 0-115.1 151-194.3 478.3-295 467.6-140.3 661.9-334.5 661.9-683.4 0-320.1-237.4-607.9-697.8-679.8v-236.5c0-68-55.2-123.2-123.2-123.2h-124.2c-68 0-123.1 55.2-123.1 123.2z"/>
    </clipPath>
    <clipPath id="bC" clipPathUnits="userSpaceOnUse">
      <path d="M25439.5 16117.3c-960.7 0-1739.5 778.8-1739.5 1739.6 0 960.7 778.8 1739.5 1739.5 1739.5 508.8 0 966.6-218.4 1284.7-566.6 282.6-309.3 454.9-721 454.9-1172.9 0-915.3-706.8-1665.4-1604.3-1734.4-44.6-3.5-89.8-5.2-135.3-5.2m0 3421.3c-928.8 0-1681.7-752.9-1681.7-1681.7 0-928.8 752.9-1681.8 1681.7-1681.8 928.8 0 1681.8 753 1681.8 1681.8s-753 1681.7-1681.8 1681.7"/>
    </clipPath>
    <clipPath id="bE" clipPathUnits="userSpaceOnUse">
      <path d="M25439.5 16175.1c-928.8 0-1681.7 753-1681.7 1681.8s752.9 1681.7 1681.7 1681.7c928.8 0 1681.8-752.9 1681.8-1681.7 0-928.8-753-1681.8-1681.8-1681.8m36.7 3068.5c-786.1 0-1423.4-637.3-1423.4-1423.4 0-786.1 637.3-1423.4 1423.4-1423.4 786.1 0 1423.4 637.3 1423.4 1423.4 0 786.1-637.3 1423.4-1423.4 1423.4m-36.7 219.5c-609.9 0-1159.7-338.5-1434.7-883.4-13.4-26.5-2.8-58.9 23.7-72.3 7.8-3.9 16.1-5.8 24.2-5.8 19.7 0 38.7 10.9 48.1 29.6 256.7 508.4 769.6 824.3 1338.7 824.3 90.8 0 181.8-8.2 270.5-24.4 3.3-.6 6.7-.9 10-.9 25.3 0 47.8 18.3 52.6 44.2 5.3 29.3-14.1 57.3-43.4 62.6-95 17.4-192.5 26.1-289.7 26.1"/>
    </clipPath>
    <clipPath id="bG" clipPathUnits="userSpaceOnUse">
      <path d="M24052.7 18501.6c-8.1 0-16.4 1.9-24.2 5.8-26.5 13.4-37.1 45.8-23.7 72.3 275 544.9 824.8 883.4 1434.7 883.4 97.2 0 194.7-8.7 289.7-26.1 29.3-5.3 48.7-33.3 43.4-62.6-4.8-25.9-27.3-44.2-52.6-44.2-3.3 0-6.7.3-10 .9-88.7 16.2-179.7 24.4-270.5 24.4-569.1 0-1082-315.9-1338.7-824.3-9.4-18.7-28.4-29.6-48.1-29.6"/>
    </clipPath>
    <clipPath id="bI" clipPathUnits="userSpaceOnUse">
      <path d="M25476.2 16396.8c-786.1 0-1423.4 637.3-1423.4 1423.4 0 786.1 637.3 1423.4 1423.4 1423.4 786.1 0 1423.4-637.3 1423.4-1423.4 0-786.1-637.3-1423.4-1423.4-1423.4"/>
    </clipPath>
    <clipPath id="bK" clipPathUnits="userSpaceOnUse">
      <path d="M25336.5 16762.1v154.8c-161.4 6.5-321.1 44.6-434.5 94.2-40.5 17.7-61.2 63.2-49.5 105.8l39.3 144.3c14.5 52.9 72 80.3 122.6 59.1 112.5-47.2 251.4-84.5 401.2-84.5 155.4 0 271.4 52.7 271.4 160.8 0 97.5-89.6 155.4-305.7 213.4-308.3 84.4-529.7 218.8-529.7 490.2 0 245.1 179.2 432.2 490.2 482.3v154.9c0 49.8 40.4 90.2 90.2 90.2h91c49.8 0 90.2-40.4 90.2-90.2v-139.1c149.4-6 258.1-31.5 344.4-61.8 44.2-15.6 68.4-63.2 56.1-108.4l-36.1-133.4c-14-51.5-69-79.7-118.8-60.8-79.5 30-191.8 61.3-337.8 61.3-184.5 0-237.2-76.4-237.2-144.9 0-84.3 110.7-142.3 350.5-216.1 342.6-102.8 484.9-245.1 484.9-500.7 0-234.6-173.9-445.4-511.3-498.1v-173.3c0-49.9-40.3-90.3-90.2-90.3h-91c-49.8 0-90.2 40.4-90.2 90.3z"/>
    </clipPath>
    <clipPath id="bM" clipPathUnits="userSpaceOnUse">
      <path d="m18907.3 27725.9-467.4-.9-4.9 2530.5 1133.7 2.2.7-406.7-666.3-1.3 1.4-702.8 621.3 1.3.8-406.8-621.3-1.2z"/>
    </clipPath>
    <clipPath id="bO" clipPathUnits="userSpaceOnUse">
      <path d="m20358.4 29118.6 121.2.3c110.8.2 190.3 31.8 238.6 94.8 48.3 63 72.4 156.8 72.2 281.4-.3 129.2-26.1 221.2-77.6 275.9-51.5 54.7-130.8 82-238.2 81.8l-117.7-.3zm.8-405 1.9-984.8-470.7-.9-5 2530.4 616.1 1.3c260.8.5 453.3-60.9 577.7-184.1 124.2-123.2 186.6-311.8 187.1-565.6.7-319.7-106.8-543.1-322.3-670.5l488.5-1108.5-503.6-1-401.8 984z"/>
    </clipPath>
    <clipPath id="bQ" clipPathUnits="userSpaceOnUse">
      <path d="m22803.3 27733.6-1140.6-2.2-4.9 2530.4 1140.5 2.3.8-406.7-669.8-1.4 1.2-602.3 621.4 1.2.8-408.5-621.4-1.2 1.4-700.9 669.8 1.3z"/>
    </clipPath>
    <clipPath id="bS" clipPathUnits="userSpaceOnUse">
      <path d="m24312.6 27736.6-1140.6-2.2-5 2530.4 1140.6 2.3.8-406.7-669.8-1.4 1.2-602.3 621.4 1.2.8-408.5-621.4-1.2 1.4-701 669.8 1.4z"/>
    </clipPath>
  </defs>
  <g clip-path="url(#a)" transform="matrix(.13333 0 0 -.13333 -606.69 4338.347)">
    <path fill="url(#b)" d="M19046 4562.4c-1682.5 0-2967.8 232.3-3480.4 335-1859.1 372.8-5452.7 1093.4-8050.75 4109.9-255.26 296.4-491.63 604.2-709.15 921.3h13002.4c-211.3-382.4-327.9-801.9-327.9-1242.1 0-1194 858.6-2236.8 2135.8-2796.2v-852.9c0-49.5 40.4-89.9 89.9-89.9h686.1c49.5 0 89.9 40.4 89.9 89.9v565.1c405.2-95.8 836.1-147.4 1283.1-147.4 304.6 0 601.9 24 888.5 69.6-2012.3-748.2-3992.7-962.3-5607.5-962.3m8230.9 2272.3c210.5 226.6 383.3 474.4 511.8 738.5h520.5c4.8 0 9.7 0 14.5.2-204.7-157.6-396.3-293.3-569.2-415.8-158.3-112.1-317.7-219.8-477.6-322.9M28685.6 7866c7.7 30.5 11.8 62.5 11.8 95.4v733.9c1.9 1.3 3.9 2.5 5.9 3.8 187.4 120.5 396.4 205.1 614.5 250.5 206.5 43 413.6 121.4 612.9 232.4-203.2-265.5-417-515.3-641.5-748.7-206.6-214.7-409.1-401.7-603.6-567.3M5911.79 11498.5c-1270.7 2730-1430.25 5931.1-766.37 8911.1 197.08-637.3 449.06-1267.5 766.37-1885.5v-7025.6m26310.51 3146.9c-27.6 24-56.9 46.3-87.9 66.7-143 94.3-307.5 139-479.6 139-160.8 0-328.3-39.1-491.1-113.2v9524c1355.2-3040.9 1634.1-6531.5 1058.6-9616.5m-2449.4 12038.9h-18916c-323 668.3-665.6 1329.2-1027.5 1973.3 1559 1447.9 3832 2911.9 6906.9 3308.7 594.2 76.7 1205.2 115.5 1824 115.5 3154.3 0 6525.1-1006 9082.3-3121.2 820.3-678.4 1528.3-1445.3 2130.3-2276.3"/>
  </g>
  <path fill="#cfddfc" d="M79.365 1617.067c-186.705-603.707-.217-1245.494 112.636-1545C209.592 25.373 254.152 0 299.012 0c32.557 0 65.273 13.373 87.95 41.667 116.42 145.253 221.79 306.32 316.934 475.666-100.921 93.72-179.387 186.92-236.8 263.107h-87.883c-22.948-90.24-39.341-163.48-49.946-213.88-.37-1.76-1.76-2.547-3.186-2.547-1.886 0-3.836 1.374-3.558 3.734 8.572 72.813 18.74 143.733 30.312 212.693H181.548v504.653c-42.479 106.814-76.825 218.147-102.183 331.974"/>
  <g clip-path="url(#c)" transform="matrix(.13333 0 0 -.13333 -606.69 4338.347)">
    <path fill="url(#d)" d="M5911.79 18524.1c-317.31 618-569.29 1248.2-766.37 1885.5 190.18 853.7 447.78 1688.7 766.37 2489.8v-4375.3m4945.11 8160.2H8053.4c430.6 571.4 1019.09 1270.4 1776 1973.3 361.9-644.1 704.5-1305 1027.5-1973.3"/>
  </g>
  <path fill="#e7eefe" d="M379.213 780.44h-26.378c-11.572-68.96-21.74-139.88-30.312-212.693-.278-2.36 1.672-3.734 3.558-3.734 1.426 0 2.816.787 3.186 2.547 10.605 50.4 26.998 123.64 49.946 213.88"/>
  <path fill="#7d97f4" d="M3424.283 3014.533H297.049c-63.789 0-115.501-51.72-115.501-115.506V780.44h3366.921v2109.907c0 68.586-55.6 124.186-124.186 124.186"/>
  <path fill="#91b3fa" d="M3417.523 3014.533H232.763c-28.284 0-51.215-22.933-51.215-51.213v-199.813h3366.921v120.066c0 72.32-58.626 130.96-130.946 130.96"/>
  <path fill="#c7d2fa" d="M2669.896 2556.867h-22.533c5-7.947 9.64-16.134 13.933-24.534h9.933c-.6 8.214-1.04 16.4-1.333 24.534m-558.987 0h-488.573c-20.147 0-36.48-16.334-36.48-36.48V2069.68a175.065 175.065 0 0 0 24.893 9.987v416.173c0 20.16 16.334 36.493 36.48 36.493h449.747a321.093 321.093 0 0 0 13.933 24.534m-525.053-804.374v-255.36c0-20.16 16.333-36.493 36.48-36.493h353.227a310.23 310.23 0 0 0-30.72 28.013h-297.614c-20.146 0-36.48 16.334-36.48 36.48v217.36c-8.6 2.72-16.92 6.067-24.893 10m1677.467-214.426a186.743 186.743 0 0 0-32.267-6.947v-5.987c0-20.146-16.333-36.48-36.48-36.48h-805.493a308.596 308.596 0 0 0-30.707-28.013h868.467c20.146 0 36.48 16.333 36.48 36.493v40.934"/>
  <g clip-path="url(#e)" transform="matrix(.13333 0 0 -.13333 -606.69 4338.347)">
    <path fill="url(#f)" d="M24584.4 13545.1h-74.5c34.5 67.6 65.9 137.2 93.9 208.4-5.5-47.9-10.3-96-14.4-144.4-1.8-21.4-3.5-42.7-5-64m-4306.9 0h-3373.1c-151.1 0-273.6 122.5-273.6 273.7v3121.3c125.8-39.7 259.8-61.1 398.8-61.1 732 0 1325.4 593.4 1325.4 1325.5 0 732-593.4 1325.4-1325.4 1325.4-139 0-273-21.4-398.8-61v1630.2c0 151.1 122.5 273.6 273.6 273.6h2232.1c-397.3-414.5-641.4-976.9-641.4-1596.4 0-1274.3 1033-2307.4 2307.3-2307.4 1274.3 0 2307.4 1033.1 2307.4 2307.4 0 619.5-244.2 1181.9-641.5 1596.4h6041.2c151.1 0 273.6-122.5 273.6-273.6v-44.9c-18.2 2.3-36.6 4.2-55 5.8-40 3.4-79.8 5.1-119.4 5.1-901.6 0-1700.3-868.1-1884.5-2035.3-318.1 348.2-775.9 566.6-1284.7 566.6-960.7 0-1739.5-778.8-1739.5-1739.5 0-960.8 778.8-1739.6 1739.5-1739.6 45.5 0 90.7 1.7 135.3 5.2-353.8-426.4-634-955.4-807.4-1551.5.4 17.2.5 34.4.5 51.7 0 1311.2-1062.9 2374.2-2374.2 2374.2-1311.2 0-2374.2-1063-2374.2-2374.2 0-387.9 93.1-754.2 258-1077.6"/>
  </g>
  <path fill="#7d97f4" d="M599.28 1661h-44.996c-36.657 0-66.375-29.707-66.375-66.373V1454.84c0-36.653 29.718-66.373 66.375-66.373h44.996c36.657 0 66.375 29.72 66.375 66.373v139.787c0 36.666-29.718 66.373-66.375 66.373m559.563-.827h-44.987c-36.667 0-66.387-29.72-66.387-66.373v-139.787c0-36.666 29.72-66.386 66.387-66.386h44.987c36.666 0 66.373 29.72 66.373 66.386V1593.8c0 36.653-29.707 66.373-66.373 66.373M878.95 1661h-44.987c-36.667 0-66.374-29.707-66.374-66.373V1454.84c0-36.653 29.707-66.373 66.374-66.373h44.986c36.667 0 66.374 29.72 66.374 66.373v139.787c0 36.666-29.707 66.373-66.374 66.373"/>
  <path fill="#c7d2fa" d="M1320.47 2763.507H492.067V1762.853c0-16.586 13.439-30.026 30.015-30.026h766.413c17.667 0 31.973 14.32 31.973 31.986v998.694"/>
  <path fill="#d0defd" d="M492.068 2940.4h828.401v-176.893H492.068Z"/>
  <g clip-path="url(#g)" transform="matrix(.13333 0 0 -.13333 -606.69 4338.347)">
    <path fill="url(#h)" d="M11236.4 19410.7H8882.86c-286.67 0-538.97-209.4-538.97-471.7v-8468.6h2892.51v8940.3"/>
  </g>
  <g clip-path="url(#i)" transform="matrix(.13333 0 0 -.13333 -606.69 4338.347)">
    <path fill="url(#j)" d="M13685.1 19428.2H11324v-8975.4h2945.1v8447.9c0 280-258.9 527.5-584 527.5"/>
  </g>
  <path fill="#7d97f4" d="M1310.59 3077.973H507.37c-25.44 0-46.065-20.613-46.065-46.053v-40.253c0-32.827 26.612-59.44 59.439-59.44h776.472c32.827 0 59.44 26.613 59.44 59.44v40.253c0 25.44-20.627 46.053-46.067 46.053"/>
  <g clip-path="url(#k)" transform="matrix(.13333 0 0 -.13333 -606.69 4338.347)">
    <path fill="url(#l)" d="M10765 24491.3c171.2 1456.7 638.5 3537.5 1805.5 4995.3H15724c-810.6-1390.5-1060.7-3521.3-1130.9-5007l-3828.1 11.7"/>
  </g>
  <g clip-path="url(#m)" transform="matrix(.13333 0 0 -.13333 -606.69 4338.347)">
    <path fill="url(#n)" d="M7327.32 24501.9c250.18 1381.4 852.3 3504.6 2278.07 4984.7h2965.11c-1167-1457.8-1634.3-3538.6-1805.5-4995.3l-3437.68 10.6"/>
  </g>
  <g clip-path="url(#o)" transform="matrix(.13333 0 0 -.13333 -606.69 4338.347)">
    <path fill="url(#p)" d="M14593.1 24479.6c70.2 1485.7 320.3 3616.5 1130.9 5007h2483.4v-5018.1l-3614.3 11.1"/>
  </g>
  <g clip-path="url(#q)" transform="matrix(.13333 0 0 -.13333 -606.69 4338.347)">
    <path fill="url(#r)" d="M5045.9 24508.8s-337.47 3121.7 2868.52 4977.8h1690.97c-1425.77-1480.1-2027.89-3603.3-2278.07-4984.7l-2281.42 6.9"/>
  </g>
  <g clip-path="url(#s)" transform="matrix(.13333 0 0 -.13333 -606.69 4338.347)">
    <path fill="url(#t)" d="M26077 24444.3c-166.6 1458.6-631.3 3568.7-1810.9 5042.3h2965.1c1449.3-1504.5 2047.7-3673.9 2290.3-5052.8l-3444.5 10.5"/>
  </g>
  <g clip-path="url(#u)" transform="matrix(.13333 0 0 -.13333 -606.69 4338.347)">
    <path fill="url(#v)" d="M29521.5 24433.8c-242.6 1378.9-841 3548.3-2290.3 5052.8h1775.3s3543.5-1518.7 3543.5-5062.1l-3028.5 9.3"/>
  </g>
  <g clip-path="url(#w)" transform="matrix(.13333 0 0 -.13333 -606.69 4338.347)">
    <path fill="url(#x)" d="M18207.4 24468.5v5018.1h2905.2c814.8-1397.8 1063.4-3543.8 1132.1-5030.5l-4037.3 12.4"/>
  </g>
  <g clip-path="url(#y)" transform="matrix(.13333 0 0 -.13333 -606.69 4338.347)">
    <path fill="url(#z)" d="M22244.7 24456.1c-68.7 1486.7-317.3 3632.7-1132.1 5030.5h3153.5c1179.6-1473.6 1644.3-3583.7 1810.9-5042.3l-3832.3 11.8"/>
  </g>
  <g clip-path="url(#A)" transform="matrix(.13333 0 0 -.13333 -606.69 4338.347)">
    <path fill="url(#B)" d="M5066.39 24503.1s-167.5-1047.9 1005.03-1047.9 1423.78 1135.2 1423.78 1135.2l-2428.81-87.3"/>
  </g>
  <g clip-path="url(#C)" transform="matrix(.13333 0 0 -.13333 -606.69 4338.347)">
    <path fill="url(#D)" d="M10929 24590.4H7495.2s332.69-1135.2 1842.55-1135.2c1005.05 0 1507.55 349.3 1591.25 1135.2"/>
  </g>
  <g clip-path="url(#E)" transform="matrix(.13333 0 0 -.13333 -606.69 4338.347)">
    <path fill="url(#F)" d="M14739.8 24590.4H10929s334.5-1309.8 2010.1-1309.8c1115.3 0 1707.7 523.9 1800.7 1309.8"/>
  </g>
  <g clip-path="url(#G)" transform="matrix(.13333 0 0 -.13333 -606.69 4338.347)">
    <path fill="url(#H)" d="M18341.1 24590.4h-3643.2s319.8-1309.8 1921.7-1309.8c1066.3 0 1632.6 523.9 1721.5 1309.8"/>
  </g>
  <g clip-path="url(#I)" transform="matrix(.13333 0 0 -.13333 -606.69 4338.347)">
    <path fill="url(#J)" d="M32537.7 24503.1s207.3-1047.9-1243.4-1047.9c-1450.6 0-1761.4 1135.2-1761.4 1135.2l3004.8-87.3"/>
  </g>
  <g clip-path="url(#K)" transform="matrix(.13333 0 0 -.13333 -606.69 4338.347)">
    <path fill="url(#L)" d="M26121.8 24590.4h3433.8s-332.7-1135.2-1842.6-1135.2c-1005 0-1507.5 349.3-1591.2 1135.2"/>
  </g>
  <g clip-path="url(#M)" transform="matrix(.13333 0 0 -.13333 -606.69 4338.347)">
    <path fill="url(#N)" d="M22277.4 24590.4H26130s-338.1-1309.8-2032.1-1309.8c-1127.6 0-1726.5 523.9-1820.5 1309.8"/>
  </g>
  <g clip-path="url(#O)" transform="matrix(.13333 0 0 -.13333 -606.69 4338.347)">
    <path fill="url(#P)" d="M18341.1 24590.4h4095.6s-359.5-1309.8-2160.3-1309.8c-1198.7 0-1835.4 523.9-1935.3 1309.8"/>
  </g>
  <g clip-path="url(#Q)" transform="matrix(.13333 0 0 -.13333 -606.69 4338.347)">
    <path fill="url(#R)" d="M32292.8 24522.8H5045.12l-48.15 142.1c-18.73 29.9 98.14 56.3 249.21 56.4l26990.12.2c106.6-.2 201.7-13.4 239.1-33.4l58-30.8c63-33.6-61.2-69.4-240.6-134.5"/>
  </g>
  <path fill="#bdd0fb" d="M2671.896 2523.8c12.6-147.933 72.413-277.213 158.093-364.76 76.587-78.253 120.84-182.987 121.267-292.387.053-11.493.56-23.133 1.56-34.88 15.147-177.92 136.44-312.866 270.907-301.426 134.48 11.44 231.226 164.96 216.08 342.88-3.094 36.373-10.64 70.96-21.827 102.84-35.68 101.786-33.4 213.56 10.467 312.146 39.2 88.107 57.706 193.174 48.266 304.08-14.08 165.414-87.213 307.52-189.506 394.027-38.694 32.72-71.307 72.28-95.707 116.64-40.52 73.733-110.653 120.067-186.147 113.64-81.453-6.933-146.346-73.32-170.12-162.653-13.453-50.547-36.693-97.8-66.826-140.6-71.147-101.054-109.227-239.974-96.507-389.547"/>
  <path fill="#e3ebfd" d="M2980.83 2887.12a555.63 555.63 0 0 0-9.68-7.667c2.893-35.333 6.133-70.653 9.626-105.933l9.733-88.973c3.107-29.68 7.387-59.2 11.094-88.8 7.333-59.214 16.266-118.2 24.693-177.254l13.773-88.413c4.587-29.48 9.92-58.827 14.84-88.24l7.56-44.093 7.92-44.027c5.28-29.347 10.48-58.72 16.147-88 22.6-117.133 46.413-234.013 74-350.107l5.013 1.12c-11.613 58.427-23.053 116.934-33.933 175.52a11737.572 11737.572 0 0 0-32.2 175.84c-5.387 29.294-10.493 58.64-15.587 88l-7.68 44.014-7.306 44.08c-9.894 58.76-18.88 117.64-28.374 176.453-18.093 117.773-33.746 235.867-47.826 354.16-3.32 29.587-6.227 59.227-9.36 88.84-.774 7.827-1.64 15.653-2.454 23.48"/>
  <path fill="#91b3fa" d="M3115.51 2734.667c47.946-72.747 114.973-122.68 183.586-143.867 61.333-18.933 113.467-60.56 144.36-116.84a255.156 255.156 0 0 1 10.573-17.547c57.68-87.493 157.907-123.173 223.867-79.68 65.973 43.48 72.693 149.654 15.027 237.147-11.8 17.893-25.374 33.613-40.067 46.933-46.893 42.494-77.053 100.76-82.133 163.84-4.534 56.374-24.467 115.707-60.427 170.254-53.613 81.346-131.067 134.16-207.947 150.16-29.08 6.053-56.946 17.333-81.933 33.4-41.52 26.68-90.587 30.973-127.627 6.56-39.946-26.334-54.72-78.707-41.906-131.4 7.253-29.827 8.56-60.68 5.053-91.16-8.267-71.987 11.093-154.24 59.573-227.8"/>
  <path fill="#d0defd" d="M3120.27 3088.253a384.084 384.084 0 0 0-1.667-5.573c27.32-45.107 56.146-89.32 85.786-132.947l29.947-43.146c9.907-14.44 20.4-28.454 30.6-42.68 20.373-28.48 41.507-56.387 62.4-84.48l31.867-41.734c10.626-13.906 21.6-27.546 32.373-41.346l16.253-20.614 16.414-20.493c10.96-13.653 21.866-27.333 32.986-40.853 44.467-54.067 89.494-107.667 136.214-159.814l2.28 1.987c-22.36 26.88-44.654 53.84-66.667 81a6882.938 6882.938 0 0 0-65.867 81.653c-10.986 13.6-21.84 27.307-32.693 41.014l-16.293 20.546-16.107 20.68c-21.573 27.52-42.707 55.374-64.08 83.04-42.32 55.654-83.48 112.174-123.88 169.214-10.013 14.333-19.813 28.8-29.733 43.186-4.907 7.227-9.96 14.36-14.76 21.667l-14.4 21.893-14.44 21.88-7.214 10.947-6.92 11.133-2.4 3.84"/>
  <g clip-path="url(#S)" transform="matrix(.13333 0 0 -.13333 -606.69 4338.347)">
    <path fill="url(#T)" d="M11429.2 5436.9s-47.9-271.5-71.5-540.2c-9.1-105 71.8-196.2 177.2-200.6 357.8-14.9 1123.3-43.9 1398-31.6 41.3 1.8 68.3 44.1 53 82.5-12.8 32.2-37.5 58.2-69 72.6l-1264.4 581.2-223.3 36.1"/>
  </g>
  <g clip-path="url(#U)" transform="matrix(.13333 0 0 -.13333 -606.69 4338.347)">
    <path fill="url(#V)" d="m11389.9 5596.4 38.6-324.7s221.5-103.1 372.7 13l-91.7 361.9-319.6-50.2"/>
  </g>
  <g clip-path="url(#W)" transform="matrix(.13333 0 0 -.13333 -606.69 4338.347)">
    <path fill="url(#X)" d="M11418.9 11701.2c-16.7-84.8-89.3-4231.6 353.9-6090 7.3-30.3-8.1-61.5-37-73.3-68-27.8-201.2-68-361-73.4-49.4-1.6-93.8 30.5-107.8 78-126.7 431.1-733.8 2591.4-813 4655-88.5 2305.9 0 78.5 0 78.5l51.9 1425.4 913-.2"/>
  </g>
  <g clip-path="url(#Y)" transform="matrix(.13333 0 0 -.13333 -606.69 4338.347)">
    <path fill="url(#Z)" d="M9974.67 5295.3s-76.33-137.1-150.24-501.2c-13.33-65.8 32.62-128.8 99.4-135.3 118.17-11.6 300.07-26.6 445.77-25.6 67.2.5 119.6 59 111.5 125.7-16.1 132.9-66.4 351-221.7 520.9l-284.73 15.5"/>
  </g>
  <g clip-path="url(#aa)" transform="matrix(.13333 0 0 -.13333 -606.69 4338.347)">
    <path fill="url(#ab)" d="m9907.63 5712.9 90.03-491s89.04-66.2 265.04-18.2l-42.9 528.3-312.17-19.1"/>
  </g>
  <g clip-path="url(#ac)" transform="matrix(.13333 0 0 -.13333 -606.69 4338.347)">
    <path fill="url(#ad)" d="M9664.43 11573.9c-362.53-2187.9 78.64-5407.5 227.43-6037.7 9.12-38.6 40.25-68.1 79.36-74.6 66.38-11 175.78-20 283.58 11.3 37.1 10.8 63.2 44.3 64.7 82.9 20 509.5-16 3637.2 321.8 4873.2 17.2 62.7 55.4 117.3 108.3 154.9l655.7 466.1 50.3 753.4-1791.17-229.5"/>
  </g>
  <g clip-path="url(#ae)" transform="matrix(.13333 0 0 -.13333 -606.69 4338.347)">
    <path fill="url(#af)" d="M11801.2 15641.5s-1665.4 415.1-2830.16-201.8l693.39-3865.8s1103.17-88.9 1791.17 129.9l345.6 3937.7"/>
  </g>
  <g clip-path="url(#ag)" transform="matrix(.13333 0 0 -.13333 -606.69 4338.347)">
    <path fill="url(#ah)" d="m9933.37 16799.7-127.44-1097c-8.13-15.5-4.15-34.6 9.75-45.3 85.37-65.6 398.52-265.3 841.82-70 46.2 20.3 81.5 59.5 95.4 108l-180.4 950.8-639.13 153.5"/>
  </g>
  <g clip-path="url(#ai)" transform="matrix(.13333 0 0 -.13333 -606.69 4338.347)">
    <path fill="url(#aj)" d="M10955.6 17371.6s162.3-792.7 34.1-1055.8c-128.3-263.2-573.7-110.4-901.5 230.6l-57.4 821.2 924.8 4"/>
  </g>
  <g clip-path="url(#ak)" transform="matrix(.13333 0 0 -.13333 -606.69 4338.347)">
    <path fill="url(#al)" d="M10212.6 16904.7c18.1 2.4 29.8 20.3 24.5 37.8-16 53.1-43.9 160.1-37.9 244.9 0 0-53.1 61.2 195.3 48.4 248.4-12.8 619.9-28.6 750.8 147.6 127.7 171.7 84 710.9-327 412.5-15.6-11.3-37.9-5.1-44.8 12.9-30.1 77.8-119.4 247.2-320.8 219.8-188.5-25.7-243.2-142.1-259-204.3-4.7-18.3-25-27.6-41.8-19-79.4 40.9-277.3 114.2-432.6-65.3-127.92-147.8-105.9-259.2-73.86-320 10.39-19.7-3.56-43-25.83-43.2-60.3-.7-145.54-26.5-176.56-158.2-42.89-182.1 162.07-225.3 221.51-234 9.74-1.4 18.2-7.4 22.48-16.2 32.96-68.5 185.6-363.2 415.86-461.1 20-8.5 42 7.2 41 28.8l-14.8 330.4c-.7 15.3 10.4 28.6 25.7 30.6l57.8 7.6"/>
  </g>
  <g clip-path="url(#am)" transform="matrix(.13333 0 0 -.13333 -606.69 4338.347)">
    <path fill="url(#an)" d="M10241.6 16849.9s-206.9 254.3-269.96 110.1c-63.07-144.3 169.56-285.8 311.06-266.8l-41.1 156.7"/>
  </g>
  <g clip-path="url(#ao)" transform="matrix(.13333 0 0 -.13333 -606.69 4338.347)">
    <path fill="url(#ap)" d="M12670.3 14881.9s628.2-292 1362.8 487.5c502.2 532.7 809.3 206.1 906.4-8.9 97.1-215.1-135.1-197.2-216.1-197.2s-91.1 234-233.9 202.1c-142.8-31.8-100.8 10.8-109.7-132.5-9-143.4-776.7-1762.2-1726.4-973.7l16.9 622.7"/>
  </g>
  <g clip-path="url(#aq)" transform="matrix(.13333 0 0 -.13333 -606.69 4338.347)">
    <path fill="url(#ar)" d="m15541.3 14776.7-1660.1 104.6c-151.4 9.6-284.1-100-303.5-250.4l-371.8-2887.1c-22.1-172.1 111.9-324.6 285.5-324.6h2166.1c164.4 0 295.4 137.5 287.4 301.7l-134.3 2782.5c-7 146.4-123 264.1-269.3 273.3"/>
  </g>
  <g clip-path="url(#as)" transform="matrix(.13333 0 0 -.13333 -606.69 4338.347)">
    <path fill="url(#at)" d="M15296.5 14483.4c28.7 0 52.5 22.6 53.7 51.5 1.6 37.1 30.8 909.1-583 1005.1-131.3 20.4-247.8-10.4-346.3-91.8-298.8-246.9-324-882.3-324.9-909.2-1.1-29.7 22.2-54.5 51.8-55.6 29.5-.4 54.6 22.2 55.6 51.9.2 6.1 24.5 614.1 286.1 830.1 74.7 61.8 160.2 84 261.1 68.3 520-81.2 492.5-886.2 492.2-894.3-1.2-29.7 21.8-54.7 51.5-56h2.2"/>
  </g>
  <g clip-path="url(#au)" transform="matrix(.13333 0 0 -.13333 -606.69 4338.347)">
    <path fill="url(#av)" d="m11801.2 15641.5 1013.5-759.6s17.9-569.1-116.5-838.2l-1128.9 277.5 231.9 1320.3"/>
  </g>
  <g clip-path="url(#aw)" transform="matrix(.13333 0 0 -.13333 -606.69 4338.347)">
    <path fill="url(#ax)" d="M8666.43 13317.7s113.56-1451.7 1069.2-1514.3c0 0 409.57 37.6 587.37-102 177.8-139.7 91.7-354.8 91.7-354.8l-771.05 94s-1102.66-183.6-1765.66 1662.1l788.44 215"/>
  </g>
  <g clip-path="url(#ay)" transform="matrix(.13333 0 0 -.13333 -606.69 4338.347)">
    <path fill="url(#az)" d="M8971.04 15439.7s-1308.08-778.1-1093.05-2337c0 0 467.29-202.6 807.05 68.9 0 0 264.76 1012.9 839.83 1063.3l-553.83 1204.8"/>
  </g>
  <g clip-path="url(#aA)" transform="matrix(.13333 0 0 -.13333 -606.69 4338.347)">
    <path fill="url(#aB)" d="M26278.6 11068.3c-584.3 678-436.1 1124.2-160.2 1530l269-1378.5-108.8-151.5"/>
  </g>
  <g clip-path="url(#aC)" transform="matrix(.13333 0 0 -.13333 -606.69 4338.347)">
    <path fill="url(#aD)" d="M26278.6 11068.3c-262.3 510-315.6 1020-160.2 1530-577.2-196.1-939.2-539.4-973.3-1107l1133.5-423"/>
  </g>
  <g clip-path="url(#aE)" transform="matrix(.13333 0 0 -.13333 -606.69 4338.347)">
    <path fill="url(#aF)" d="M26230.8 5069.7h-686.1c-49.5 0-89.9 40.4-89.9 89.9v556.5c309 100.1 599.5 227 865.9 376.5v-933c0-49.5-40.5-89.9-89.9-89.9"/>
  </g>
  <g clip-path="url(#aG)" transform="matrix(.13333 0 0 -.13333 -606.69 4338.347)">
    <path fill="url(#aH)" d="M22392 4947.5h-686.1c-49.5 0-89.9 40.4-89.9 89.9v852.9c271.1-118.7 561.3-215.8 865.9-287.8v-565.1c0-49.5-40.4-89.9-89.9-89.9"/>
  </g>
  <g clip-path="url(#aI)" transform="matrix(.13333 0 0 -.13333 -606.69 4338.347)">
    <path fill="url(#aJ)" d="M23765 5455.1c-447 0-877.9 51.6-1283.1 147.4-304.6 72-594.8 169.1-865.9 287.8-1277.2 559.4-2135.8 1602.2-2135.8 2796.2 0 440.2 116.6 859.7 327.9 1242.1 508.4 920 1564.7 1624.8 2861.3 1882.7 349.8 69.6 716.9 106.6 1095.6 106.6 344.7 0 680-30.7 1001.1-88.6 799.8-144.4 1512.4-457.9 2067.7-887.6 24.5-19 48.7-38.1 72.6-57.5 214.8-174.6 404.4-367.3 564.3-574.4 211.8-274.4 371.5-574.3 469-892.3 4.3-13.9 8.4-27.8 12.5-41.8 17.7-61.5 33.1-123.7 46.1-186.4h310.9c214.4 0 388.2-173.8 388.2-388.2v-839.7c0-32.9-4.1-64.9-11.8-95.4-41.4-163.8-186.9-286.1-361.9-292.6-4.8-.2-9.7-.2-14.5-.2h-520.5c-128.5-264.1-301.3-511.9-511.8-738.5-264.1-284.3-587.3-535-956.2-742.1-266.4-149.5-556.9-276.4-865.9-376.5-255.3-82.7-523.3-147.2-801.3-191.4-286.6-45.6-583.9-69.6-888.5-69.6M21368.1 6527c-11.3 0-22.2-6.1-27.9-16.8-8.3-15.4-2.4-34.5 13-42.8 774.4-413.8 1739.2-646.4 2669.6-646.4 50.2 0 100.5.7 150.6 2.1 1020.7 27.9 1893.7 330.7 2458 852.6 12.8 11.8 13.6 31.8 1.7 44.7-6.3 6.7-14.7 10.1-23.2 10.1-7.7 0-15.4-2.7-21.5-8.4-553.1-511.5-1411.3-808.3-2416.7-835.8-49.5-1.3-98.9-2-148.5-2-920.9 0-1874.6 229.9-2640.2 639-4.8 2.5-9.8 3.7-14.9 3.7m-1507.2 1451.2c-4.8 0-9.7-1.1-14.3-3.5-15.6-7.8-21.8-26.9-13.9-42.5 193.7-382 481.4-728 855.2-1028.4 5.9-4.7 12.9-7 19.8-7 9.3 0 18.5 4 24.7 11.8 11 13.6 8.8 33.5-4.8 44.5-366.8 294.7-648.9 633.8-838.5 1007.7-5.5 11-16.6 17.4-28.2 17.4"/>
  </g>
  <g clip-path="url(#aK)" transform="matrix(.13333 0 0 -.13333 -606.69 4338.347)">
    <path fill="url(#aL)" d="M26081.7 9541.4c0-108.8 88.1-196.9 196.9-196.9 108.7 0 196.9 88.1 196.9 196.9 0 108.7-88.2 196.9-196.9 196.9-108.8 0-196.9-88.2-196.9-196.9"/>
  </g>
  <g clip-path="url(#aM)" transform="matrix(.13333 0 0 -.13333 -606.69 4338.347)">
    <path fill="url(#aN)" d="M21808.4 11342c796.5 258.2 1251.4 333.7 1969.7 326.2 23.2-.3 42.6 17.9 43.6 41.1 1 24.3-18.4 44.6-42.6 44.8-729.7 7.6-1192.5-68.8-1997.7-329.4-24.1-7.8-36.4-34.7-26.3-58l.4-.9c8.8-20.4 31.8-30.6 52.9-23.8"/>
  </g>
  <g clip-path="url(#aO)" transform="matrix(.13333 0 0 -.13333 -606.69 4338.347)">
    <path fill="url(#aP)" d="M25545.9 11211.1c-789 915.6-588.9 1518.2-216.2 2066.1l363.1-1861.5-146.9-204.6"/>
  </g>
  <g clip-path="url(#aQ)" transform="matrix(.13333 0 0 -.13333 -606.69 4338.347)">
    <path fill="url(#aR)" d="M25545.9 11211.1c-354.1 688.7-426.2 1377.4-216.2 2066.1-779.5-264.9-1268.4-728.4-1314.4-1494.8l1530.6-571.3"/>
  </g>
  <g clip-path="url(#aS)" transform="matrix(.13333 0 0 -.13333 -606.69 4338.347)">
    <path fill="url(#aT)" d="M19952.3 9175.6s-1.6 13.6-4.7 39.2c-.7 6.4-1.6 13.5-2.5 21.4-2.1 11.4-4.4 23.9-6.9 37.4-2.8 13.5-5.8 27.9-9 43.4-3.5 15.1-8.4 28.2-13 43.6-18.1 60.4-50 130.9-98.9 202.8-48.8 71.8-116.3 144.5-203.9 203.9-87.1 59.5-194.5 105.4-312.9 124.1-29.6 4-59.8 6.9-90.2 8.4l-45.9-.3-23.1-.4c1.2.1-15.7-.8-9.1-.5l-1.2-.1-2.3-.3-4.6-.5-9.2-1.1-18.5-2.2c-6.5-.8-11.1-1-21.5-3.1-18.2-3.2-36.4-6.9-54.6-10.9-33.2-9.5-64.5-18.7-95.4-33.1-61.7-27-120.2-63.6-170.7-110-50.4-46.4-93.6-101.2-126.7-161.9-32.9-60.8-56.8-127.2-67-195.9-4.6-34.4-8.2-68.9-6.9-103.4l.3-25.8.4-7.7.2-1.3.3-2.6.6-5.1 1.2-10.2 2.6-21 5.6-29.9c2.1-9.6 4-20.4 6.7-28.9l8.1-25.9c5-17.3 12.7-33.6 19.8-50.1 6.6-16.7 16.5-31.8 24.9-47.6 8.9-15.4 19.7-29.7 29.7-44.3 42.6-56.8 97.3-103.1 157.9-136.3 60.7-33.3 127.8-53 194.5-58.3 16.6-2 33.3-1.5 49.8-1.4l12.4.2h3.1l1.5.1c-.5-.1 10.4.5 6.4.3l4.8.6 19.6 2.3c5.1.4 16.6 2.6 25.6 4.3 9.3 2 19.2 3.8 27.7 6.1 16.2 5.4 32.8 9.5 48.1 16.7 125.8 51.3 212.3 164.7 235.8 282.1 3.1 14.7 5.8 29.3 6.7 44.1.6 7.3 1.5 14.6 1.8 21.8l-.1 21.7-.2 10.8v2.7l-.3 6.6-.5 4.3-2 16.8c-1.9 12.7-5.4 32.7-9.5 46-7.9 28.2-20.2 54.2-34.3 78.3-15.1 23.4-31.6 45.3-51.2 63.4-76.3 74.8-182.5 97.7-261.5 84.4-93.8-16-150.9-72-181.5-125.2a240.58 240.58 0 0 1-28.2-76.5c-4.8-23.3-4.8-43.4-4.3-59.5.7-16.8 3.3-29.7 5.3-38.2 2.1-8.5 3.5-12.8 3.5-12.8 8.6-25.8 36.5-39.8 62.3-31.2 23.5 7.8 37.2 31.6 33 55.2l-.3 1.9s-.4 2.3-1.2 6.8c-.6 4.5-1.4 11.1-.9 20.1 1 18.9 5.3 47.7 25.3 76.2 9.8 14.2 23.3 28.1 40.6 38.9 8.8 5.1 18 10.2 28.4 13.4 9.9 3.9 22.3 5.4 29.7 6.4 2 .5 7.8.4 11.6.6l6.4.3 3.2.1c-6.2-.4-1.4-.2-2.6-.2l.6-.1 1.2-.1c6.4-.8 12.9-.7 19.4-1.9 12.9-2.2 26-5.1 38.6-10.4 25.3-10 49.8-25.9 68.7-48.4 10.1-10.7 17.6-23.7 24.7-36.7 6.2-13.6 11.6-27.7 14.3-42.8 1.2-4 .9-6.5 1.3-9.5l.7-4.3.3-2.2.2-4 .6-16.9.2-4.3c-.4 7.6-.2 1.6-.3 3.1l-.1-.8-.1-1.6-.6-6.3-.9-12.8c-.5-4.2-1.6-8.4-2.3-12.6-1.1-8.5-3.5-16.8-6-25-19.2-65.9-74.3-124-142.6-144.5-8.2-3.4-17.3-4.1-25.8-6.5-4-.7-7-.6-10.5-1.2-3.9-.4-5-1.3-13-1.3l-19.7-.7-4.9-.2c-4.9-.3 5.2.3 3.9.3h-.9l-1.9.2-7.3.7c-9.8.8-19.6 1-29.1 3.4-38.5 6.5-75.3 21.1-107.7 42.7-32.3 21.6-60.3 49.9-80.5 82.7-4.3 8.6-9.8 16.5-13.7 25.3-3.3 8.9-8.5 17-10.8 26.3-2.8 9.1-6.6 17.8-8 27.2l-3.1 13.8c-1.2 4.6-.7 7.6-1.4 11.4-.4 3.5-.9 7.1-1.6 10.6l-.8 20-.3 10.3-.2 5.1-.1 2.6-.1 1.3c-.1 1.8.6-11 .4-5.1l1.3 15.3c.8 20.4 5.2 40.3 9.2 59.8 9.1 39.1 26.5 75.3 47.9 107.7 21.6 32.3 48.3 60.5 77.9 83.4 29.7 23.1 63.1 39.3 96.7 50.7 16.3 6.3 34.8 9.2 50.3 12.7 6.7.4 13.2 1.2 19.7 2.3 1.8.8 9.8.8 15.7 1.1l18.6.6 9.3.4 4.6.1 2.3.1h1.1c7.4.4-8.7-.4-6.7-.4l13.7-1.2c9.1-.7 18.1-1.4 27-2.1 17.8-2.6 35.1-5.9 52-9.4 67.1-17.1 125-48.4 170.6-85.8 45.8-37.4 79.1-80.7 101.8-121.5 22.6-41 36.4-79.4 42.5-111.8 1.5-7.8 4.2-16.3 4.7-22.1.4-5.7.9-10.9 1.6-15.8.8-4.9 1.5-9.4 2.1-13.5.3-7.9.6-15.1.8-21.5.9-25.8 1.4-39.5 1.4-39.5 3.8-106.6 93.3-190 200-186.2 106.6 3.8 190 93.3 186.2 200-.2 5.2-.7 10.7-1.2 15.8"/>
  </g>
  <g clip-path="url(#aU)" transform="matrix(.13333 0 0 -.13333 -606.69 4338.347)">
    <path fill="url(#aV)" d="M20707.7 6896.8c-6.9 0-13.9 2.3-19.8 7-373.8 300.4-661.5 646.4-855.2 1028.4-7.9 15.6-1.7 34.7 13.9 42.5 4.6 2.4 9.5 3.5 14.3 3.5 11.6 0 22.7-6.4 28.2-17.4 189.6-373.9 471.7-713 838.5-1007.7 13.6-11 15.8-30.9 4.8-44.5-6.2-7.8-15.4-11.8-24.7-11.8"/>
  </g>
  <g clip-path="url(#aW)" transform="matrix(.13333 0 0 -.13333 -606.69 4338.347)">
    <path fill="url(#aX)" d="M24022.8 5821c-930.4 0-1895.2 232.6-2669.6 646.4-15.4 8.3-21.3 27.4-13 42.8a31.58 31.58 0 0 0 27.9 16.8c5.1 0 10.1-1.2 14.9-3.7 765.6-409.1 1719.3-639 2640.2-639 49.6 0 99 .7 148.5 2 1005.4 27.5 1863.6 324.3 2416.7 835.8 6.1 5.7 13.8 8.4 21.5 8.4 8.5 0 16.9-3.4 23.2-10.1 11.9-12.9 11.1-32.9-1.7-44.7-564.3-521.9-1437.3-824.7-2458-852.6-50.1-1.4-100.4-2.1-150.6-2.1"/>
  </g>
  <g clip-path="url(#aY)" transform="matrix(.13333 0 0 -.13333 -606.69 4338.347)">
    <path fill="url(#aZ)" d="M17029.6 16879c-139 0-273 21.4-398.8 61.1-64.5 20.3-126.9 45.4-186.7 74.9-438.4 216.2-740 667.6-740 1189.5 0 521.8 301.6 973.2 740 1189.4 59.8 29.5 122.2 54.6 186.7 75 125.8 39.6 259.8 61 398.8 61 732 0 1325.4-593.4 1325.4-1325.4 0-732.1-593.4-1325.5-1325.4-1325.5m0 2606.8c-707.7 0-1281.4-573.7-1281.4-1281.3 0-707.7 573.7-1281.4 1281.4-1281.4 707.6 0 1281.3 573.7 1281.3 1281.4 0 707.6-573.7 1281.3-1281.3 1281.3"/>
  </g>
  <g clip-path="url(#ba)" transform="matrix(.13333 0 0 -.13333 -606.69 4338.347)">
    <path fill="url(#bb)" d="M17029.6 16923.1c-707.7 0-1281.4 573.7-1281.4 1281.4 0 707.6 573.7 1281.3 1281.4 1281.3 707.6 0 1281.3-573.7 1281.3-1281.3 0-707.7-573.7-1281.4-1281.3-1281.4m27.9 2338c-599 0-1084.5-485.6-1084.5-1084.6 0-598.9 485.5-1084.5 1084.5-1084.5 598.9 0 1084.5 485.6 1084.5 1084.5 0 599-485.6 1084.6-1084.5 1084.6m-27.9 180c-469.6 0-892.9-260.6-1104.7-680.1-13.4-26.5-2.7-58.9 23.8-72.3 7.8-4 16.1-5.8 24.2-5.8 19.7 0 38.6 10.8 48.1 29.6 193.4 383 579.8 621 1008.6 621 68.5 0 137-6.2 203.7-18.3 3.4-.7 6.7-1 10-1 25.4 0 47.9 18.4 52.6 44.2 5.3 29.3-14.1 57.3-43.3 62.6-73 13.4-148.1 20.1-223 20.1"/>
  </g>
  <g clip-path="url(#bc)" transform="matrix(.13333 0 0 -.13333 -606.69 4338.347)">
    <path fill="url(#bd)" d="M15972.9 18682.9c-8.1 0-16.4 1.8-24.2 5.8-26.5 13.4-37.2 45.8-23.8 72.3 211.8 419.5 635.1 680.1 1104.7 680.1 74.9 0 150-6.7 223-20.1 29.2-5.3 48.6-33.3 43.3-62.6-4.7-25.8-27.2-44.2-52.6-44.2-3.3 0-6.6.3-10 1-66.7 12.1-135.2 18.3-203.7 18.3-428.8 0-815.2-238-1008.6-621-9.5-18.8-28.4-29.6-48.1-29.6"/>
  </g>
  <g clip-path="url(#be)" transform="matrix(.13333 0 0 -.13333 -606.69 4338.347)">
    <path fill="url(#bf)" d="M17057.5 17092c-599 0-1084.5 485.6-1084.5 1084.5 0 599 485.5 1084.6 1084.5 1084.6 598.9 0 1084.5-485.6 1084.5-1084.6 0-598.9-485.6-1084.5-1084.5-1084.5"/>
  </g>
  <g clip-path="url(#bg)" transform="matrix(.13333 0 0 -.13333 -606.69 4338.347)">
    <path fill="url(#bh)" d="M16951.1 17370.3v118c-123 4.9-244.7 33.9-331.1 71.8-30.9 13.5-46.6 48.1-37.7 80.6l29.9 109.9c11 40.3 54.9 61.2 93.4 45 85.7-35.9 191.6-64.3 305.7-64.3 118.5 0 206.8 40.1 206.8 122.5 0 74.2-68.3 118.4-232.9 162.6-234.9 64.2-403.6 166.7-403.6 373.5 0 186.7 136.5 329.3 373.5 367.4v118c0 38 30.8 68.8 68.7 68.8h69.3c38 0 68.8-30.8 68.8-68.8v-105.9c113.8-4.6 196.7-24 262.4-47.1 33.7-11.9 52.1-48.1 42.8-82.6l-27.6-101.7c-10.6-39.2-52.5-60.6-90.5-46.3-60.5 22.9-146.1 46.8-257.4 46.8-140.5 0-180.7-58.3-180.7-110.5 0-64.2 84.3-108.4 267.1-164.6 261-78.3 369.4-186.8 369.4-381.5 0-178.7-132.5-339.4-389.5-379.5v-132.1c0-38-30.8-68.7-68.8-68.7h-69.3c-38 0-68.7 30.7-68.7 68.7"/>
  </g>
  <g clip-path="url(#bi)" transform="matrix(.13333 0 0 -.13333 -606.69 4338.347)">
    <path fill="url(#bj)" d="M20802.4 17468.9c-1274.3 0-2307.3 1033.1-2307.3 2307.4 0 619.5 244.1 1181.9 641.4 1596.4 72 75.1 149 145.3 230.4 210.1 394 313.5 892.9 500.8 1435.5 500.8 542.7 0 1041.6-187.3 1435.6-500.8 81.4-64.8 158.4-135 230.3-210.1 397.3-414.5 641.5-976.9 641.5-1596.4 0-1274.3-1033.1-2307.4-2307.4-2307.4m0 4538c-1231.9 0-2230.6-998.7-2230.6-2230.6 0-1232 998.7-2230.7 2230.6-2230.7 1232 0 2230.6 998.7 2230.6 2230.7 0 1231.9-998.6 2230.6-2230.6 2230.6"/>
  </g>
  <g clip-path="url(#bk)" transform="matrix(.13333 0 0 -.13333 -606.69 4338.347)">
    <path fill="url(#bl)" d="M20802.4 17545.6c-1231.9 0-2230.6 998.7-2230.6 2230.7 0 1231.9 998.7 2230.6 2230.6 2230.6 1232 0 2230.6-998.7 2230.6-2230.6 0-1232-998.6-2230.7-2230.6-2230.7m48.6 4070c-1042.7 0-1887.9-845.2-1887.9-1887.9s845.2-1888 1887.9-1888 1888 845.3 1888 1888-845.3 1887.9-1888 1887.9m-48.6 273.6c-802.3 0-1525.5-445.3-1887.4-1162.1-13.4-26.5-2.7-58.8 23.8-72.2 7.8-4 16.1-5.8 24.2-5.8 19.7 0 38.7 10.8 48.1 29.6 343.4 680.3 1029.8 1102.9 1791.3 1102.9 121.6 0 243.3-11 361.9-32.6 3.4-.7 6.9-1 10.3-1 25.3 0 47.6 18.5 52.2 44.3 5.4 29.3-14 57.3-43.3 62.6-124.8 22.7-253 34.3-381.1 34.3"/>
  </g>
  <g clip-path="url(#bm)" transform="matrix(.13333 0 0 -.13333 -606.69 4338.347)">
    <path fill="url(#bn)" d="M18963 20649.1c-8.1 0-16.4 1.8-24.2 5.8-26.5 13.4-37.2 45.7-23.8 72.2 361.9 716.8 1085.1 1162.1 1887.4 1162.1 128.1 0 256.3-11.6 381.1-34.3 29.3-5.3 48.7-33.3 43.3-62.6-4.6-25.8-26.9-44.3-52.2-44.3-3.4 0-6.9.3-10.3 1-118.6 21.6-240.3 32.6-361.9 32.6-761.5 0-1447.9-422.6-1791.3-1102.9-9.4-18.8-28.4-29.6-48.1-29.6"/>
  </g>
  <g clip-path="url(#bo)" transform="matrix(.13333 0 0 -.13333 -606.69 4338.347)">
    <path fill="url(#bp)" d="M20851 17839.7c-1042.7 0-1887.9 845.3-1887.9 1888s845.2 1887.9 1887.9 1887.9 1888-845.2 1888-1887.9-845.3-1888-1888-1888"/>
  </g>
  <g clip-path="url(#bq)" transform="matrix(.13333 0 0 -.13333 -606.69 4338.347)">
    <path fill="url(#br)" d="M20665.8 18324.1v205.4c-214.2 8.6-426 59.1-576.4 125-53.7 23.5-81.1 83.8-65.6 140.4l52.1 191.3c19.2 70.2 95.5 106.5 162.6 78.3 149.2-62.5 333.5-112 532.1-112 206.3 0 360.1 69.9 360.1 213.2 0 129.4-118.9 206.3-405.5 283.2-409 111.8-702.6 290.1-702.6 650.1 0 325.1 237.7 573.3 650.2 639.7v205.5c0 66 53.5 119.6 119.6 119.6h120.7c66.1 0 119.7-53.6 119.7-119.6v-184.5c198.1-7.9 342.4-41.8 456.8-82 58.7-20.6 90.7-83.8 74.4-143.8l-48-176.9c-18.5-68.3-91.4-105.6-157.5-80.6-105.4 39.8-254.4 81.3-448.1 81.3-244.6 0-314.5-101.3-314.5-192.2 0-111.9 146.8-188.8 464.9-286.7 454.4-136.3 643.1-325.1 643.1-664.1 0-311.1-230.7-590.8-678.1-660.7v-229.9c0-66.1-53.6-119.6-119.7-119.6h-120.7c-66.1 0-119.6 53.5-119.6 119.6"/>
  </g>
  <g clip-path="url(#bs)" transform="matrix(.13333 0 0 -.13333 -606.69 4338.347)">
    <path fill="url(#bt)" d="M22393.7 12248.5c-847.7 0-1591.6 444.2-2011.7 1112.6-37.4 59.6-72.3 121-104.5 184-164.9 323.4-258 689.7-258 1077.6 0 1311.2 1063 2374.2 2374.2 2374.2 1311.3 0 2374.2-1063 2374.2-2374.2 0-17.3-.1-34.5-.5-51.7-6.2-288.1-63.6-563.5-163.6-817.5-28-71.2-59.4-140.8-93.9-208.4-32.2-63-67-124.4-104.5-184-420.1-668.4-1164-1112.6-2011.7-1112.6m0 4669.5c-1267.6 0-2295.3-1027.7-2295.3-2295.3 0-1267.7 1027.7-2295.3 2295.3-2295.3 1267.7 0 2295.3 1027.6 2295.3 2295.3 0 1267.6-1027.6 2295.3-2295.3 2295.3"/>
  </g>
  <g clip-path="url(#bu)" transform="matrix(.13333 0 0 -.13333 -606.69 4338.347)">
    <path fill="url(#bv)" d="M22393.7 12327.4c-1267.6 0-2295.3 1027.6-2295.3 2295.3 0 1267.6 1027.7 2295.3 2295.3 2295.3 1267.7 0 2295.3-1027.7 2295.3-2295.3 0-1267.7-1027.6-2295.3-2295.3-2295.3m50 4188c-1072.9 0-1942.7-869.8-1942.7-1942.7s869.8-1942.7 1942.7-1942.7 1942.7 869.8 1942.7 1942.7-869.8 1942.7-1942.7 1942.7m-50 279.9c-825 0-1568.7-457.8-1940.7-1194.9-13.4-26.5-2.8-58.9 23.8-72.3 7.8-3.9 16.1-5.8 24.2-5.8 19.7 0 38.6 10.9 48.1 29.6 353.6 700.6 1060.4 1135.8 1844.6 1135.8 125 0 250.4-11.3 372.6-33.5 3.4-.7 6.8-1 10.2-1 25.3 0 47.7 18.5 52.4 44.3 5.3 29.2-14.1 57.2-43.3 62.6-128.6 23.3-260.5 35.2-391.9 35.2"/>
  </g>
  <g clip-path="url(#bw)" transform="matrix(.13333 0 0 -.13333 -606.69 4338.347)">
    <path fill="url(#bx)" d="M20501 15522.3c-8.1 0-16.4 1.9-24.2 5.8-26.6 13.4-37.2 45.8-23.8 72.3 372 737.1 1115.7 1194.9 1940.7 1194.9 131.4 0 263.3-11.9 391.9-35.2 29.2-5.4 48.6-33.4 43.3-62.6-4.7-25.8-27.1-44.3-52.4-44.3-3.4 0-6.8.3-10.2 1-122.2 22.2-247.6 33.5-372.6 33.5-784.2 0-1491-435.2-1844.6-1135.8-9.5-18.7-28.4-29.6-48.1-29.6"/>
  </g>
  <g clip-path="url(#by)" transform="matrix(.13333 0 0 -.13333 -606.69 4338.347)">
    <path fill="url(#bz)" d="M22443.7 12630c-1072.9 0-1942.7 869.8-1942.7 1942.7s869.8 1942.7 1942.7 1942.7 1942.7-869.8 1942.7-1942.7-869.8-1942.7-1942.7-1942.7"/>
  </g>
  <g clip-path="url(#bA)" transform="matrix(.13333 0 0 -.13333 -606.69 4338.347)">
    <path fill="url(#bB)" d="M22253.1 13128.5v211.3c-220.3 8.8-438.3 60.8-593.1 128.6-55.2 24.2-83.4 86.2-67.5 144.4l53.7 196.9c19.7 72.2 98.2 109.6 167.2 80.6 153.6-64.3 343.2-115.3 547.6-115.3 212.2 0 370.5 72 370.5 219.5 0 133-122.3 212.2-417.3 291.3-420.8 115.1-722.9 298.5-722.9 669 0 334.5 244.6 589.9 669 658.2v211.4c0 68 55.1 123.2 123.1 123.2h124.2c68 0 123.2-55.2 123.2-123.2v-189.8c203.8-8.1 352.2-43 470-84.4 60.4-21.2 93.3-86.2 76.6-147.9l-49.4-182.1c-19-70.2-94.1-108.6-162.1-82.9-108.4 41-261.7 83.7-461 83.7-251.8 0-323.7-104.3-323.7-197.8 0-115.1 151-194.3 478.3-295 467.6-140.3 661.9-334.5 661.9-683.4 0-320.1-237.4-607.9-697.8-679.8v-236.5c0-68-55.2-123.2-123.2-123.2h-124.2c-68 0-123.1 55.2-123.1 123.2"/>
  </g>
  <g clip-path="url(#bC)" transform="matrix(.13333 0 0 -.13333 -606.69 4338.347)">
    <path fill="url(#bD)" d="M25439.5 16117.3c-960.7 0-1739.5 778.8-1739.5 1739.6 0 960.7 778.8 1739.5 1739.5 1739.5 508.8 0 966.6-218.4 1284.7-566.6 282.6-309.3 454.9-721 454.9-1172.9 0-915.3-706.8-1665.4-1604.3-1734.4-44.6-3.5-89.8-5.2-135.3-5.2m0 3421.3c-928.8 0-1681.7-752.9-1681.7-1681.7 0-928.8 752.9-1681.8 1681.7-1681.8 928.8 0 1681.8 753 1681.8 1681.8s-753 1681.7-1681.8 1681.7"/>
  </g>
  <g clip-path="url(#bE)" transform="matrix(.13333 0 0 -.13333 -606.69 4338.347)">
    <path fill="url(#bF)" d="M25439.5 16175.1c-928.8 0-1681.7 753-1681.7 1681.8s752.9 1681.7 1681.7 1681.7c928.8 0 1681.8-752.9 1681.8-1681.7 0-928.8-753-1681.8-1681.8-1681.8m36.7 3068.5c-786.1 0-1423.4-637.3-1423.4-1423.4 0-786.1 637.3-1423.4 1423.4-1423.4 786.1 0 1423.4 637.3 1423.4 1423.4 0 786.1-637.3 1423.4-1423.4 1423.4m-36.7 219.5c-609.9 0-1159.7-338.5-1434.7-883.4-13.4-26.5-2.8-58.9 23.7-72.3 7.8-3.9 16.1-5.8 24.2-5.8 19.7 0 38.7 10.9 48.1 29.6 256.7 508.4 769.6 824.3 1338.7 824.3 90.8 0 181.8-8.2 270.5-24.4 3.3-.6 6.7-.9 10-.9 25.3 0 47.8 18.3 52.6 44.2 5.3 29.3-14.1 57.3-43.4 62.6-95 17.4-192.5 26.1-289.7 26.1"/>
  </g>
  <g clip-path="url(#bG)" transform="matrix(.13333 0 0 -.13333 -606.69 4338.347)">
    <path fill="url(#bH)" d="M24052.7 18501.6c-8.1 0-16.4 1.9-24.2 5.8-26.5 13.4-37.1 45.8-23.7 72.3 275 544.9 824.8 883.4 1434.7 883.4 97.2 0 194.7-8.7 289.7-26.1 29.3-5.3 48.7-33.3 43.4-62.6-4.8-25.9-27.3-44.2-52.6-44.2-3.3 0-6.7.3-10 .9-88.7 16.2-179.7 24.4-270.5 24.4-569.1 0-1082-315.9-1338.7-824.3-9.4-18.7-28.4-29.6-48.1-29.6"/>
  </g>
  <g clip-path="url(#bI)" transform="matrix(.13333 0 0 -.13333 -606.69 4338.347)">
    <path fill="url(#bJ)" d="M25476.2 16396.8c-786.1 0-1423.4 637.3-1423.4 1423.4 0 786.1 637.3 1423.4 1423.4 1423.4 786.1 0 1423.4-637.3 1423.4-1423.4 0-786.1-637.3-1423.4-1423.4-1423.4"/>
  </g>
  <g clip-path="url(#bK)" transform="matrix(.13333 0 0 -.13333 -606.69 4338.347)">
    <path fill="url(#bL)" d="M25336.5 16762.1v154.8c-161.4 6.5-321.1 44.6-434.5 94.2-40.5 17.7-61.2 63.2-49.5 105.8l39.3 144.3c14.5 52.9 72 80.3 122.6 59.1 112.5-47.2 251.4-84.5 401.2-84.5 155.4 0 271.4 52.7 271.4 160.8 0 97.5-89.6 155.4-305.7 213.4-308.3 84.4-529.7 218.8-529.7 490.2 0 245.1 179.2 432.2 490.2 482.3v154.9c0 49.8 40.4 90.2 90.2 90.2h91c49.8 0 90.2-40.4 90.2-90.2v-139.1c149.4-6 258.1-31.5 344.4-61.8 44.2-15.6 68.4-63.2 56.1-108.4l-36.1-133.4c-14-51.5-69-79.7-118.8-60.8-79.5 30-191.8 61.3-337.8 61.3-184.5 0-237.2-76.4-237.2-144.9 0-84.3 110.7-142.3 350.5-216.1 342.6-102.8 484.9-245.1 484.9-500.7 0-234.6-173.9-445.4-511.3-498.1v-173.3c0-49.9-40.3-90.3-90.2-90.3h-91c-49.8 0-90.2 40.4-90.2 90.3"/>
  </g>
  <path fill="#91b3fa" d="M2695.736 790.187H1004.203c-54.814 0-99.254-44.44-99.254-99.254V238.627c0-54.827 44.44-99.254 99.254-99.254h1691.533c54.813 0 99.253 44.427 99.253 99.254v452.306c0 54.814-44.44 99.254-99.253 99.254"/>
  <path fill="#fff" d="M2713.003 745.627H992.229c-16.2 0-29.333-13.134-29.333-29.334v-503c0-16.2 13.133-29.333 29.333-29.333h1720.774c16.2 0 29.333 13.133 29.333 29.333v503c0 16.2-13.133 29.334-29.333 29.334"/>
  <g clip-path="url(#bM)" transform="matrix(.13333 0 0 -.13333 -983.185 4338.347)">
    <path fill="url(#bN)" d="m18907.3 27725.9-467.4-.9-4.9 2530.5 1133.7 2.2.7-406.7-666.3-1.3 1.4-702.8 621.3 1.3.8-406.8-621.3-1.2 2-1014.3"/>
  </g>
  <g clip-path="url(#bO)" transform="matrix(.13333 0 0 -.13333 -983.185 4338.347)">
    <path fill="url(#bP)" d="m20358.4 29118.6 121.2.3c110.8.2 190.3 31.8 238.6 94.8 48.3 63 72.4 156.8 72.2 281.4-.3 129.2-26.1 221.2-77.6 275.9-51.5 54.7-130.8 82-238.2 81.8l-117.7-.3zm.8-405 1.9-984.8-470.7-.9-5 2530.4 616.1 1.3c260.8.5 453.3-60.9 577.7-184.1 124.2-123.2 186.6-311.8 187.1-565.6.7-319.7-106.8-543.1-322.3-670.5l488.5-1108.5-503.6-1-401.8 984-167.9-.3"/>
  </g>
  <g clip-path="url(#bQ)" transform="matrix(.13333 0 0 -.13333 -983.185 4338.347)">
    <path fill="url(#bR)" d="m22803.3 27733.6-1140.6-2.2-4.9 2530.4 1140.5 2.3.8-406.7-669.8-1.4 1.2-602.3 621.4 1.2.8-408.5-621.4-1.2 1.4-700.9 669.8 1.3.8-412"/>
  </g>
  <g clip-path="url(#bS)" transform="matrix(.13333 0 0 -.13333 -983.185 4338.347)">
    <path fill="url(#bT)" d="m24312.6 27736.6-1140.6-2.2-5 2530.4 1140.6 2.3.8-406.7-669.8-1.4 1.2-602.3 621.4 1.2.8-408.5-621.4-1.2 1.4-701 669.8 1.4.8-412"/>
  </g>
</svg>
