<svg xmlns="http://www.w3.org/2000/svg" xml:space="preserve" viewBox="0 0 3698.6091 3699.7832">
  <defs>
    <linearGradient id="b" x1="0" x2="1" y1="0" y2="0" gradientTransform="matrix(-24465.3 30384.4 30384.4 24465.3 35739.2 -3195.3)" gradientUnits="userSpaceOnUse" spreadMethod="pad">
      <stop offset="0" stop-color="#dae3fe"/>
      <stop offset="1" stop-color="#e9effd"/>
    </linearGradient>
    <linearGradient id="d" x1="0" x2="1" y1="0" y2="0" gradientTransform="matrix(2104.76 0 0 -2104.76 10588.9 18521.6)" gradientUnits="userSpaceOnUse" spreadMethod="pad">
      <stop offset="0" stop-color="#dae3fe"/>
      <stop offset="1" stop-color="#e9effd"/>
    </linearGradient>
    <linearGradient id="f" x1="0" x2="1" y1="0" y2="0" gradientTransform="matrix(2100.4 0 0 -2100.4 8248.28 18521.8)" gradientUnits="userSpaceOnUse" spreadMethod="pad">
      <stop offset="0" stop-color="#dae3fe"/>
      <stop offset="1" stop-color="#e9effd"/>
    </linearGradient>
    <linearGradient id="h" x1="0" x2="1" y1="0" y2="0" gradientTransform="matrix(2096.03 0 0 -2096.03 5910 18522.1)" gradientUnits="userSpaceOnUse" spreadMethod="pad">
      <stop offset="0" stop-color="#dae3fe"/>
      <stop offset="1" stop-color="#e9effd"/>
    </linearGradient>
    <linearGradient id="j" x1="0" x2="1" y1="0" y2="0" gradientTransform="matrix(2101.07 0 0 -2101.07 10562.8 16990.3)" gradientUnits="userSpaceOnUse" spreadMethod="pad">
      <stop offset="0" stop-color="#dae3fe"/>
      <stop offset="1" stop-color="#e9effd"/>
    </linearGradient>
    <linearGradient id="l" x1="0" x2="1" y1="0" y2="0" gradientTransform="matrix(2096.72 0 0 -2096.72 8226.26 16991.3)" gradientUnits="userSpaceOnUse" spreadMethod="pad">
      <stop offset="0" stop-color="#dae3fe"/>
      <stop offset="1" stop-color="#e9effd"/>
    </linearGradient>
    <linearGradient id="n" x1="0" x2="1" y1="0" y2="0" gradientTransform="matrix(2092.35 0 0 -2092.35 5892.05 16992.2)" gradientUnits="userSpaceOnUse" spreadMethod="pad">
      <stop offset="0" stop-color="#dae3fe"/>
      <stop offset="1" stop-color="#e9effd"/>
    </linearGradient>
    <linearGradient id="p" x1="0" x2="1" y1="0" y2="0" gradientTransform="matrix(2097.38 0 0 -2097.38 10536.8 15472.2)" gradientUnits="userSpaceOnUse" spreadMethod="pad">
      <stop offset="0" stop-color="#dae3fe"/>
      <stop offset="1" stop-color="#e9effd"/>
    </linearGradient>
    <linearGradient id="r" x1="0" x2="1" y1="0" y2="0" gradientTransform="matrix(2093.04 0 0 -2093.04 8204.32 15474)" gradientUnits="userSpaceOnUse" spreadMethod="pad">
      <stop offset="0" stop-color="#dae3fe"/>
      <stop offset="1" stop-color="#e9effd"/>
    </linearGradient>
    <linearGradient id="t" x1="0" x2="1" y1="0" y2="0" gradientTransform="matrix(2088.7 0 0 -2088.7 5874.17 15475.7)" gradientUnits="userSpaceOnUse" spreadMethod="pad">
      <stop offset="0" stop-color="#dae3fe"/>
      <stop offset="1" stop-color="#e9effd"/>
    </linearGradient>
    <linearGradient id="v" x1="0" x2="1" y1="0" y2="0" gradientTransform="matrix(2093.71 0 0 -2093.71 10510.9 13959.4)" gradientUnits="userSpaceOnUse" spreadMethod="pad">
      <stop offset="0" stop-color="#dae3fe"/>
      <stop offset="1" stop-color="#e9effd"/>
    </linearGradient>
    <linearGradient id="x" x1="0" x2="1" y1="0" y2="0" gradientTransform="matrix(2089.39 0 0 -2089.39 8182.45 13961.9)" gradientUnits="userSpaceOnUse" spreadMethod="pad">
      <stop offset="0" stop-color="#dae3fe"/>
      <stop offset="1" stop-color="#e9effd"/>
    </linearGradient>
    <linearGradient id="z" x1="0" x2="1" y1="0" y2="0" gradientTransform="matrix(2085.06 0 0 -2085.06 5856.34 13964.4)" gradientUnits="userSpaceOnUse" spreadMethod="pad">
      <stop offset="0" stop-color="#dae3fe"/>
      <stop offset="1" stop-color="#e9effd"/>
    </linearGradient>
    <linearGradient id="B" x1="0" x2="1" y1="0" y2="0" gradientTransform="matrix(2090.04 0 0 -2090.04 10485.1 12451.9)" gradientUnits="userSpaceOnUse" spreadMethod="pad">
      <stop offset="0" stop-color="#dae3fe"/>
      <stop offset="1" stop-color="#e9effd"/>
    </linearGradient>
    <linearGradient id="D" x1="0" x2="1" y1="0" y2="0" gradientTransform="matrix(2085.74 0 0 -2085.74 8160.66 12455.1)" gradientUnits="userSpaceOnUse" spreadMethod="pad">
      <stop offset="0" stop-color="#dae3fe"/>
      <stop offset="1" stop-color="#e9effd"/>
    </linearGradient>
    <linearGradient id="F" x1="0" x2="1" y1="0" y2="0" gradientTransform="matrix(2081.43 0 0 -2081.43 5838.57 12458.4)" gradientUnits="userSpaceOnUse" spreadMethod="pad">
      <stop offset="0" stop-color="#dae3fe"/>
      <stop offset="1" stop-color="#e9effd"/>
    </linearGradient>
    <linearGradient id="H" x1="0" x2="1" y1="0" y2="0" gradientTransform="matrix(2086.4 0 0 -2086.4 10459.3 10949.5)" gradientUnits="userSpaceOnUse" spreadMethod="pad">
      <stop offset="0" stop-color="#dae3fe"/>
      <stop offset="1" stop-color="#e9effd"/>
    </linearGradient>
    <linearGradient id="J" x1="0" x2="1" y1="0" y2="0" gradientTransform="matrix(2082.11 0 0 -2082.11 8138.94 10953.5)" gradientUnits="userSpaceOnUse" spreadMethod="pad">
      <stop offset="0" stop-color="#dae3fe"/>
      <stop offset="1" stop-color="#e9effd"/>
    </linearGradient>
    <linearGradient id="L" x1="0" x2="1" y1="0" y2="0" gradientTransform="matrix(2077.81 0 0 -2077.81 5820.87 10957.5)" gradientUnits="userSpaceOnUse" spreadMethod="pad">
      <stop offset="0" stop-color="#dae3fe"/>
      <stop offset="1" stop-color="#e9effd"/>
    </linearGradient>
    <linearGradient id="N" x1="0" x2="1" y1="0" y2="0" gradientTransform="matrix(2082.77 0 0 -2082.77 10433.7 9452.4)" gradientUnits="userSpaceOnUse" spreadMethod="pad">
      <stop offset="0" stop-color="#dae3fe"/>
      <stop offset="1" stop-color="#e9effd"/>
    </linearGradient>
    <linearGradient id="P" x1="0" x2="1" y1="0" y2="0" gradientTransform="matrix(2078.48 0 0 -2078.48 8117.3 9457.1)" gradientUnits="userSpaceOnUse" spreadMethod="pad">
      <stop offset="0" stop-color="#dae3fe"/>
      <stop offset="1" stop-color="#e9effd"/>
    </linearGradient>
    <linearGradient id="R" x1="0" x2="1" y1="0" y2="0" gradientTransform="matrix(2074.21 0 0 -2074.21 5803.22 9461.8)" gradientUnits="userSpaceOnUse" spreadMethod="pad">
      <stop offset="0" stop-color="#dae3fe"/>
      <stop offset="1" stop-color="#e9effd"/>
    </linearGradient>
    <linearGradient id="T" x1="0" x2="1" y1="0" y2="0" gradientTransform="matrix(2079.15 0 0 -2079.15 10408.1 7960.3)" gradientUnits="userSpaceOnUse" spreadMethod="pad">
      <stop offset="0" stop-color="#dae3fe"/>
      <stop offset="1" stop-color="#e9effd"/>
    </linearGradient>
    <linearGradient id="V" x1="0" x2="1" y1="0" y2="0" gradientTransform="matrix(2074.88 0 0 -2074.88 8095.74 7965.8)" gradientUnits="userSpaceOnUse" spreadMethod="pad">
      <stop offset="0" stop-color="#dae3fe"/>
      <stop offset="1" stop-color="#e9effd"/>
    </linearGradient>
    <linearGradient id="X" x1="0" x2="1" y1="0" y2="0" gradientTransform="matrix(2070.62 0 0 -2070.62 5785.64 7971.2)" gradientUnits="userSpaceOnUse" spreadMethod="pad">
      <stop offset="0" stop-color="#dae3fe"/>
      <stop offset="1" stop-color="#e9effd"/>
    </linearGradient>
    <linearGradient id="Z" x1="0" x2="1" y1="0" y2="0" gradientTransform="matrix(2075.54 0 0 -2075.54 10382.7 6473.4)" gradientUnits="userSpaceOnUse" spreadMethod="pad">
      <stop offset="0" stop-color="#dae3fe"/>
      <stop offset="1" stop-color="#e9effd"/>
    </linearGradient>
    <linearGradient id="ab" x1="0" x2="1" y1="0" y2="0" gradientTransform="matrix(2071.29 0 0 -2071.29 8074.24 6479.6)" gradientUnits="userSpaceOnUse" spreadMethod="pad">
      <stop offset="0" stop-color="#dae3fe"/>
      <stop offset="1" stop-color="#e9effd"/>
    </linearGradient>
    <linearGradient id="ad" x1="0" x2="1" y1="0" y2="0" gradientTransform="matrix(2067.04 0 0 -2067.04 5768.12 6485.8)" gradientUnits="userSpaceOnUse" spreadMethod="pad">
      <stop offset="0" stop-color="#dae3fe"/>
      <stop offset="1" stop-color="#e9effd"/>
    </linearGradient>
    <linearGradient id="af" x1="0" x2="1" y1="0" y2="0" gradientTransform="matrix(-6041.09 -35239.6 -35239.6 6041.09 27412.9 45001.9)" gradientUnits="userSpaceOnUse" spreadMethod="pad">
      <stop offset="0" stop-color="#4042e2"/>
      <stop offset="1" stop-color="#4f52ff"/>
    </linearGradient>
    <linearGradient id="ah" x1="0" x2="1" y1="0" y2="0" gradientTransform="matrix(10682.3 0 0 -10682.3 17120 15881)" gradientUnits="userSpaceOnUse" spreadMethod="pad">
      <stop offset="0" stop-color="#4042e2"/>
      <stop offset="1" stop-color="#4f52ff"/>
    </linearGradient>
    <linearGradient id="aj" x1="0" x2="1" y1="0" y2="0" gradientTransform="matrix(3249.93 7499.83 7499.83 -3249.93 23293 27657.6)" gradientUnits="userSpaceOnUse" spreadMethod="pad">
      <stop offset="0" stop-color="#09005d"/>
      <stop offset="1" stop-color="#1a0f91"/>
    </linearGradient>
    <linearGradient id="al" x1="0" x2="1" y1="0" y2="0" gradientTransform="matrix(-7313.92 -50693 -50693 7313.92 23588.4 22799.1)" gradientUnits="userSpaceOnUse" spreadMethod="pad">
      <stop offset="0" stop-color="#febbba"/>
      <stop offset="1" stop-color="#ff928e"/>
    </linearGradient>
    <linearGradient id="an" x1="0" x2="1" y1="0" y2="0" gradientTransform="matrix(-7313.92 -50693 -50693 7313.92 23396.6 22826.7)" gradientUnits="userSpaceOnUse" spreadMethod="pad">
      <stop offset="0" stop-color="#febbba"/>
      <stop offset="1" stop-color="#ff928e"/>
    </linearGradient>
    <linearGradient id="ap" x1="0" x2="1" y1="0" y2="0" gradientTransform="matrix(10721.9 21317.6 21317.6 -10721.9 23814.2 17033.8)" gradientUnits="userSpaceOnUse" spreadMethod="pad">
      <stop offset="0" stop-color="#fe7062"/>
      <stop offset="1" stop-color="#ff928e"/>
    </linearGradient>
    <linearGradient id="ar" x1="0" x2="1" y1="0" y2="0" gradientTransform="matrix(1186.01 0 0 -1186.01 9375.82 5346.4)" gradientUnits="userSpaceOnUse" spreadMethod="pad">
      <stop offset="0" stop-color="#09005d"/>
      <stop offset="1" stop-color="#1a0f91"/>
    </linearGradient>
    <linearGradient id="at" x1="0" x2="1" y1="0" y2="0" gradientTransform="matrix(-226.548 -1977.16 -1977.16 226.548 9705.63 6696.7)" gradientUnits="userSpaceOnUse" spreadMethod="pad">
      <stop offset="0" stop-color="#febbba"/>
      <stop offset="1" stop-color="#ff928e"/>
    </linearGradient>
    <linearGradient id="av" x1="0" x2="1" y1="0" y2="0" gradientTransform="matrix(1707.25 0 0 -1707.25 11181.8 5316.3)" gradientUnits="userSpaceOnUse" spreadMethod="pad">
      <stop offset="0" stop-color="#09005d"/>
      <stop offset="1" stop-color="#1a0f91"/>
    </linearGradient>
    <linearGradient id="ax" x1="0" x2="1" y1="0" y2="0" gradientTransform="matrix(-101.733 -1987.49 -1987.49 101.733 11520.1 6487.8)" gradientUnits="userSpaceOnUse" spreadMethod="pad">
      <stop offset="0" stop-color="#febbba"/>
      <stop offset="1" stop-color="#ff928e"/>
    </linearGradient>
    <linearGradient id="az" x1="0" x2="1" y1="0" y2="0" gradientTransform="matrix(-2344.95 11181.4 -11181.4 -2344.95 11207.3 4831.4)" gradientUnits="userSpaceOnUse" spreadMethod="pad">
      <stop offset="0" stop-color="#09005d"/>
      <stop offset="1" stop-color="#1a0f91"/>
    </linearGradient>
    <linearGradient id="aB" x1="0" x2="1" y1="0" y2="0" gradientTransform="matrix(-5181.32 -5716.16 -5716.16 5181.32 13602.2 20109.3)" gradientUnits="userSpaceOnUse" spreadMethod="pad">
      <stop offset="0" stop-color="#4042e2"/>
      <stop offset="1" stop-color="#4f52ff"/>
    </linearGradient>
    <linearGradient id="aD" x1="0" x2="1" y1="0" y2="0" gradientTransform="matrix(-7552.78 -13862.7 -13862.7 7552.78 12594.9 19791.9)" gradientUnits="userSpaceOnUse" spreadMethod="pad">
      <stop offset="0" stop-color="#4042e2"/>
      <stop offset="1" stop-color="#4f52ff"/>
    </linearGradient>
    <linearGradient id="aF" x1="0" x2="1" y1="0" y2="0" gradientTransform="matrix(526.163 1436.83 1436.83 -526.163 10609.4 18220.4)" gradientUnits="userSpaceOnUse" spreadMethod="pad">
      <stop offset="0" stop-color="#febbba"/>
      <stop offset="1" stop-color="#ff928e"/>
    </linearGradient>
    <linearGradient id="aH" x1="0" x2="1" y1="0" y2="0" gradientTransform="matrix(-244.452 -1866.72 -1866.72 244.452 11064.8 22851.7)" gradientUnits="userSpaceOnUse" spreadMethod="pad">
      <stop offset="0" stop-color="#4042e2"/>
      <stop offset="1" stop-color="#4f52ff"/>
    </linearGradient>
    <linearGradient id="aJ" x1="0" x2="1" y1="0" y2="0" gradientTransform="matrix(-244.452 -1866.71 -1866.71 244.452 11492.3 22795.7)" gradientUnits="userSpaceOnUse" spreadMethod="pad">
      <stop offset="0" stop-color="#4042e2"/>
      <stop offset="1" stop-color="#4f52ff"/>
    </linearGradient>
    <linearGradient id="aL" x1="0" x2="1" y1="0" y2="0" gradientTransform="matrix(-3134.99 -2496.89 -2496.89 3134.99 11902.7 20375.7)" gradientUnits="userSpaceOnUse" spreadMethod="pad">
      <stop offset="0" stop-color="#febbba"/>
      <stop offset="1" stop-color="#ff928e"/>
    </linearGradient>
    <linearGradient id="aN" x1="0" x2="1" y1="0" y2="0" gradientTransform="matrix(1436.9 -1850.01 -1850.01 -1436.9 10692.4 21197.1)" gradientUnits="userSpaceOnUse" spreadMethod="pad">
      <stop offset="0" stop-color="#09005d"/>
      <stop offset="1" stop-color="#1a0f91"/>
    </linearGradient>
    <linearGradient id="aP" x1="0" x2="1" y1="0" y2="0" gradientTransform="matrix(-1542.82 -1180.49 -1180.49 1542.82 11587.1 20512.5)" gradientUnits="userSpaceOnUse" spreadMethod="pad">
      <stop offset="0" stop-color="#febbba"/>
      <stop offset="1" stop-color="#ff928e"/>
    </linearGradient>
    <linearGradient id="aR" x1="0" x2="1" y1="0" y2="0" gradientTransform="matrix(-3266.6 -2821.73 2821.73 -3266.6 15238.7 19732.6)" gradientUnits="userSpaceOnUse" spreadMethod="pad">
      <stop offset="0" stop-color="#febbba"/>
      <stop offset="1" stop-color="#ff928e"/>
    </linearGradient>
    <linearGradient id="aT" x1="0" x2="1" y1="0" y2="0" gradientTransform="matrix(-3179.75 -2746.71 2746.71 -3179.75 15306.8 19469.5)" gradientUnits="userSpaceOnUse" spreadMethod="pad">
      <stop offset="0" stop-color="#febbba"/>
      <stop offset="1" stop-color="#ff928e"/>
    </linearGradient>
    <linearGradient id="aV" x1="0" x2="1" y1="0" y2="0" gradientTransform="matrix(-3266.59 -2821.73 2821.73 -3266.59 15359.6 19592.6)" gradientUnits="userSpaceOnUse" spreadMethod="pad">
      <stop offset="0" stop-color="#febbba"/>
      <stop offset="1" stop-color="#ff928e"/>
    </linearGradient>
    <linearGradient id="aX" x1="0" x2="1" y1="0" y2="0" gradientTransform="matrix(8260.98 -10904.6 -10904.6 -8260.98 11236.3 25362.1)" gradientUnits="userSpaceOnUse" spreadMethod="pad">
      <stop offset="0" stop-color="#e1473d"/>
      <stop offset="1" stop-color="#e9605a"/>
    </linearGradient>
    <linearGradient id="aZ" x1="0" x2="1" y1="0" y2="0" gradientTransform="matrix(-1534.75 -7527.01 -7527.01 1534.75 20071.9 23432.3)" gradientUnits="userSpaceOnUse" spreadMethod="pad">
      <stop offset="0" stop-color="#fe7062"/>
      <stop offset="1" stop-color="#ff928e"/>
    </linearGradient>
    <linearGradient id="bb" x1="0" x2="1" y1="0" y2="0" gradientTransform="matrix(12954.2 -968.524 -968.524 -12954.2 12135.8 19871.3)" gradientUnits="userSpaceOnUse" spreadMethod="pad">
      <stop offset="0" stop-color="#ff9085"/>
      <stop offset="1" stop-color="#fb6fbb"/>
    </linearGradient>
    <linearGradient id="bd" x1="0" x2="1" y1="0" y2="0" gradientTransform="matrix(3133.41 7966.87 7966.87 -3133.41 18026.9 20363)" gradientUnits="userSpaceOnUse" spreadMethod="pad">
      <stop offset="0" stop-color="#fe7062"/>
      <stop offset="1" stop-color="#ff928e"/>
    </linearGradient>
    <linearGradient id="bf" x1="0" x2="1" y1="0" y2="0" gradientTransform="matrix(-533.348 -1033.36 -1033.36 533.348 19752.9 28839.1)" gradientUnits="userSpaceOnUse" spreadMethod="pad">
      <stop offset="0" stop-color="#fe7062"/>
      <stop offset="1" stop-color="#ff928e"/>
    </linearGradient>
    <linearGradient id="bh" x1="0" x2="1" y1="0" y2="0" gradientTransform="matrix(-1553.51 -7749.54 -7749.54 1553.51 13290.1 17277.5)" gradientUnits="userSpaceOnUse" spreadMethod="pad">
      <stop offset="0" stop-color="#febbba"/>
      <stop offset="1" stop-color="#ff928e"/>
    </linearGradient>
    <linearGradient id="bj" x1="0" x2="1" y1="0" y2="0" gradientTransform="matrix(-24465.3 30384.4 30384.4 24465.3 35739.2 -3195.3)" gradientUnits="userSpaceOnUse" spreadMethod="pad">
      <stop offset="0" stop-color="#c4d5fd"/>
      <stop offset="1" stop-color="#ceddfc"/>
    </linearGradient>
    <linearGradient id="bl" x1="0" x2="1" y1="0" y2="0" gradientTransform="matrix(-24465.3 30384.4 30384.4 24465.3 35739.2 -3195.3)" gradientUnits="userSpaceOnUse" spreadMethod="pad">
      <stop offset="0" stop-color="#c4d5fd"/>
      <stop offset="1" stop-color="#ceddfc"/>
    </linearGradient>
    <linearGradient id="bn" x1="0" x2="1" y1="0" y2="0" gradientTransform="matrix(-6041.09 -35239.6 -35239.6 6041.09 27412.9 45001.9)" gradientUnits="userSpaceOnUse" spreadMethod="pad">
      <stop offset="0" stop-color="#5864e9"/>
      <stop offset="1" stop-color="#636ffd"/>
    </linearGradient>
    <linearGradient id="bp" x1="0" x2="1" y1="0" y2="0" gradientTransform="matrix(3249.93 7499.83 7499.83 -3249.93 23293 27657.6)" gradientUnits="userSpaceOnUse" spreadMethod="pad">
      <stop offset="0" stop-color="#32368c"/>
      <stop offset="1" stop-color="#3e41b1"/>
    </linearGradient>
    <linearGradient id="br" x1="0" x2="1" y1="0" y2="0" gradientTransform="matrix(-6041.09 -35239.6 -35239.6 6041.09 27412.9 45001.9)" gradientUnits="userSpaceOnUse" spreadMethod="pad">
      <stop offset="0" stop-color="#5864e9"/>
      <stop offset="1" stop-color="#636ffd"/>
    </linearGradient>
    <linearGradient id="bt" x1="0" x2="1" y1="0" y2="0" gradientTransform="matrix(3249.93 7499.83 7499.83 -3249.93 23293 27657.6)" gradientUnits="userSpaceOnUse" spreadMethod="pad">
      <stop offset="0" stop-color="#32368c"/>
      <stop offset="1" stop-color="#3e41b1"/>
    </linearGradient>
    <linearGradient id="bv" x1="0" x2="1" y1="0" y2="0" gradientTransform="matrix(-6041.09 -35239.6 -35239.6 6041.09 27412.9 45001.9)" gradientUnits="userSpaceOnUse" spreadMethod="pad">
      <stop offset="0" stop-color="#5864e9"/>
      <stop offset="1" stop-color="#636ffd"/>
    </linearGradient>
    <linearGradient id="bx" x1="0" x2="1" y1="0" y2="0" gradientTransform="matrix(-24465.3 30384.4 30384.4 24465.3 35739.2 -3195.3)" gradientUnits="userSpaceOnUse" spreadMethod="pad">
      <stop offset="0" stop-color="#c4d5fd"/>
      <stop offset="1" stop-color="#ceddfc"/>
    </linearGradient>
    <linearGradient id="bz" x1="0" x2="1" y1="0" y2="0" gradientTransform="matrix(-6041.09 -35239.6 -35239.6 6041.09 27412.9 45001.9)" gradientUnits="userSpaceOnUse" spreadMethod="pad">
      <stop offset="0" stop-color="#5864e9"/>
      <stop offset="1" stop-color="#636ffd"/>
    </linearGradient>
    <linearGradient id="bB" x1="0" x2="1" y1="0" y2="0" gradientTransform="matrix(-24465.3 30384.4 30384.4 24465.3 35739.2 -3195.3)" gradientUnits="userSpaceOnUse" spreadMethod="pad">
      <stop offset="0" stop-color="#c4d5fd"/>
      <stop offset="1" stop-color="#ceddfc"/>
    </linearGradient>
    <linearGradient id="bD" x1="0" x2="1" y1="0" y2="0" gradientTransform="matrix(-6041.09 -35239.6 -35239.6 6041.09 27412.9 45001.9)" gradientUnits="userSpaceOnUse" spreadMethod="pad">
      <stop offset="0" stop-color="#5864e9"/>
      <stop offset="1" stop-color="#636ffd"/>
    </linearGradient>
    <linearGradient id="bF" x1="0" x2="1" y1="0" y2="0" gradientTransform="matrix(-6041.09 -35239.6 -35239.6 6041.09 27412.9 45001.9)" gradientUnits="userSpaceOnUse" spreadMethod="pad">
      <stop offset="0" stop-color="#5864e9"/>
      <stop offset="1" stop-color="#636ffd"/>
    </linearGradient>
    <linearGradient id="bH" x1="0" x2="1" y1="0" y2="0" gradientTransform="matrix(-24465.3 30384.4 30384.4 24465.3 35739.2 -3195.3)" gradientUnits="userSpaceOnUse" spreadMethod="pad">
      <stop offset="0" stop-color="#c4d5fd"/>
      <stop offset="1" stop-color="#ceddfc"/>
    </linearGradient>
    <linearGradient id="bJ" x1="0" x2="1" y1="0" y2="0" gradientTransform="matrix(-6041.09 -35239.6 -35239.6 6041.09 27412.9 45001.9)" gradientUnits="userSpaceOnUse" spreadMethod="pad">
      <stop offset="0" stop-color="#5864e9"/>
      <stop offset="1" stop-color="#636ffd"/>
    </linearGradient>
    <clipPath id="a" clipPathUnits="userSpaceOnUse">
      <path d="M5063.74 14074.5c-576.11 2343-480.69 4874.4 135.95 7235.1 140.07-396.5 319.19-764.2 528.6-1096.9 96.82-153.8 186.15-311.5 267.78-472.6h-449.63c-193.93 0-352.15-126.7-355.79-280.8l-126.91-5384.8m27200.36 5256.4c-71 46.8-161.9 75.9-253.7 75.9h-1167.9v4638.1c2.1.7 4.1 1.4 6.2 2.3 97 42.5 192.4 91.5 283.4 145.5 1 .6 2.1 1.3 3.1 2 641.1-1552.4 1007.7-3210.4 1128.9-4863.8m-1421.6 4846.9v677.4c86.2-181.8 168.5-365.5 246.7-550.6-6.6-1.3-13-3.7-19.1-7.3-73.5-43.5-149.8-83.6-227.6-119.5m-19211.9 725h-980.8c-750.76 1091.6-1835.91 1764-2910.26 1774.9 638.9 888.7 1738.05 2218.9 3348.26 3364.9-237.4-736.4-317.7-1582.5-197.8-2461.8 68.7-504.5 198.1-980.7 376.3-1416.9 167-408.8 289-831.8 364.3-1261.1M29251.1 27419h-7892.8c-7.8 27-15.4 54.2-22.6 81.3-11.7 44.1-51.6 73.2-95.2 73.2-8.3 0-16.8-1.1-25.2-3.3-52.5-13.9-83.8-67.8-69.9-120.4 2.7-10.3 5.5-20.6 8.3-30.8h-3400.8c-31.7 197-53.2 396.3-64.2 597.4-8.8 160.1-24.1 321.8-46.3 484.7-214.5 1574.1-1018.7 2874.2-2056.9 3543.1 329.6 71.2 669.9 130.2 1020.4 175.3 591.8 76.2 1200.3 114.7 1816.5 114.7 3141.2 0 6498.1-998.8 9044.7-3098.8 668.2-551 1262-1161.2 1784-1816.4m-8136.7 988.9c-1.4 0-2.8 0-4.2-.1-55.1-1.2-96.6-48.1-94.3-102.4 1.2-29 2.7-58.1 4.6-87.2 5.1-80.4 12.7-161.8 22.8-241.9 6.2-49.8 48.6-86.3 97.5-86.3 2.1 0 4.2.1 6.3.2l6 .6c54 6.8 92.3 56 85.5 109.9-9.5 76.2-16.8 153.5-21.6 230-1.8 27.6-3.2 55.3-4.4 82.9-2.2 52.9-45.8 94.3-98.2 94.3m32 679.5c-48.6 0-90.6-35.8-97.4-85.1-7.3-53.2-13.6-107.2-18.7-160.4-5.1-54.2 34.5-102.2 88.7-107.4 3.1-.3 6.2-.5 9.2-.5 2.2 0 4.4.1 6.5.2 47.4 3 87 40.1 91.7 88.9 4.8 50.5 10.8 101.8 17.7 152.4 7.4 53.9-30.2 103.5-84.1 110.9-4.6.7-9.1 1-13.6 1m1542.5 2575.2c-20.2 0-40.5-6.2-58-19-43.4-31.7-86.6-64.6-128.4-97.8-42.6-33.8-49.7-95.7-15.9-138.3 19.4-24.5 48.2-37.2 77.2-37.2 2 0 4.1 0 6.2.2 19.4 1.2 38.6 8.1 54.9 21.1 39.8 31.6 80.8 62.8 122.1 93 43.9 32 53.5 93.6 21.5 137.5-19.3 26.4-49.2 40.5-79.6 40.5"/>
    </clipPath>
    <clipPath id="c" clipPathUnits="userSpaceOnUse">
      <path d="m10588.9 18095.2 2088.2 2.3 16.6 850.5h-2090.2l-14.6-852.8"/>
    </clipPath>
    <clipPath id="e" clipPathUnits="userSpaceOnUse">
      <path d="m8248.28 18095.7 2086.12 2.2 14.3 850.1H8260.55Z"/>
    </clipPath>
    <clipPath id="g" clipPathUnits="userSpaceOnUse">
      <path d="m5910 18096.1 2084.01 2.2 12.02 849.7H5920.01Z"/>
    </clipPath>
    <clipPath id="i" clipPathUnits="userSpaceOnUse">
      <path d="m10562.8 16568.5 2084.6-1.1 16.5 845-2086.6.7-14.5-844.6"/>
    </clipPath>
    <clipPath id="k" clipPathUnits="userSpaceOnUse">
      <path d="m8226.26 16569.7 2082.44-1.1 14.3 844.6-2084.51.7z"/>
    </clipPath>
    <clipPath id="m" clipPathUnits="userSpaceOnUse">
      <path d="m5892.05 16570.9 2080.38-1.1 11.98 844.2-2082.39.7z"/>
    </clipPath>
    <clipPath id="o" clipPathUnits="userSpaceOnUse">
      <path d="m10536.8 15052.2 2080.9-1.7 16.5 842.1-2083 1.4-14.4-841.8"/>
    </clipPath>
    <clipPath id="q" clipPathUnits="userSpaceOnUse">
      <path d="m8204.32 15054.2 2078.88-1.7 14.2 841.6-2080.9 1.4z"/>
    </clipPath>
    <clipPath id="s" clipPathUnits="userSpaceOnUse">
      <path d="m5874.17 15056.1 2076.76-1.7 11.93 841.3-2078.76 1.3z"/>
    </clipPath>
    <clipPath id="u" clipPathUnits="userSpaceOnUse">
      <path d="m10510.9 13541.3 2077.3-2.4 16.4 839.1-2079.3 2-14.4-838.7"/>
    </clipPath>
    <clipPath id="w" clipPathUnits="userSpaceOnUse">
      <path d="m8182.45 13543.9 2075.25-2.3 14.1 838.7-2077.21 2z"/>
    </clipPath>
    <clipPath id="y" clipPathUnits="userSpaceOnUse">
      <path d="m5856.34 13546.7 2073.16-2.5 11.9 838.4-2075.17 2z"/>
    </clipPath>
    <clipPath id="A" clipPathUnits="userSpaceOnUse">
      <path d="m10485.1 12035.5 2073.7-3.1 16.3 836.3-2075.7 2.7z"/>
    </clipPath>
    <clipPath id="C" clipPathUnits="userSpaceOnUse">
      <path d="m8160.66 12038.9 2071.64-3.1 14.1 835.9-2073.64 2.7z"/>
    </clipPath>
    <clipPath id="E" clipPathUnits="userSpaceOnUse">
      <path d="m5838.57 12042.4 2069.58-3.1 11.85 835.4-2071.57 2.7z"/>
    </clipPath>
    <clipPath id="G" clipPathUnits="userSpaceOnUse">
      <path d="m10459.3 10534.9 2070.2-3.7 16.2 833.3-2072.1 3.4z"/>
    </clipPath>
    <clipPath id="I" clipPathUnits="userSpaceOnUse">
      <path d="m8138.94 10539.1 2068.06-3.7 14.1 832.9-2070.1 3.4z"/>
    </clipPath>
    <clipPath id="K" clipPathUnits="userSpaceOnUse">
      <path d="m5820.87 10543.3 2066-3.8 11.81 832.6-2067.98 3.4z"/>
    </clipPath>
    <clipPath id="M" clipPathUnits="userSpaceOnUse">
      <path d="m10433.7 9039.5 2066.5-4.4 16.3 830.5-2068.6 4z"/>
    </clipPath>
    <clipPath id="O" clipPathUnits="userSpaceOnUse">
      <path d="m8117.3 9044.4 2064.5-4.4 14 830.1-2066.49 4.1z"/>
    </clipPath>
    <clipPath id="Q" clipPathUnits="userSpaceOnUse">
      <path d="m5803.22 9049.3 2062.44-4.4 11.78 829.7-2064.42 4.1z"/>
    </clipPath>
    <clipPath id="S" clipPathUnits="userSpaceOnUse">
      <path d="m10408.1 7549.2 2063-5 16.2 827.6-2065 4.7z"/>
    </clipPath>
    <clipPath id="U" clipPathUnits="userSpaceOnUse">
      <path d="m8095.74 7554.9 2060.96-5.1 13.9 827.3-2062.89 4.6z"/>
    </clipPath>
    <clipPath id="W" clipPathUnits="userSpaceOnUse">
      <path d="m5785.63 7560.5 2058.9-5 11.72 826.8-2060.85 4.7z"/>
    </clipPath>
    <clipPath id="Y" clipPathUnits="userSpaceOnUse">
      <path d="m10382.7 6064 2059.4-5.7 16.1 824.9-2061.4 5.3z"/>
    </clipPath>
    <clipPath id="aa" clipPathUnits="userSpaceOnUse">
      <path d="m8074.24 6070.4 2057.36-5.7 13.9 824.5-2059.33 5.3z"/>
    </clipPath>
    <clipPath id="ac" clipPathUnits="userSpaceOnUse">
      <path d="m5768.12 6076.8 2055.34-5.7 11.7 824-2057.32 5.4z"/>
    </clipPath>
    <clipPath id="ae" clipPathUnits="userSpaceOnUse">
      <path d="M30612.2 4963.4H14335.7c-127.3 0-230.4 103.1-230.4 230.3v21994.9c0 127.2 103.1 230.4 230.4 230.4h6818c26.3-95.8 56.5-191.4 89.8-284.5 14.4-40.3 52.3-65.4 92.7-65.4 2.1 0 4.1.1 6.2.2 9 .6 18.1 2.5 27 5.6 51.2 18.4 77.8 74.7 59.5 125.9-25.6 71.6-49.3 144.7-70.6 218.2h9253.9c127.2 0 230.3-103.2 230.3-230.4v-3010.8c-14.2-6.5-28.4-12.9-42.7-19.2-30.7-13.5-44.7-49.4-31.3-80.1 10-22.8 32.4-36.4 55.8-36.4 1.2 0 2.5 0 3.8.1 4.8.3 9.7 1.2 14.4 2.7V5193.7c0-127.2-103.1-230.3-230.3-230.3m-1002.8 18990.8c-31.7 0-58.8-24.3-61.1-56.5-2.4-33.5 22.9-62.6 56.3-65 61.6-4.3 123.8-6.5 185.9-6.5 44.2 0 88.5 1.1 132.5 3.3l.8.1c33.1 2.1 58.5 30.5 56.8 63.7-1.6 32.5-28.4 57.8-60.6 57.8-1 0-2.1 0-3.1-.1-42.1-2.1-84.4-3.2-126.7-3.2-59.2 0-118.4 2.1-176.9 6.2-1.3.1-2.6.2-3.9.2m922.6 102.2c-5.7 0-11.5-.8-17.3-2.5-96.7-28.9-196.2-52.2-295.8-69.4-33.1-5.7-55.3-37.1-49.6-70.2 5.1-29.6 30.8-50.5 59.8-50.5 1.3 0 2.6 0 3.9.1 2.2.1 4.3.4 6.5.8 104.4 17.9 208.7 42.4 310.1 72.7 32.1 9.6 50.4 43.5 40.8 75.6-7.9 26.5-32.2 43.4-58.4 43.4m-1532.5 16.9c-25.7 0-49.5-16.3-57.8-42-10.4-31.9 7-66.2 39-76.6 100.4-32.8 204.1-59.7 308.2-80.1 3.9-.8 7.9-1.1 11.7-1.1 1.3 0 2.6 0 3.8.1 27 1.7 50.4 21.3 55.8 49 6.5 32.9-15 64.8-47.9 71.3-99.3 19.5-198.2 45.2-294 76.4-6.2 2-12.6 3-18.8 3m-562.4 262.5c-20.3 0-40.2-10.2-51.7-28.6-17.8-28.6-9.1-66.1 19.4-83.8 89.8-56.1 184-107.1 279.9-151.9 8.3-3.8 17-5.7 25.6-5.7 1.3 0 2.6.1 3.9.2 21.4 1.3 41.6 14.1 51.3 34.9 14.2 30.5 1 66.7-29.4 80.9-91.5 42.6-181.2 91.3-266.9 144.8-10 6.2-21.2 9.2-32.1 9.2m-483.8 389.5c-15.3 0-30.6-5.8-42.4-17.3-24-23.4-24.5-61.9-1.1-85.9 73.7-75.7 152.9-147.9 235.5-214.4 11.2-9 24.7-13.5 38.1-13.5 1.3 0 2.5.1 3.8.2 16.5 1 32.4 8.7 43.6 22.5 21 26.1 16.9 64.4-9.2 85.5-78.8 63.5-154.4 132.3-224.7 204.5-11.9 12.2-27.7 18.4-43.6 18.4m-2636 20.8c-3.3 0-6.6-.1-9.9-.5-104.8-10.2-209.9-16.1-313.4-17.6-54.4-.9-97.8-45.5-97-99.8.7-53.9 44.7-97.1 98.3-97.1h1.5c64.1.9 129.2 3.5 193.7 7.6 45.2 2.8 90.6 6.5 136 10.9 54.1 5.3 93.7 53.4 88.5 107.6-5 50.8-47.9 88.9-97.7 88.9m-1161.8 63.1c-45.6 0-86.6-31.8-96.3-78.1-11.2-53.3 22.8-105.5 76.1-116.7 107.5-22.6 217.1-40.8 325.8-54.2 4.1-.5 8.1-.8 12.1-.8 2.1 0 4.2.1 6.3.2 46.3 3 85.5 38.5 91.4 86.2 6.6 54-31.7 103.1-85.7 109.8-103.2 12.7-207.3 30-309.4 51.5-6.8 1.5-13.6 2.1-20.3 2.1m1987.7 110.2c-10.1 0-20.5-1.6-30.7-5-98.9-32.4-200.5-61-302.1-85.1-52.9-12.6-85.6-65.6-73.1-118.5 10.7-45.3 51.1-75.8 95.7-75.8 2.1 0 4.1.1 6.2.2 5.5.4 11.1 1.2 16.6 2.5 106.9 25.3 213.9 55.5 318 89.6 51.7 16.9 79.9 72.5 62.9 124.2-13.5 41.4-52.1 67.9-93.5 67.9m-2788.6 153.7c-37.4 0-73.1-21.3-89.6-57.5-22.6-49.5-.9-107.9 48.6-130.5 99.9-45.6 202.8-87.6 305.8-124.5 11-4 22.3-5.9 33.3-5.9 2.1 0 4.2.1 6.2.2 38 2.5 72.8 26.9 86.5 65.1 18.3 51.2-8.3 107.5-59.5 125.9-97.8 35.1-195.5 74.9-290.5 118.3-13.2 6.1-27.1 8.9-40.8 8.9m4222.4 146.5c-10.4 0-20.9-2.7-30.6-8.3-29-16.9-38.7-54.2-21.8-83.2 53.3-91.2 113-180.3 177.2-264.7 12-15.7 30.1-24 48.5-24 1.2 0 2.5.1 3.8.2 11.6.7 23.1 4.7 33 12.3 26.7 20.3 31.9 58.5 11.5 85.2-61.3 80.4-118.2 165.4-169 252.4-11.3 19.3-31.7 30.1-52.6 30.1m-665.9 49.7c-17.1 0-34.6-4.5-50.4-13.9-89.4-53.5-182.2-103.7-275.9-149.5-48.9-23.8-69.1-82.8-45.3-131.6 17.1-35 52.1-55.3 88.6-55.3 2 0 4.1 0 6.2.2 12.5.8 25 4 36.9 9.8 98.6 48.1 196.4 101.1 290.5 157.4 46.7 27.9 61.9 88.3 34 134.9-18.4 30.9-51.1 48-84.6 48m-4236.4-16.4c54.9-38.8 110.9-76.4 167.4-112.2 16.4-10.4 34.6-15.3 52.7-15.3 2 0 4.1.1 6.2.2 30.4 1.9 59.4 17.9 77 45.5 29.1 46 15.5 106.8-30.5 135.9-38.5 24.4-76.7 49.6-114.5 75.6 69.5 85.9 111.1 195.4 111.1 314.5 0 276.5-224.1 500.7-500.7 500.7-137.4 0-261.8-55.3-352.3-144.9-19.4 22-46.5 33.3-73.8 33.3-22.5 0-45.1-7.6-63.6-23.3-41.5-35.2-46.6-97.3-11.5-138.8 11.9-14 23.8-27.9 35.9-41.7-22.8-57.3-35.4-119.8-35.4-185.3 0-276.5 224.2-500.7 500.7-500.7 83.5 0 162.1 20.4 231.3 56.5m4788.7 417.6c-22.9 0-45.9-8-64.6-24.3-38.6-33.6-78.1-66.7-117.6-98.4-42.4-34-49.2-96-15.2-138.4 19.4-24.2 48-36.8 76.8-36.8 2.1 0 4.2 0 6.3.2 19.5 1.2 38.9 8.2 55.3 21.4 41.6 33.3 83.2 68.2 123.8 103.6 41 35.8 45.2 97.9 9.5 138.9-19.5 22.3-46.8 33.8-74.3 33.8m-5917.5 1116.1c-15.3 0-30.9-3.6-45.4-11.2-48.2-25.2-66.9-84.7-41.7-132.9 50.8-97.2 106.4-193.5 165.3-286.2 18.8-29.5 50.6-45.6 83.2-45.6 2.1 0 4.2.1 6.2.2 16.1 1 32 5.9 46.5 15.2 45.9 29.1 59.5 89.9 30.3 135.8-55.9 88.1-108.7 179.5-156.9 271.8-17.6 33.6-52 52.9-87.5 52.9"/>
    </clipPath>
    <clipPath id="ag" clipPathUnits="userSpaceOnUse">
      <path d="M27574.2 9043.1H17348c-125.9 0-228 102.1-228 228V22491c0 125.9 102.1 228 228 228h10226.2c125.9 0 228-102.1 228-228V9271.1c0-125.9-102.1-228-228-228z"/>
    </clipPath>
    <clipPath id="ai" clipPathUnits="userSpaceOnUse">
      <path d="M22443.4 25196.4c-276.5 0-500.7 224.2-500.7 500.7 0 65.5 12.6 128 35.4 185.3 60.2-69.1 123.3-136.6 188-201.2 19.2-19.1 44.4-28.7 69.6-28.7 2 0 4.1 0 6.2.2 23.1 1.4 45.8 11 63.5 28.7 38.4 38.5 38.3 100.8-.2 139.2-73.9 73.7-145.5 151.4-212.7 230.8-.5.5-.9 1-1.4 1.5 90.5 89.6 214.9 144.9 352.3 144.9 276.6 0 500.7-224.2 500.7-500.7 0-119.1-41.6-228.6-111.1-314.5-48.6 33.4-96.6 67.9-143.3 103.3-17.8 13.5-38.7 20-59.4 20-29.7 0-59.1-13.4-78.5-39-32.9-43.4-24.3-105.1 19-137.9 34.1-25.9 68.8-51.2 103.9-76.1-69.2-36.1-147.8-56.5-231.3-56.5"/>
    </clipPath>
    <clipPath id="ak" clipPathUnits="userSpaceOnUse">
      <path d="m25678.2 17614-6441.7-107.1c-490.3-8.2-889.2-389.4-889.2-851.5v-4056.8c0-462.1 398.9-820.7 889.2-801l6441.7 258.7c462.7 18.6 836.5 395.6 836.5 842.2v3920.7c0 446.7-373.8 802.5-836.5 794.8z"/>
    </clipPath>
    <clipPath id="am" clipPathUnits="userSpaceOnUse">
      <path d="M26004.3 18347.7c-195.1-2.9-353.5 147.7-353.5 336.3v887.9c0 890.7-753.5 1613.2-1686.2 1610.5l-2098.5-6c-956.7-2.8-1740.7-746.6-1740.7-1658.2v-908.6c0-193-166.1-352-371.3-355.1-205.6-3-372.5 151.5-372.5 345.1v911.4c0 1301 1120.9 2359.5 2484.5 2359.5h2098.5c1325 0 2392.1-1028.1 2392.1-2291.7v-885.3c0-188.1-157.7-342.9-352.4-345.8z"/>
    </clipPath>
    <clipPath id="ao" clipPathUnits="userSpaceOnUse">
      <path d="M23499.6 15365.7c0 450.8-393.6 804.8-872.1 772.3-423-28.8-772.9-367.6-795.8-772.1-17.7-314 154.8-585.3 417.1-722.6 111.5-58.3 166.9-181.4 145.2-303l-183.9-1032.2c-23.4-131.4 82.2-246.9 221.2-241.9l472.7 16.9c138.3 5 243.2 127.5 220 256.8l-183.8 1022.6c-21.9 121.9 41.5 243.1 153.3 310 243.3 145.4 406.1 403.3 406.1 693.2z"/>
    </clipPath>
    <clipPath id="aq" clipPathUnits="userSpaceOnUse">
      <path d="M10561.8 4924.1c.1 8.9-.4 17.8-2.7 26.8-133.6 529.6-796.59 859.5-796.59 859.5l-262.72-20.6c-151.05-466.8-131.64-753.1-107.38-880.6.67-3.6 1.76-7 2.71-10.4 216.72-19.4 662.78-32 1166.68 25.3z"/>
    </clipPath>
    <clipPath id="as" clipPathUnits="userSpaceOnUse">
      <path d="m9394.16 6181.1 111.27-535.7c8.15-39.2 38.31-68.6 74.84-72 44.72-4.2 108.37-6.7 172.39 2.7 57.4 8.4 97.37 66.8 87.2 129.4l-77.35 475.6z"/>
    </clipPath>
    <clipPath id="au" clipPathUnits="userSpaceOnUse">
      <path d="M12889 4948.9c-1.9 4-3.5 8.2-6.3 12-140.7 196.6-499 588.1-1207.1 757.8l-339.7 10.8s-151.2-262.9-154.1-749.9c77.6-31.7 227.7-65.9 517.8-74 448.5-12.6 980.6 26 1189.4 43.3z"/>
    </clipPath>
    <clipPath id="aw" clipPathUnits="userSpaceOnUse">
      <path d="M11257.8 6228.5c5.4-25.1 76-406.2 103.4-554 6.5-35.1 33.9-60.9 66.4-62.7 58.2-3.2 152-3.6 232.7 18.3 43.5 11.8 72.7 56.2 69.6 105.4l-38 602.9z"/>
    </clipPath>
    <clipPath id="ay" clipPathUnits="userSpaceOnUse">
      <path d="M11000.4 13265.9s467.3-3210.9 804.5-7031.9c6.3-71.2-50.4-133.1-120.3-147.8-103.1-21.7-254.5-47.5-379.8-44-67 1.9-122.9 51.5-134.2 117.5-114.8 673.7-934.6 4289.4-1149.7 5085.2 0 0-247.18-3380.3-168.19-5134 1.97-43.6-29.96-81.4-73.32-86.4-65.77-7.6-171-13.4-304.92.8-50.83 5.4-91.84 43.8-99.1 94.4-81.83 570.2-552.82 3964.1-532.8 6408.9 1.14 137.9 161.77 1270.6 161.77 1270.6z"/>
    </clipPath>
    <clipPath id="aA" clipPathUnits="userSpaceOnUse">
      <path d="m11181.5 18665.7 62.5-1680.2c177.7-61.2 346.9-108.7 508-144.3 100.8 324.5 322.7 722.6 504.3 1018.7-667.5 236-1074.8 805.8-1074.8 805.8z"/>
    </clipPath>
    <clipPath id="aC" clipPathUnits="userSpaceOnUse">
      <path d="M8934.11 13080.9c-48.05 17-81.54 60.6-86.77 111.3-62.14 602.9-363.01 4340.9 1536.46 5878.6 0 0 108.9 285 1004.3-415.6s416-1434.9 201.6-2447.7c-259.4-1225.7-714.5-2227.5-513.1-2981.7 13.9-52.1-13.5-106.7-64-125.3-695.6-256.4-1388.42-264.9-2078.49-19.6z"/>
    </clipPath>
    <clipPath id="aE" clipPathUnits="userSpaceOnUse">
      <path d="M11124.7 20190.8c-.6-53.2-759-1130.5-759-1130.5s136.1-268.2 786-485.9l561.1 1153.5z"/>
    </clipPath>
    <clipPath id="aG" clipPathUnits="userSpaceOnUse">
      <path d="M10749 16504.4c-4.7 0-9.5 1.3-13.8 4.2-605.9 409.4-890.92 1070.2-893.74 1076.8-5.29 12.6.56 27 13.06 32.3 12.56 5.3 26.97-.5 32.31-13 2.75-6.5 282.47-654.3 875.97-1055.3 11.3-7.6 14.3-22.9 6.6-34.2-4.7-7-12.5-10.8-20.4-10.8z"/>
    </clipPath>
    <clipPath id="aI" clipPathUnits="userSpaceOnUse">
      <path d="M11651.5 17420.3c-8 0-16 3.9-20.7 11.3-1.8 2.8-186.9 290.9-539.5 922.3-108.4 194.1-250.9 317-423.5 365.3-285.8 79.9-561.3-73.3-564-74.9-11.9-6.5-26.9-2.6-33.6 9.3-6.7 11.8-2.6 26.8 9.2 33.5 11.9 6.8 295.2 165.3 601.2 79.7 185.9-51.9 338.6-182.7 453.7-388.9 351.7-629.7 536.1-916.8 537.9-919.7 7.4-11.4 4.1-26.6-7.3-34-4.2-2.7-8.8-3.9-13.4-3.9z"/>
    </clipPath>
    <clipPath id="aK" clipPathUnits="userSpaceOnUse">
      <path d="M11721.9 20808.1s269.9-620 288-945.4c18.2-325.4 88.3-536.5-288-602-376.2-65.6-693.2 121.9-864.9 446 0 0-269 499.5-208.7 704 60.4 204.6 1073.6 397.4 1073.6 397.4z"/>
    </clipPath>
    <clipPath id="aM" clipPathUnits="userSpaceOnUse">
      <path d="m10985.6 19939.8 21.4 9.4c27.3 12 38.9 44.5 25.2 70.9-53 102.6-156.5 337.5-22.8 392.3 172.2 70.6 854.3 209.7 1001.4 451.7 141.5 232.6 16.2 532.9-172.2 618.3-12.6 5.7-27.5 1.2-33.9-11l-15.7-29.7c-10.8-20.4-40.8-17.3-47.2 4.8-6.1 21.2-34.3 25.3-46 6.6-45.3-72.4-167.4-189.8-494-250.1-464.2-85.7-771-273.5-778.7-594.2-.5-20.4-22.1-31.7-39.5-21.1-34.3 20.8-89.2 30.7-162.5-31-127.4-107.2-75.3-385.2 204.2-613.9 13.3-10.9 13.1-31.6-1.2-41-50.7-33-126.2-111.4 69.5-216 202.4-108.2 353.5-99.3 411.7-89.7 14.5 2.3 23.8 16.4 20.7 30.7l-62.1 281.9c-3.6 16 8.6 31.1 24.9 31.1z"/>
    </clipPath>
    <clipPath id="aO" clipPathUnits="userSpaceOnUse">
      <path d="M10997.3 19880.3s-103 396-280.5 285c-177.6-111.1 92.1-443.8 234.8-458.6z"/>
    </clipPath>
    <clipPath id="aQ" clipPathUnits="userSpaceOnUse">
      <path d="M14491.9 18792.1s-135.2 239.8-126.6 356.3c8.6 116.6-64 287.7 13.2 275 77.3-12.6 93.2-2.3 114.2-142.1 21-139.8 264.8-750.6-.8-489.2z"/>
    </clipPath>
    <clipPath id="aS" clipPathUnits="userSpaceOnUse">
      <path d="m14517.4 19173.4-3.1-479.1c-915.7-988.7-1656.9-1046.9-2258-834.4-181.7-296.1-403.5-694.2-504.3-1018.7 2445.4-539.1 3021.2 1709 3021.2 1709 331.2 137.2 398 217.4 383.8 307.3z"/>
    </clipPath>
    <clipPath id="aU" clipPathUnits="userSpaceOnUse">
      <path d="M15221.6 19648.7c-78.2 31.8-231.1 323.4-260.4 227.4-29.3-95.9 12.4-227.4 0-268.2-12.4-40.8-203-510-164.9-614.3 27.4-75.2 178.8-64.1 201.9-187.1 7.7-40.9 40.3-70.2 78.2-70.2 37.9 0 70.5 29.2 78.2 70.1 3.1 16.3 145.2 810.6 67 842.3z"/>
    </clipPath>
    <clipPath id="aW" clipPathUnits="userSpaceOnUse">
      <path d="M14171.4 20477.9c247.2-125 346.4-426.9 221.3-674.2-125-247.3-426.8-346.4-674.1-221.3-247.3 125-346.5 426.8-221.4 674.1 125 247.3 426.9 346.4 674.2 221.4zm-1445.8 168.7c-617.5-1221.3-128-2711.9 1093.3-3329.4 992.7-501.8 2163.2-272.4 2898.3 486.9l4243.3-2145.5c70.4-35.6 154.3-32.7 222.1 7.7l415 247.2c7.2 4.3 13.9 9 20.4 13.9 1.9 1.3 3.6 2.8 5.4 4.3 4.8 3.8 9.5 7.8 13.9 12 1.5 1.4 3.1 2.8 4.5 4.3 5.6 5.4 10.8 11.1 15.7 17l.2.3c52.1 63.4 68 151.9 36.1 231.9l-337.2 845.4c-20.8 52.2-60 95-110.2 120.4l-425 214.9-112.5-222.5-365.1 184.6 112.5 222.5-341.6 172.7-103.5-204.7-443.7 224.4 103.4 204.6-165.3 83.6-53.3-105.3-372 188 53.3 105.4-289.3 146.3-112.5-222.5-206.7 104.5 112.5 222.5-179.1 90.5-112.5-222.4-358.2 181.1 112.5 222.4-503.5 254.6-215.7 109c175.7 1042.1-333.4 2120.8-1326.1 2622.7-1221.3 617.5-2711.9 128-3329.4-1093.3z"/>
    </clipPath>
    <clipPath id="aY" clipPathUnits="userSpaceOnUse">
      <path d="m16165.1 19898.2 2011.6-1017-112.5-222.5 358.2-181.1 112.5 222.5 179.1-90.6-112.5-222.4 206.7-104.5 112.5 222.4 289.3-146.3-53.3-105.3 372-188.1 53.3 105.3 165.3-83.5-103.5-204.7 443.8-224.4 103.5 204.7 341.6-172.7-112.5-222.5 365.1-184.6 112.5 222.5 425-214.9c50.2-25.4 89.3-68.2 110.2-120.4l337.2-845.3c42-105.4 1.2-225.7-96.2-283.7l-415-247.2c-67.8-40.5-151.7-43.4-222.1-7.7L15914.5 18376Z"/>
    </clipPath>
    <clipPath id="ba" clipPathUnits="userSpaceOnUse">
      <path d="M13794.9 19709.9c-247.2 125-346.4 426.9-221.3 674.2 125 247.3 426.8 346.4 674.1 221.3 247.3-125 346.5-426.8 221.4-674.1-125-247.3-426.9-346.4-674.2-221.4zm100.4-2265.1c1221.3-617.5 2711.9-128 3329.4 1093.3 617.5 1221.2 128 2711.9-1093.3 3329.3-1221.3 617.5-2711.9 128-3329.4-1093.2-617.5-1221.3-128-2711.9 1093.3-3329.4z"/>
    </clipPath>
    <clipPath id="bc" clipPathUnits="userSpaceOnUse">
      <path d="M14247.7 20605.4c247.3-125 346.5-426.8 221.4-674.1-125-247.3-426.9-346.4-674.2-221.4-247.2 125-346.4 426.9-221.3 674.2 125 247.3 426.8 346.4 674.1 221.3zm2545.9-2673.8 4243.3-2145.4c70.4-35.7 154.3-32.8 222.1 7.7l415 247.2c62.6 37.2 101.4 100.2 110.3 168.4-386.7 419.1-4062.9 2024.3-4200.4 2354.7-48.9 117.5-57.3 295.5 89.2 571.6l-215.6 109c175.7 1042.1-333.4 2120.8-1326.1 2622.6-1221.3 617.5-2711.9 128-3329.4-1093.2-617.5-1221.3-128-2711.9 1093.3-3329.4 992.6-501.9 2163.2-272.5 2898.3 486.8z"/>
    </clipPath>
    <clipPath id="be" clipPathUnits="userSpaceOnUse">
      <path d="M13794.9 19709.9c-247.2 125-346.4 426.9-221.3 674.2 125 247.3 426.8 346.4 674.1 221.3 247.3-125 346.5-426.8 221.4-674.1-125-247.3-426.9-346.4-674.2-221.4zm319.8-1831.1c981.6-496.3 2179.7-102.9 2676 878.7 496.3 981.6 102.9 2179.6-878.7 2675.9-981.6 496.3-2179.7 102.9-2676-878.7-496.3-981.6-102.9-2179.6 878.7-2675.9z"/>
    </clipPath>
    <clipPath id="bg" clipPathUnits="userSpaceOnUse">
      <path d="M10749 16504.4s2333.5-781.2 3638.7 212.6c81 61.6 183.1 88.5 283.6 72.2l498.6-81.3c209.3-34.1 408.7 101.6 453.8 308.8 25.7 118.1 38.1 247.4 11.9 358.4l-941.3 56.8 26.9 122.2s-416.1-101.8-424.5-427.3c0 0-975.9-639.3-2756 353 0 0-693.2-542.5-791.7-975.4z"/>
    </clipPath>
    <clipPath id="bi" clipPathUnits="userSpaceOnUse">
      <path d="M22563.8 31370.3c-29 0-57.8 12.7-77.2 37.2-33.8 42.6-26.7 104.5 15.9 138.3 41.8 33.2 85 66.1 128.4 97.8 17.5 12.8 37.8 19 58 19 30.4 0 60.3-14.1 79.6-40.5 32-43.9 22.4-105.5-21.5-137.5-41.3-30.2-82.3-61.4-122.1-93-16.3-13-35.5-19.9-54.9-21.1-2.1-.2-4.2-.2-6.2-.2"/>
    </clipPath>
    <clipPath id="bk" clipPathUnits="userSpaceOnUse">
      <path d="M21128.2 28734c-3 0-6.1.2-9.2.5-54.2 5.2-93.8 53.2-88.7 107.4 5.1 53.2 11.4 107.2 18.7 160.4 6.8 49.3 48.8 85.1 97.4 85.1 4.5 0 9-.3 13.6-1 53.9-7.4 91.5-57 84.1-110.9-6.9-50.6-12.9-101.9-17.7-152.4-4.7-48.8-44.3-85.9-91.7-88.9-2.1-.1-4.3-.2-6.5-.2"/>
    </clipPath>
    <clipPath id="bm" clipPathUnits="userSpaceOnUse">
      <path d="M24995.3 24531.1c-53.6 0-97.6 43.2-98.3 97.1-.8 54.3 42.6 98.9 97 99.8 103.5 1.5 208.6 7.4 313.4 17.6 3.3.4 6.6.5 9.9.5 49.8 0 92.7-38.1 97.7-88.9 5.2-54.2-34.4-102.3-88.5-107.6-45.4-4.4-90.8-8.1-136-10.9-64.5-4.1-129.6-6.7-193.7-7.6h-1.5m-522.1 28.3c-4 0-8 .3-12.1.8-108.7 13.4-218.3 31.6-325.8 54.2-53.3 11.2-87.3 63.4-76.1 116.7 9.7 46.3 50.7 78.1 96.3 78.1 6.7 0 13.5-.6 20.3-2.1 102.1-21.5 206.2-38.8 309.4-51.5 54-6.7 92.3-55.8 85.7-109.8-5.9-47.7-45.1-83.2-91.4-86.2-2.1-.1-4.2-.2-6.3-.2m1359.8 75.6c-44.6 0-85 30.5-95.7 75.8-12.5 52.9 20.2 105.9 73.1 118.5 101.6 24.1 203.2 52.7 302.1 85.1 10.2 3.4 20.6 5 30.7 5 41.4 0 80-26.5 93.5-67.9 17-51.7-11.2-107.3-62.9-124.2-104.1-34.1-211.1-64.3-318-89.6-5.5-1.3-11.1-2.1-16.6-2.5-2.1-.1-4.1-.2-6.2-.2m-2180.3 119.7c-11 0-22.3 1.9-33.3 5.9-103 36.9-205.9 78.9-305.8 124.5-49.5 22.6-71.2 81-48.6 130.5 16.5 36.2 52.2 57.5 89.6 57.5 13.7 0 27.6-2.8 40.8-8.9 95-43.4 192.7-83.2 290.5-118.3 51.2-18.4 77.8-74.7 59.5-125.9-13.7-38.2-48.5-62.6-86.5-65.1-2-.1-4.1-.2-6.2-.2m2975.4 164.3c-36.5 0-71.5 20.3-88.6 55.3-23.8 48.8-3.6 107.8 45.3 131.6 93.7 45.8 186.5 96 275.9 149.5 15.8 9.4 33.3 13.9 50.4 13.9 33.5 0 66.2-17.1 84.6-48 27.9-46.6 12.7-107-34-134.9-94.1-56.3-191.9-109.3-290.5-157.4-11.9-5.8-24.4-9-36.9-9.8-2.1-.2-4.2-.2-6.2-.2m-3733.3 206.4c-18.1 0-36.3 4.9-52.7 15.3-56.5 35.8-112.5 73.4-167.4 112.2 61.3 32 115.2 76.3 158.3 129.7 37.8-26 76-51.2 114.5-75.6 46-29.1 59.6-89.9 30.5-135.9-17.6-27.6-46.6-43.6-77-45.5-2.1-.1-4.2-.2-6.2-.2"/>
    </clipPath>
    <clipPath id="bo" clipPathUnits="userSpaceOnUse">
      <path d="M22674.7 25252.9c-35.1 24.9-69.8 50.2-103.9 76.1-43.3 32.8-51.9 94.5-19 137.9 19.4 25.6 48.8 39 78.5 39 20.7 0 41.6-6.5 59.4-20 46.7-35.4 94.7-69.9 143.3-103.3-43.1-53.4-97-97.7-158.3-129.7"/>
    </clipPath>
    <clipPath id="bq" clipPathUnits="userSpaceOnUse">
      <path d="M21978.1 25882.4c-12.1 13.8-24 27.7-35.9 41.7-35.1 41.5-30 103.6 11.5 138.8 18.5 15.7 41.1 23.3 63.6 23.3 27.3 0 54.4-11.3 73.8-33.3-48.5-48-87.3-106-113-170.5"/>
    </clipPath>
    <clipPath id="bs" clipPathUnits="userSpaceOnUse">
      <path d="M22235.7 25652.5c-25.2 0-50.4 9.6-69.6 28.7-64.7 64.6-127.8 132.1-188 201.2 25.7 64.5 64.5 122.5 113 170.5.5-.5.9-1 1.4-1.5 67.2-79.4 138.8-157.1 212.7-230.8 38.5-38.4 38.6-100.7.2-139.2-17.7-17.7-40.4-27.3-63.5-28.7-2.1-.2-4.2-.2-6.2-.2"/>
    </clipPath>
    <clipPath id="bu" clipPathUnits="userSpaceOnUse">
      <path d="M21707.3 26310.7c-32.6 0-64.4 16.1-83.2 45.6-58.9 92.7-114.5 189-165.3 286.2-25.2 48.2-6.5 107.7 41.7 132.9 14.5 7.6 30.1 11.2 45.4 11.2 35.5 0 69.9-19.3 87.5-52.9 48.2-92.3 101-183.7 156.9-271.8 29.2-45.9 15.6-106.7-30.3-135.8-14.5-9.3-30.4-14.2-46.5-15.2-2-.1-4.1-.2-6.2-.2"/>
    </clipPath>
    <clipPath id="bw" clipPathUnits="userSpaceOnUse">
      <path d="M21358.3 27419h-204.6c-2.8 10.2-5.6 20.5-8.3 30.8-13.9 52.6 17.4 106.5 69.9 120.4 8.4 2.2 16.9 3.3 25.2 3.3 43.6 0 83.5-29.1 95.2-73.2 7.2-27.1 14.8-54.3 22.6-81.3"/>
    </clipPath>
    <clipPath id="by" clipPathUnits="userSpaceOnUse">
      <path d="M21336.2 27069.1c-40.4 0-78.3 25.1-92.7 65.4-33.3 93.1-63.5 188.7-89.8 284.5h204.6c21.3-73.5 45-146.6 70.6-218.2 18.3-51.2-8.3-107.5-59.5-125.9-8.9-3.1-18-5-27-5.6-2.1-.1-4.1-.2-6.2-.2"/>
    </clipPath>
    <clipPath id="bA" clipPathUnits="userSpaceOnUse">
      <path d="M21140.8 27890c-48.9 0-91.3 36.5-97.5 86.3-10.1 80.1-17.7 161.5-22.8 241.9-1.9 29.1-3.4 58.2-4.6 87.2-2.3 54.3 39.2 101.2 94.3 102.4 1.4.1 2.8.1 4.2.1 52.4 0 96-41.4 98.2-94.3 1.2-27.6 2.6-55.3 4.4-82.9 4.8-76.5 12.1-153.8 21.6-230 6.8-53.9-31.5-103.1-85.5-109.9l-6-.6c-2.1-.1-4.2-.2-6.3-.2"/>
    </clipPath>
    <clipPath id="bC" clipPathUnits="userSpaceOnUse">
      <path d="M27342.8 25372.6c-28.8 0-57.4 12.6-76.8 36.8-34 42.4-27.2 104.4 15.2 138.4 39.5 31.7 79 64.8 117.6 98.4 18.7 16.3 41.7 24.3 64.6 24.3 27.5 0 54.8-11.5 74.3-33.8 35.7-41 31.5-103.1-9.5-138.9-40.6-35.4-82.2-70.3-123.8-103.6-16.4-13.2-35.8-20.2-55.3-21.4-2.1-.2-4.2-.2-6.3-.2"/>
    </clipPath>
    <clipPath id="bE" clipPathUnits="userSpaceOnUse">
      <path d="M29790.5 23826.2c-62.1 0-124.3 2.2-185.9 6.5-33.4 2.4-58.7 31.5-56.3 65 2.3 32.2 29.4 56.5 61.1 56.5 1.3 0 2.6-.1 3.9-.2 58.5-4.1 117.7-6.2 176.9-6.2 42.3 0 84.6 1.1 126.7 3.2 1 .1 2.1.1 3.1.1 32.2 0 59-25.3 60.6-57.8 1.7-33.2-23.7-61.6-56.8-63.7l-.8-.1c-44-2.2-88.3-3.3-132.5-3.3m438.6 37.6c-29 0-54.7 20.9-59.8 50.5-5.7 33.1 16.5 64.5 49.6 70.2 99.6 17.2 199.1 40.5 295.8 69.4 5.8 1.7 11.6 2.5 17.3 2.5 26.2 0 50.5-16.9 58.4-43.4 9.6-32.1-8.7-66-40.8-75.6-101.4-30.3-205.7-54.8-310.1-72.7-2.2-.4-4.3-.7-6.5-.8-1.3-.1-2.6-.1-3.9-.1m-928.5 9.7c-3.8 0-7.8.3-11.7 1.1-104.1 20.4-207.8 47.3-308.2 80.1-32 10.4-49.4 44.7-39 76.6 8.3 25.7 32.1 42 57.8 42 6.2 0 12.6-1 18.8-3 95.8-31.2 194.7-56.9 294-76.4 32.9-6.5 54.4-38.4 47.9-71.3-5.4-27.7-28.8-47.3-55.8-49-1.2-.1-2.5-.1-3.8-.1"/>
    </clipPath>
    <clipPath id="bG" clipPathUnits="userSpaceOnUse">
      <path d="M30842.5 24044.9v132.9c77.8 35.9 154.1 76 227.6 119.5 6.1 3.6 12.5 6 19.1 7.3 15.4-36.4 30.9-73.4 46-109.9-1-.7-2.1-1.4-3.1-2-91-54-186.4-103-283.4-145.5-2.1-.9-4.1-1.6-6.2-2.3"/>
    </clipPath>
    <clipPath id="bI" clipPathUnits="userSpaceOnUse">
      <path d="M30824.3 24042.1c-23.4 0-45.8 13.6-55.8 36.4-13.4 30.7.6 66.6 31.3 80.1 14.3 6.3 28.5 12.7 42.7 19.2v-132.9c-4.7-1.5-9.6-2.4-14.4-2.7-1.3-.1-2.6-.1-3.8-.1m-2114 23.7c-8.6 0-17.3 1.9-25.6 5.7-95.9 44.8-190.1 95.8-279.9 151.9-28.5 17.7-37.2 55.2-19.4 83.8 11.5 18.4 31.4 28.6 51.7 28.6 10.9 0 22.1-3 32.1-9.2 85.7-53.5 175.4-102.2 266.9-144.8 30.4-14.2 43.6-50.4 29.4-80.9-9.7-20.8-29.9-33.6-51.3-34.9-1.3-.1-2.6-.2-3.9-.2m-526.9 328.4c-13.4 0-26.9 4.5-38.1 13.5-82.6 66.5-161.8 138.7-235.5 214.4-23.4 24-22.9 62.5 1.1 85.9 11.8 11.5 27.1 17.3 42.4 17.3 15.9 0 31.7-6.2 43.6-18.4 70.3-72.2 145.9-141 224.7-204.5 26.1-21.1 30.2-59.4 9.2-85.5-11.2-13.8-27.1-21.5-43.6-22.5-1.3-.1-2.5-.2-3.8-.2m-433.1 445.2c-18.4 0-36.5 8.3-48.5 24-64.2 84.4-123.9 173.5-177.2 264.7-16.9 29-7.2 66.3 21.8 83.2 9.7 5.6 20.2 8.3 30.6 8.3 20.9 0 41.3-10.8 52.6-30.1 50.8-87 107.7-172 169-252.4 20.4-26.7 15.2-64.9-11.5-85.2-9.9-7.6-21.4-11.6-33-12.3-1.3-.1-2.6-.2-3.8-.2"/>
    </clipPath>
  </defs>
  <g clip-path="url(#a)" transform="matrix(.13333 0 0 -.13333 -624.01682 4337.5735)">
    <path fill="url(#b)" d="M5063.74 14074.5c-576.11 2343-480.69 4874.4 135.95 7235.1 140.07-396.5 319.19-764.2 528.6-1096.9 96.82-153.8 186.15-311.5 267.78-472.6h-449.63c-193.93 0-352.15-126.7-355.79-280.8l-126.91-5384.8m27200.36 5256.4c-71 46.8-161.9 75.9-253.7 75.9h-1167.9v4638.1c2.1.7 4.1 1.4 6.2 2.3 97 42.5 192.4 91.5 283.4 145.5 1 .6 2.1 1.3 3.1 2 641.1-1552.4 1007.7-3210.4 1128.9-4863.8m-1421.6 4846.9v677.4c86.2-181.8 168.5-365.5 246.7-550.6-6.6-1.3-13-3.7-19.1-7.3-73.5-43.5-149.8-83.6-227.6-119.5m-19211.9 725h-980.8c-750.76 1091.6-1835.91 1764-2910.26 1774.9 638.9 888.7 1738.05 2218.9 3348.26 3364.9-237.4-736.4-317.7-1582.5-197.8-2461.8 68.7-504.5 198.1-980.7 376.3-1416.9 167-408.8 289-831.8 364.3-1261.1M29251.1 27419h-7892.8c-7.8 27-15.4 54.2-22.6 81.3-11.7 44.1-51.6 73.2-95.2 73.2-8.3 0-16.8-1.1-25.2-3.3-52.5-13.9-83.8-67.8-69.9-120.4 2.7-10.3 5.5-20.6 8.3-30.8h-3400.8c-31.7 197-53.2 396.3-64.2 597.4-8.8 160.1-24.1 321.8-46.3 484.7-214.5 1574.1-1018.7 2874.2-2056.9 3543.1 329.6 71.2 669.9 130.2 1020.4 175.3 591.8 76.2 1200.3 114.7 1816.5 114.7 3141.2 0 6498.1-998.8 9044.7-3098.8 668.2-551 1262-1161.2 1784-1816.4m-8136.7 988.9c-1.4 0-2.8 0-4.2-.1-55.1-1.2-96.6-48.1-94.3-102.4 1.2-29 2.7-58.1 4.6-87.2 5.1-80.4 12.7-161.8 22.8-241.9 6.2-49.8 48.6-86.3 97.5-86.3 2.1 0 4.2.1 6.3.2l6 .6c54 6.8 92.3 56 85.5 109.9-9.5 76.2-16.8 153.5-21.6 230-1.8 27.6-3.2 55.3-4.4 82.9-2.2 52.9-45.8 94.3-98.2 94.3m32 679.5c-48.6 0-90.6-35.8-97.4-85.1-7.3-53.2-13.6-107.2-18.7-160.4-5.1-54.2 34.5-102.2 88.7-107.4 3.1-.3 6.2-.5 9.2-.5 2.2 0 4.4.1 6.5.2 47.4 3 87 40.1 91.7 88.9 4.8 50.5 10.8 101.8 17.7 152.4 7.4 53.9-30.2 103.5-84.1 110.9-4.6.7-9.1 1-13.6 1m1542.5 2575.2c-20.2 0-40.5-6.2-58-19-43.4-31.7-86.6-64.6-128.4-97.8-42.6-33.8-49.7-95.7-15.9-138.3 19.4-24.5 48.2-37.2 77.2-37.2 2 0 4.1 0 6.2.2 19.4 1.2 38.6 8.1 54.9 21.1 39.8 31.6 80.8 62.8 122.1 93 43.9 32 53.5 93.6 21.5 137.5-19.3 26.4-49.2 40.5-79.6 40.5"/>
  </g>
  <path fill="#bdd0fb" d="M704.85378 1049.2536c.3427-17.76 15.276-32.0534 33.5694-32.0534H1848.0898c18.5467 0 38.24 14.7334 38.24 32.7334v2515.1333c0 13.44-7.84 26.3333-17.64 35.8266-9.8 9.48-24.2533 14.8-38.0933 14.76l-1121.82532-2.9733c-13.96-.04-27.6107-5.5067-37.376-15.2-9.764-9.6933-15.2614-22.8133-15-36.3733l48.4586-2511.8533"/>
  <path fill="#dfe9fd" d="M885.39648 1196.9736c-5.0933-15.08-10.6-29.8267-16.52-44.2934l69.9067-.2133c.04 14.7867-.3334 29.5733-1.12 44.3333l-52.2667.1734m35.0267 125.6133c-.7867-2.4933-1.56-5-2.3067-7.5067l3.9467-.013c-.5334 2.5067-1.0934 5.0267-1.64 7.52"/>
  <path fill="#bdd0fb" d="M68.069834 1743.0002c.48533-20.5466 21.58133-37.44 47.438656-37.44h977.35471c26.2 0 51.9333 17.7867 51.9333 38.6v1861.2133c0 10.0134-7.2533 19.6267-16.1867 26.6934-8.92 7.08-22.1466 11.04-34.76 11.0133l-1021.870636-2.2133c-12.716-.027-25.16533-4.12-34.05866-11.3334-8.89467-7.2266-13.908-17.2133-13.67067-27.3066l43.82-1859.2267"/>
  <g clip-path="url(#c)" transform="matrix(.13333 0 0 -.13333 -624.01682 4337.5735)">
    <path fill="url(#d)" d="m10588.9 18095.2 2088.2 2.3 16.6 850.5h-2090.2l-14.6-852.8"/>
  </g>
  <g clip-path="url(#e)" transform="matrix(.13333 0 0 -.13333 -624.01682 4337.5735)">
    <path fill="url(#f)" d="m8248.28 18095.7 2086.12 2.2 14.3 850.1H8260.55l-12.27-852.3"/>
  </g>
  <g clip-path="url(#g)" transform="matrix(.13333 0 0 -.13333 -624.01682 4337.5735)">
    <path fill="url(#h)" d="m5910 18096.1 2084.01 2.2 12.02 849.7H5920.01l-10.01-851.9"/>
  </g>
  <g clip-path="url(#i)" transform="matrix(.13333 0 0 -.13333 -624.01682 4337.5735)">
    <path fill="url(#j)" d="m10562.8 16568.5 2084.6-1.1 16.5 845-2086.6.7-14.5-844.6"/>
  </g>
  <g clip-path="url(#k)" transform="matrix(.13333 0 0 -.13333 -624.01682 4337.5735)">
    <path fill="url(#l)" d="m8226.26 16569.7 2082.44-1.1 14.3 844.6-2084.51.7-12.23-844.2"/>
  </g>
  <g clip-path="url(#m)" transform="matrix(.13333 0 0 -.13333 -624.01682 4337.5735)">
    <path fill="url(#n)" d="m5892.05 16570.9 2080.38-1.1 11.98 844.2-2082.39.7-9.97-843.8"/>
  </g>
  <g clip-path="url(#o)" transform="matrix(.13333 0 0 -.13333 -624.01682 4337.5735)">
    <path fill="url(#p)" d="m10536.8 15052.2 2080.9-1.7 16.5 842.1-2083 1.4-14.4-841.8"/>
  </g>
  <g clip-path="url(#q)" transform="matrix(.13333 0 0 -.13333 -624.01682 4337.5735)">
    <path fill="url(#r)" d="m8204.32 15054.2 2078.88-1.7 14.2 841.6-2080.9 1.4-12.18-841.3"/>
  </g>
  <g clip-path="url(#s)" transform="matrix(.13333 0 0 -.13333 -624.01682 4337.5735)">
    <path fill="url(#t)" d="m5874.17 15056.1 2076.76-1.7 11.93 841.3-2078.76 1.3-9.93-840.9"/>
  </g>
  <g clip-path="url(#u)" transform="matrix(.13333 0 0 -.13333 -624.01682 4337.5735)">
    <path fill="url(#v)" d="m10510.9 13541.3 2077.3-2.4 16.4 839.1-2079.3 2-14.4-838.7"/>
  </g>
  <g clip-path="url(#w)" transform="matrix(.13333 0 0 -.13333 -624.01682 4337.5735)">
    <path fill="url(#x)" d="m8182.45 13543.9 2075.25-2.3 14.1 838.7-2077.21 2-12.14-838.4"/>
  </g>
  <g clip-path="url(#y)" transform="matrix(.13333 0 0 -.13333 -624.01682 4337.5735)">
    <path fill="url(#z)" d="m5856.34 13546.7 2073.16-2.5 11.9 838.4-2075.17 2-9.89-837.9"/>
  </g>
  <g clip-path="url(#A)" transform="matrix(.13333 0 0 -.13333 -624.01682 4337.5735)">
    <path fill="url(#B)" d="m10485.1 12035.5 2073.7-3.1 16.3 836.3-2075.7 2.7-14.3-835.9"/>
  </g>
  <g clip-path="url(#C)" transform="matrix(.13333 0 0 -.13333 -624.01682 4337.5735)">
    <path fill="url(#D)" d="m8160.66 12038.9 2071.64-3.1 14.1 835.9-2073.64 2.7-12.1-835.5"/>
  </g>
  <g clip-path="url(#E)" transform="matrix(.13333 0 0 -.13333 -624.01682 4337.5735)">
    <path fill="url(#F)" d="m5838.57 12042.4 2069.58-3.1 11.85 835.4-2071.57 2.7-9.86-835"/>
  </g>
  <g clip-path="url(#G)" transform="matrix(.13333 0 0 -.13333 -624.01682 4337.5735)">
    <path fill="url(#H)" d="m10459.3 10534.9 2070.2-3.7 16.2 833.3-2072.1 3.4-14.3-833"/>
  </g>
  <g clip-path="url(#I)" transform="matrix(.13333 0 0 -.13333 -624.01682 4337.5735)">
    <path fill="url(#J)" d="m8138.94 10539.1 2068.06-3.7 14.1 832.9-2070.1 3.4-12.06-832.6"/>
  </g>
  <g clip-path="url(#K)" transform="matrix(.13333 0 0 -.13333 -624.01682 4337.5735)">
    <path fill="url(#L)" d="m5820.87 10543.3 2066-3.8 11.81 832.6-2067.98 3.4-9.83-832.2"/>
  </g>
  <g clip-path="url(#M)" transform="matrix(.13333 0 0 -.13333 -624.01682 4337.5735)">
    <path fill="url(#N)" d="m10433.7 9039.5 2066.5-4.4 16.3 830.5-2068.6 4-14.2-830.1"/>
  </g>
  <g clip-path="url(#O)" transform="matrix(.13333 0 0 -.13333 -624.01682 4337.5735)">
    <path fill="url(#P)" d="m8117.3 9044.4 2064.5-4.4 14 830.1-2066.49 4.1-12.01-829.8"/>
  </g>
  <g clip-path="url(#Q)" transform="matrix(.13333 0 0 -.13333 -624.01682 4337.5735)">
    <path fill="url(#R)" d="m5803.22 9049.3 2062.44-4.4 11.78 829.7-2064.42 4.1-9.8-829.4"/>
  </g>
  <g clip-path="url(#S)" transform="matrix(.13333 0 0 -.13333 -624.01682 4337.5735)">
    <path fill="url(#T)" d="m10408.1 7549.2 2063-5 16.2 827.6-2065 4.7-14.2-827.3"/>
  </g>
  <g clip-path="url(#U)" transform="matrix(.13333 0 0 -.13333 -624.01682 4337.5735)">
    <path fill="url(#V)" d="m8095.74 7554.9 2060.96-5.1 13.9 827.3-2062.89 4.6-11.97-826.8"/>
  </g>
  <g clip-path="url(#W)" transform="matrix(.13333 0 0 -.13333 -624.01682 4337.5735)">
    <path fill="url(#X)" d="m5785.63 7560.5 2058.9-5 11.72 826.8-2060.85 4.7-9.77-826.5"/>
  </g>
  <g clip-path="url(#Y)" transform="matrix(.13333 0 0 -.13333 -624.01682 4337.5735)">
    <path fill="url(#Z)" d="m10382.7 6064 2059.4-5.7 16.1 824.9-2061.4 5.3-14.1-824.5"/>
  </g>
  <g clip-path="url(#aa)" transform="matrix(.13333 0 0 -.13333 -624.01682 4337.5735)">
    <path fill="url(#ab)" d="m8074.24 6070.4 2057.36-5.7 13.9 824.5-2059.33 5.3-11.93-824.1"/>
  </g>
  <g clip-path="url(#ac)" transform="matrix(.13333 0 0 -.13333 -624.01682 4337.5735)">
    <path fill="url(#ad)" d="m5768.12 6076.8 2055.34-5.7 11.7 824-2057.32 5.4-9.72-823.7"/>
  </g>
  <path fill="#bdd0fb" d="M2619.2498 1787.4536c.48-20.5467 21.5867-37.4534 47.44-37.4534h977.3466c26.2134 0 51.9467 17.7867 51.9467 38.6134v1861.2133c0 10.0133-7.2667 19.6133-16.1867 26.6933-8.9333 7.0666-22.16 11.0266-34.76 11l-1021.8799-2.2134c-12.72-.027-25.16-4.1066-34.0534-11.3333-8.8933-7.2133-13.9066-17.2-13.68-27.3066l43.8267-1859.2133"/>
  <path fill="#dee8fd" d="M3488.3164 1969.1602v-113.5466h131.3334l-2.2 113.4133-129.1334.1333m125.16 203.8667-125.16-.067v-112.64l127.36.04-2.2 112.6667m-3.9466 202.2533-121.2134-.093v-112.2667l123.4.08-2.1866 112.28m-3.9334 201.56-117.28-.1333v-111.88l119.4534.12-2.1734 111.8933m-3.9333 200.8533-113.3467-.16v-111.4933l115.5334.16-2.1867 111.4933m-3.9067 200.1734-109.44-.2v-111.1067l111.6134.1867-2.1734 111.12m-3.8933 199.4666-105.5467-.2133v-110.72l107.7067.2-2.16 110.7333m-3.88 198.8-101.6667-.2533v-110.3333l103.8134.2266-2.1467 110.36m-3.88 198.1067-97.7867-.2667v-109.9733l99.9334.2667-2.1467 109.9733"/>
  <path fill="#91b3fa" d="M1647.6365 2293.7602c-79.76-250.44-234.08-450.0266-416.8933-567.3466-163.4134-104.8934-281.16002-268.24-324.74672-456.9334-4.5867-19.8266-10.0267-39.72-16.36-59.6-95.9333-301.19993-359.048-486.31993-587.68799-413.50663C73.305834 869.20027-34.276826 1172.4002 61.653834 1473.5869c19.61333 61.5867 46.223996 118.3067 78.101326 168.96 101.736 161.64 141.54666 355.5067 104.11466 543.0267-33.45733 167.5733-24.37999 356.2533 35.42134 544.0133 89.18933 280.0266 271.60532 496.4933 482.82532 605.4666 79.8933 41.2134 151.9333 96.64 211.5867 163.6267 99.13332 111.2933 238.85332 163.6133 367.21332 122.7333 138.48-44.1066 224.9866-184.3333 231.2133-347.9466 3.5333-92.5734 25.2933-183.32 60.7733-269.1067 83.7734-202.5333 95.3867-457.4 14.7334-710.6"/>
  <path fill="#d0defd" d="M1256.6898 3049.6802c-5.2133-15.4533-10.5866-30.8667-15.7466-46.3467-17.04-49.8933-33.68-99.9066-51.04-149.68-29.44-82.7066-59.3467-165.24-89.8134-247.5733 13.3334 14.6267 27 28.68 41.0267 42.1867 5.8533 16.2 11.6133 32.4266 17.16 48.7333l51.7067 149.76c15.88 47.5467 31.4666 95.1733 46.7066 142.9333v59.9867M816.84978 1886.7336l-27.32-65.2534c-20.3333-48.6666-40.6666-97.32-61.4933-145.7733-40.824-97.2667-82.3507-194.24-124.672-290.8667-41.8133-96.8533-84.5507-193.3333-127.572-289.64l8.268-3.9066c93.2693 189.5333 180.344 381.9333 265.4027 575.2266 21.28 48.32 41.7866 96.9734 62.44 145.56l3.7466 8.8c-.2 21.8.2 43.7334 1.2 65.8534"/>
  <path fill="#7d97f4" d="M2314.9165 1795.9602c-37.28-273.4933-160.4934-507.92-327.7867-662.4133-149.56-138.12003-241.5733-328.42663-252.6533-531.49333-1.1734-21.3467-3.2134-42.9067-6.1734-64.6267-44.8266-328.9333-282.72-568.119957-531.3333-534.2266167C948.35648 37.080243 783.15648 331.20024 827.98318 660.13357c9.16 67.2667 26.4133 130.76 50.1733 188.92 75.8267 185.64003 82.0933 393.40003 9.9067 580.57333-64.52 167.2667-88.9867 364.08-61.04 569.1333 41.68 305.8134 190.80002 562.7867 388.88002 713.8 74.92 57.1067 139.2 127.5067 188.6533 207.6 82.1866 133.0933 216.7466 212.5333 356.32 193.5067 150.5733-20.52 264.8533-149.88 300.6-317.9867 20.2266-95.1333 58.92-185.0533 110.8666-267.36 122.6-194.3066 180.2667-455.8266 142.5734-732.36"/>
  <path fill="#c7d2fa" d="M1425.4765 681.70687h-19.7734c-1.24-5.0533-2.4666-10.12-3.7066-15.1866-25.7067-107.76-52.44-215.3067-79.4933-322.72003l9.2133-2.54667c32.96 113.0267 63.9866 226.5867 93.76 340.4533"/>
  <g clip-path="url(#ae)" transform="matrix(.13333 0 0 -.13333 -624.01682 4337.5735)">
    <path fill="url(#af)" d="M30612.2 4963.4H14335.7c-127.3 0-230.4 103.1-230.4 230.3v21994.9c0 127.2 103.1 230.4 230.4 230.4h6818c26.3-95.8 56.5-191.4 89.8-284.5 14.4-40.3 52.3-65.4 92.7-65.4 2.1 0 4.1.1 6.2.2 9 .6 18.1 2.5 27 5.6 51.2 18.4 77.8 74.7 59.5 125.9-25.6 71.6-49.3 144.7-70.6 218.2h9253.9c127.2 0 230.3-103.2 230.3-230.4v-3010.8c-14.2-6.5-28.4-12.9-42.7-19.2-30.7-13.5-44.7-49.4-31.3-80.1 10-22.8 32.4-36.4 55.8-36.4 1.2 0 2.5 0 3.8.1 4.8.3 9.7 1.2 14.4 2.7V5193.7c0-127.2-103.1-230.3-230.3-230.3m-1002.8 18990.8c-31.7 0-58.8-24.3-61.1-56.5-2.4-33.5 22.9-62.6 56.3-65 61.6-4.3 123.8-6.5 185.9-6.5 44.2 0 88.5 1.1 132.5 3.3l.8.1c33.1 2.1 58.5 30.5 56.8 63.7-1.6 32.5-28.4 57.8-60.6 57.8-1 0-2.1 0-3.1-.1-42.1-2.1-84.4-3.2-126.7-3.2-59.2 0-118.4 2.1-176.9 6.2-1.3.1-2.6.2-3.9.2m922.6 102.2c-5.7 0-11.5-.8-17.3-2.5-96.7-28.9-196.2-52.2-295.8-69.4-33.1-5.7-55.3-37.1-49.6-70.2 5.1-29.6 30.8-50.5 59.8-50.5 1.3 0 2.6 0 3.9.1 2.2.1 4.3.4 6.5.8 104.4 17.9 208.7 42.4 310.1 72.7 32.1 9.6 50.4 43.5 40.8 75.6-7.9 26.5-32.2 43.4-58.4 43.4m-1532.5 16.9c-25.7 0-49.5-16.3-57.8-42-10.4-31.9 7-66.2 39-76.6 100.4-32.8 204.1-59.7 308.2-80.1 3.9-.8 7.9-1.1 11.7-1.1 1.3 0 2.6 0 3.8.1 27 1.7 50.4 21.3 55.8 49 6.5 32.9-15 64.8-47.9 71.3-99.3 19.5-198.2 45.2-294 76.4-6.2 2-12.6 3-18.8 3m-562.4 262.5c-20.3 0-40.2-10.2-51.7-28.6-17.8-28.6-9.1-66.1 19.4-83.8 89.8-56.1 184-107.1 279.9-151.9 8.3-3.8 17-5.7 25.6-5.7 1.3 0 2.6.1 3.9.2 21.4 1.3 41.6 14.1 51.3 34.9 14.2 30.5 1 66.7-29.4 80.9-91.5 42.6-181.2 91.3-266.9 144.8-10 6.2-21.2 9.2-32.1 9.2m-483.8 389.5c-15.3 0-30.6-5.8-42.4-17.3-24-23.4-24.5-61.9-1.1-85.9 73.7-75.7 152.9-147.9 235.5-214.4 11.2-9 24.7-13.5 38.1-13.5 1.3 0 2.5.1 3.8.2 16.5 1 32.4 8.7 43.6 22.5 21 26.1 16.9 64.4-9.2 85.5-78.8 63.5-154.4 132.3-224.7 204.5-11.9 12.2-27.7 18.4-43.6 18.4m-2636 20.8c-3.3 0-6.6-.1-9.9-.5-104.8-10.2-209.9-16.1-313.4-17.6-54.4-.9-97.8-45.5-97-99.8.7-53.9 44.7-97.1 98.3-97.1h1.5c64.1.9 129.2 3.5 193.7 7.6 45.2 2.8 90.6 6.5 136 10.9 54.1 5.3 93.7 53.4 88.5 107.6-5 50.8-47.9 88.9-97.7 88.9m-1161.8 63.1c-45.6 0-86.6-31.8-96.3-78.1-11.2-53.3 22.8-105.5 76.1-116.7 107.5-22.6 217.1-40.8 325.8-54.2 4.1-.5 8.1-.8 12.1-.8 2.1 0 4.2.1 6.3.2 46.3 3 85.5 38.5 91.4 86.2 6.6 54-31.7 103.1-85.7 109.8-103.2 12.7-207.3 30-309.4 51.5-6.8 1.5-13.6 2.1-20.3 2.1m1987.7 110.2c-10.1 0-20.5-1.6-30.7-5-98.9-32.4-200.5-61-302.1-85.1-52.9-12.6-85.6-65.6-73.1-118.5 10.7-45.3 51.1-75.8 95.7-75.8 2.1 0 4.1.1 6.2.2 5.5.4 11.1 1.2 16.6 2.5 106.9 25.3 213.9 55.5 318 89.6 51.7 16.9 79.9 72.5 62.9 124.2-13.5 41.4-52.1 67.9-93.5 67.9m-2788.6 153.7c-37.4 0-73.1-21.3-89.6-57.5-22.6-49.5-.9-107.9 48.6-130.5 99.9-45.6 202.8-87.6 305.8-124.5 11-4 22.3-5.9 33.3-5.9 2.1 0 4.2.1 6.2.2 38 2.5 72.8 26.9 86.5 65.1 18.3 51.2-8.3 107.5-59.5 125.9-97.8 35.1-195.5 74.9-290.5 118.3-13.2 6.1-27.1 8.9-40.8 8.9m4222.4 146.5c-10.4 0-20.9-2.7-30.6-8.3-29-16.9-38.7-54.2-21.8-83.2 53.3-91.2 113-180.3 177.2-264.7 12-15.7 30.1-24 48.5-24 1.2 0 2.5.1 3.8.2 11.6.7 23.1 4.7 33 12.3 26.7 20.3 31.9 58.5 11.5 85.2-61.3 80.4-118.2 165.4-169 252.4-11.3 19.3-31.7 30.1-52.6 30.1m-665.9 49.7c-17.1 0-34.6-4.5-50.4-13.9-89.4-53.5-182.2-103.7-275.9-149.5-48.9-23.8-69.1-82.8-45.3-131.6 17.1-35 52.1-55.3 88.6-55.3 2 0 4.1 0 6.2.2 12.5.8 25 4 36.9 9.8 98.6 48.1 196.4 101.1 290.5 157.4 46.7 27.9 61.9 88.3 34 134.9-18.4 30.9-51.1 48-84.6 48m-4236.4-16.4c54.9-38.8 110.9-76.4 167.4-112.2 16.4-10.4 34.6-15.3 52.7-15.3 2 0 4.1.1 6.2.2 30.4 1.9 59.4 17.9 77 45.5 29.1 46 15.5 106.8-30.5 135.9-38.5 24.4-76.7 49.6-114.5 75.6 69.5 85.9 111.1 195.4 111.1 314.5 0 276.5-224.1 500.7-500.7 500.7-137.4 0-261.8-55.3-352.3-144.9-19.4 22-46.5 33.3-73.8 33.3-22.5 0-45.1-7.6-63.6-23.3-41.5-35.2-46.6-97.3-11.5-138.8 11.9-14 23.8-27.9 35.9-41.7-22.8-57.3-35.4-119.8-35.4-185.3 0-276.5 224.2-500.7 500.7-500.7 83.5 0 162.1 20.4 231.3 56.5m4788.7 417.6c-22.9 0-45.9-8-64.6-24.3-38.6-33.6-78.1-66.7-117.6-98.4-42.4-34-49.2-96-15.2-138.4 19.4-24.2 48-36.8 76.8-36.8 2.1 0 4.2 0 6.3.2 19.5 1.2 38.9 8.2 55.3 21.4 41.6 33.3 83.2 68.2 123.8 103.6 41 35.8 45.2 97.9 9.5 138.9-19.5 22.3-46.8 33.8-74.3 33.8m-5917.5 1116.1c-15.3 0-30.9-3.6-45.4-11.2-48.2-25.2-66.9-84.7-41.7-132.9 50.8-97.2 106.4-193.5 165.3-286.2 18.8-29.5 50.6-45.6 83.2-45.6 2.1 0 4.2.1 6.2.2 16.1 1 32 5.9 46.5 15.2 45.9 29.1 59.5 89.9 30.3 135.8-55.9 88.1-108.7 179.5-156.9 271.8-17.6 33.6-52 52.9-87.5 52.9"/>
  </g>
  <path fill="#7d97f4" d="M3108.4098 3281.3869h-1476.56c-55.9733 0-101.3467-45.3734-101.3467-101.3467V1232.8669c0-55.9733 45.3734-101.3467 101.3467-101.3467h1476.56c55.9733 0 101.3466 45.3734 101.3466 101.3467v1947.1733c0 55.9733-45.3733 101.3467-101.3466 101.3467"/>
  <g clip-path="url(#ag)" transform="matrix(.13333 0 0 -.13333 -624.01682 4337.5735)">
    <path fill="url(#ah)" d="M27574.2 9043.1H17348c-125.9 0-228 102.1-228 228V22491c0 125.9 102.1 228 228 228h10226.2c125.9 0 228-102.1 228-228V9271.1c0-125.9-102.1-228-228-228"/>
  </g>
  <g clip-path="url(#ai)" transform="matrix(.13333 0 0 -.13333 -624.01682 4337.5735)">
    <path fill="url(#aj)" d="M22443.4 25196.4c-276.5 0-500.7 224.2-500.7 500.7 0 65.5 12.6 128 35.4 185.3 60.2-69.1 123.3-136.6 188-201.2 19.2-19.1 44.4-28.7 69.6-28.7 2 0 4.1 0 6.2.2 23.1 1.4 45.8 11 63.5 28.7 38.4 38.5 38.3 100.8-.2 139.2-73.9 73.7-145.5 151.4-212.7 230.8-.5.5-.9 1-1.4 1.5 90.5 89.6 214.9 144.9 352.3 144.9 276.6 0 500.7-224.2 500.7-500.7 0-119.1-41.6-228.6-111.1-314.5-48.6 33.4-96.6 67.9-143.3 103.3-17.8 13.5-38.7 20-59.4 20-29.7 0-59.1-13.4-78.5-39-32.9-43.4-24.3-105.1 19-137.9 34.1-25.9 68.8-51.2 103.9-76.1-69.2-36.1-147.8-56.5-231.3-56.5"/>
  </g>
  <g clip-path="url(#ak)" transform="matrix(.13333 0 0 -.13333 -624.01682 4337.5735)">
    <path fill="url(#al)" d="m25678.2 17614-6441.7-107.1c-490.3-8.2-889.2-389.4-889.2-851.5v-4056.8c0-462.1 398.9-820.7 889.2-801l6441.7 258.7c462.7 18.6 836.5 395.6 836.5 842.2v3920.7c0 446.7-373.8 802.5-836.5 794.8"/>
  </g>
  <g clip-path="url(#am)" transform="matrix(.13333 0 0 -.13333 -624.01682 4337.5735)">
    <path fill="url(#an)" d="M26004.3 18347.7c-195.1-2.9-353.5 147.7-353.5 336.3v887.9c0 890.7-753.5 1613.2-1686.2 1610.5l-2098.5-6c-956.7-2.8-1740.7-746.6-1740.7-1658.2v-908.6c0-193-166.1-352-371.3-355.1-205.6-3-372.5 151.5-372.5 345.1v911.4c0 1301 1120.9 2359.5 2484.5 2359.5h2098.5c1325 0 2392.1-1028.1 2392.1-2291.7v-885.3c0-188.1-157.7-342.9-352.4-345.8"/>
  </g>
  <g clip-path="url(#ao)" transform="matrix(.13333 0 0 -.13333 -624.01682 4337.5735)">
    <path fill="url(#ap)" d="M23499.6 15365.7c0 450.8-393.6 804.8-872.1 772.3-423-28.8-772.9-367.6-795.8-772.1-17.7-314 154.8-585.3 417.1-722.6 111.5-58.3 166.9-181.4 145.2-303l-183.9-1032.2c-23.4-131.4 82.2-246.9 221.2-241.9l472.7 16.9c138.3 5 243.2 127.5 220 256.8l-183.8 1022.6c-21.9 121.9 41.5 243.1 153.3 310 243.3 145.4 406.1 403.3 406.1 693.2"/>
  </g>
  <g clip-path="url(#aq)" transform="matrix(.13333 0 0 -.13333 -624.01682 4337.5735)">
    <path fill="url(#ar)" d="M10561.8 4924.1c.1 8.9-.4 17.8-2.7 26.8-133.6 529.6-796.59 859.5-796.59 859.5l-262.72-20.6c-151.05-466.8-131.64-753.1-107.38-880.6.67-3.6 1.76-7 2.71-10.4 216.72-19.4 662.78-32 1166.68 25.3"/>
  </g>
  <path fill="#91b3fa" d="M628.66578 3684.4002c1.56 5.68 5.7507 10.0933 11.116 11.2266 41.104 8.64 106.4414 1.6934 133.868-1.8933 6.0534-.8 10.48-6.3867 10.5734-12.7067-67.1867 7.64-126.6614 5.96-155.5574 3.3734"/>
  <g clip-path="url(#as)" transform="matrix(.13333 0 0 -.13333 -624.01682 4337.5735)">
    <path fill="url(#at)" d="m9394.16 6181.1 111.27-535.7c8.15-39.2 38.31-68.6 74.84-72 44.72-4.2 108.37-6.7 172.39 2.7 57.4 8.4 97.37 66.8 87.2 129.4l-77.35 475.6h-368.35"/>
  </g>
  <path fill="#91b3fa" d="M935.92978 3683.4935c-38.68-1.08-58.6933-5.64-69.04-9.8667-.027 3.8534 0 7.76.12 11.8267.1334 4.3333 3.3467 7.7867 7.2934 7.76l212.41332-1.3733c6.7867-.04 10.7467-7.9067 7.8-14.12-27.84 2.3066-98.78672 7.4533-158.58672 5.7733"/>
  <g clip-path="url(#au)" transform="matrix(.13333 0 0 -.13333 -624.01682 4337.5735)">
    <path fill="url(#av)" d="M12889 4948.9c-1.9 4-3.5 8.2-6.3 12-140.7 196.6-499 588.1-1207.1 757.8l-339.7 10.8s-151.2-262.9-154.1-749.9c77.6-31.7 227.7-65.9 517.8-74 448.5-12.6 980.6 26 1189.4 43.3"/>
  </g>
  <g clip-path="url(#aw)" transform="matrix(.13333 0 0 -.13333 -624.01682 4337.5735)">
    <path fill="url(#ax)" d="M11257.8 6228.5c5.4-25.1 76-406.2 103.4-554 6.5-35.1 33.9-60.9 66.4-62.7 58.2-3.2 152-3.6 232.7 18.3 43.5 11.8 72.7 56.2 69.6 105.4l-38 602.9-434.1-109.9"/>
  </g>
  <g clip-path="url(#ay)" transform="matrix(.13333 0 0 -.13333 -624.01682 4337.5735)">
    <path fill="url(#az)" d="M11000.4 13265.9s467.3-3210.9 804.5-7031.9c6.3-71.2-50.4-133.1-120.3-147.8-103.1-21.7-254.5-47.5-379.8-44-67 1.9-122.9 51.5-134.2 117.5-114.8 673.7-934.6 4289.4-1149.7 5085.2 0 0-247.18-3380.3-168.19-5134 1.97-43.6-29.96-81.4-73.32-86.4-65.77-7.6-171-13.4-304.92.8-50.83 5.4-91.84 43.8-99.1 94.4-81.83 570.2-552.82 3964.1-532.8 6408.9 1.14 137.9 161.77 1270.6 161.77 1270.6l1996.06-533.3"/>
  </g>
  <g clip-path="url(#aA)" transform="matrix(.13333 0 0 -.13333 -624.01682 4337.5735)">
    <path fill="url(#aB)" d="m11181.5 18665.7 62.5-1680.2c177.7-61.2 346.9-108.7 508-144.3 100.8 324.5 322.7 722.6 504.3 1018.7-667.5 236-1074.8 805.8-1074.8 805.8"/>
  </g>
  <g clip-path="url(#aC)" transform="matrix(.13333 0 0 -.13333 -624.01682 4337.5735)">
    <path fill="url(#aD)" d="M8934.11 13080.9c-48.05 17-81.54 60.6-86.77 111.3-62.14 602.9-363.01 4340.9 1536.46 5878.6 0 0 108.9 285 1004.3-415.6s416-1434.9 201.6-2447.7c-259.4-1225.7-714.5-2227.5-513.1-2981.7 13.9-52.1-13.5-106.7-64-125.3-695.6-256.4-1388.42-264.9-2078.49-19.6"/>
  </g>
  <g clip-path="url(#aE)" transform="matrix(.13333 0 0 -.13333 -624.01682 4337.5735)">
    <path fill="url(#aF)" d="M11124.7 20190.8c-.6-53.2-759-1130.5-759-1130.5s136.1-268.2 786-485.9l561.1 1153.5-588.1 462.9"/>
  </g>
  <g clip-path="url(#aG)" transform="matrix(.13333 0 0 -.13333 -624.01682 4337.5735)">
    <path fill="url(#aH)" d="M10749 16504.4c-4.7 0-9.5 1.3-13.8 4.2-605.9 409.4-890.92 1070.2-893.74 1076.8-5.29 12.6.56 27 13.06 32.3 12.56 5.3 26.97-.5 32.31-13 2.75-6.5 282.47-654.3 875.97-1055.3 11.3-7.6 14.3-22.9 6.6-34.2-4.7-7-12.5-10.8-20.4-10.8"/>
  </g>
  <g clip-path="url(#aI)" transform="matrix(.13333 0 0 -.13333 -624.01682 4337.5735)">
    <path fill="url(#aJ)" d="M11651.5 17420.3c-8 0-16 3.9-20.7 11.3-1.8 2.8-186.9 290.9-539.5 922.3-108.4 194.1-250.9 317-423.5 365.3-285.8 79.9-561.3-73.3-564-74.9-11.9-6.5-26.9-2.6-33.6 9.3-6.7 11.8-2.6 26.8 9.2 33.5 11.9 6.8 295.2 165.3 601.2 79.7 185.9-51.9 338.6-182.7 453.7-388.9 351.7-629.7 536.1-916.8 537.9-919.7 7.4-11.4 4.1-26.6-7.3-34-4.2-2.7-8.8-3.9-13.4-3.9"/>
  </g>
  <g clip-path="url(#aK)" transform="matrix(.13333 0 0 -.13333 -624.01682 4337.5735)">
    <path fill="url(#aL)" d="M11721.9 20808.1s269.9-620 288-945.4c18.2-325.4 88.3-536.5-288-602-376.2-65.6-693.2 121.9-864.9 446 0 0-269 499.5-208.7 704 60.4 204.6 1073.6 397.4 1073.6 397.4"/>
  </g>
  <g clip-path="url(#aM)" transform="matrix(.13333 0 0 -.13333 -624.01682 4337.5735)">
    <path fill="url(#aN)" d="m10985.6 19939.8 21.4 9.4c27.3 12 38.9 44.5 25.2 70.9-53 102.6-156.5 337.5-22.8 392.3 172.2 70.6 854.3 209.7 1001.4 451.7 141.5 232.6 16.2 532.9-172.2 618.3-12.6 5.7-27.5 1.2-33.9-11l-15.7-29.7c-10.8-20.4-40.8-17.3-47.2 4.8-6.1 21.2-34.3 25.3-46 6.6-45.3-72.4-167.4-189.8-494-250.1-464.2-85.7-771-273.5-778.7-594.2-.5-20.4-22.1-31.7-39.5-21.1-34.3 20.8-89.2 30.7-162.5-31-127.4-107.2-75.3-385.2 204.2-613.9 13.3-10.9 13.1-31.6-1.2-41-50.7-33-126.2-111.4 69.5-216 202.4-108.2 353.5-99.3 411.7-89.7 14.5 2.3 23.8 16.4 20.7 30.7l-62.1 281.9c-3.6 16 8.6 31.1 24.9 31.1h96.8"/>
  </g>
  <g clip-path="url(#aO)" transform="matrix(.13333 0 0 -.13333 -624.01682 4337.5735)">
    <path fill="url(#aP)" d="M10997.3 19880.3s-103 396-280.5 285c-177.6-111.1 92.1-443.8 234.8-458.6l45.7 173.6"/>
  </g>
  <g clip-path="url(#aQ)" transform="matrix(.13333 0 0 -.13333 -624.01682 4337.5735)">
    <path fill="url(#aR)" d="M14491.9 18792.1s-135.2 239.8-126.6 356.3c8.6 116.6-64 287.7 13.2 275 77.3-12.6 93.2-2.3 114.2-142.1 21-139.8 264.8-750.6-.8-489.2"/>
  </g>
  <g clip-path="url(#aS)" transform="matrix(.13333 0 0 -.13333 -624.01682 4337.5735)">
    <path fill="url(#aT)" d="m14517.4 19173.4-3.1-479.1c-915.7-988.7-1656.9-1046.9-2258-834.4-181.7-296.1-403.5-694.2-504.3-1018.7 2445.4-539.1 3021.2 1709 3021.2 1709 331.2 137.2 398 217.4 383.8 307.3l-639.6 315.9"/>
  </g>
  <g clip-path="url(#aU)" transform="matrix(.13333 0 0 -.13333 -624.01682 4337.5735)">
    <path fill="url(#aV)" d="M15221.6 19648.7c-78.2 31.8-231.1 323.4-260.4 227.4-29.3-95.9 12.4-227.4 0-268.2-12.4-40.8-203-510-164.9-614.3 27.4-75.2 178.8-64.1 201.9-187.1 7.7-40.9 40.3-70.2 78.2-70.2 37.9 0 70.5 29.2 78.2 70.1 3.1 16.3 145.2 810.6 67 842.3"/>
  </g>
  <g clip-path="url(#aW)" transform="matrix(.13333 0 0 -.13333 -624.01682 4337.5735)">
    <path fill="url(#aX)" d="M14171.4 20477.9c247.2-125 346.4-426.9 221.3-674.2-125-247.3-426.8-346.4-674.1-221.3-247.3 125-346.5 426.8-221.4 674.1 125 247.3 426.9 346.4 674.2 221.4zm-1445.8 168.7c-617.5-1221.3-128-2711.9 1093.3-3329.4 992.7-501.8 2163.2-272.4 2898.3 486.9l4243.3-2145.5c70.4-35.6 154.3-32.7 222.1 7.7l415 247.2c7.2 4.3 13.9 9 20.4 13.9 1.9 1.3 3.6 2.8 5.4 4.3 4.8 3.8 9.5 7.8 13.9 12 1.5 1.4 3.1 2.8 4.5 4.3 5.6 5.4 10.8 11.1 15.7 17l.2.3c52.1 63.4 68 151.9 36.1 231.9l-337.2 845.4c-20.8 52.2-60 95-110.2 120.4l-425 214.9-112.5-222.5-365.1 184.6 112.5 222.5-341.6 172.7-103.5-204.7-443.7 224.4 103.4 204.6-165.3 83.6-53.3-105.3-372 188 53.3 105.4-289.3 146.3-112.5-222.5-206.7 104.5 112.5 222.5-179.1 90.5-112.5-222.4-358.2 181.1 112.5 222.4-503.5 254.6-215.7 109c175.7 1042.1-333.4 2120.8-1326.1 2622.7-1221.3 617.5-2711.9 128-3329.4-1093.3"/>
  </g>
  <g clip-path="url(#aY)" transform="matrix(.13333 0 0 -.13333 -624.01682 4337.5735)">
    <path fill="url(#aZ)" d="m16165.1 19898.2 2011.6-1017-112.5-222.5 358.2-181.1 112.5 222.5 179.1-90.6-112.5-222.4 206.7-104.5 112.5 222.4 289.3-146.3-53.3-105.3 372-188.1 53.3 105.3 165.3-83.5-103.5-204.7 443.8-224.4 103.5 204.7 341.6-172.7-112.5-222.5 365.1-184.6 112.5 222.5 425-214.9c50.2-25.4 89.3-68.2 110.2-120.4l337.2-845.3c42-105.4 1.2-225.7-96.2-283.7l-415-247.2c-67.8-40.5-151.7-43.4-222.1-7.7L15914.5 18376l250.6 1522.2"/>
  </g>
  <g clip-path="url(#ba)" transform="matrix(.13333 0 0 -.13333 -624.01682 4337.5735)">
    <path fill="url(#bb)" d="M13794.9 19709.9c-247.2 125-346.4 426.9-221.3 674.2 125 247.3 426.8 346.4 674.1 221.3 247.3-125 346.5-426.8 221.4-674.1-125-247.3-426.9-346.4-674.2-221.4zm100.4-2265.1c1221.3-617.5 2711.9-128 3329.4 1093.3 617.5 1221.2 128 2711.9-1093.3 3329.3-1221.3 617.5-2711.9 128-3329.4-1093.2-617.5-1221.3-128-2711.9 1093.3-3329.4"/>
  </g>
  <g clip-path="url(#bc)" transform="matrix(.13333 0 0 -.13333 -624.01682 4337.5735)">
    <path fill="url(#bd)" d="M14247.7 20605.4c247.3-125 346.5-426.8 221.4-674.1-125-247.3-426.9-346.4-674.2-221.4-247.2 125-346.4 426.9-221.3 674.2 125 247.3 426.8 346.4 674.1 221.3zm2545.9-2673.8 4243.3-2145.4c70.4-35.7 154.3-32.8 222.1 7.7l415 247.2c62.6 37.2 101.4 100.2 110.3 168.4-386.7 419.1-4062.9 2024.3-4200.4 2354.7-48.9 117.5-57.3 295.5 89.2 571.6l-215.6 109c175.7 1042.1-333.4 2120.8-1326.1 2622.6-1221.3 617.5-2711.9 128-3329.4-1093.2-617.5-1221.3-128-2711.9 1093.3-3329.4 992.6-501.9 2163.2-272.5 2898.3 486.8"/>
  </g>
  <g clip-path="url(#be)" transform="matrix(.13333 0 0 -.13333 -624.01682 4337.5735)">
    <path fill="url(#bf)" d="M13794.9 19709.9c-247.2 125-346.4 426.9-221.3 674.2 125 247.3 426.8 346.4 674.1 221.3 247.3-125 346.5-426.8 221.4-674.1-125-247.3-426.9-346.4-674.2-221.4zm319.8-1831.1c981.6-496.3 2179.7-102.9 2676 878.7 496.3 981.6 102.9 2179.6-878.7 2675.9-981.6 496.3-2179.7 102.9-2676-878.7-496.3-981.6-102.9-2179.6 878.7-2675.9"/>
  </g>
  <g clip-path="url(#bg)" transform="matrix(.13333 0 0 -.13333 -624.01682 4337.5735)">
    <path fill="url(#bh)" d="M10749 16504.4s2333.5-781.2 3638.7 212.6c81 61.6 183.1 88.5 283.6 72.2l498.6-81.3c209.3-34.1 408.7 101.6 453.8 308.8 25.7 118.1 38.1 247.4 11.9 358.4l-941.3 56.8 26.9 122.2s-416.1-101.8-424.5-427.3c0 0-975.9-639.3-2756 353 0 0-693.2-542.5-791.7-975.4"/>
  </g>
  <path fill="#dee8fd" d="M3212.8364 577.13357c-.1733 0-.36 0-.5333-.013-7.24-.2934-12.88-6.4134-12.5733-13.6534.5733-14.0666.5466-28.3866-.08-42.5333-.32-7.1467 5.16-13.2267 12.28-13.68l.2533-.013c.2 0 .4-.013.5867-.013 6.9866 0 12.8 5.5067 13.1066 12.5467.6667 14.8933.6934 29.96.08 44.7733-.28 6.7734-5.64 12.1467-12.2666 12.56-.28.013-.5734.027-.8534.027m-8.0666-114.08c-6.2134 0-11.7334-4.4267-12.9067-10.76-2.5467-13.92-5.7067-27.8667-9.4133-41.4533-1.9067-6.9867 2.2133-14.2134 9.2133-16.12 1.16-.3067 2.32-.4534 3.4533-.4534 5.7867 0 11.0667 3.8267 12.6667 9.6667 3.8933 14.3067 7.2267 28.9867 9.92 43.6267 1.2933 7.1333-3.4267 13.9733-10.56 15.28-.52.093-1.0267.16-1.5467.1866-.28.027-.5466.027-.8266.027m-33-109.45333c-5.0934 0-9.9334-2.98667-12.0667-7.96-5.5733-12.96-11.7733-25.85334-18.44-38.29334-3.4133-6.38666-1.0133-14.34666 5.3867-17.77333 1.96-1.05333 4.08-1.54667 6.1733-1.54667 4.68 0 9.2267 2.50667 11.5867 6.92 7.0266 13.12 13.56 26.68 19.4133 40.34667 2.8667 6.65333-.2267 14.37333-6.88 17.24-1.4267.6-2.8933.94667-4.3467 1.04-.28.0133-.5466.0267-.8266.0267m-56.6667-99.34667c-4.0533 0-8.04-1.86666-10.6133-5.38666-8.3334-11.41334-17.2667-22.58667-26.5467-33.22667-4.76-5.46667-4.1867-13.76 1.28-18.52 2.4933-2.17333 5.56-3.22667 8.6133-3.22667 3.6667 0 7.3067 1.52 9.9067 4.49334 9.76 11.21333 19.16 22.98666 27.9467 34.98666 4.2666 5.85334 3 14.06667-2.8534 18.34667-2.0933 1.53333-4.4933 2.34667-6.9066 2.50667-.28.0133-.56.0267-.8267.0267m-77.4-84.22666c-3.0533 0-6.12-1.05334-8.6133-3.21334-10.64-9.25333-21.8267-18.18666-33.24-26.53333-5.8534-4.29333-7.1334-12.49333-2.8534-18.34666 2.5734-3.52 6.56-5.38667 10.6-5.38667 2.6934 0 5.4134.82667 7.7467 2.53333 12.0133 8.78667 23.7867 18.18667 34.9733 27.92 5.4667 4.76 6.0534 13.05333 1.2934 18.52-2.4 2.76-5.6934 4.26667-9.08 4.48-.2667.0267-.5467.0267-.8267.0267m-94.0933-64.98667c-2.0934 0-4.2267-.50666-6.2-1.57333-12.4267-6.679997-25.3067-12.906667-38.28-18.506667-6.6534-2.88-9.72-10.6-6.84-17.25333 2.1466-4.96 6.9733-7.93333 12.0533-7.93333 1.7467 0 3.5067.34666 5.2133 1.08 13.64 5.89333 27.2 12.46666 40.28 19.49333 6.3867 3.42667 8.7867 11.38667 5.36 17.77333-2.24 4.146667-6.3733 6.613337-10.7466 6.893337-.28.0133-.56.0267-.84.0267m-482.04-.72c-4.6933 0-9.2267-2.53333-11.5867-6.959997-3.4133-6.4-1-14.34666 5.4-17.76 13.1067-6.98666 26.6934-13.49333 40.3867-19.34666 1.68-.72 3.4267-1.05334 5.1467-1.05334 5.1066 0 9.96 2.98667 12.08 7.97334 2.8533 6.66666-.24 14.37333-6.9067 17.22666-13.0133 5.54667-25.9067 11.73334-38.36 18.373337-1.7067.90666-3.52 1.4-5.3333 1.52-.2667.0133-.5467.0267-.8267.0267m375.9733-41.786657c-1.16 0-2.3333-.14667-3.5067-.48-13.6-3.73334-27.5333-6.93334-41.4133-9.50667-7.12-1.32-11.84-8.16-10.52-15.29333 1.1733-6.33334 6.7067-10.73334 12.9333-10.73334.7734 0 1.5734.0667 2.36.21334 14.6134 2.69333 29.2934 6.06666 43.6134 10.01333 6.9866 1.92 11.0933 9.14667 9.1733 16.14667-1.52 5.54666-6.3867 9.26666-11.8267 9.61333-.2666.0267-.5333.0267-.8133.0267m-269.64-.30667c-5.7866 0-11.08-3.85333-12.6666-9.70667-1.8934-6.98666 2.2533-14.2 9.2533-16.09333 14.3333-3.88 29.0267-7.18667 43.6667-9.84.8-.14667 1.6-.21333 2.3866-.21333 6.2134 0 11.72 4.46666 12.8667 10.78666 1.2933 7.13334-3.44 13.97334-10.5733 15.26667-13.92 2.52-27.88 5.66667-41.5067 9.34667-.8667.24-1.7333.37333-2.6.42666-.28.0133-.56.0267-.8267.0267m156.6667-17.42667c-.1734 0-.36 0-.5467-.0133-7.1067-.30667-14.2667-.45333-21.4266-.45333-7.04 0-14.08.14666-21.08.44-.1867.0133-.3867.0133-.5734.0133-6.9866 0-12.8-5.52-13.1066-12.57333-.2934-7.14667 5.1733-13.2 12.28-13.65334l.28-.0133c7.4-.32 14.8533-.46667 22.2933-.46667 7.5066 0 15.0133.16 22.4666.48 7.24.30667 12.8534 6.44 12.5467 13.68-.2933 6.76-5.6533 12.10667-12.2667 12.53334-.28.0133-.5733.0267-.8666.0267"/>
  <g clip-path="url(#bi)" transform="matrix(.13333 0 0 -.13333 -624.01682 4337.5735)">
    <path fill="url(#bj)" d="M22563.8 31370.3c-29 0-57.8 12.7-77.2 37.2-33.8 42.6-26.7 104.5 15.9 138.3 41.8 33.2 85 66.1 128.4 97.8 17.5 12.8 37.8 19 58 19 30.4 0 60.3-14.1 79.6-40.5 32-43.9 22.4-105.5-21.5-137.5-41.3-30.2-82.3-61.4-122.1-93-16.3-13-35.5-19.9-54.9-21.1-2.1-.2-4.2-.2-6.2-.2"/>
  </g>
  <g clip-path="url(#bk)" transform="matrix(.13333 0 0 -.13333 -624.01682 4337.5735)">
    <path fill="url(#bl)" d="M21128.2 28734c-3 0-6.1.2-9.2.5-54.2 5.2-93.8 53.2-88.7 107.4 5.1 53.2 11.4 107.2 18.7 160.4 6.8 49.3 48.8 85.1 97.4 85.1 4.5 0 9-.3 13.6-1 53.9-7.4 91.5-57 84.1-110.9-6.9-50.6-12.9-101.9-17.7-152.4-4.7-48.8-44.3-85.9-91.7-88.9-2.1-.1-4.3-.2-6.5-.2"/>
  </g>
  <g clip-path="url(#bm)" transform="matrix(.13333 0 0 -.13333 -624.01682 4337.5735)">
    <path fill="url(#bn)" d="M24995.3 24531.1c-53.6 0-97.6 43.2-98.3 97.1-.8 54.3 42.6 98.9 97 99.8 103.5 1.5 208.6 7.4 313.4 17.6 3.3.4 6.6.5 9.9.5 49.8 0 92.7-38.1 97.7-88.9 5.2-54.2-34.4-102.3-88.5-107.6-45.4-4.4-90.8-8.1-136-10.9-64.5-4.1-129.6-6.7-193.7-7.6h-1.5m-522.1 28.3c-4 0-8 .3-12.1.8-108.7 13.4-218.3 31.6-325.8 54.2-53.3 11.2-87.3 63.4-76.1 116.7 9.7 46.3 50.7 78.1 96.3 78.1 6.7 0 13.5-.6 20.3-2.1 102.1-21.5 206.2-38.8 309.4-51.5 54-6.7 92.3-55.8 85.7-109.8-5.9-47.7-45.1-83.2-91.4-86.2-2.1-.1-4.2-.2-6.3-.2m1359.8 75.6c-44.6 0-85 30.5-95.7 75.8-12.5 52.9 20.2 105.9 73.1 118.5 101.6 24.1 203.2 52.7 302.1 85.1 10.2 3.4 20.6 5 30.7 5 41.4 0 80-26.5 93.5-67.9 17-51.7-11.2-107.3-62.9-124.2-104.1-34.1-211.1-64.3-318-89.6-5.5-1.3-11.1-2.1-16.6-2.5-2.1-.1-4.1-.2-6.2-.2m-2180.3 119.7c-11 0-22.3 1.9-33.3 5.9-103 36.9-205.9 78.9-305.8 124.5-49.5 22.6-71.2 81-48.6 130.5 16.5 36.2 52.2 57.5 89.6 57.5 13.7 0 27.6-2.8 40.8-8.9 95-43.4 192.7-83.2 290.5-118.3 51.2-18.4 77.8-74.7 59.5-125.9-13.7-38.2-48.5-62.6-86.5-65.1-2-.1-4.1-.2-6.2-.2m2975.4 164.3c-36.5 0-71.5 20.3-88.6 55.3-23.8 48.8-3.6 107.8 45.3 131.6 93.7 45.8 186.5 96 275.9 149.5 15.8 9.4 33.3 13.9 50.4 13.9 33.5 0 66.2-17.1 84.6-48 27.9-46.6 12.7-107-34-134.9-94.1-56.3-191.9-109.3-290.5-157.4-11.9-5.8-24.4-9-36.9-9.8-2.1-.2-4.2-.2-6.2-.2m-3733.3 206.4c-18.1 0-36.3 4.9-52.7 15.3-56.5 35.8-112.5 73.4-167.4 112.2 61.3 32 115.2 76.3 158.3 129.7 37.8-26 76-51.2 114.5-75.6 46-29.1 59.6-89.9 30.5-135.9-17.6-27.6-46.6-43.6-77-45.5-2.1-.1-4.2-.2-6.2-.2"/>
  </g>
  <g clip-path="url(#bo)" transform="matrix(.13333 0 0 -.13333 -624.01682 4337.5735)">
    <path fill="url(#bp)" d="M22674.7 25252.9c-35.1 24.9-69.8 50.2-103.9 76.1-43.3 32.8-51.9 94.5-19 137.9 19.4 25.6 48.8 39 78.5 39 20.7 0 41.6-6.5 59.4-20 46.7-35.4 94.7-69.9 143.3-103.3-43.1-53.4-97-97.7-158.3-129.7"/>
  </g>
  <g clip-path="url(#bq)" transform="matrix(.13333 0 0 -.13333 -624.01682 4337.5735)">
    <path fill="url(#br)" d="M21978.1 25882.4c-12.1 13.8-24 27.7-35.9 41.7-35.1 41.5-30 103.6 11.5 138.8 18.5 15.7 41.1 23.3 63.6 23.3 27.3 0 54.4-11.3 73.8-33.3-48.5-48-87.3-106-113-170.5"/>
  </g>
  <g clip-path="url(#bs)" transform="matrix(.13333 0 0 -.13333 -624.01682 4337.5735)">
    <path fill="url(#bt)" d="M22235.7 25652.5c-25.2 0-50.4 9.6-69.6 28.7-64.7 64.6-127.8 132.1-188 201.2 25.7 64.5 64.5 122.5 113 170.5.5-.5.9-1 1.4-1.5 67.2-79.4 138.8-157.1 212.7-230.8 38.5-38.4 38.6-100.7.2-139.2-17.7-17.7-40.4-27.3-63.5-28.7-2.1-.2-4.2-.2-6.2-.2"/>
  </g>
  <g clip-path="url(#bu)" transform="matrix(.13333 0 0 -.13333 -624.01682 4337.5735)">
    <path fill="url(#bv)" d="M21707.3 26310.7c-32.6 0-64.4 16.1-83.2 45.6-58.9 92.7-114.5 189-165.3 286.2-25.2 48.2-6.5 107.7 41.7 132.9 14.5 7.6 30.1 11.2 45.4 11.2 35.5 0 69.9-19.3 87.5-52.9 48.2-92.3 101-183.7 156.9-271.8 29.2-45.9 15.6-106.7-30.3-135.8-14.5-9.3-30.4-14.2-46.5-15.2-2-.1-4.1-.2-6.2-.2"/>
  </g>
  <g clip-path="url(#bw)" transform="matrix(.13333 0 0 -.13333 -624.01682 4337.5735)">
    <path fill="url(#bx)" d="M21358.3 27419h-204.6c-2.8 10.2-5.6 20.5-8.3 30.8-13.9 52.6 17.4 106.5 69.9 120.4 8.4 2.2 16.9 3.3 25.2 3.3 43.6 0 83.5-29.1 95.2-73.2 7.2-27.1 14.8-54.3 22.6-81.3"/>
  </g>
  <g clip-path="url(#by)" transform="matrix(.13333 0 0 -.13333 -624.01682 4337.5735)">
    <path fill="url(#bz)" d="M21336.2 27069.1c-40.4 0-78.3 25.1-92.7 65.4-33.3 93.1-63.5 188.7-89.8 284.5h204.6c21.3-73.5 45-146.6 70.6-218.2 18.3-51.2-8.3-107.5-59.5-125.9-8.9-3.1-18-5-27-5.6-2.1-.1-4.1-.2-6.2-.2"/>
  </g>
  <g clip-path="url(#bA)" transform="matrix(.13333 0 0 -.13333 -624.01682 4337.5735)">
    <path fill="url(#bB)" d="M21140.8 27890c-48.9 0-91.3 36.5-97.5 86.3-10.1 80.1-17.7 161.5-22.8 241.9-1.9 29.1-3.4 58.2-4.6 87.2-2.3 54.3 39.2 101.2 94.3 102.4 1.4.1 2.8.1 4.2.1 52.4 0 96-41.4 98.2-94.3 1.2-27.6 2.6-55.3 4.4-82.9 4.8-76.5 12.1-153.8 21.6-230 6.8-53.9-31.5-103.1-85.5-109.9l-6-.6c-2.1-.1-4.2-.2-6.3-.2"/>
  </g>
  <g clip-path="url(#bC)" transform="matrix(.13333 0 0 -.13333 -624.01682 4337.5735)">
    <path fill="url(#bD)" d="M27342.8 25372.6c-28.8 0-57.4 12.6-76.8 36.8-34 42.4-27.2 104.4 15.2 138.4 39.5 31.7 79 64.8 117.6 98.4 18.7 16.3 41.7 24.3 64.6 24.3 27.5 0 54.8-11.5 74.3-33.8 35.7-41 31.5-103.1-9.5-138.9-40.6-35.4-82.2-70.3-123.8-103.6-16.4-13.2-35.8-20.2-55.3-21.4-2.1-.2-4.2-.2-6.3-.2"/>
  </g>
  <path fill="#91b3fa" d="M3047.3298 730.86687c1.52-2.1333 1.52-5 .013-7.1333l-43.2533-60.8667c13.2933-32.2533 21.5333-66.84 23.8933-102.6533l65.6133-35.5333c2.3067-1.2534 3.56-3.8267 3.1334-6.4l-14.6534-88.36c-.4266-2.5867-2.44-4.6134-5.0266-5.0534l-73.5734-12.4533c-13.8-33.13333-32.76-63.21333-55.7466-89.44l21.28-71.57333c.7466-2.52-.1867-5.21333-2.32-6.74667l-72.84-52.12c-2.12-1.52-4.9867-1.52-7.12-.0133l-60.88 43.25333c-32.24-13.29333-66.8267-21.53333-102.64-23.89333l-35.5467-65.61333c-1.24-2.30667-3.8133-3.56-6.4-3.13334l-88.36 14.65334c-2.5866.42666-4.6133 2.44-5.04 5.02666l-12.4666 73.57334c-33.1334 13.8-63.2134 32.76-89.4267 55.74666l-71.5867-21.28c-2.5066-.74666-5.2133.18667-6.7333 2.32l-52.12 72.84c-1.52 2.12-1.5333 4.98667-.013 7.12l43.2533 60.88c-13.2933 32.24-21.5467 66.8267-23.8933 102.64l-65.6267 35.5467c-2.2933 1.24-3.56 3.8133-3.1333 6.4l14.6533 88.36c.44 2.5866 2.4533 4.6133 5.04 5.04l73.5733 12.4666c13.7867 33.1334 32.76 63.2134 55.7467 89.44l-21.28 71.5734c-.7467 2.5066.1867 5.2133 2.3067 6.7333l72.8533 52.12c2.12 1.52 4.9867 1.5333 7.12.013l60.8667-43.24c32.2533 13.28 66.84 21.5334 102.6533 23.8934l35.5333 65.6133c1.2533 2.2933 3.8267 3.56 6.4 3.1333l88.3733-14.6533c2.5734-.44 4.6-2.4533 5.04-5.04l12.4534-73.5733c33.1333-13.7867 63.2133-32.76 89.44-55.7467l71.5733 21.28c2.52.7467 5.2133-.1733 6.7467-2.3067l52.12-72.84"/>
  <path fill="#bdd0fb" d="M2656.8231 485.74687c-14.0666 11.92-22.6666 28.6-24.1866 46.9734-3.16 37.9333 25.1333 71.36 63.0666 74.5066 37.9467 3.1734 71.36-25.1333 74.52-63.08 3.1467-37.92-25.1467-71.3466-63.08-74.5066-3.44-.28-6.8533-.32-10.24-.093-14.68.92-28.64 6.52-40.08 16.2zm37.1467 142.4134c-49.48-4.1067-86.3733-47.7067-82.2667-97.1867 1.9867-23.96 13.2-45.72 31.56-61.2533 18.3467-15.5467 41.6534-23 65.6267-21.0134 49.4666 4.12 86.3733 47.7067 82.2666 97.1867-3.7466 45.0133-40.16 79.6267-83.9599 82.4-4.3467.28-8.7734.24-13.2267-.1333"/>
  <path fill="#bdd0fb" d="M2713.5964 758.18687c7.52-.48 15.0534-1.3333 22.6-2.5866 2.3734-.3867 4.7334-.8267 7.0934-1.2934 11.64-2.3066 23.0666-5.5466 34.12-9.6533.1466-.067.2933-.12.44-.1733l1.28-.48c.84-.32 1.6666-.64 2.4933-.9734 2.16-.8533 3.44-3 3.3067-5.2-.04-.5466-.16-1.08-.36-1.6133-1.0667-2.6933-4.12-4.0133-6.8134-2.9467-13.88 5.4934-28.44 9.52-43.28 11.9734-73.7199 12.24-144.9866-15.5467-191.5599-67.4-25.92-28.84-44.1867-65.1334-50.9867-106.1334-1.1867-7.1866-2.0133-14.3866-2.4667-21.5733-3.0533-48.28 10.48-95.76 39.0134-135.64 32.7733-45.81333 81.4266-76.10667 137-85.33333 114.7599-19.01334 223.5199 58.84 242.5333 173.54663 1.1733 7.0667 1.9866 14.1734 2.44 21.28 1.9466 30.8-2.8667 61.6934-14.2 90.4267-.2934.7467-.4134 1.52-.36 2.2667.12 1.96 1.36 3.7733 3.32 4.5466 2.6933 1.0534 5.7466-.2533 6.8133-2.96 11.8933-30.1733 16.9467-62.6 14.9067-94.9333-.48-7.4667-1.32-14.92-2.56-22.3467-19.96-120.43997-134.2267-202.14663-254.6133-182.18663-58.3334 9.68-109.4134 41.49333-143.8267 89.58663-29.96 41.8667-44.16 91.7067-40.9467 142.4.48 7.5334 1.3467 15.08 2.5867 22.6267 9.68 58.3467 41.4933 109.4267 89.5867 143.84 41.8666 29.96 91.7333 44.16 142.4399 40.9333"/>
  <path fill="#dee8fd" d="M3682.1564 893.98687c-.5866 0-1.1866-.053-1.7866-.1866-4.3734-1-7.1067-5.3334-6.12-9.6934 1.44-6.4133 2.72-12.9466 3.7733-19.4266.6533-3.96 4.08-6.8 7.9733-6.8.44 0 .8934.04 1.3334.12 4.4266.72 7.4266 4.8933 6.6933 9.3066-1.1067 6.8-2.44 13.6534-3.96 20.36-.8133 3.6-3.8933 6.0934-7.3867 6.3067-.1733.013-.3466.013-.52.013m8.08-61.84h-.2933c-4.48-.1733-7.96-3.9333-7.8-8.4133.44-11.2933.2933-22.7467-.4267-34.0133-.1466-2.3867-.32-4.7734-.5333-7.16-.3733-4.4534 2.9333-8.3734 7.4-8.76.12 0 .24-.013.3733-.013 4.0934 0 8.0267 3.08 8.3867 7.4134.2133 2.5066.4 5 .56 7.4933.7467 11.8133.9067 23.8133.4533 35.6667-.16 4.1866-3.48 7.52-7.5866 7.7733-.1734.013-.36.013-.5334.013m-7.08-83.88c-3.76 0-7.1333-2.6266-7.9333-6.4533-2.8-13.4-6.4667-26.76-10.88-39.6933-1.4533-4.24.8-8.84 5.0533-10.2934.8534-.2933 1.7334-.4266 2.6-.4266 3.3734 0 6.5334 2.1066 7.6934 5.48 4.6266 13.5466 8.4666 27.56 11.4 41.6133.92 4.3867-1.8934 8.68-6.2667 9.6-.3867.08-.7733.1333-1.16.16-.1733.013-.3467.013-.5067.013m-27.24-79.6533c-3 0-5.8933-1.68-7.2933-4.56-6-12.2933-12.84-24.3333-20.32-35.8133-2.44-3.7467-1.3867-8.7734 2.36-11.2134 1.3733-.8933 2.92-1.32 4.44-1.32 2.64 0 5.2267 1.2934 6.7867 3.68 7.84 12.0267 15.0133 24.6667 21.3066 37.56 1.96 4.0267.2934 8.88-3.7333 10.84-.9867.48-2.0133.7467-3.04.8134-.1733 0-.3467.013-.5067.013m-46-70.52c-2.3066 0-4.6-.9867-6.2-2.88-8.84-10.4667-18.4133-20.48-28.4533-29.7467-3.2933-3.04-3.4933-8.1733-.4533-11.4533 1.6-1.7333 3.7733-2.6133 5.96-2.6133 1.9733 0 3.9333.72 5.4933 2.1466 10.5333 9.7334 20.56 20.2267 29.84 31.2 2.8933 3.4134 2.4667 8.5334-.96 11.4267-1.3867 1.16-3.04 1.7867-4.7067 1.8933-.1733.013-.3466.027-.52.027m-61.8133-57.16c-1.64 0-3.2933-.4933-4.7333-1.52-11.12-8-22.8267-15.3733-34.8267-21.9467-3.92-2.1466-5.36-7.08-3.2133-11.0133 1.48-2.68 4.2533-4.2133 7.12-4.2133 1.32 0 2.6533.32 3.8933 1.0133 12.56 6.88 24.84 14.6133 36.4933 22.9867 3.64 2.6266 4.4667 7.6933 1.8534 11.32-1.48 2.0533-3.7334 3.2133-6.08 3.36-.16.013-.3334.013-.5067.013m-73.8133-40.4133c-.9867 0-2-.1734-2.9867-.56-12.7067-5.0534-25.8667-9.3467-39.08-12.7734-4.3333-1.1333-6.9467-5.56-5.8133-9.8933.9466-3.6533 4.2266-6.0667 7.84-6.0667.68 0 1.36.08 2.04.2534 13.8666 3.6 27.6666 8.1066 41 13.4 4.16 1.6533 6.2 6.3733 4.5466 10.5333-1.2 3-4 4.9067-7.0266 5.0933-.1734.013-.3467.013-.52.013m-207.1067-14.1734c-3.6533 0-6.9733-2.4933-7.8667-6.2-1.0666-4.3466 1.6-8.7333 5.9467-9.7866 12.0533-2.9467 24.4533-5.2667 36.8533-6.92 1.8934-.2667 3.76-.4934 5.64-.72.3734-.053.7467-.08 1.1067-.08 3.9733 0 7.4133 3.12 7.88 7.2133.52 4.44-2.6667 8.4667-7.12 8.9867-1.76.2-3.5333.4266-5.32.6666-11.8667 1.5867-23.7067 3.8-35.2 6.6-.4667.12-.9467.1867-1.4133.2134-.1734.013-.3334.027-.5067.027m125.68-6.9466c-.3467 0-.6933-.027-1.0533-.067-13.52-1.7733-27.3334-2.72-41.0667-2.8-4.4667-.027-8.08-3.68-8.0533-8.16.027-4.4667 3.68-8.0133 8.16-8.0533 14.3866.093 28.88 1.0666 43.0666 2.9333 4.44.5733 7.5734 4.64 6.9867 9.08-.5067 3.9067-3.72 6.8-7.52 7.04-.1733.013-.3467.027-.52.027"/>
  <g clip-path="url(#bE)" transform="matrix(.13333 0 0 -.13333 -624.01682 4337.5735)">
    <path fill="url(#bF)" d="M29790.5 23826.2c-62.1 0-124.3 2.2-185.9 6.5-33.4 2.4-58.7 31.5-56.3 65 2.3 32.2 29.4 56.5 61.1 56.5 1.3 0 2.6-.1 3.9-.2 58.5-4.1 117.7-6.2 176.9-6.2 42.3 0 84.6 1.1 126.7 3.2 1 .1 2.1.1 3.1.1 32.2 0 59-25.3 60.6-57.8 1.7-33.2-23.7-61.6-56.8-63.7l-.8-.1c-44-2.2-88.3-3.3-132.5-3.3m438.6 37.6c-29 0-54.7 20.9-59.8 50.5-5.7 33.1 16.5 64.5 49.6 70.2 99.6 17.2 199.1 40.5 295.8 69.4 5.8 1.7 11.6 2.5 17.3 2.5 26.2 0 50.5-16.9 58.4-43.4 9.6-32.1-8.7-66-40.8-75.6-101.4-30.3-205.7-54.8-310.1-72.7-2.2-.4-4.3-.7-6.5-.8-1.3-.1-2.6-.1-3.9-.1m-928.5 9.7c-3.8 0-7.8.3-11.7 1.1-104.1 20.4-207.8 47.3-308.2 80.1-32 10.4-49.4 44.7-39 76.6 8.3 25.7 32.1 42 57.8 42 6.2 0 12.6-1 18.8-3 95.8-31.2 194.7-56.9 294-76.4 32.9-6.5 54.4-38.4 47.9-71.3-5.4-27.7-28.8-47.3-55.8-49-1.2-.1-2.5-.1-3.8-.1"/>
  </g>
  <path fill="#dee8fd" d="M3527.3431 1111.6136c-2.0133-4.8667-4.08-9.8-6.1333-14.6534.52-.1066 1.0533-.16 1.5733-.16 2.7733 0 5.4667 1.4134 6.9867 3.96 2.2 3.72 1.0933 8.4667-2.4267 10.8534"/>
  <g clip-path="url(#bG)" transform="matrix(.13333 0 0 -.13333 -624.01682 4337.5735)">
    <path fill="url(#bH)" d="M30842.5 24044.9v132.9c77.8 35.9 154.1 76 227.6 119.5 6.1 3.6 12.5 6 19.1 7.3 15.4-36.4 30.9-73.4 46-109.9-1-.7-2.1-1.4-3.1-2-91-54-186.4-103-283.4-145.5-2.1-.9-4.1-1.6-6.2-2.3"/>
  </g>
  <g clip-path="url(#bI)" transform="matrix(.13333 0 0 -.13333 -624.01682 4337.5735)">
    <path fill="url(#bJ)" d="M30824.3 24042.1c-23.4 0-45.8 13.6-55.8 36.4-13.4 30.7.6 66.6 31.3 80.1 14.3 6.3 28.5 12.7 42.7 19.2v-132.9c-4.7-1.5-9.6-2.4-14.4-2.7-1.3-.1-2.6-.1-3.8-.1m-2114 23.7c-8.6 0-17.3 1.9-25.6 5.7-95.9 44.8-190.1 95.8-279.9 151.9-28.5 17.7-37.2 55.2-19.4 83.8 11.5 18.4 31.4 28.6 51.7 28.6 10.9 0 22.1-3 32.1-9.2 85.7-53.5 175.4-102.2 266.9-144.8 30.4-14.2 43.6-50.4 29.4-80.9-9.7-20.8-29.9-33.6-51.3-34.9-1.3-.1-2.6-.2-3.9-.2m-526.9 328.4c-13.4 0-26.9 4.5-38.1 13.5-82.6 66.5-161.8 138.7-235.5 214.4-23.4 24-22.9 62.5 1.1 85.9 11.8 11.5 27.1 17.3 42.4 17.3 15.9 0 31.7-6.2 43.6-18.4 70.3-72.2 145.9-141 224.7-204.5 26.1-21.1 30.2-59.4 9.2-85.5-11.2-13.8-27.1-21.5-43.6-22.5-1.3-.1-2.5-.2-3.8-.2m-433.1 445.2c-18.4 0-36.5 8.3-48.5 24-64.2 84.4-123.9 173.5-177.2 264.7-16.9 29-7.2 66.3 21.8 83.2 9.7 5.6 20.2 8.3 30.6 8.3 20.9 0 41.3-10.8 52.6-30.1 50.8-87 107.7-172 169-252.4 20.4-26.7 15.2-64.9-11.5-85.2-9.9-7.6-21.4-11.6-33-12.3-1.3-.1-2.6-.2-3.8-.2"/>
  </g>
  <path fill="#dee8fd" d="M3557.4231 1089.4936c-2.4133 0-4.8133-1.0934-6.4133-3.1467-2.7467-3.5467-2.0934-8.64 1.4533-11.3733 5.24-4.0534 10.3733-8.28 15.28-12.56 1.5333-1.3334 3.44-1.9867 5.32-1.9867 2.2667 0 4.52.9333 6.12 2.7733 2.9467 3.3734 2.5867 8.4934-.7733 11.44-5.1467 4.48-10.5334 8.9067-16.0267 13.1467-1.3333 1.04-2.88 1.5867-4.44 1.68-.1733.013-.3467.027-.52.027"/>
  <path fill="#91b3fa" d="M3579.4631 936.62687c1.0133-1.4266 1.0133-3.3466 0-4.7733l-28.9333-40.7333c8.8933-21.5734 14.4133-44.72 15.9866-68.68l43.9067-23.7867c1.5467-.84 2.3867-2.56 2.0933-4.28l-9.8-59.1333c-.2933-1.72-1.64-3.08-3.36-3.3734l-49.24-8.3333c-9.2266-22.1733-21.92-42.3067-37.3066-59.8533l14.24-47.8934c.5066-1.68-.12-3.4933-1.5467-4.5066l-48.7467-34.88c-1.4133-1.0134-3.3333-1.0267-4.76-.013l-40.7333 28.9467c-21.5733-8.8933-44.72-14.4133-68.6933-15.9867l-23.7734-43.9066c-.84-1.5467-2.56-2.3867-4.28-2.1067l-59.1333 9.8133c-1.7333.28-3.08 1.64-3.3733 3.36l-8.3467 49.24c-22.16 9.2267-42.2933 21.92-59.84 37.3067l-47.8933-14.24c-1.68-.5067-3.4934.12-4.5067 1.5467l-34.88 48.7333c-1.0267 1.4267-1.0267 3.3467-.013 4.7733l28.9466 40.7334c-8.8933 21.5733-14.4133 44.72-15.9866 68.68l-43.92 23.7866c-1.5334.84-2.3734 2.56-2.0934 4.28l9.8134 59.1334c.28 1.7333 1.6266 3.08 3.36 3.3733l49.24 8.3333c9.2266 22.1734 21.92 42.3067 37.2933 59.8534l-14.24 47.8933c-.4933 1.68003.12 3.49333 1.5467 4.50673l48.7466 34.8799c1.4267 1.0267 3.3467 1.0267 4.7734.013l40.7333-28.9467c21.5733 8.8933 44.72 14.4133 68.68 15.9867l23.7867 43.92c.8266 1.5333 2.5466 2.3733 4.28 2.0933l59.1333-9.8133c1.72-.28 3.08-1.64 3.3733-3.36l8.3334-49.24c22.1733-9.2267 42.2933-21.92003 59.8533-37.30673l47.8933 14.24c1.68.5067 3.4934-.12 4.5067-1.5333l34.88-48.7467"/>
  <path fill="#bdd0fb" d="M3303.0364 804.12027c-1 12.0133 2.7467 23.6933 10.5334 32.8933 7.7733 9.1867 18.68 14.8133 30.6933 15.8133 12.0133.9734 23.68-2.7466 32.8933-10.5333 9.1867-7.7867 14.8-18.6933 15.8-30.6933 2.0667-24.7867-16.4266-46.6267-41.2133-48.6934-2.24-.1866-4.4533-.2133-6.6267-.067-21.9466 1.3866-40.2 18.7333-42.08 41.28zm39.8934 64.8533c-16.3334-1.3467-31.16-8.9867-41.7467-21.4933-10.5733-12.4934-15.6667-28.3734-14.3067-44.6934 2.8-33.7066 32.4534-58.7866 66.2134-56.04 33.6933 2.8 58.8266 32.5067 56.0266 66.1867-1.36 16.3333-8.9866 31.1467-21.4933 41.7333-10.16 8.6-22.56 13.5734-35.6133 14.4-3 .1867-6.04.16-9.08-.093"/>
  <path fill="#bdd0fb" d="M3356.5831 959.48027c5.12-.3334 10.2667-.92 15.4267-1.7734 10.2666-1.6933 20.36-4.44 30.04-8.16.4266-.1733.8666-.3466 1.2933-.5066 3.36-1.3334 5.3333-4.64 5.12-8.0534-.053-.8266-.24-1.6666-.56-2.48-1.64-4.16-6.36-6.1733-10.52-4.5466-9 3.56-18.4267 6.16-28.0133 7.7466-.5334.093-1.0534.1734-1.5867.2534-22.72 3.5466-45.4667 1.2933-66.56-6.2534-11.4533-4.0933-22.4133-9.76-32.6267-16.9333l-.2533-.1733c-.2533-.1867-.5067-.36-.7467-.5334-29.6666-21.2266-49.28-52.72-55.24-88.6933-.7866-4.6533-1.3066-9.32-1.6-13.96-1.9866-31.2667 6.7734-62 25.24-87.8133 21.2267-29.6667 52.72-49.28 88.6934-55.24 35.96-5.9467 72.12 2.44 101.7733 23.6533s49.28 52.72 55.24 88.6933c.76 4.5734 1.2933 9.1734 1.5733 13.7734 1.2667 19.9466-1.84 39.9333-9.1866 58.5333-.4534 1.1467-.6267 2.3333-.5467 3.4933.1867 3.0267 2.0933 5.84 5.1067 7.0267 4.1733 1.6267 8.88-.4 10.5333-4.5733 8.2-20.8134 11.6933-43.1867 10.28-65.4934-.32-5.1466-.9067-10.2933-1.76-15.4133-6.6667-40.2533-28.6267-75.4933-61.8-99.2267-33.1867-23.7333-73.6-33.1733-113.8667-26.4666-40.24 6.68-75.48 28.6133-99.2133 61.8-20.68 28.8933-30.4667 63.28-28.2533 98.2533.32 5.1867.92 10.4 1.7866 15.6 12.92 77.9333 83.04 132.36 160.2267 127.4667"/>
</svg>
