<svg xmlns="http://www.w3.org/2000/svg" xmlns:xlink="http://www.w3.org/1999/xlink" xml:space="preserve" viewBox="0 0 3746.056 3733.333">
  <defs>
    <path id="a" d="M22551.2 19257.9c-25.3 0-49.4 12.5-64 34.2l-89 134.2c-75.8 1-150.9 11.4-223.9 31.2l-122.3-104.6c-14.2-12.1-32-18.4-49.8-18.4-4.2 0-8.4.4-12.6 1.1-9.1 1.5-18 4.6-26.3 9.5l-200.6 117.9c-28 16.6-42.6 49.2-36.1 81.2l31.8 157.7c-52.7 54.2-98.3 114.7-136.1 180.5l-160.7 12.5c-32.6 2.8-59.9 25.7-68.1 57.2l-58.4 225.2c-8.2 31.6 4.6 65 31.8 83l134.2 89.1c1 75.8 11.4 150.9 31.1 223.9l-104.5 122.2c-21.3 24.8-24.5 60.5-7.9 88.8l117.8 200.3c14 23.8 39.5 37.9 66.3 37.9 5 0 10-.5 15-1.5l157.8-31.9c54.2 52.8 114.7 98.4 180.4 136.1l12.6 160.6c2.5 32.6 25.5 60 57.2 68.2l225 58.5c6.4 1.6 12.8 2.4 19.2 2.4 25.3 0 49.5-12.5 63.9-34.2l89.1-134.2c75.8-.9 150.9-11.4 223.9-31.2l122.2 104.5c14.2 12.2 32 18.5 49.9 18.5 13.4 0 26.8-3.5 38.9-10.6l200.4-117.8c28.2-16.5 42.8-49.2 36.3-81.3l-31.8-157.7c52.7-54.2 98.4-114.7 136.1-180.5l160.4-12.5c32.6-2.1 60.1-25.5 68.4-57.2l58.4-225c8.2-31.7-4.6-65.1-31.8-83.2l-134.2-89.1c-1-75.8-11.4-150.8-31.1-223.8l104.5-122.3c21.3-24.9 24.4-60.5 7.9-88.7l-117.9-200.5c-14-23.9-39.5-37.7-66.4-37.7-4.9 0-9.9.5-14.8 1.4l-157.8 31.9c-54.2-52.7-114.6-98.4-180.4-136.2l-12.6-160.5c-2.5-32.6-25.5-60-57.2-68.2l-225-58.4c-6.3-1.7-12.8-2.5-19.2-2.5m-88.5 290.9 108.1-162.8 163.2 42.4 15.2 194.8 29.7 15.6c75.7 39.8 143.9 91.2 202.6 152.9l23.2 24.2 191.4-38.6 85.4 145.3-126.9 148.4 10 32c25.2 81.4 37 166 35 251.5l-.8 33.5 162.7 108.1-42.3 163.1-194.8 15.3-15.6 29.6c-39.8 75.7-91.2 143.9-152.9 202.7l-24.3 23.1 38.7 191.4-145.3 85.4-148.4-126.9-32.1 10c-75.2 23.4-153.2 35.2-232.1 35.2-6.4 0-12.8 0-19.3-.2l-33.5-.8-108.1 162.8-163.2-42.4-15.2-194.8-29.7-15.6c-75.7-39.8-143.9-91.2-202.6-152.9l-23.2-24.3-191.4 38.7-85.4-145.3 126.9-148.4-9.9-32c-25.3-81.3-37.1-165.9-35.1-251.4l.8-33.6-162.8-108.1 42.4-163.1 194.8-15.3 15.6-29.6c39.8-75.7 91.3-143.9 152.9-202.7l24.3-23.1-38.7-191.4 145.3-85.4 148.4 126.8 32.1-9.9c75.3-23.4 153.3-35.2 232.3-35.2 6.4 0 12.8 0 19.1.2l33.5.8m764.6 222.2.3-.1-.3.1m-1707.2 1003.5v-.1.1m713.6 539 .1-.1-.1.1m181.3-1598.3c-33.6 0-67.1 2.8-100.1 8.2-74.5 12.4-146.9 38.4-213.9 77.8-97.2 57.2-176.9 139.4-230.6 237.8-16.1 29.5-5.3 66.4 24.2 82.5 9.2 5 19.2 7.4 29.1 7.4 21.5 0 42.3-11.4 53.3-31.7 43.2-79.1 107.4-145.2 185.5-191.2 77.9-45.8 164.7-69.2 252.7-69.2 42.1 0 84.6 5.4 126.5 16.3 129.3 33.6 237.9 115.5 305.6 230.7 67.7 115.2 86.5 249.8 52.9 379.1-33.6 129.4-115.5 237.9-230.7 305.6-77.9 45.8-164.6 69.2-252.6 69.2-42.2 0-84.7-5.4-126.6-16.3-129.3-33.6-237.8-115.5-305.5-230.7-18.1-30.8-32.9-63.5-44-97-8.5-25.5-32.2-41.8-57.6-41.8-6.4 0-12.8 1-19.2 3.1-31.8 10.6-49.1 44.9-38.6 76.8 13.8 41.7 32.1 82.3 54.6 120.5 84.2 143.2 219 245 379.8 286.7 52.1 13.6 104.9 20.3 157.3 20.3 109.4 0 217.2-29.2 314-86.1 143.2-84.1 245-219 286.7-379.7 41.8-160.8 18.4-328.1-65.8-471.3-84.1-143.2-219-245-379.7-286.8-52.1-13.5-104.9-20.2-157.3-20.2"/>
  </defs>
  <defs>
    <clipPath id="b" clipPathUnits="userSpaceOnUse">
      <path d="M17139.1 4550c-690.1 0-1374.9 50.8-2049.6 154.7-1011.6 155.8-3784.9 620-6240.29 2809.7-101.55 90.5-201.66 183.3-299.77 277.6l7849.76 77.6c-72.5-61-8.6-152.2 263.2-303.8 186.8-104.2 379.8-147.2 571.5-147.2 346.8 0 688.9 140.9 978.9 314.9 629.6-236 1310.3-255.1 1514.1-255.1 39.3 0 60.9.7 60.9.7 226.1 143.3 417.6 287.4 579.2 429.7l6428.5 63.6C24021.9 5777.6 20528.8 4550 17139.1 4550M4850.59 14979.7c-273.06 1479.2-333.7 3020.2-169.25 4546.6l169.25-4546.6m27346.91 2463.9 129.6 2230.1c11.7-743.7-31.8-1490.7-129.6-2230.1M6787.33 25742.9c45.11 72.5 90.64 144.2 137.19 216C9633.29 30137.7 14438.1 32550 19062.2 32550c113.3 0 226.2-1.4 339.3-4.3 1018.2-26.2 4920.3-187.3 8349.6-3015.1 503.7-415.3 1614.7-1402.3 2615.9-2968 87.7-137.2 172.2-276 253.9-417l-3225-54.5c11.5 11.7 18.9 27.5 19.5 45.2 2.8 77 2.3 154.8-1.4 231.3-1.8 36.4-31.7 64.6-67.9 64.6-1.1 0-2.1 0-3.2-.1-37.4-1.8-66.3-33.6-64.5-71.1 3.6-72.7 4-146.6 1.3-219.8-.7-20.2 7.5-38.8 21.2-51.7l-566.3-9.6 15.8 296.8c.7 13.5-7.2 26-19.7 31.1l-357.6 145c-32.7 182.6-94.9 355.6-181.7 513.7l187.3 337.6c6.5 11.8 4.9 26.5-4.2 36.6l-309.6 344.4c-6.1 6.8-14.8 10.5-23.6 10.5-4.2 0-8.4-.8-12.4-2.5l-355.5-150.5c-148 103.1-313.4 183.3-491.6 235.2l-106.3 370.9c-3.7 13-15.3 22.2-28.8 22.9l-462.4 24.6c-.6 0-1.2.1-1.7.1-12.9 0-24.5-7.8-29.4-19.8l-145-357.6c-182.6-32.7-355.7-94.9-513.7-181.7l-337.6 187.3c-4.8 2.6-10.1 3.9-15.4 3.9-7.7 0-15.2-2.7-21.2-8.1l-344.4-309.6c-10.1-9.1-13.3-23.5-8-36l150.4-355.5c-103-148-183.2-313.4-235.1-491.6l-370.9-106.2c-13-3.8-22.2-15.4-23-28.9l-24.5-462.4c-.7-13.5 7.2-26 19.7-31.1l207.2-84-750.9-12.7c-3.5 39.5-6 79.2-7.7 118.7-1.5 36.5-31.7 65-67.8 65-1 0-1.9 0-2.9-.1-37.4-1.5-66.5-33.2-64.9-70.7 1.6-38.3 4-76.8 7.3-115.2l-15217.47-257.1m15315.97 1023.8c-32.1 0-60-23.7-65.8-56.2-3.5-19.8-6.8-39.5-9.9-59.4-8.5-54.9-15.4-110.8-20.6-166.2-3.4-36 21.9-67.9 57.1-73.4 1.4-.2 2.8-.4 4.2-.5 2.1-.2 4.2-.3 6.4-.3 34.6 0 64.2 26.4 67.4 61.5 5 52.7 11.6 105.9 19.7 158.1 2.9 18.9 6 37.7 9.4 56.4 6.5 36.9-18.1 72.2-55 78.7-4.3.9-8.7 1.3-12.9 1.3m5148 249c-6.1 0-12.3-.8-18.4-2.5-36.1-10.1-57.1-47.6-47-83.7 19.8-70.3 36.7-142.3 50.4-213.9 5.5-29 28.7-50.2 56.3-54.4 3.3-.6 6.8-.8 10.3-.8 4.2 0 8.5.4 12.7 1.2 36.9 7 61.1 42.5 54 79.3-14.3 75.5-32.2 151.3-53 225.3-8.4 30-35.7 49.5-65.3 49.5m-5024.2 203.3c-27.6 0-53.5-16.9-63.6-44.3-12.9-34.8-25.1-70.2-36.5-105.3-11.5-35.6 8.1-73.9 43.7-85.4 3.5-1.2 7.1-2 10.6-2.5 3.4-.6 6.9-.8 10.3-.8 28.7 0 55.3 18.2 64.6 47 10.8 33.2 22.4 66.9 34.6 99.9 13 35.2-5 74.2-40.1 87.2-7.8 2.9-15.8 4.2-23.6 4.2m4801 344.5c-11 0-22.1-2.7-32.4-8.3-32.9-17.9-45.1-59.2-27.1-92.1 34.9-64.1 67.5-130.5 96.9-197.4 9.7-22 29.6-36.3 51.8-39.8 3.4-.5 6.9-.8 10.4-.8 9.1 0 18.3 1.9 27.2 5.8 34.3 15 49.9 55.1 34.9 89.4-30.9 70.4-65.3 140.3-102 207.8-12.4 22.6-35.7 35.4-59.7 35.4m-339.1 484.4c-15.9 0-31.9-5.6-44.8-16.9-28.1-24.8-30.9-67.7-6.1-95.8 48.4-54.9 94.9-112.5 138.3-171.1 11-14.9 27.1-24 44.1-26.7 3.4-.5 6.9-.8 10.4-.8 14.1 0 28.2 4.4 40.4 13.4 30.1 22.3 36.5 64.8 14.1 94.9-45.6 61.7-94.6 122.2-145.4 180-13.4 15.2-32.1 23-51 23m-437.7 397.3c-21 0-41.8-9.8-55-28.1-22-30.4-15.1-72.8 15.3-94.8 59.1-42.7 117.2-88.5 172.6-136.1 9.9-8.6 21.6-13.8 33.7-15.7 3.5-.5 7-.8 10.5-.8 19.1 0 38.1 8 51.5 23.6 24.4 28.5 21.2 71.3-7.2 95.8-58.2 50-119.4 98.3-181.7 143.3-12 8.7-25.9 12.8-39.7 12.8m-514.8 289.9c-26.5 0-51.6-15.5-62.6-41.4-14.6-34.5 1.6-74.4 36.1-89 67.2-28.4 134-60.1 198.5-94.2 6.8-3.6 14-5.9 21.3-7.1 3.4-.5 6.9-.8 10.3-.8 24.4 0 47.9 13.2 60.1 36.2 17.5 33.2 4.8 74.2-28.3 91.7-67.9 35.9-138.3 69.3-209 99.3-8.6 3.6-17.6 5.3-26.4 5.3m-2088.1-12c-9.1 0-18.4-1.8-27.3-5.7-33.9-14.9-67.8-30.6-101-46.7-33.6-16.4-47.6-57.1-31.2-90.8 10.1-20.7 29.4-34 50.6-37.3 3.5-.5 7-.8 10.5-.8 9.9 0 20.1 2.2 29.6 6.9 31.5 15.3 63.8 30.2 96 44.4 34.4 15 50 55.1 35 89.4-11.2 25.4-36.1 40.6-62.2 40.6m566.9 175c-4.2 0-8.4-.3-12.6-1.2-75.7-14.2-151.5-31.9-225.5-52.6-36.1-10.1-57.2-47.5-47.1-83.6 7.4-26.5 29.5-44.9 55-48.8 3.4-.6 6.8-.8 10.3-.8 6.1 0 12.2.8 18.3 2.5 70.2 19.6 142.3 36.4 214.1 50 36.8 6.9 61.1 42.4 54.1 79.2-6.1 32.6-34.6 55.3-66.6 55.3m954.1 4.5c-32.3 0-60.9-23.1-66.7-56-6.6-37 18.1-72.2 55-78.7 71.9-12.7 144.1-28.7 214.6-47.5 2.4-.6 4.8-1.1 7.1-1.5 3.5-.5 7-.8 10.4-.8 30 0 57.5 20.1 65.6 50.4 9.6 36.3-11.9 73.4-48.1 83.1-74.2 19.8-150.2 36.6-226 50l-1.4.2c-3.5.6-7 .8-10.5.8m-466.3 41c-42.4 0-84.9-1-126.9-3-37.5-1.7-66.4-33.5-64.7-70.9 1.5-32.8 26.1-59.1 57.3-63.9 3.5-.6 7-.9 10.6-.9 1 0 2 0 3.1.1 39.9 1.9 80.2 2.8 120.5 2.8 33.2 0 66.4-.6 99.4-1.9h2.6c36.3 0 66.4 28.7 67.8 65.3 1.4 37.4-27.7 69.1-65.2 70.4-34.7 1.3-69.6 2-104.5 2"/>
    </clipPath>
    <clipPath id="d" clipPathUnits="userSpaceOnUse">
      <path d="M27300.9 26089.5c-13.7 12.9-21.9 31.5-21.2 51.7 2.7 73.2 2.3 147.1-1.3 219.8-1.8 37.5 27.1 69.3 64.5 71.1 1.1.1 2.1.1 3.2.1 36.2 0 66.1-28.2 67.9-64.6 3.7-76.5 4.2-154.3 1.4-231.3-.6-17.7-8-33.5-19.5-45.2l-95-1.6m2 570.9c-3.5 0-7 .2-10.3.8-27.6 4.2-50.8 25.4-56.3 54.4-13.7 71.6-30.6 143.6-50.4 213.9-10.1 36.1 10.9 73.6 47 83.7 6.1 1.7 12.3 2.5 18.4 2.5 29.6 0 56.9-19.5 65.3-49.5 20.8-74 38.7-149.8 53-225.3 7.1-36.8-17.1-72.3-54-79.3-4.2-.8-8.5-1.2-12.7-1.2m-175.2 564.7c-3.5 0-7 .3-10.4.8-22.2 3.5-42.1 17.8-51.8 39.8-29.4 66.9-62 133.3-96.9 197.4-18 32.9-5.8 74.2 27.1 92.1 10.3 5.6 21.4 8.3 32.4 8.3 24 0 47.3-12.8 59.7-35.4 36.7-67.5 71.1-137.4 102-207.8 15-34.3-.6-74.4-34.9-89.4-8.9-3.9-18.1-5.8-27.2-5.8m-296.8 511.5c-3.5 0-7 .3-10.4.8-17 2.7-33.1 11.8-44.1 26.7-43.4 58.6-89.9 116.2-138.3 171.1-24.8 28.1-22 71 6.1 95.8 12.9 11.3 28.9 16.9 44.8 16.9 18.9 0 37.6-7.8 51-23 50.8-57.8 99.8-118.3 145.4-180 22.4-30.1 16-72.6-14.1-94.9-12.2-9-26.3-13.4-40.4-13.4m-402.5 433.1c-3.5 0-7 .3-10.5.8-12.1 1.9-23.8 7.1-33.7 15.7-55.4 47.6-113.5 93.4-172.6 136.1-30.4 22-37.3 64.4-15.3 94.8 13.2 18.3 34 28.1 55 28.1 13.8 0 27.7-4.1 39.7-12.8 62.3-45 123.5-93.3 181.7-143.3 28.4-24.5 31.6-67.3 7.2-95.8-13.4-15.6-32.4-23.6-51.5-23.6m-488.3 332.9c-3.4 0-6.9.3-10.3.8-7.3 1.2-14.5 3.5-21.3 7.1-64.5 34.1-131.3 65.8-198.5 94.2-34.5 14.6-50.7 54.5-36.1 89 11 25.9 36.1 41.4 62.6 41.4 8.8 0 17.8-1.7 26.4-5.3 70.7-30 141.1-63.4 209-99.3 33.1-17.5 45.8-58.5 28.3-91.7-12.2-23-35.7-36.2-60.1-36.2m-1944.7 208.5c-3.5 0-6.9.2-10.3.8-25.5 3.9-47.6 22.3-55 48.8-10.1 36.1 11 73.5 47.1 83.6 74 20.7 149.8 38.4 225.5 52.6 4.2.9 8.4 1.2 12.6 1.2 32 0 60.5-22.7 66.6-55.3 7-36.8-17.3-72.3-54.1-79.2-71.8-13.6-143.9-30.4-214.1-50-6.1-1.7-12.2-2.5-18.3-2.5m1394.4 7c-3.4 0-6.9.3-10.4.8-2.3.4-4.7.9-7.1 1.5-70.5 18.8-142.7 34.8-214.6 47.5-36.9 6.5-61.6 41.7-55 78.7 5.8 32.9 34.4 56 66.7 56 3.5 0 7-.2 10.5-.8l1.4-.2c75.8-13.4 151.8-30.2 226-50 36.2-9.7 57.7-46.8 48.1-83.1-8.1-30.3-35.6-50.4-65.6-50.4m-810.4 86.8c-3.6 0-7.1.3-10.6.9-31.2 4.8-55.8 31.1-57.3 63.9-1.7 37.4 27.2 69.2 64.7 70.9 42 2 84.5 3 126.9 3 34.9 0 69.8-.7 104.5-2 37.5-1.3 66.6-33 65.2-70.4-1.4-36.6-31.5-65.3-67.8-65.3h-2.6c-33 1.3-66.2 1.9-99.4 1.9-40.3 0-80.6-.9-120.5-2.8-1.1-.1-2.1-.1-3.1-.1"/>
    </clipPath>
    <clipPath id="f" clipPathUnits="userSpaceOnUse">
      <path d="M23550 28541.8c-3.5 0-7 .3-10.5.8-21.2 3.3-40.5 16.6-50.6 37.3-16.4 33.7-2.4 74.4 31.2 90.8 33.2 16.1 67.1 31.8 101 46.7 8.9 3.9 18.2 5.7 27.3 5.7 26.1 0 51-15.2 62.2-40.6 15-34.3-.6-74.4-35-89.4-32.2-14.2-64.5-29.1-96-44.4-9.5-4.7-19.7-6.9-29.6-6.9"/>
    </clipPath>
    <clipPath id="h" clipPathUnits="userSpaceOnUse">
      <path d="M22191.6 26980.7c-3.4 0-6.9.2-10.3.8-3.5.5-7.1 1.3-10.6 2.5-35.6 11.5-55.2 49.8-43.7 85.4 11.4 35.1 23.6 70.5 36.5 105.3 10.1 27.4 36 44.3 63.6 44.3 7.8 0 15.8-1.3 23.6-4.2 35.1-13 53.1-52 40.1-87.2-12.2-33-23.8-66.7-34.6-99.9-9.3-28.8-35.9-47-64.6-47"/>
    </clipPath>
    <clipPath id="j" clipPathUnits="userSpaceOnUse">
      <path d="M22004.8 26000c-3.3 38.4-5.7 76.9-7.3 115.2-1.6 37.5 27.5 69.2 64.9 70.7 1 .1 1.9.1 2.9.1 36.1 0 66.3-28.5 67.8-65 1.7-39.5 4.2-79.2 7.7-118.7l-136-2.3m69.9 410.7c-2.2 0-4.3.1-6.4.3-1.4.1-2.8.3-4.2.5-35.2 5.5-60.5 37.4-57.1 73.4 5.2 55.4 12.1 111.3 20.6 166.2 3.1 19.9 6.4 39.6 9.9 59.4 5.8 32.5 33.7 56.2 65.8 56.2 4.2 0 8.6-.4 12.9-1.3 36.9-6.5 61.5-41.8 55-78.7-3.4-18.7-6.5-37.5-9.4-56.4-8.1-52.2-14.7-105.4-19.7-158.1-3.2-35.1-32.8-61.5-67.4-61.5"/>
    </clipPath>
    <clipPath id="l" clipPathUnits="userSpaceOnUse">
      <path d="M6175.63 7768.6c-589.29 0-1074.34 476.9-1096.83 1081l-228.21 6130.1-169.25 4546.6-178.05 4782.9c-28.48 765.1 563.04 1404.6 1310.87 1417.2l973.17 16.5L22004.8 26000l136 2.3 750.9 12.7 689.1 11.6 55.7 1 2137.5 36.1 55.3.9 905.3 15.3 566.3 9.6 95 1.6 3225 54.5 217.4 3.7c9.7.1 19.6.2 29.3.2 993.9 0 1786.3-857.2 1727-1876.9l-267.5-4598.9-129.6-2230.1-464.3-7983.6c-47.1-810.6-699.2-1445.7-1492.5-1453.5l-3445.2-34.1-6428.5-63.6c190.4 167.9 339.2 333.3 454.5 492.9l9165.3 88.6c772.6 7.4 1407.6 611.6 1453.5 1382.9l838.9 14092.7c57.8 970.1-713.9 1785.7-1681.9 1785.7-9.4 0-19.1-.1-28.5-.2L6197.75 25349c-728.31-12-1304.39-620.4-1276.66-1348.3l560.5-14708.3c21.9-574.8 494.29-1028.5 1068.21-1028.5h10.53l9360.37 90.5c203.4-125 559-167.8 951.1-167.7 183.1 0 374.2 9.3 561.4 24 51.3-51.6 106.1-99.6 163.7-144.2-558.8-77-1074.6-93.4-1197.7-196.9L8549.44 7792l-2362.99-23.4h-10.82m12636.17 336.1c-14.5 0-29.8 4.4-45.1 14.5l-15.3 10.2c45.4 39.7 85.6 76.6 120.2 109.3 48.9-53 2.6-134-59.8-134"/>
    </clipPath>
    <clipPath id="n" clipPathUnits="userSpaceOnUse">
      <path d="M6549.8 8263.9c-573.92 0-1046.31 453.7-1068.21 1028.5l-560.5 14708.3c-27.73 727.9 548.35 1336.3 1276.66 1348.3l24371.05 402.4c9.4.1 19.1.2 28.5.2 968 0 1739.7-815.6 1681.9-1785.7l-838.9-14092.7c-45.9-771.3-680.9-1375.5-1453.5-1382.9l-9165.3-88.6c81.4 112.7 146.1 222.6 196.8 328l8288 80c735.7 7.1 1340.4 582.5 1384.1 1316.9l798.8 13419.6c55 923.8-679.8 1700.4-1601.6 1700.4-8.9 0-18.1 0-27.1-.2l-23206.98-383.1c-693.53-11.4-1242.09-590.8-1215.69-1283.9l533.72-14005.9c20.87-547.3 470.69-979.3 1017.2-979.3h10.02l8694.63 84c20-49.7 47.2-107.8 81.5-175.3 30-59 79.9-108.1 145.8-148.5l-9360.37-90.5h-10.53m13448.1 156.5c-48 0-27.8 120.4 62.4 300l239.2 2.3c-84.2-101.8-158.8-186-210.8-240.1-41.2-42.8-71.5-62.2-90.8-62.2"/>
    </clipPath>
    <clipPath id="p" clipPathUnits="userSpaceOnUse">
      <path d="M6988.75 8594.2c-546.51 0-996.33 432-1017.2 979.3l-533.72 14005.9c-26.4 693.1 522.16 1272.5 1215.69 1283.9l23206.98 383.1c9 .2 18.2.2 27.1.2 921.8 0 1656.6-776.6 1601.6-1700.4l-798.8-13419.6c-43.7-734.4-648.4-1309.8-1384.1-1316.9l-8288-80c314.1 653.5 89.6 1140-12.6 1140-19.9 0-35.2-18.5-41-57.8-39.9-272.2-399.8-768-665.2-1089.2l-239.2-2.3c63.9 127 162.7 283.5 297.3 448 401.6 490.5 753.1 1340 347.1 1909.1-149.8 210-263.1 298.2-350.3 298.2-149 0-221.2-258.2-267.8-607.3-59.7-448.2-214.6-1185.1-397.4-1185.1-42.9 0-87.3 40.6-132.4 134.9-237.3 496.5 203.2 1420.4 205.9 2035.1 1.2 286.7-320.9 619.4-680.8 861.1v12297.5c0 45-36.5 81.5-81.5 81.5s-81.5-36.5-81.5-81.5V12716.3c-245.1 142.1-487.8 233.9-641.4 233.9-73.7 0-127-21.2-150.1-68-153.8-311.8-588.9-956.6-660.2-1434.1-45.1-302.2 408-660.3 852.3-1059.6 117.5-157.2 197.1-546.1 240.3-865.2-70.3 73.7-145.9 158.6-226.1 255-85.4 497-379.7 1100-904.8 1179.4-71.8 10.8-132.6 16-183.5 16-300.2 0-255.2-179.5-79.6-428.3-12.4-33-25.1-68.5-38.2-106.8-78.8-229.4 72.1-539.5 331.8-868.3-365 228-634.6 901.5-959.8 1219.4-100 97.8-275.3 137-474.1 137-513 0-1181.9-261.6-1113.3-453.7 95.2-266.7 225.8-886.8 464.7-1199.1 82.5-108 259-138.5 481.2-138.5 144.7 0 308.9 13 479.2 25.9 170.3 13 346.7 25.9 515.8 25.9 49.4 0 98.2-1.1 146-3.6 2.9-77.6 22.4-185.3 60.5-328.1 2.9-11 6-22 9.2-32.8-94.2 2.3-199.7 8.5-316.1 19.3-446.2 41.7-755 106.8-929.6 106.8-170.9 0-213.2-62.5-129.7-270.6l-8694.63-84h-10.02M21214.4 18964.6l212.8-246.9c40.6-47.1 63-107.4 61.6-169.6-48.5-2164.8 1263.8-2958.6 1263.8-2958.6l349 795.9c-1449.5 813.5-1362.3 2405.6-1362.3 2405.6l185.9 153.5 1706.5-48.2c-269.3-463.1-789.2-1686.5 297.1-2926.3l518.3 48.3s-993.5 1595-556.2 2870.7l190-5.4 547.1-39.9 36 23.5 943.9-26.7c2.5 0 5-.1 7.4-.1 132 0 240.1 100.1 241.1 224.9l24.7 3048.9c1 125.9-107.3 228.3-241.1 228.3h-1.7l-5877.1-37c-133.8-.9-241.3-103.8-239.5-229.5l38.9-2847.8c1.6-121.3 104.8-219.9 233.9-223.6l1419.9-40m-3583.2-9958.3c-7 5.7-14 11.4-20.9 17 7.9-5.7 14.8-11.3 20.9-17m1462.9 135.5c-1.2 74.4-5.3 145.1-12.2 212.1V9476c99.8-210.3 97-327.3 12.2-334.2"/>
    </clipPath>
    <clipPath id="r" clipPathUnits="userSpaceOnUse">
      <path d="M11062.2 19561.1H6168.19c-50.49 0-91.43 41-91.43 91.5v2794.7c0 50.5 40.94 91.4 91.43 91.4h4894.01c50.5 0 91.4-40.9 91.4-91.4v-2794.7c0-50.5-40.9-91.5-91.4-91.5z"/>
    </clipPath>
    <clipPath id="t" clipPathUnits="userSpaceOnUse">
      <path d="M23928.8 15970c-1086.3 1239.8-566.4 2463.2-297.1 2926.3l259.2-7.3c-437.3-1275.7 556.2-2870.7 556.2-2870.7l-518.3-48.3m699.2 2873.7-547.1 39.9 583.1-16.4-36-23.5"/>
    </clipPath>
    <clipPath id="v" clipPathUnits="userSpaceOnUse">
      <path d="M24420.3 11516.2s979-2133.8 1492.7-3017.6c0 0 102-556.1 0-731l-87-38.6 405.8 12.1s36 748 7.9 789.8c-28.2 41.7-84.5 39-84.5 39s-174 1378.4-677.8 1672.6l-488.4 1681.9z"/>
    </clipPath>
    <clipPath id="x" clipPathUnits="userSpaceOnUse">
      <path d="M25652.7 7624.2c-.6-9.8 316.9-5.3 489.3-2.1 63.7 1.1 118 45.9 131.5 108.1l130.3 684.2c12.3 65-28.9 128.1-93.5 142.9l-72.7 16.6s-103.7-142.2-71-276.2c32.6-133.9 61.7-480.8-20.8-521.2-82.5-40.5-319.8-47.5-319.8-47.5s-167.8-16.7-173.3-104.8z"/>
    </clipPath>
    <clipPath id="z" clipPathUnits="userSpaceOnUse">
      <path d="M23492.4 7611.8c-32.1-18.3-18.9-67.3 18.1-66.9 288.5 2.9 935.2 12 992.6 35.9 74.2 30.8-27 297.4-133.5 387.6l-588.2-191.9z"/>
    </clipPath>
    <clipPath id="B" clipPathUnits="userSpaceOnUse">
      <path d="M23309.8 11652.2s632.7-3060.5 811.6-3657.5l-423.3-265.7s212.1 36.1 369.4 47.5c157.4 11.4 302.1 191.9 302.1 191.9l-50.7 80.9s-158.7 3043.9-120.1 3389.6z"/>
    </clipPath>
    <clipPath id="D" clipPathUnits="userSpaceOnUse">
      <path d="M22752.6 15589.5s-1312.3 793.8-1263.8 2958.6c1.4 62.2-21 122.5-61.6 169.6l-212.8 246.9 710.8-20.1-185.9-153.5s-87.2-1592.1 1362.3-2405.6l-349-795.9"/>
    </clipPath>
    <clipPath id="F" clipPathUnits="userSpaceOnUse">
      <path d="M23051.1 16504.7c242.5-67.2 1064-283.4 1576.9-274.5l-314.9-1777 25.1-289.9-1026.7 4.6s-289 671.3-517.1 1005.9c-65.8 96.6-16.8 211.9 20.5 322.8l-51.3 34.1c-52.1 34.7-74.8 100-55.3 159.6l250 765c13 38.5 53.6 60.3 92.8 49.4z"/>
    </clipPath>
    <clipPath id="H" clipPathUnits="userSpaceOnUse">
      <path d="m23229.2 14319.6 20.2-175.6s-290.1-868.9 145.1-2898.4c0 0 942.6-267 1717.3 372 0 0-218.6 1915.5-278.3 2004.7-297.3 444.4-495.3 541-495.3 541l-8.9 191.9s-828.6-149.9-1100.1-35.6z"/>
    </clipPath>
    <clipPath id="J" clipPathUnits="userSpaceOnUse">
      <path d="M23631.1 16361.5c-3.6 4.7 214.4 658 214.4 658l312.2-28.3 121.9-741.1s-489.2-98.8-648.5 111.4z"/>
    </clipPath>
    <clipPath id="L" clipPathUnits="userSpaceOnUse">
      <path d="M24082.9 18049.7c-20.8-13-667.1-280.1-528.2-951 8.2-39.7 34.6-73.3 71.6-89.8 94.9-42.3 299-114.7 543.2-89.9 338.6 34.4 560.5 625.2 551 797.1-9.4 171.9-431.3 462-637.6 333.6z"/>
    </clipPath>
    <clipPath id="N" clipPathUnits="userSpaceOnUse">
      <path d="M24279.6 18310.5c-17-2.2-373.5-126.4-196.7-384.7 176.8-258.3 243.1-410.4 159.5-523.8-76.2-103.4-244.9-44.5-230.2-259.5 2.9-43-15.7-84.8-51.4-109-159-107.6-547-438.9-162.6-911.4 31.2-38.5 37.7-91.5 13.6-134.7-112.6-202-349.1-793.5 507.1-1121.7 846-324.2 1151.5 228.8 1236.8 449.8 18.5 47.8 65.5 77.1 116.7 74.7 93-4.4 224.7 11.1 218.7 135.3-3.7 75.5-50.8 143.1-106.4 197.3-55.1 53.7-44.2 147.6 22.6 185.6 50.5 28.7 95.2 73.5 114.1 143.4 51.2 190-51.1 758.1-595.6 854.3-45.4 8.1-93 50.6-99.6 96.3l-.3 2c-7.3 44.2 7.6 89.3 43.7 115.8 86.9 63.8 198.4 192.2 107.9 398.1-80.4 182.6-234.4 244.3-348.8 263.9-67.2 11.5-111.4 75.1-97.2 141.7 38.6 181.7 4.9 472.7-651.9 386.6z"/>
    </clipPath>
    <clipPath id="Q" clipPathUnits="userSpaceOnUse">
      <path d="M25615.3 18840.4c-2.4 0-4.9.1-7.4.1l-943.9 26.7-583.1 16.4-190 5.4-259.2 7.3-1706.5 48.2-710.8 20.1-1419.9 40c-129.1 3.7-232.3 102.3-233.9 223.6l-38.9 2847.8c-1.8 125.7 105.7 228.6 239.5 229.5l5877.1 37h1.7c133.8 0 242.1-102.4 241.1-228.3l-24.7-3048.9c-1-124.8-109.1-224.9-241.1-224.9m24.4 3315.7-5877.1-37.1c-11.1-.1-21.1-4.1-28.9-11.6-8.2-7.8-12.5-17.8-12.3-29l38.9-2847.9c.3-21.5 18-38.9 40.2-39.5l5814.8-164.1c22.6 0 41.2 17.8 41.4 39.8l24.7 3049c.1 11.1-4.2 21.1-12.5 29-7.9 7.4-18 11.4-29.2 11.4m-23.8-3091-5814.3 164.1-3.1 1.9-35.7 2849.7 5877.1 37.1-.1 19.1 3.4-21.1-27.3-3050.8m-3441.6 392.4c73-19.8 148.1-30.2 223.9-31.2l89-134.2c14.6-21.7 38.7-34.2 64-34.2 6.4 0 12.9.8 19.2 2.5l225 58.4c31.7 8.2 54.7 35.6 57.2 68.2l12.6 160.5c65.8 37.8 126.2 83.5 180.4 136.2l157.8-31.9c4.9-.9 9.9-1.4 14.8-1.4 26.9 0 52.4 13.8 66.4 37.7l117.9 200.5c16.5 28.2 13.4 63.8-7.9 88.7l-104.5 122.3c19.7 73 30.1 148 31.1 223.8l134.2 89.1c27.2 18.1 40 51.5 31.8 83.2l-58.4 225c-8.3 31.7-35.8 55.1-68.4 57.2l-160.4 12.5c-37.7 65.8-83.4 126.3-136.1 180.5l31.8 157.7c6.5 32.1-8.1 64.8-36.3 81.3l-200.4 117.8c-12.1 7.1-25.5 10.6-38.9 10.6-17.9 0-35.7-6.3-49.9-18.5l-122.2-104.5c-73 19.8-148.1 30.3-223.9 31.2l-89.1 134.2c-14.4 21.7-38.6 34.2-63.9 34.2-6.4 0-12.8-.8-19.2-2.4l-225-58.5c-31.7-8.2-54.7-35.6-57.2-68.2l-12.6-160.6c-65.7-37.7-126.2-83.3-180.4-136.1l-157.8 31.9c-5 1-10 1.5-15 1.5-26.8 0-52.3-14.1-66.3-37.9l-117.8-200.3c-16.6-28.3-13.4-64 7.9-88.8l104.5-122.2c-19.7-73-30.1-148.1-31.1-223.9l-134.2-89.1c-27.2-18-40-51.4-31.8-83l58.4-225.2c8.2-31.5 35.5-54.4 68.1-57.2l160.7-12.5c37.8-65.8 83.4-126.3 136.1-180.5l-31.8-157.7c-6.5-32 8.1-64.6 36.1-81.2l200.6-117.9c8.3-4.9 17.2-8 26.3-9.5 4.2-.7 8.4-1.1 12.6-1.1 17.8 0 35.6 6.3 49.8 18.4l122.3 104.6m1782.6 739.2c27.4-16.4 56.4-29.8 86.7-40.1l19.8-66c5.8-19.6 22.4-33.9 42.3-37.2 2.1-.4 4.2-.6 6.3-.7l112-4.5c.8-.1 1.6-.1 2.4-.1 21.6 0 41.3 13.4 49.3 33.8l25.1 64.3c31 7.7 61 18.7 89.7 32.9l60.6-32.7c8-4.3 16.7-6.4 25.3-6.4 13.1 0 26 4.8 36.1 14.1l82.2 75.8c16.7 15.3 21.8 39.6 12.6 60.6l-27.6 63c16.4 27.4 29.9 56.4 40.1 86.7l66.1 19.8c21.6 6.4 36.9 26.1 37.9 48.8l4.5 111.8c.9 22.6-12.6 43.4-33.7 51.7l-64.3 25.1c-7.8 31-18.8 61-32.9 89.7l32.7 60.6c10.7 20 7.6 44.6-7.7 61.3l-75.8 82.3c-10.5 11.2-24.7 17.1-39.2 17.1-7.3 0-14.7-1.5-21.7-4.6l-62.7-27.5c-27.4 16.4-56.4 29.8-86.7 40.1l-19.8 66c-6.7 22-26.3 36.8-49.1 37.9l-111.5 4.6h-2c-22 0-41.7-13.4-49.7-33.8l-25.1-64.2c-31.1-7.8-61.1-18.8-89.7-32.9l-60.7 32.7c-7.9 4.2-16.6 6.3-25.2 6.3-13 0-25.9-4.7-35.9-13.9l-82.4-75.9c-16.7-15.5-21.8-39.8-12.6-60.6l27.5-63c-16.4-27.4-29.8-56.4-40.1-86.7l-66-19.8c-21.8-6.7-36.9-26.3-37.9-48.8l-4.5-111.8c-.9-22.7 12.6-43.5 33.7-51.7l64.3-25.2c7.7-31 18.7-61 32.9-89.6l-32.7-60.7c-10.7-19.9-7.7-44.5 7.7-61.2l75.8-82.3c10.3-11.2 24.6-17.2 39.2-17.2 7.2 0 14.4 1.5 21.3 4.5l63.1 27.6m-3223.6 1717c-57 0-103.1-79.8-103.1-178.1s46.1-178 103.1-178h3785.1c57 0 103.1 79.7 103.1 178s-46.1 178.1-103.1 178.1h-3785.1m1837.5-2527.7-108.1 162.8-33.5-.8c-6.3-.2-12.7-.2-19.1-.2-79 0-157 11.8-232.3 35.2l-32.1 9.9-148.4-126.8-145.3 85.4 38.7 191.4-24.3 23.1c-61.6 58.8-113.1 127-152.9 202.7l-15.6 29.6-194.8 15.3-42.4 163.1 162.8 108.1-.8 33.6c-2 85.5 9.8 170.1 35.1 251.4l9.9 32-126.9 148.4 85.4 145.3 191.4-38.7 23.2 24.3c58.7 61.7 126.9 113.1 202.6 152.9l29.7 15.6 15.2 194.8 163.2 42.4 108.1-162.8 33.5.8c6.5.2 12.9.2 19.3.2 78.9 0 156.9-11.8 232.1-35.2l32.1-10 148.4 126.9 145.3-85.4-38.7-191.4 24.3-23.1c61.7-58.8 113.1-127 152.9-202.7l15.6-29.6 194.8-15.3 42.3-163.1-162.7-108.1.8-33.5c2-85.5-9.8-170.1-35-251.5l-10-32 126.9-148.4-85.4-145.3-191.4 38.6-23.2-24.2c-58.7-61.7-126.9-113.1-202.6-152.9l-29.7-15.6-15.2-194.8-163.2-42.4m-647.1 742.9c-9.9 0-19.9-2.4-29.1-7.4-29.5-16.1-40.3-53-24.2-82.5 53.7-98.4 133.4-180.6 230.6-237.8 67-39.4 139.4-65.4 213.9-77.8 33-5.4 66.5-8.2 100.1-8.2 52.4 0 105.2 6.7 157.3 20.2 160.7 41.8 295.6 143.6 379.7 286.8 84.2 143.2 107.6 310.5 65.8 471.3-41.7 160.7-143.5 295.6-286.7 379.7-96.8 56.9-204.6 86.1-314 86.1-52.4 0-105.2-6.7-157.3-20.3-160.8-41.7-295.6-143.5-379.8-286.7-22.5-38.2-40.8-78.8-54.6-120.5-10.5-31.9 6.8-66.2 38.6-76.8 6.4-2.1 12.8-3.1 19.2-3.1 25.4 0 49.1 16.3 57.6 41.8 11.1 33.5 25.9 66.2 44 97 67.7 115.2 176.2 197.1 305.5 230.7 41.9 10.9 84.4 16.3 126.6 16.3 88 0 174.7-23.4 252.6-69.2 115.2-67.7 197.1-176.2 230.7-305.6 33.6-129.3 14.8-263.9-52.9-379.1-67.7-115.2-176.3-197.1-305.6-230.7-41.9-10.9-84.4-16.3-126.5-16.3-88 0-174.8 23.4-252.7 69.2-78.1 46-142.3 112.1-185.5 191.2-11 20.3-31.8 31.7-53.3 31.7m297.2 395.2c-50.1-50.8-77.4-118.1-76.9-189.5.4-71.4 28.7-138.3 79.5-188.4 40.7-40.2 91.2-64.6 143.7-73.3 14.6-2.4 29.3-3.6 44-3.6 69 0 138 26.5 190.2 79.4 103.4 104.9 102.3 274.4-2.6 377.9-50.3 49.7-116.8 77-187.5 77h-1.9c-71.4-.5-138.3-28.7-188.5-79.6v.1m1979.8-383.8-57.7 2.4-26.3 87.4-24.2 6.8c-37.9 10.5-73.6 27-106.1 49l-20.8 14.1-83.6-36.6-39.1 42.5 43.3 80.4-12.4 21.9c-19.3 34.1-32.8 71-40.2 109.6l-4.8 24.7-85.1 33.3 2.4 57.7 87.5 26.3 6.7 24.2c10.6 37.9 27 73.6 49 106l14.2 20.8-36.6 83.7 42.4 39.1 80.4-43.3 21.9 12.4c34.1 19.3 71 32.8 109.6 40.2l24.7 4.8 33.3 85 57.7-2.3 26.3-87.6 24.2-6.7c37.9-10.5 73.6-26.9 106-49l20.8-14.1 83.7 36.6 39.1-42.5-43.3-80.3 12.4-21.9c19.3-34.1 32.8-71 40.2-109.7l4.8-24.7 85-33.3-2.3-57.7-87.5-26.2-6.7-24.2c-10.6-38-27.1-73.6-49.1-106.1l-14.1-20.8 36.6-83.6-42.4-39.1-80.4 43.2-21.9-12.3c-34.1-19.3-71-32.9-109.7-40.3l-24.7-4.7-33.2-85.1m-272.6 436.4c-3 0-6.1-.3-9.2-.9-24.7-5.1-40.5-29.2-35.4-53.9 11.5-55.7 38.1-107.4 76.9-149.4 48.1-52.2 110.9-86 179.8-97.4 12.9-2.1 26-3.5 39.3-4 4.3-.2 8.7-.3 13-.3 79.4 0 154.8 29.4 213.5 83.5 127.9 117.9 136.1 317.8 18.2 445.7-57.1 61.9-134.9 98-219.1 101.4-4.3.1-8.7.2-13 .2-79.4 0-154.8-29.4-213.6-83.5-16.5-15.2-31.4-32.2-44.2-50.4-14.5-20.6-9.6-49.1 11-63.5 8-5.6 17.1-8.3 26.2-8.3 14.3 0 28.4 6.7 37.3 19.3 9.1 12.9 19.7 25 31.5 35.9 41.8 38.5 95.4 59.4 151.8 59.4 3.1 0 6.2-.1 9.3-.2 59.9-2.5 115.2-28.1 155.8-72.1 83.8-90.9 78-233.1-12.9-316.8-41.8-38.5-95.4-59.4-151.8-59.4-3.1 0-6.2 0-9.3.2-59.9 2.3-115.2 28-155.8 72.1-27.6 29.8-46.5 66.6-54.6 106.1-4.5 21.5-23.5 36.3-44.7 36.3m-1517-385.9c-36.9 0-73.9 13.9-102.3 41.9-27.7 27.3-43.1 63.8-43.3 102.7-.3 38.9 14.6 75.6 42 103.3 27.3 27.7 63.8 43.1 102.7 43.4h.8c8.2 0 16.3-.7 24.2-2 29.4-4.8 56.6-18.6 78.3-40 57.1-56.4 57.8-148.8 1.3-206-28.4-28.9-66-43.3-103.7-43.3"/>
    </clipPath>
    <clipPath id="S" clipPathUnits="userSpaceOnUse">
      <path d="m25615.3 19026.9-5814.8 164.1c-22.2.6-39.9 18-40.2 39.5l-38.9 2847.9c-.2 11.2 4.1 21.2 12.3 29 7.8 7.5 17.8 11.5 28.9 11.6l5877.1 37.1c11.2 0 21.3-4 29.2-11.4 8.3-7.9 12.6-17.9 12.5-29l-24.7-3049c-.2-22-18.8-39.8-41.4-39.8m24.5 3110.1.1-19.1-5877.1-37.1 35.7-2849.7 3.1-1.9 5814.3-164.1 27.3 3050.8-3.4 21.1"/>
    </clipPath>
    <clipPath id="U" clipPathUnits="userSpaceOnUse">
      <path d="M24518.4 21557.6h-3785.1c-57 0-103.1 79.7-103.1 178s46.1 178.1 103.1 178.1h3785.1c57 0 103.1-79.8 103.1-178.1s-46.1-178-103.1-178"/>
    </clipPath>
    <clipPath id="P" clipPathUnits="userSpaceOnUse">
      <use xlink:href="#a"/>
    </clipPath>
    <clipPath id="W" clipPathUnits="userSpaceOnUse">
      <path d="M10327.3 29293.9c.3 12.4.7 23.8.9 33.7.8 27.9-10.7 54.5-31.5 73.1-122.2 108.5-579.64 480.5-1223.84 593.7-34.72 6.1-64.72-9.8-81.46-34.6 53.67-6.2 125.64-19.5 222.65-44.4 318.57-81.9 782.3-301.7 1113.25-621.5z"/>
    </clipPath>
    <clipPath id="Y" clipPathUnits="userSpaceOnUse">
      <path d="M9214.05 29915.4c-97.01 24.9-168.98 38.2-222.65 44.4-16.86-25-20.3-59.1-1.6-89.3 10.54-16.9 23.48-35.3 39.36-54.9 101.4-125.6 919.92-956.3 919.92-956.3s258.62-30.2 337.32 16c25.5 15 36.8 283.3 40.9 418.6-330.95 319.8-794.68 539.6-1113.25 621.5z"/>
    </clipPath>
    <clipPath id="aa" clipPathUnits="userSpaceOnUse">
      <path d="m10301 28426.3-2.7 497.5c-.2 42.1-27.2 79.8-67.4 92.4-61.8 19.5-156.8 37.5-242.95 4.7-50.53-19.2-84.31-67.5-88.32-121.4l-34.55-464.7z"/>
    </clipPath>
    <clipPath id="ac" clipPathUnits="userSpaceOnUse">
      <path d="M8325.82 28856.1c-6.05 19.5-17.64 35.9-32.43 48-104.28-21.2-321.43-79.8-766.09-239.6-515.49-185.1-665.81-345.2-708.9-430.6 221.65-63.6 725.14-159.9 1445.86-15l142.18 67.6s-11.88 347.5-80.62 569.6z"/>
    </clipPath>
    <clipPath id="ae" clipPathUnits="userSpaceOnUse">
      <path d="M7527.3 28664.5c444.66 159.8 661.81 218.4 766.09 239.6-23.07 19-54.11 27.6-85.33 21-256.21-54.8-1030.27-241.4-1433.54-572-40.26-33-28.07-97.7 21.77-112.7 7-2.1 14.41-4.3 22.11-6.5 43.09 85.4 193.41 245.5 708.9 430.6z"/>
    </clipPath>
    <clipPath id="ag" clipPathUnits="userSpaceOnUse">
      <path d="m8675.02 27987.5-305.54 362.1c-29.75 35.3-77.9 49.1-121.65 34.4-48.5-16.2-112.88-49.5-174.99-117.7-28.97-31.9-34.44-78.8-14.5-117l223.15-426.7z"/>
    </clipPath>
    <clipPath id="ai" clipPathUnits="userSpaceOnUse">
      <path d="M9797.69 28596.8s370.01 73.1 576.01 3.1c0 0 279.7-1624.5 236-2147.5l-799.49-167s-32.66 1831.8-12.52 2311.4z"/>
    </clipPath>
    <clipPath id="ak" clipPathUnits="userSpaceOnUse">
      <path d="M13097.9 25765.8s-2616.4-161.1-3679.09-93.6c-104.09 6.6-196.72 67.7-243.83 160.7-230.15 454.6-920.34 1818.6-980.94 1948.8 0 0 276.07 233.2 480.65 266.3 0 0 975.2-1073.2 1018.73-1623.1 0 0 2241.28 657.8 2463.08 652.8 221.7-4.9 903.3-304.6 903.3-304.6z"/>
    </clipPath>
    <clipPath id="am" clipPathUnits="userSpaceOnUse">
      <path d="M16575.7 27824.7s-97.2 199.1-14.4 304.9c82.7 105.9 381.2 433.6 381.2 433.6l33.7 225.6 125.3-366.5-261.8-555.2s-154.1-168.5-264-42.4z"/>
    </clipPath>
    <clipPath id="ao" clipPathUnits="userSpaceOnUse">
      <path d="M17253.2 26899.6c-98.9 340.3-234.1 664-413.5 967.5l-264-42.4 135.3-915.5c100-29.6 372.5-97 542.2-9.6z"/>
    </clipPath>
    <clipPath id="aq" clipPathUnits="userSpaceOnUse">
      <path d="M17429.2 26008.4c-35.5 307.7-93 605.3-176 891.2-169.7-87.4-442.2-20-542.2 9.6l38.9-262.9-102.1 353.8c-124.2 430.2-385.4 808.2-744 1076.5l-249.7 186.9c-245.5 183.6-635.9 117.6-884.3-62-551.5-398.7-1369.7-1066.5-1649-1296.3-60.1-49.3-142.7-60.7-213.9-29.6l-47 20.4c-44.3 19.4-93-16.7-87.3-64.7l125-1088.6 1901.7 32.3c228.1 1.2 888.6 28.3 992.6 231.3l173.5 432.6c414-348.3 944-586.2 1227.6-654.8 130.7-31.7 252.4 83 236.2 224.3z"/>
    </clipPath>
    <clipPath id="as" clipPathUnits="userSpaceOnUse">
      <path d="m16077.9 28850.1-581.5-571.2c-38.8-38-42.1-99.9-7-141.3 181.5-213.9 336.9-325.7 465.6-333.5 54.6-3.3 106.2 25.8 135.2 72.1l308.1 491.7z"/>
    </clipPath>
    <clipPath id="au" clipPathUnits="userSpaceOnUse">
      <path d="m17273.2 26057.8 501.9 198.5 587.2-462-1047-9.6z"/>
    </clipPath>
    <clipPath id="aw" clipPathUnits="userSpaceOnUse">
      <path d="M17057.6 28986.7s-76.7-561.5-291.3-735.1c-214.6-173.7-635.2-46.1-779.3 376.1l278.7 724.6z"/>
    </clipPath>
    <clipPath id="ay" clipPathUnits="userSpaceOnUse">
      <path d="M16236.4 28884.2c16.4-5.2 33.5 5.4 36 22.4 7.5 51.9 26.3 154.5 65.3 224.5 0 0-21 73.5 186.2-36.6s518.4-271.7 700.5-173.4c177.6 95.7 355.4 574-114.8 483-17.9-3.5-34.4 10.7-33.2 28.9 5.4 78.4-3.4 258.9-186.5 315.8-171.2 53.3-264.4-24.4-302.8-71.2-11.2-13.8-32.3-13.7-43.2.4-51.6 66.6-191.5 208.2-395.8 116.8-168.3-75.2-193.9-179.2-190.8-244 1-21-20.2-35.3-39.3-26.6-51.8 23.5-135 35.4-214-64.8-109.3-138.4 48.6-257.1 95.9-288.2 7.8-5.1 12.6-13.6 12.7-22.9.9-71.7 13.7-384.4 171.4-560 13.7-15.2 38.8-10.6 46.6 8.3l119.1 288.3c5.5 13.3 20.4 20.3 34.2 15.9z"/>
    </clipPath>
    <clipPath id="aA" clipPathUnits="userSpaceOnUse">
      <path d="M16239.3 28825.8s-75.4 299.8-186.8 201.8c-111.5-98.1 30.9-311.9 159.3-352.1z"/>
    </clipPath>
    <clipPath id="aC" clipPathUnits="userSpaceOnUse">
      <path d="M15404.1 27554.9s18.8 694.7-266.6 707.1c-354.4 15.4-922.5-244.5-578-1260.5 190.4-561.4 474.9-977.2 1250.8-1149.8 36.1 285.2 164.2 484.5 259.1 597-316.9 220.8-586.3 566-665.3 1106.2z"/>
    </clipPath>
    <clipPath id="aE" clipPathUnits="userSpaceOnUse">
      <path d="M16033.9 26446.6c-5.6-.1-11.2 1.6-16 4.9-365 254.2-568.7 603.6-641.3 1099.4-.2 1.5-.3 3.2-.3 4.8 5 185.6-28.4 669.3-240 678.5-102.3 4.4-209.5-15.4-301.8-55.9-14.1-6.2-30.5.2-36.6 14.2-6.2 14 .2 30.4 14.2 36.6 100 43.9 216 65.2 326.6 60.6 303.1-13.2 294.4-679.6 293.2-733.1 70.5-478.3 266.8-815.1 617.7-1059.5 12.6-8.8 15.7-26.1 6.9-38.7-5.4-7.7-13.9-11.8-22.6-11.8z"/>
    </clipPath>
    <clipPath id="aG" clipPathUnits="userSpaceOnUse">
      <path d="M15563.4 25892.4c-3 0-6.1.5-9.1 1.5-644 218.4-871.4 657.1-1021.1 1098.6-33.9 100-60.2 196.4-78.1 286.5-3 15.1 6.8 29.7 21.8 32.6 15.1 3.1 29.7-6.7 32.7-21.8 17.4-87.7 43.1-181.7 76.2-279.4 145.2-428.1 365.1-853.3 986.3-1063.9 14.6-4.9 22.3-20.7 17.4-35.2-3.9-11.5-14.6-18.8-26.1-18.9z"/>
    </clipPath>
    <clipPath id="aI" clipPathUnits="userSpaceOnUse">
      <path d="m17417 25789.2-2.7 269.4s-754.9-20.8-1344.9 390.1c-94.9-112.5-223-311.8-259.1-597 392.6-87.3 910.8-112.4 1606.7-62.5z"/>
    </clipPath>
    <clipPath id="aK" clipPathUnits="userSpaceOnUse">
      <path d="M16449.6 25689.9c1.8 0 3.7-.1 5.5-.1l2401.6 15.7c59.4.4 107.2 48.8 106.8 108.2-.4 59.4-49 108.2-108.2 106.8l-2401.6-15.7c-59.4-.3-107.2-48.8-106.8-108.1.4-57.6 45.9-104.3 102.7-106.8z"/>
    </clipPath>
    <clipPath id="aM" clipPathUnits="userSpaceOnUse">
      <path d="m21003.8 27895.2-2000-10.8c-147.6-.8-281.4-86.7-343.6-220.5l-914-1965.6 2485.5 13.4c95.1.5 180.2 59.1 214.7 147.7l707.2 1818.2c40.8 105-37 218.2-149.8 217.6z"/>
    </clipPath>
    <linearGradient id="c" x1="0" x2="1" y1="0" y2="0" gradientTransform="scale(-27669.4 27669.4) rotate(41.186 -.828 -1.594)" gradientUnits="userSpaceOnUse" spreadMethod="pad">
      <stop offset="0" stop-color="#dae3fe"/>
      <stop offset="1" stop-color="#e9effd"/>
    </linearGradient>
    <linearGradient id="e" x1="0" x2="1" y1="0" y2="0" gradientTransform="scale(-27669.4 27669.4) rotate(41.186 -.828 -1.594)" gradientUnits="userSpaceOnUse" spreadMethod="pad">
      <stop offset="0" stop-color="#c4d5fd"/>
      <stop offset="1" stop-color="#ceddfc"/>
    </linearGradient>
    <linearGradient id="g" x1="0" x2="1" y1="0" y2="0" gradientTransform="scale(-27669.4 27669.4) rotate(41.186 -.828 -1.594)" gradientUnits="userSpaceOnUse" spreadMethod="pad">
      <stop offset="0" stop-color="#c4d5fd"/>
      <stop offset="1" stop-color="#ceddfc"/>
    </linearGradient>
    <linearGradient id="i" x1="0" x2="1" y1="0" y2="0" gradientTransform="scale(-27669.4 27669.4) rotate(41.186 -.828 -1.594)" gradientUnits="userSpaceOnUse" spreadMethod="pad">
      <stop offset="0" stop-color="#c4d5fd"/>
      <stop offset="1" stop-color="#ceddfc"/>
    </linearGradient>
    <linearGradient id="k" x1="0" x2="1" y1="0" y2="0" gradientTransform="scale(-27669.4 27669.4) rotate(41.186 -.828 -1.594)" gradientUnits="userSpaceOnUse" spreadMethod="pad">
      <stop offset="0" stop-color="#c4d5fd"/>
      <stop offset="1" stop-color="#ceddfc"/>
    </linearGradient>
    <linearGradient id="m" x1="0" x2="1" y1="0" y2="0" gradientTransform="scale(-27826.4 27826.4) rotate(-37.286 .836 2.041)" gradientUnits="userSpaceOnUse" spreadMethod="pad">
      <stop offset="0" stop-color="#09005d"/>
      <stop offset="1" stop-color="#1a0f91"/>
    </linearGradient>
    <linearGradient id="o" x1="0" x2="1" y1="0" y2="0" gradientTransform="matrix(27362.1 0 0 -27362.1 4920.13 17007.7)" gradientUnits="userSpaceOnUse" spreadMethod="pad">
      <stop offset="0" stop-color="#4f52ff"/>
      <stop offset="1" stop-color="#4042e2"/>
    </linearGradient>
    <linearGradient id="q" x1="0" x2="1" y1="0" y2="0" gradientTransform="matrix(27362.1 0 0 -27362.1 4920.13 17007.7)" gradientUnits="userSpaceOnUse" spreadMethod="pad">
      <stop offset="0" stop-color="#5a62fe"/>
      <stop offset="1" stop-color="#4d54e6"/>
    </linearGradient>
    <linearGradient id="s" x1="0" x2="1" y1="0" y2="0" gradientTransform="scale(-7727.78 7727.78) rotate(-40.601 3.352 3.485)" gradientUnits="userSpaceOnUse" spreadMethod="pad">
      <stop offset="0" stop-color="#febbba"/>
      <stop offset="1" stop-color="#ff928e"/>
    </linearGradient>
    <linearGradient id="u" x1="0" x2="1" y1="0" y2="0" gradientTransform="scale(-2800.43 2800.43) rotate(-71.931 .353 9.498)" gradientUnits="userSpaceOnUse" spreadMethod="pad">
      <stop offset="0" stop-color="#febbba"/>
      <stop offset="1" stop-color="#ff928e"/>
    </linearGradient>
    <linearGradient id="w" x1="0" x2="1" y1="0" y2="0" gradientTransform="matrix(1830.11 0 0 -1830.11 24420.3 9826.7)" gradientUnits="userSpaceOnUse" spreadMethod="pad">
      <stop offset="0" stop-color="#febbba"/>
      <stop offset="1" stop-color="#ff928e"/>
    </linearGradient>
    <linearGradient id="y" x1="0" x2="1" y1="0" y2="0" gradientTransform="scale(-5960.42 5960.42) rotate(-81.254 -.899 3.801)" gradientUnits="userSpaceOnUse" spreadMethod="pad">
      <stop offset="0" stop-color="#4f52ff"/>
      <stop offset="1" stop-color="#4042e2"/>
    </linearGradient>
    <linearGradient id="A" x1="0" x2="1" y1="0" y2="0" gradientTransform="scale(-5960.44 5960.44) rotate(-81.254 -.709 3.639)" gradientUnits="userSpaceOnUse" spreadMethod="pad">
      <stop offset="0" stop-color="#4f52ff"/>
      <stop offset="1" stop-color="#4042e2"/>
    </linearGradient>
    <linearGradient id="C" x1="0" x2="1" y1="0" y2="0" gradientTransform="matrix(1059.78 0 0 -1059.78 23309.8 9690.6)" gradientUnits="userSpaceOnUse" spreadMethod="pad">
      <stop offset="0" stop-color="#febbba"/>
      <stop offset="1" stop-color="#ff928e"/>
    </linearGradient>
    <linearGradient id="E" x1="0" x2="1" y1="0" y2="0" gradientTransform="matrix(2074.72 0 0 -2074.72 21026.8 17641.8)" gradientUnits="userSpaceOnUse" spreadMethod="pad">
      <stop offset="0" stop-color="#febbba"/>
      <stop offset="1" stop-color="#ff928e"/>
    </linearGradient>
    <linearGradient id="G" x1="0" x2="1" y1="0" y2="0" gradientTransform="scale(-4175.49 4175.49) rotate(-20.638 7.751 20.158)" gradientUnits="userSpaceOnUse" spreadMethod="pad">
      <stop offset="0" stop-color="#ff928e"/>
      <stop offset="1" stop-color="#fe7062"/>
    </linearGradient>
    <linearGradient id="I" x1="0" x2="1" y1="0" y2="0" gradientTransform="scale(5122.81 -5122.81) rotate(48.437 5.325 3.442)" gradientUnits="userSpaceOnUse" spreadMethod="pad">
      <stop offset="0" stop-color="#09005d"/>
      <stop offset="1" stop-color="#1a0f91"/>
    </linearGradient>
    <linearGradient id="K" x1="0" x2="1" y1="0" y2="0" gradientTransform="matrix(648.53 0 0 -648.53 23631.1 16623.2)" gradientUnits="userSpaceOnUse" spreadMethod="pad">
      <stop offset="0" stop-color="#febbba"/>
      <stop offset="1" stop-color="#ff928e"/>
    </linearGradient>
    <linearGradient id="M" x1="0" x2="1" y1="0" y2="0" gradientTransform="scale(4731.35 -4731.35) rotate(3.89 56.942 74.897)" gradientUnits="userSpaceOnUse" spreadMethod="pad">
      <stop offset="0" stop-color="#febbba"/>
      <stop offset="1" stop-color="#ff928e"/>
    </linearGradient>
    <linearGradient id="O" x1="0" x2="1" y1="0" y2="0" gradientTransform="scale(-3715.43 3715.43) rotate(-63.435 .44 7.927)" gradientUnits="userSpaceOnUse" spreadMethod="pad">
      <stop offset="0" stop-color="#09005d"/>
      <stop offset="1" stop-color="#1a0f91"/>
    </linearGradient>
    <linearGradient id="R" x1="0" x2="1" y1="0" y2="0" gradientTransform="scale(-7302.02 7302.02) rotate(-32.512 3.577 7.764)" gradientUnits="userSpaceOnUse" spreadMethod="pad">
      <stop offset="0" stop-color="#ff928e"/>
      <stop offset="1" stop-color="#fe7062"/>
    </linearGradient>
    <linearGradient id="T" x1="0" x2="1" y1="0" y2="0" gradientTransform="scale(-7302.02 7302.02) rotate(-32.512 3.577 7.764)" gradientUnits="userSpaceOnUse" spreadMethod="pad">
      <stop offset="0" stop-color="#ffdcdb"/>
      <stop offset="1" stop-color="#ffd1cd"/>
    </linearGradient>
    <linearGradient id="V" x1="0" x2="1" y1="0" y2="0" gradientTransform="scale(-7302.02 7302.02) rotate(-32.512 3.577 7.764)" gradientUnits="userSpaceOnUse" spreadMethod="pad">
      <stop offset="0" stop-color="#ffefee"/>
      <stop offset="1" stop-color="#ffeae8"/>
    </linearGradient>
    <linearGradient id="X" x1="0" x2="1" y1="0" y2="0" gradientTransform="matrix(1333.42 7.20048 7.20048 -1333.42 8993.12 29641)" gradientUnits="userSpaceOnUse" spreadMethod="pad">
      <stop offset="0" stop-color="#4f52ff"/>
      <stop offset="1" stop-color="#4042e2"/>
    </linearGradient>
    <linearGradient id="Z" x1="0" x2="1" y1="0" y2="0" gradientTransform="matrix(1346.68 7.27209 7.27209 -1346.68 8979.96 29401.6)" gradientUnits="userSpaceOnUse" spreadMethod="pad">
      <stop offset="0" stop-color="#09005d"/>
      <stop offset="1" stop-color="#1a0f91"/>
    </linearGradient>
    <linearGradient id="ab" x1="0" x2="1" y1="0" y2="0" gradientTransform="scale(2431.626 -2431.626) rotate(81.376 9.078 -3.655)" gradientUnits="userSpaceOnUse" spreadMethod="pad">
      <stop offset="0" stop-color="#febbba"/>
      <stop offset="1" stop-color="#ff928e"/>
    </linearGradient>
    <linearGradient id="ad" x1="0" x2="1" y1="0" y2="0" gradientTransform="matrix(1588.28 8.57673 8.57673 -1588.28 6816.86 28517.7)" gradientUnits="userSpaceOnUse" spreadMethod="pad">
      <stop offset="0" stop-color="#09005d"/>
      <stop offset="1" stop-color="#1a0f91"/>
    </linearGradient>
    <linearGradient id="af" x1="0" x2="1" y1="0" y2="0" gradientTransform="matrix(1546.17 8.3493 8.3493 -1546.17 6748.95 28576.4)" gradientUnits="userSpaceOnUse" spreadMethod="pad">
      <stop offset="0" stop-color="#4f52ff"/>
      <stop offset="1" stop-color="#4042e2"/>
    </linearGradient>
    <linearGradient id="ah" x1="0" x2="1" y1="0" y2="0" gradientTransform="scale(2431.646 -2431.646) rotate(81.376 8.65 -4.023)" gradientUnits="userSpaceOnUse" spreadMethod="pad">
      <stop offset="0" stop-color="#febbba"/>
      <stop offset="1" stop-color="#ff928e"/>
    </linearGradient>
    <linearGradient id="aj" x1="0" x2="1" y1="0" y2="0" gradientTransform="scale(-5602.035 5602.035) rotate(-80.225 2.278 3.861)" gradientUnits="userSpaceOnUse" spreadMethod="pad">
      <stop offset="0" stop-color="#4f52ff"/>
      <stop offset="1" stop-color="#4042e2"/>
    </linearGradient>
    <linearGradient id="al" x1="0" x2="1" y1="0" y2="0" gradientTransform="scale(4387.01 -4387.01) rotate(62.585 6.377 -1.207)" gradientUnits="userSpaceOnUse" spreadMethod="pad">
      <stop offset="0" stop-color="#4f52ff"/>
      <stop offset="1" stop-color="#4042e2"/>
    </linearGradient>
    <linearGradient id="an" x1="0" x2="1" y1="0" y2="0" gradientTransform="matrix(575.803 3.10933 3.10933 -575.803 16526.5 28281.7)" gradientUnits="userSpaceOnUse" spreadMethod="pad">
      <stop offset="0" stop-color="#febbba"/>
      <stop offset="1" stop-color="#ff928e"/>
    </linearGradient>
    <linearGradient id="ap" x1="0" x2="1" y1="0" y2="0" gradientTransform="matrix(672.49 3.63145 3.63145 -672.49 16578.2 27359.8)" gradientUnits="userSpaceOnUse" spreadMethod="pad">
      <stop offset="0" stop-color="#febbba"/>
      <stop offset="1" stop-color="#ff928e"/>
    </linearGradient>
    <linearGradient id="ar" x1="0" x2="1" y1="0" y2="0" gradientTransform="scale(5217.13 -5217.13) rotate(37.093 9.408 .518)" gradientUnits="userSpaceOnUse" spreadMethod="pad">
      <stop offset="0" stop-color="#ff928e"/>
      <stop offset="1" stop-color="#fe7062"/>
    </linearGradient>
    <linearGradient id="at" x1="0" x2="1" y1="0" y2="0" gradientTransform="scale(-2028.3 2028.3) rotate(-61.699 8.082 14.103)" gradientUnits="userSpaceOnUse" spreadMethod="pad">
      <stop offset="0" stop-color="#febbba"/>
      <stop offset="1" stop-color="#ff928e"/>
    </linearGradient>
    <linearGradient id="av" x1="0" x2="1" y1="0" y2="0" gradientTransform="scale(-3257.86 3257.86) rotate(-40.037 8.318 11.844)" gradientUnits="userSpaceOnUse" spreadMethod="pad">
      <stop offset="0" stop-color="#febbba"/>
      <stop offset="1" stop-color="#ff928e"/>
    </linearGradient>
    <linearGradient id="ax" x1="0" x2="1" y1="0" y2="0" gradientTransform="scale(-1148.89 1148.89) rotate(72.824 -23.997 2.53)" gradientUnits="userSpaceOnUse" spreadMethod="pad">
      <stop offset="0" stop-color="#febbba"/>
      <stop offset="1" stop-color="#ff928e"/>
    </linearGradient>
    <linearGradient id="az" x1="0" x2="1" y1="0" y2="0" gradientTransform="scale(1794.7 -1794.7) rotate(79.746 14.693 -3.021)" gradientUnits="userSpaceOnUse" spreadMethod="pad">
      <stop offset="0" stop-color="#09005d"/>
      <stop offset="1" stop-color="#1a0f91"/>
    </linearGradient>
    <linearGradient id="aB" x1="0" x2="1" y1="0" y2="0" gradientTransform="scale(-1148.89 1148.89) rotate(72.824 -23.784 2.687)" gradientUnits="userSpaceOnUse" spreadMethod="pad">
      <stop offset="0" stop-color="#febbba"/>
      <stop offset="1" stop-color="#ff928e"/>
    </linearGradient>
    <linearGradient id="aD" x1="0" x2="1" y1="0" y2="0" gradientTransform="scale(-3631.72 3631.72) rotate(73.028 -6.901 .593)" gradientUnits="userSpaceOnUse" spreadMethod="pad">
      <stop offset="0" stop-color="#ff928e"/>
      <stop offset="1" stop-color="#fe7062"/>
    </linearGradient>
    <linearGradient id="aF" x1="0" x2="1" y1="0" y2="0" gradientTransform="scale(-4644.05 4644.05) rotate(-82.583 2.086 5.285)" gradientUnits="userSpaceOnUse" spreadMethod="pad">
      <stop offset="0" stop-color="#e1473d"/>
      <stop offset="1" stop-color="#e9605a"/>
    </linearGradient>
    <linearGradient id="aH" x1="0" x2="1" y1="0" y2="0" gradientTransform="scale(-3864.359 3864.359) rotate(-88.252 1.96 5.813)" gradientUnits="userSpaceOnUse" spreadMethod="pad">
      <stop offset="0" stop-color="#e1473d"/>
      <stop offset="1" stop-color="#e9605a"/>
    </linearGradient>
    <linearGradient id="aJ" x1="0" x2="1" y1="0" y2="0" gradientTransform="scale(-3257.85 3257.85) rotate(-40.037 8.671 11.715)" gradientUnits="userSpaceOnUse" spreadMethod="pad">
      <stop offset="0" stop-color="#febbba"/>
      <stop offset="1" stop-color="#ff928e"/>
    </linearGradient>
    <linearGradient id="aL" x1="0" x2="1" y1="0" y2="0" gradientTransform="rotate(-17.849 91843.372 -37905.079) scale(2006.409)" gradientUnits="userSpaceOnUse" spreadMethod="pad">
      <stop offset="0" stop-color="#09005d"/>
      <stop offset="1" stop-color="#1a0f91"/>
    </linearGradient>
    <linearGradient id="aN" x1="0" x2="1" y1="0" y2="0" gradientTransform="rotate(-46.276 41608.72 -8026.88) scale(1997.73)" gradientUnits="userSpaceOnUse" spreadMethod="pad">
      <stop offset="0" stop-color="#09005d"/>
      <stop offset="1" stop-color="#1a0f91"/>
    </linearGradient>
  </defs>
  <g clip-path="url(#b)" transform="matrix(.13333 0 0 -.13333 -600.307 4340)">
    <path fill="url(#c)" d="M17139.1 4550c-690.1 0-1374.9 50.8-2049.6 154.7-1011.6 155.8-3784.9 620-6240.29 2809.7-101.55 90.5-201.66 183.3-299.77 277.6l7849.76 77.6c-72.5-61-8.6-152.2 263.2-303.8 186.8-104.2 379.8-147.2 571.5-147.2 346.8 0 688.9 140.9 978.9 314.9 629.6-236 1310.3-255.1 1514.1-255.1 39.3 0 60.9.7 60.9.7 226.1 143.3 417.6 287.4 579.2 429.7l6428.5 63.6C24021.9 5777.6 20528.8 4550 17139.1 4550M4850.59 14979.7c-273.06 1479.2-333.7 3020.2-169.25 4546.6l169.25-4546.6m27346.91 2463.9 129.6 2230.1c11.7-743.7-31.8-1490.7-129.6-2230.1M6787.33 25742.9c45.11 72.5 90.64 144.2 137.19 216C9633.29 30137.7 14438.1 32550 19062.2 32550c113.3 0 226.2-1.4 339.3-4.3 1018.2-26.2 4920.3-187.3 8349.6-3015.1 503.7-415.3 1614.7-1402.3 2615.9-2968 87.7-137.2 172.2-276 253.9-417l-3225-54.5c11.5 11.7 18.9 27.5 19.5 45.2 2.8 77 2.3 154.8-1.4 231.3-1.8 36.4-31.7 64.6-67.9 64.6-1.1 0-2.1 0-3.2-.1-37.4-1.8-66.3-33.6-64.5-71.1 3.6-72.7 4-146.6 1.3-219.8-.7-20.2 7.5-38.8 21.2-51.7l-566.3-9.6 15.8 296.8c.7 13.5-7.2 26-19.7 31.1l-357.6 145c-32.7 182.6-94.9 355.6-181.7 513.7l187.3 337.6c6.5 11.8 4.9 26.5-4.2 36.6l-309.6 344.4c-6.1 6.8-14.8 10.5-23.6 10.5-4.2 0-8.4-.8-12.4-2.5l-355.5-150.5c-148 103.1-313.4 183.3-491.6 235.2l-106.3 370.9c-3.7 13-15.3 22.2-28.8 22.9l-462.4 24.6c-.6 0-1.2.1-1.7.1-12.9 0-24.5-7.8-29.4-19.8l-145-357.6c-182.6-32.7-355.7-94.9-513.7-181.7l-337.6 187.3c-4.8 2.6-10.1 3.9-15.4 3.9-7.7 0-15.2-2.7-21.2-8.1l-344.4-309.6c-10.1-9.1-13.3-23.5-8-36l150.4-355.5c-103-148-183.2-313.4-235.1-491.6l-370.9-106.2c-13-3.8-22.2-15.4-23-28.9l-24.5-462.4c-.7-13.5 7.2-26 19.7-31.1l207.2-84-750.9-12.7c-3.5 39.5-6 79.2-7.7 118.7-1.5 36.5-31.7 65-67.8 65-1 0-1.9 0-2.9-.1-37.4-1.5-66.5-33.2-64.9-70.7 1.6-38.3 4-76.8 7.3-115.2l-15217.47-257.1m15315.97 1023.8c-32.1 0-60-23.7-65.8-56.2-3.5-19.8-6.8-39.5-9.9-59.4-8.5-54.9-15.4-110.8-20.6-166.2-3.4-36 21.9-67.9 57.1-73.4 1.4-.2 2.8-.4 4.2-.5 2.1-.2 4.2-.3 6.4-.3 34.6 0 64.2 26.4 67.4 61.5 5 52.7 11.6 105.9 19.7 158.1 2.9 18.9 6 37.7 9.4 56.4 6.5 36.9-18.1 72.2-55 78.7-4.3.9-8.7 1.3-12.9 1.3m5148 249c-6.1 0-12.3-.8-18.4-2.5-36.1-10.1-57.1-47.6-47-83.7 19.8-70.3 36.7-142.3 50.4-213.9 5.5-29 28.7-50.2 56.3-54.4 3.3-.6 6.8-.8 10.3-.8 4.2 0 8.5.4 12.7 1.2 36.9 7 61.1 42.5 54 79.3-14.3 75.5-32.2 151.3-53 225.3-8.4 30-35.7 49.5-65.3 49.5m-5024.2 203.3c-27.6 0-53.5-16.9-63.6-44.3-12.9-34.8-25.1-70.2-36.5-105.3-11.5-35.6 8.1-73.9 43.7-85.4 3.5-1.2 7.1-2 10.6-2.5 3.4-.6 6.9-.8 10.3-.8 28.7 0 55.3 18.2 64.6 47 10.8 33.2 22.4 66.9 34.6 99.9 13 35.2-5 74.2-40.1 87.2-7.8 2.9-15.8 4.2-23.6 4.2m4801 344.5c-11 0-22.1-2.7-32.4-8.3-32.9-17.9-45.1-59.2-27.1-92.1 34.9-64.1 67.5-130.5 96.9-197.4 9.7-22 29.6-36.3 51.8-39.8 3.4-.5 6.9-.8 10.4-.8 9.1 0 18.3 1.9 27.2 5.8 34.3 15 49.9 55.1 34.9 89.4-30.9 70.4-65.3 140.3-102 207.8-12.4 22.6-35.7 35.4-59.7 35.4m-339.1 484.4c-15.9 0-31.9-5.6-44.8-16.9-28.1-24.8-30.9-67.7-6.1-95.8 48.4-54.9 94.9-112.5 138.3-171.1 11-14.9 27.1-24 44.1-26.7 3.4-.5 6.9-.8 10.4-.8 14.1 0 28.2 4.4 40.4 13.4 30.1 22.3 36.5 64.8 14.1 94.9-45.6 61.7-94.6 122.2-145.4 180-13.4 15.2-32.1 23-51 23m-437.7 397.3c-21 0-41.8-9.8-55-28.1-22-30.4-15.1-72.8 15.3-94.8 59.1-42.7 117.2-88.5 172.6-136.1 9.9-8.6 21.6-13.8 33.7-15.7 3.5-.5 7-.8 10.5-.8 19.1 0 38.1 8 51.5 23.6 24.4 28.5 21.2 71.3-7.2 95.8-58.2 50-119.4 98.3-181.7 143.3-12 8.7-25.9 12.8-39.7 12.8m-514.8 289.9c-26.5 0-51.6-15.5-62.6-41.4-14.6-34.5 1.6-74.4 36.1-89 67.2-28.4 134-60.1 198.5-94.2 6.8-3.6 14-5.9 21.3-7.1 3.4-.5 6.9-.8 10.3-.8 24.4 0 47.9 13.2 60.1 36.2 17.5 33.2 4.8 74.2-28.3 91.7-67.9 35.9-138.3 69.3-209 99.3-8.6 3.6-17.6 5.3-26.4 5.3m-2088.1-12c-9.1 0-18.4-1.8-27.3-5.7-33.9-14.9-67.8-30.6-101-46.7-33.6-16.4-47.6-57.1-31.2-90.8 10.1-20.7 29.4-34 50.6-37.3 3.5-.5 7-.8 10.5-.8 9.9 0 20.1 2.2 29.6 6.9 31.5 15.3 63.8 30.2 96 44.4 34.4 15 50 55.1 35 89.4-11.2 25.4-36.1 40.6-62.2 40.6m566.9 175c-4.2 0-8.4-.3-12.6-1.2-75.7-14.2-151.5-31.9-225.5-52.6-36.1-10.1-57.2-47.5-47.1-83.6 7.4-26.5 29.5-44.9 55-48.8 3.4-.6 6.8-.8 10.3-.8 6.1 0 12.2.8 18.3 2.5 70.2 19.6 142.3 36.4 214.1 50 36.8 6.9 61.1 42.4 54.1 79.2-6.1 32.6-34.6 55.3-66.6 55.3m954.1 4.5c-32.3 0-60.9-23.1-66.7-56-6.6-37 18.1-72.2 55-78.7 71.9-12.7 144.1-28.7 214.6-47.5 2.4-.6 4.8-1.1 7.1-1.5 3.5-.5 7-.8 10.4-.8 30 0 57.5 20.1 65.6 50.4 9.6 36.3-11.9 73.4-48.1 83.1-74.2 19.8-150.2 36.6-226 50l-1.4.2c-3.5.6-7 .8-10.5.8m-466.3 41c-42.4 0-84.9-1-126.9-3-37.5-1.7-66.4-33.5-64.7-70.9 1.5-32.8 26.1-59.1 57.3-63.9 3.5-.6 7-.9 10.6-.9 1 0 2 0 3.1.1 39.9 1.9 80.2 2.8 120.5 2.8 33.2 0 66.4-.6 99.4-1.9h2.6c36.3 0 66.4 28.7 67.8 65.3 1.4 37.4-27.7 69.1-65.2 70.4-34.7 1.3-69.6 2-104.5 2"/>
  </g>
  <path fill="#bdd0fb" d="M3215.92 597.44c-16.187 14.347-40.934 12.867-55.294-3.32-14.36-16.173-12.88-40.933 3.307-55.293 16.187-14.347 40.947-12.867 55.293 3.32 14.36 16.173 12.88 40.933-3.306 55.293zm135.8-138.027c-.6-1.146-1.854-1.8-3.12-1.6l-36.36 5.347a160.422 160.422 0 0 0-39.72-33.413l-.92-36.76a3.003 3.003 0 0 0-2.107-2.8l-42.04-13.334a3.028 3.028 0 0 0-3.347 1.067l-21.933 29.52c-17.12-1.32-34.573.08-51.707 4.427l-26.626-25.334a3.013 3.013 0 0 0-3.48-.493l-39.16 20.307a3.009 3.009 0 0 0-1.6 3.12l5.36 36.36c-13.427 11.493-24.627 24.96-33.414 39.72l-36.76.906a3.037 3.037 0 0 0-2.813 2.107l-13.333 42.053a3.008 3.008 0 0 0 1.08 3.334l29.52 21.946c-1.32 17.12.08 34.574 4.413 51.707l-25.333 26.627a3.031 3.031 0 0 0-.48 3.48l20.293 39.16a3.037 3.037 0 0 0 3.133 1.6l36.347-5.36a160.136 160.136 0 0 0 39.72 33.413l.92 36.76a3.033 3.033 0 0 0 2.107 2.813l42.053 13.334a3.036 3.036 0 0 0 3.333-1.08l21.934-29.52a160.51 160.51 0 0 0 51.72-4.414l26.626 25.32a2.992 2.992 0 0 0 3.467.494l39.16-20.307a3.009 3.009 0 0 0 1.6-3.12l-5.347-36.36c13.413-11.493 24.613-24.96 33.4-39.707l36.773-.92a3.034 3.034 0 0 0 2.8-2.106l13.334-42.054a3.008 3.008 0 0 0-1.08-3.333l-29.507-21.947a160.07 160.07 0 0 0-4.427-51.706l25.334-26.627a3.056 3.056 0 0 0 .493-3.48l-20.307-39.147m-427.199-60.8c-8.987 7.974-22.734 7.147-30.707-1.84-7.973-8.986-7.147-22.733 1.84-30.706 8.987-7.974 22.733-7.147 30.707 1.84 7.973 8.986 7.146 22.733-1.84 30.706zm75.426-76.666a1.685 1.685 0 0 0-1.733-.88l-20.187 2.973a88.94 88.94 0 0 0-22.066-18.56l-.507-20.427a1.67 1.67 0 0 0-1.173-1.546l-23.347-7.414a1.679 1.679 0 0 0-1.853.6l-12.187 16.4a88.887 88.887 0 0 0-28.72 2.454l-14.8-14.067a1.659 1.659 0 0 0-1.92-.28l-21.76 11.28a1.685 1.685 0 0 0-.88 1.733l2.973 20.2a88.88 88.88 0 0 0-18.56 22.054l-20.413.506a1.674 1.674 0 0 0-1.56 1.174l-7.413 23.346a1.679 1.679 0 0 0 .6 1.854l16.4 12.186a88.887 88.887 0 0 0 2.453 28.72l-14.067 14.8a1.68 1.68 0 0 0-.28 1.92l11.28 21.747c.334.64 1.027 1 1.734.893l20.2-2.973a89.12 89.12 0 0 0 22.053 18.56l.507 20.413a1.69 1.69 0 0 0 1.173 1.56l23.36 7.414a1.686 1.686 0 0 0 1.853-.6l12.187-16.4a88.95 88.95 0 0 0 28.72-2.454L2946.8 483.2c.52.493 1.293.6 1.933.28l21.747-11.28a1.685 1.685 0 0 0 .88-1.733l-2.974-20.2a88.88 88.88 0 0 0 18.56-22.054l20.414-.506a1.691 1.691 0 0 0 1.56-1.174l7.413-23.36a1.686 1.686 0 0 0-.6-1.853l-16.4-12.173a89 89 0 0 0-2.453-28.734l14.066-14.786a1.68 1.68 0 0 0 .28-1.934l-11.28-21.746"/>
  <g clip-path="url(#d)" transform="matrix(.13333 0 0 -.13333 -600.307 4340)">
    <path fill="url(#e)" d="M27300.9 26089.5c-13.7 12.9-21.9 31.5-21.2 51.7 2.7 73.2 2.3 147.1-1.3 219.8-1.8 37.5 27.1 69.3 64.5 71.1 1.1.1 2.1.1 3.2.1 36.2 0 66.1-28.2 67.9-64.6 3.7-76.5 4.2-154.3 1.4-231.3-.6-17.7-8-33.5-19.5-45.2l-95-1.6m2 570.9c-3.5 0-7 .2-10.3.8-27.6 4.2-50.8 25.4-56.3 54.4-13.7 71.6-30.6 143.6-50.4 213.9-10.1 36.1 10.9 73.6 47 83.7 6.1 1.7 12.3 2.5 18.4 2.5 29.6 0 56.9-19.5 65.3-49.5 20.8-74 38.7-149.8 53-225.3 7.1-36.8-17.1-72.3-54-79.3-4.2-.8-8.5-1.2-12.7-1.2m-175.2 564.7c-3.5 0-7 .3-10.4.8-22.2 3.5-42.1 17.8-51.8 39.8-29.4 66.9-62 133.3-96.9 197.4-18 32.9-5.8 74.2 27.1 92.1 10.3 5.6 21.4 8.3 32.4 8.3 24 0 47.3-12.8 59.7-35.4 36.7-67.5 71.1-137.4 102-207.8 15-34.3-.6-74.4-34.9-89.4-8.9-3.9-18.1-5.8-27.2-5.8m-296.8 511.5c-3.5 0-7 .3-10.4.8-17 2.7-33.1 11.8-44.1 26.7-43.4 58.6-89.9 116.2-138.3 171.1-24.8 28.1-22 71 6.1 95.8 12.9 11.3 28.9 16.9 44.8 16.9 18.9 0 37.6-7.8 51-23 50.8-57.8 99.8-118.3 145.4-180 22.4-30.1 16-72.6-14.1-94.9-12.2-9-26.3-13.4-40.4-13.4m-402.5 433.1c-3.5 0-7 .3-10.5.8-12.1 1.9-23.8 7.1-33.7 15.7-55.4 47.6-113.5 93.4-172.6 136.1-30.4 22-37.3 64.4-15.3 94.8 13.2 18.3 34 28.1 55 28.1 13.8 0 27.7-4.1 39.7-12.8 62.3-45 123.5-93.3 181.7-143.3 28.4-24.5 31.6-67.3 7.2-95.8-13.4-15.6-32.4-23.6-51.5-23.6m-488.3 332.9c-3.4 0-6.9.3-10.3.8-7.3 1.2-14.5 3.5-21.3 7.1-64.5 34.1-131.3 65.8-198.5 94.2-34.5 14.6-50.7 54.5-36.1 89 11 25.9 36.1 41.4 62.6 41.4 8.8 0 17.8-1.7 26.4-5.3 70.7-30 141.1-63.4 209-99.3 33.1-17.5 45.8-58.5 28.3-91.7-12.2-23-35.7-36.2-60.1-36.2m-1944.7 208.5c-3.5 0-6.9.2-10.3.8-25.5 3.9-47.6 22.3-55 48.8-10.1 36.1 11 73.5 47.1 83.6 74 20.7 149.8 38.4 225.5 52.6 4.2.9 8.4 1.2 12.6 1.2 32 0 60.5-22.7 66.6-55.3 7-36.8-17.3-72.3-54.1-79.2-71.8-13.6-143.9-30.4-214.1-50-6.1-1.7-12.2-2.5-18.3-2.5m1394.4 7c-3.4 0-6.9.3-10.4.8-2.3.4-4.7.9-7.1 1.5-70.5 18.8-142.7 34.8-214.6 47.5-36.9 6.5-61.6 41.7-55 78.7 5.8 32.9 34.4 56 66.7 56 3.5 0 7-.2 10.5-.8l1.4-.2c75.8-13.4 151.8-30.2 226-50 36.2-9.7 57.7-46.8 48.1-83.1-8.1-30.3-35.6-50.4-65.6-50.4m-810.4 86.8c-3.6 0-7.1.3-10.6.9-31.2 4.8-55.8 31.1-57.3 63.9-1.7 37.4 27.2 69.2 64.7 70.9 42 2 84.5 3 126.9 3 34.9 0 69.8-.7 104.5-2 37.5-1.3 66.6-33 65.2-70.4-1.4-36.6-31.5-65.3-67.8-65.3h-2.6c-33 1.3-66.2 1.9-99.4 1.9-40.3 0-80.6-.9-120.5-2.8-1.1-.1-2.1-.1-3.1-.1"/>
  </g>
  <g clip-path="url(#f)" transform="matrix(.13333 0 0 -.13333 -600.307 4340)">
    <path fill="url(#g)" d="M23550 28541.8c-3.5 0-7 .3-10.5.8-21.2 3.3-40.5 16.6-50.6 37.3-16.4 33.7-2.4 74.4 31.2 90.8 33.2 16.1 67.1 31.8 101 46.7 8.9 3.9 18.2 5.7 27.3 5.7 26.1 0 51-15.2 62.2-40.6 15-34.3-.6-74.4-35-89.4-32.2-14.2-64.5-29.1-96-44.4-9.5-4.7-19.7-6.9-29.6-6.9"/>
  </g>
  <g clip-path="url(#h)" transform="matrix(.13333 0 0 -.13333 -600.307 4340)">
    <path fill="url(#i)" d="M22191.6 26980.7c-3.4 0-6.9.2-10.3.8-3.5.5-7.1 1.3-10.6 2.5-35.6 11.5-55.2 49.8-43.7 85.4 11.4 35.1 23.6 70.5 36.5 105.3 10.1 27.4 36 44.3 63.6 44.3 7.8 0 15.8-1.3 23.6-4.2 35.1-13 53.1-52 40.1-87.2-12.2-33-23.8-66.7-34.6-99.9-9.3-28.8-35.9-47-64.6-47"/>
  </g>
  <g clip-path="url(#j)" transform="matrix(.13333 0 0 -.13333 -600.307 4340)">
    <path fill="url(#k)" d="M22004.8 26000c-3.3 38.4-5.7 76.9-7.3 115.2-1.6 37.5 27.5 69.2 64.9 70.7 1 .1 1.9.1 2.9.1 36.1 0 66.3-28.5 67.8-65 1.7-39.5 4.2-79.2 7.7-118.7l-136-2.3m69.9 410.7c-2.2 0-4.3.1-6.4.3-1.4.1-2.8.3-4.2.5-35.2 5.5-60.5 37.4-57.1 73.4 5.2 55.4 12.1 111.3 20.6 166.2 3.1 19.9 6.4 39.6 9.9 59.4 5.8 32.5 33.7 56.2 65.8 56.2 4.2 0 8.6-.4 12.9-1.3 36.9-6.5 61.5-41.8 55-78.7-3.4-18.7-6.5-37.5-9.4-56.4-8.1-52.2-14.7-105.4-19.7-158.1-3.2-35.1-32.8-61.5-67.4-61.5"/>
  </g>
  <path fill="#91b3fa" d="M2898.266 1020.52a4.228 4.228 0 0 0 1.067-4.787l-20.053-47.413c13.733-19.733 24.426-41.787 31.346-65.547l49.454-14.16a4.233 4.233 0 0 0 3.053-3.84l3.28-61.666a4.241 4.241 0 0 0-2.627-4.147l-47.68-19.333c-4.36-24.347-12.653-47.414-24.226-68.494l24.973-45.013a4.236 4.236 0 0 0-.56-4.88l-41.28-45.92a4.222 4.222 0 0 0-4.8-1.067l-47.4 20.067c-19.733-13.747-41.787-24.44-65.547-31.36l-14.173-49.453a4.22 4.22 0 0 0-3.84-3.054l-61.653-3.28a4.241 4.241 0 0 0-4.147 2.627l-19.333 47.68a224.344 224.344 0 0 0-68.494 24.227l-45.013-24.974c-1.573-.866-3.547-.653-4.88.56l-45.92 41.28a4.227 4.227 0 0 0-1.067 4.8l20.054 47.4c-13.734 19.734-24.427 41.787-31.347 65.547L2428 790.48a4.28 4.28 0 0 0-3.067 3.853l-3.267 61.654a4.241 4.241 0 0 0 2.627 4.146l47.68 19.334a224.344 224.344 0 0 0 24.227 68.493l-24.974 45.013a4.212 4.212 0 0 0 .56 4.88l41.28 45.92a4.207 4.207 0 0 0 4.787 1.067l47.413-20.053c19.734 13.733 41.787 24.426 65.547 31.346l14.16 49.454a4.263 4.263 0 0 0 3.84 3.066l61.667 3.267c1.8.107 3.466-.96 4.146-2.627l19.32-47.68c24.36-4.36 47.427-12.653 68.507-24.226l45.013 24.973a4.215 4.215 0 0 0 4.88-.56l45.92-41.28"/>
  <path fill="#bdd0fb" d="M2671.853 797.453c-11.253 5.92-19.507 15.867-23.267 28.014-7.773 25.066 6.307 51.773 31.374 59.546 25.066 7.774 51.773-6.32 59.533-31.386 7.76-25.067-6.307-51.774-31.373-59.534a48.033 48.033 0 0 0-6.88-1.6c-10.027-1.546-20.254.134-29.387 4.96zm3.827 101.387c-32.694-10.133-51.054-44.96-40.934-77.653 4.907-15.84 15.694-28.827 30.36-36.547 14.654-7.733 31.454-9.293 47.294-4.387 32.693 10.134 51.053 44.974 40.933 77.667-9.213 29.733-38.88 47.613-68.773 42.973a63.78 63.78 0 0 1-8.88-2.053"/>
  <path fill="#bdd0fb" d="M2669.546 989.28a154.52 154.52 0 0 0 20.574 1.813c8.173.174 16.346-.306 24.4-1.44l.32-.04c.32-.04.626-.093.933-.133a551.51 551.51 0 0 0 1.813-.28 3.637 3.637 0 0 0 3.014-3.013c.053-.374.053-.76-.014-1.134a3.612 3.612 0 0 0-4.146-3 146.815 146.815 0 0 1-30.907 1.627c-51.453-2.733-95.293-32.04-118.933-73.867-13.147-23.266-20.054-50.413-18.534-79.026.267-5.014.787-9.987 1.547-14.88 5.12-32.96 21.293-62.907 46.427-85.507 28.88-25.973 66.146-39.133 104.92-37.067 80.08 4.267 141.706 72.84 137.453 152.88a145.87 145.87 0 0 1-1.52 14.694c-3.28 21.026-11.107 41.106-23.013 58.76-.307.453-.494.96-.574 1.466a3.596 3.596 0 0 0 1.56 3.56c1.654 1.107 3.907.68 5.014-.973 12.506-18.547 20.733-39.627 24.16-61.693a156.23 156.23 0 0 0 1.613-15.427c4.467-84.04-60.307-156.04-144.307-160.507-40.706-2.16-79.826 11.667-110.133 38.92-26.4 23.72-43.373 55.16-48.747 89.76a155.45 155.45 0 0 0-1.626 15.627c-2.16 40.707 11.653 79.827 38.906 110.147 23.734 26.386 55.187 43.36 89.8 48.733"/>
  <g clip-path="url(#l)" transform="matrix(.13333 0 0 -.13333 -600.307 4340)">
    <path fill="url(#m)" d="M6175.63 7768.6c-589.29 0-1074.34 476.9-1096.83 1081l-228.21 6130.1-169.25 4546.6-178.05 4782.9c-28.48 765.1 563.04 1404.6 1310.87 1417.2l973.17 16.5L22004.8 26000l136 2.3 750.9 12.7 689.1 11.6 55.7 1 2137.5 36.1 55.3.9 905.3 15.3 566.3 9.6 95 1.6 3225 54.5 217.4 3.7c9.7.1 19.6.2 29.3.2 993.9 0 1786.3-857.2 1727-1876.9l-267.5-4598.9-129.6-2230.1-464.3-7983.6c-47.1-810.6-699.2-1445.7-1492.5-1453.5l-3445.2-34.1-6428.5-63.6c190.4 167.9 339.2 333.3 454.5 492.9l9165.3 88.6c772.6 7.4 1407.6 611.6 1453.5 1382.9l838.9 14092.7c57.8 970.1-713.9 1785.7-1681.9 1785.7-9.4 0-19.1-.1-28.5-.2L6197.75 25349c-728.31-12-1304.39-620.4-1276.66-1348.3l560.5-14708.3c21.9-574.8 494.29-1028.5 1068.21-1028.5h10.53l9360.37 90.5c203.4-125 559-167.8 951.1-167.7 183.1 0 374.2 9.3 561.4 24 51.3-51.6 106.1-99.6 163.7-144.2-558.8-77-1074.6-93.4-1197.7-196.9L8549.44 7792l-2362.99-23.4h-10.82m12636.17 336.1c-14.5 0-29.8 4.4-45.1 14.5l-15.3 10.2c45.4 39.7 85.6 76.6 120.2 109.3 48.9-53 2.6-134-59.8-134"/>
  </g>
  <g clip-path="url(#n)" transform="matrix(.13333 0 0 -.13333 -600.307 4340)">
    <path fill="url(#o)" d="M6549.8 8263.9c-573.92 0-1046.31 453.7-1068.21 1028.5l-560.5 14708.3c-27.73 727.9 548.35 1336.3 1276.66 1348.3l24371.05 402.4c9.4.1 19.1.2 28.5.2 968 0 1739.7-815.6 1681.9-1785.7l-838.9-14092.7c-45.9-771.3-680.9-1375.5-1453.5-1382.9l-9165.3-88.6c81.4 112.7 146.1 222.6 196.8 328l8288 80c735.7 7.1 1340.4 582.5 1384.1 1316.9l798.8 13419.6c55 923.8-679.8 1700.4-1601.6 1700.4-8.9 0-18.1 0-27.1-.2l-23206.98-383.1c-693.53-11.4-1242.09-590.8-1215.69-1283.9l533.72-14005.9c20.87-547.3 470.69-979.3 1017.2-979.3h10.02l8694.63 84c20-49.7 47.2-107.8 81.5-175.3 30-59 79.9-108.1 145.8-148.5l-9360.37-90.5h-10.53m13448.1 156.5c-48 0-27.8 120.4 62.4 300l239.2 2.3c-84.2-101.8-158.8-186-210.8-240.1-41.2-42.8-71.5-62.2-90.8-62.2"/>
  </g>
  <g clip-path="url(#p)" transform="matrix(.13333 0 0 -.13333 -600.307 4340)">
    <path fill="url(#q)" d="M6988.75 8594.2c-546.51 0-996.33 432-1017.2 979.3l-533.72 14005.9c-26.4 693.1 522.16 1272.5 1215.69 1283.9l23206.98 383.1c9 .2 18.2.2 27.1.2 921.8 0 1656.6-776.6 1601.6-1700.4l-798.8-13419.6c-43.7-734.4-648.4-1309.8-1384.1-1316.9l-8288-80c314.1 653.5 89.6 1140-12.6 1140-19.9 0-35.2-18.5-41-57.8-39.9-272.2-399.8-768-665.2-1089.2l-239.2-2.3c63.9 127 162.7 283.5 297.3 448 401.6 490.5 753.1 1340 347.1 1909.1-149.8 210-263.1 298.2-350.3 298.2-149 0-221.2-258.2-267.8-607.3-59.7-448.2-214.6-1185.1-397.4-1185.1-42.9 0-87.3 40.6-132.4 134.9-237.3 496.5 203.2 1420.4 205.9 2035.1 1.2 286.7-320.9 619.4-680.8 861.1v12297.5c0 45-36.5 81.5-81.5 81.5s-81.5-36.5-81.5-81.5V12716.3c-245.1 142.1-487.8 233.9-641.4 233.9-73.7 0-127-21.2-150.1-68-153.8-311.8-588.9-956.6-660.2-1434.1-45.1-302.2 408-660.3 852.3-1059.6 117.5-157.2 197.1-546.1 240.3-865.2-70.3 73.7-145.9 158.6-226.1 255-85.4 497-379.7 1100-904.8 1179.4-71.8 10.8-132.6 16-183.5 16-300.2 0-255.2-179.5-79.6-428.3-12.4-33-25.1-68.5-38.2-106.8-78.8-229.4 72.1-539.5 331.8-868.3-365 228-634.6 901.5-959.8 1219.4-100 97.8-275.3 137-474.1 137-513 0-1181.9-261.6-1113.3-453.7 95.2-266.7 225.8-886.8 464.7-1199.1 82.5-108 259-138.5 481.2-138.5 144.7 0 308.9 13 479.2 25.9 170.3 13 346.7 25.9 515.8 25.9 49.4 0 98.2-1.1 146-3.6 2.9-77.6 22.4-185.3 60.5-328.1 2.9-11 6-22 9.2-32.8-94.2 2.3-199.7 8.5-316.1 19.3-446.2 41.7-755 106.8-929.6 106.8-170.9 0-213.2-62.5-129.7-270.6l-8694.63-84h-10.02M21214.4 18964.6l212.8-246.9c40.6-47.1 63-107.4 61.6-169.6-48.5-2164.8 1263.8-2958.6 1263.8-2958.6l349 795.9c-1449.5 813.5-1362.3 2405.6-1362.3 2405.6l185.9 153.5 1706.5-48.2c-269.3-463.1-789.2-1686.5 297.1-2926.3l518.3 48.3s-993.5 1595-556.2 2870.7l190-5.4 547.1-39.9 36 23.5 943.9-26.7c2.5 0 5-.1 7.4-.1 132 0 240.1 100.1 241.1 224.9l24.7 3048.9c1 125.9-107.3 228.3-241.1 228.3h-1.7l-5877.1-37c-133.8-.9-241.3-103.8-239.5-229.5l38.9-2847.8c1.6-121.3 104.8-219.9 233.9-223.6l1419.9-40m-3583.2-9958.3c-7 5.7-14 11.4-20.9 17 7.9-5.7 14.8-11.3 20.9-17m1462.9 135.5c-1.2 74.4-5.3 145.1-12.2 212.1V9476c99.8-210.3 97-327.3 12.2-334.2"/>
  </g>
  <path fill="#bdd0fb" d="M124.616 1261.187c-5.994 0-10.858-4.854-10.87-10.854-.013-6 4.843-10.88 10.847-10.893l3502.033-7.627h.027c5.986 0 10.853 4.854 10.866 10.84.014 6.014-4.84 10.894-10.84 10.894l-3502.04 7.64h-.023"/>
  <path fill="#bdd0fb" d="M992.093 3170.88c-5.933 0-10.787-4.773-10.867-10.72L951.44 1061.28c-.08-6 4.72-10.933 10.72-11.027 6.12.04 10.933 4.72 11.026 10.72l29.774 2098.88c.08 6-4.707 10.934-10.72 11.027h-.147m940.987 0c-6 0-10.867-4.867-10.867-10.88V1018.413c0-6 4.867-10.866 10.867-10.866 6 0 10.866 4.866 10.866 10.866V3160c0 6.013-4.866 10.88-10.866 10.88m939.053 0c-5.947 0-10.8-4.787-10.867-10.733l-26.453-2141.6c-.08-6 4.733-10.92 10.733-11 6.067-.187 10.934 4.733 11 10.733L2883 3159.867c.066 6-4.734 10.933-10.734 11.013h-.133"/>
  <path fill="#91b3fa" d="M210.456 1143.507c0 27.946 10.289 50.6 22.982 50.6h561.135c12.693 0 22.987-22.654 22.987-50.6 0-27.947-10.294-50.614-22.987-50.614H233.438c-12.693 0-22.982 22.667-22.982 50.614m861.317 0c0 27.946 12.573 50.6 28.08 50.6h685.773c15.507 0 28.08-22.654 28.08-50.6 0-27.947-12.573-50.614-28.08-50.614h-685.773c-15.507 0-28.08 22.667-28.08 50.614m954.373-7.534c0 27.947 13.054 50.614 29.174 50.614h712.306c16.12 0 29.174-22.667 29.174-50.614 0-27.946-13.054-50.6-29.174-50.6H2055.32c-16.12 0-29.174 22.654-29.174 50.6m934.094 0c0 27.947 10.293 50.614 22.986 50.614h561.133c12.694 0 22.987-22.667 22.987-50.614 0-27.946-10.293-50.6-22.987-50.6h-561.133c-12.693 0-22.986 22.654-22.986 50.6m629.826 610.014h-652.533c-6.733 0-12.2-5.454-12.2-12.187v-372.627c0-6.733 5.467-12.186 12.2-12.186h652.533c6.733 0 12.187 5.453 12.187 12.186V1733.8c0 6.733-5.454 12.187-12.187 12.187"/>
  <path fill="#7d97f4" d="M2718.866 2270.8H2124.44c-22.774 0-41.24-18.467-41.24-41.24v-314.52c0-22.773 18.466-41.24 41.24-41.24h594.426c22.787 0 41.24 18.467 41.24 41.24v314.52c0 22.773-18.453 41.24-41.24 41.24"/>
  <g clip-path="url(#r)" transform="matrix(.13333 0 0 -.13333 -600.307 4340)">
    <path fill="url(#s)" d="M11062.2 19561.1H6168.19c-50.49 0-91.43 41-91.43 91.5v2794.7c0 50.5 40.94 91.4 91.43 91.4h4894.01c50.5 0 91.4-40.9 91.4-91.4v-2794.7c0-50.5-40.9-91.5-91.4-91.5"/>
  </g>
  <path fill="#91b3fa" d="M1801.946 1745.987h-652.533c-6.733 0-12.2-5.454-12.2-12.187v-372.627c0-6.733 5.467-12.186 12.2-12.186h652.533c6.734 0 12.187 5.453 12.187 12.186V1733.8c0 6.733-5.453 12.187-12.187 12.187"/>
  <path fill="#7d97f4" d="M832.066 2200.867H237.638c-22.778 0-41.244-18.467-41.244-41.24v-314.52c0-22.774 18.466-41.24 41.244-41.24h594.428c22.774 0 41.24 18.466 41.24 41.24v314.52c0 22.773-18.466 41.24-41.24 41.24"/>
  <path fill="#91b3fa" d="M878.546 2671.493h-652.53c-6.732 0-12.19-5.466-12.19-12.2V2286.68c0-6.733 5.458-12.2 12.19-12.2h652.53c6.734 0 12.2 5.467 12.2 12.2v372.613c0 6.734-5.466 12.2-12.2 12.2m1056.36 550.974s-170.853 188.373-313.56 108.76c-114.68-63.974 48.254-47.254 186.467-77.494 10.84-2.373 8-18.586-3-17.12-108.133 14.334-273.133 26.054-301.8-30.333-43.267-85.12-1.307-57.507 130.373-45.213 131.667 12.293 157.04-20.227 71.094-40.467-36.907-8.707-83.174-5.4-126.48-2.107-57.56 4.374-109.88 8.76-128.054-15.013-31.853-41.64-49.266-124.32-61.96-159.88-12.693-35.547 163.907-88.893 211.654-42.227 47.746 46.68 86.52 150.867 143.173 169.88 56.667 19.027-4.293-73.133-41.867-120.706-37.573-47.56-52.48-82.92 22.6-71.574 75.08 11.347 114.76 102.974 122.68 171.374 7.92 68.4 34.36 106.653 33.16 72.813-1.2-33.84-13.48-137.6-37.466-168.8-24-31.2 147.293 6.867 92.986 268.107"/>
  <path fill="#cbdbfd" d="M1789.186 3131.28c-129.266-78.24-263.733-129.227-265.56-129.907a2.244 2.244 0 0 1-1.306-2.893 2.24 2.24 0 0 1 2.893-1.307c1.747.654 126.187 47.827 250.947 121.12a1197.72 1197.72 0 0 0 13.026 12.987"/>
  <path fill="#bdd0fb" d="M2038.066 3342.787s-312.04 10.293-363.76-183.52c-41.573-155.774 82.894 2.16 227.614 98.173 11.36 7.533 23.226-8.827 12.533-17.28-105.013-83.08-256.307-218.533-231.08-291.973 38.08-110.854 49.587-50.28 151.227 76.306 101.653 126.587 151.986 121.174 96.413 28.107-55.573-93.08-211.867-175.36-202.36-239.013 9.507-63.667 67.52-149.64 88.027-191.214 20.493-41.56 218.4 68.547 218.04 150.52-.36 81.96-59.094 205.147-27.454 271.347 31.64 66.213 60.814-66.253 70.64-140.027 9.84-73.76 28.28-117.093 82.414-41.213 54.133 75.88 7.266 189.147-46.28 254.547-53.534 65.413-64.667 121.413-35.854 91.44 28.8-29.96 109.8-129.44 116.8-177.24 7.014-47.814 119.787 135.733-156.92 311.04"/>
  <path fill="#e0e9fd" d="M2025.76 3332.32c-.414 0-.8-.093-1.16-.267a2.737 2.737 0 0 1-1.587-2.36c-12.173-238.893-140.093-535.413-141.387-538.386a2.747 2.747 0 0 1 2.52-3.854c1.067 0 2.08.614 2.534 1.654 1.293 2.973 129.613 300.4 141.84 540.32.08 1.506-1.094 2.8-2.614 2.88-.053.013-.093.013-.146.013"/>
  <g clip-path="url(#t)" transform="matrix(.13333 0 0 -.13333 -600.307 4340)">
    <path fill="url(#u)" d="M23928.8 15970c-1086.3 1239.8-566.4 2463.2-297.1 2926.3l259.2-7.3c-437.3-1275.7 556.2-2870.7 556.2-2870.7l-518.3-48.3m699.2 2873.7-547.1 39.9 583.1-16.4-36-23.5"/>
  </g>
  <g clip-path="url(#v)" transform="matrix(.13333 0 0 -.13333 -600.307 4340)">
    <path fill="url(#w)" d="M24420.3 11516.2s979-2133.8 1492.7-3017.6c0 0 102-556.1 0-731l-87-38.6 405.8 12.1s36 748 7.9 789.8c-28.2 41.7-84.5 39-84.5 39s-174 1378.4-677.8 1672.6l-488.4 1681.9-568.7-408.2"/>
  </g>
  <g clip-path="url(#x)" transform="matrix(.13333 0 0 -.13333 -600.307 4340)">
    <path fill="url(#y)" d="M25652.7 7624.2c-.6-9.8 316.9-5.3 489.3-2.1 63.7 1.1 118 45.9 131.5 108.1l130.3 684.2c12.3 65-28.9 128.1-93.5 142.9l-72.7 16.6s-103.7-142.2-71-276.2c32.6-133.9 61.7-480.8-20.8-521.2-82.5-40.5-319.8-47.5-319.8-47.5s-167.8-16.7-173.3-104.8"/>
  </g>
  <g clip-path="url(#z)" transform="matrix(.13333 0 0 -.13333 -600.307 4340)">
    <path fill="url(#A)" d="M23492.4 7611.8c-32.1-18.3-18.9-67.3 18.1-66.9 288.5 2.9 935.2 12 992.6 35.9 74.2 30.8-27 297.4-133.5 387.6l-588.2-191.9-289-164.7"/>
  </g>
  <g clip-path="url(#B)" transform="matrix(.13333 0 0 -.13333 -600.307 4340)">
    <path fill="url(#C)" d="M23309.8 11652.2s632.7-3060.5 811.6-3657.5l-423.3-265.7s212.1 36.1 369.4 47.5c157.4 11.4 302.1 191.9 302.1 191.9l-50.7 80.9s-158.7 3043.9-120.1 3389.6l-889 213.3"/>
  </g>
  <g clip-path="url(#D)" transform="matrix(.13333 0 0 -.13333 -600.307 4340)">
    <path fill="url(#E)" d="M22752.6 15589.5s-1312.3 793.8-1263.8 2958.6c1.4 62.2-21 122.5-61.6 169.6l-212.8 246.9 710.8-20.1-185.9-153.5s-87.2-1592.1 1362.3-2405.6l-349-795.9"/>
  </g>
  <g clip-path="url(#F)" transform="matrix(.13333 0 0 -.13333 -600.307 4340)">
    <path fill="url(#G)" d="M23051.1 16504.7c242.5-67.2 1064-283.4 1576.9-274.5l-314.9-1777 25.1-289.9-1026.7 4.6s-289 671.3-517.1 1005.9c-65.8 96.6-16.8 211.9 20.5 322.8l-51.3 34.1c-52.1 34.7-74.8 100-55.3 159.6l250 765c13 38.5 53.6 60.3 92.8 49.4"/>
  </g>
  <g clip-path="url(#H)" transform="matrix(.13333 0 0 -.13333 -600.307 4340)">
    <path fill="url(#I)" d="m23229.2 14319.6 20.2-175.6s-290.1-868.9 145.1-2898.4c0 0 942.6-267 1717.3 372 0 0-218.6 1915.5-278.3 2004.7-297.3 444.4-495.3 541-495.3 541l-8.9 191.9s-828.6-149.9-1100.1-35.6"/>
  </g>
  <g clip-path="url(#J)" transform="matrix(.13333 0 0 -.13333 -600.307 4340)">
    <path fill="url(#K)" d="M23631.1 16361.5c-3.6 4.7 214.4 658 214.4 658l312.2-28.3 121.9-741.1s-489.2-98.8-648.5 111.4"/>
  </g>
  <g clip-path="url(#L)" transform="matrix(.13333 0 0 -.13333 -600.307 4340)">
    <path fill="url(#M)" d="M24082.9 18049.7c-20.8-13-667.1-280.1-528.2-951 8.2-39.7 34.6-73.3 71.6-89.8 94.9-42.3 299-114.7 543.2-89.9 338.6 34.4 560.5 625.2 551 797.1-9.4 171.9-431.3 462-637.6 333.6"/>
  </g>
  <g clip-path="url(#N)" transform="matrix(.13333 0 0 -.13333 -600.307 4340)">
    <path fill="url(#O)" d="M24279.6 18310.5c-17-2.2-373.5-126.4-196.7-384.7 176.8-258.3 243.1-410.4 159.5-523.8-76.2-103.4-244.9-44.5-230.2-259.5 2.9-43-15.7-84.8-51.4-109-159-107.6-547-438.9-162.6-911.4 31.2-38.5 37.7-91.5 13.6-134.7-112.6-202-349.1-793.5 507.1-1121.7 846-324.2 1151.5 228.8 1236.8 449.8 18.5 47.8 65.5 77.1 116.7 74.7 93-4.4 224.7 11.1 218.7 135.3-3.7 75.5-50.8 143.1-106.4 197.3-55.1 53.7-44.2 147.6 22.6 185.6 50.5 28.7 95.2 73.5 114.1 143.4 51.2 190-51.1 758.1-595.6 854.3-45.4 8.1-93 50.6-99.6 96.3l-.3 2c-7.3 44.2 7.6 89.3 43.7 115.8 86.9 63.8 198.4 192.2 107.9 398.1-80.4 182.6-234.4 244.3-348.8 263.9-67.2 11.5-111.4 75.1-97.2 141.7 38.6 181.7 4.9 472.7-651.9 386.6"/>
  </g>
  <g fill="#fff">
    <path d="M2222.334 1481.32h513.985v291.893h-513.985z"/>
    <g clip-path="url(#P)" transform="matrix(.13333 0 0 -.13333 -600.307 4340)">
      <use xlink:href="#a"/>
    </g>
    <path d="M2380.618 1710.798c-.581-.114-3.437-.592-6.345-1.063-18.749-3.035-37.68-14.064-49.504-28.842-5.846-7.306-9.721-13.924-9.718-16.594.01-5.53 5.611-9.333 10.65-7.228 1.89.79 3.58 2.693 7.15 8.058 9.117 13.694 22.047 23.145 37.944 27.735 6.685 1.93 20.997 2.64 28.575 1.418 21.603-3.485 40.646-18.087 50.006-38.345 6.808-14.735 7.75-31.818 2.65-48.059-5.516-17.566-18.623-32.318-35.74-40.227-9.9-4.574-14.952-5.6-27.56-5.601-9.553 0-12.18.246-17.158 1.607-11.667 3.19-21.914 9.09-30.131 17.351-7.377 7.417-10.857 12.979-16.9 27.012-2.692 6.25-11.261 6.146-14.355-.173-1.298-2.65-.39-6.207 3.825-15.008 18.168-37.931 62.462-56.564 101.406-42.657 28.553 10.197 49.274 34.407 54.437 63.604 1.4 7.92 1.374 22.075-.056 29.577-6.828 35.828-35.386 62.524-71.76 67.085-5.261.66-14.85.853-17.416.35z"/>
  </g>
  <g clip-path="url(#Q)" transform="matrix(.13333 0 0 -.13333 -600.307 4340)">
    <path fill="url(#R)" d="M25615.3 18840.4c-2.4 0-4.9.1-7.4.1l-943.9 26.7-583.1 16.4-190 5.4-259.2 7.3-1706.5 48.2-710.8 20.1-1419.9 40c-129.1 3.7-232.3 102.3-233.9 223.6l-38.9 2847.8c-1.8 125.7 105.7 228.6 239.5 229.5l5877.1 37h1.7c133.8 0 242.1-102.4 241.1-228.3l-24.7-3048.9c-1-124.8-109.1-224.9-241.1-224.9m24.4 3315.7-5877.1-37.1c-11.1-.1-21.1-4.1-28.9-11.6-8.2-7.8-12.5-17.8-12.3-29l38.9-2847.9c.3-21.5 18-38.9 40.2-39.5l5814.8-164.1c22.6 0 41.2 17.8 41.4 39.8l24.7 3049c.1 11.1-4.2 21.1-12.5 29-7.9 7.4-18 11.4-29.2 11.4m-23.8-3091-5814.3 164.1-3.1 1.9-35.7 2849.7 5877.1 37.1-.1 19.1 3.4-21.1-27.3-3050.8m-3441.6 392.4c73-19.8 148.1-30.2 223.9-31.2l89-134.2c14.6-21.7 38.7-34.2 64-34.2 6.4 0 12.9.8 19.2 2.5l225 58.4c31.7 8.2 54.7 35.6 57.2 68.2l12.6 160.5c65.8 37.8 126.2 83.5 180.4 136.2l157.8-31.9c4.9-.9 9.9-1.4 14.8-1.4 26.9 0 52.4 13.8 66.4 37.7l117.9 200.5c16.5 28.2 13.4 63.8-7.9 88.7l-104.5 122.3c19.7 73 30.1 148 31.1 223.8l134.2 89.1c27.2 18.1 40 51.5 31.8 83.2l-58.4 225c-8.3 31.7-35.8 55.1-68.4 57.2l-160.4 12.5c-37.7 65.8-83.4 126.3-136.1 180.5l31.8 157.7c6.5 32.1-8.1 64.8-36.3 81.3l-200.4 117.8c-12.1 7.1-25.5 10.6-38.9 10.6-17.9 0-35.7-6.3-49.9-18.5l-122.2-104.5c-73 19.8-148.1 30.3-223.9 31.2l-89.1 134.2c-14.4 21.7-38.6 34.2-63.9 34.2-6.4 0-12.8-.8-19.2-2.4l-225-58.5c-31.7-8.2-54.7-35.6-57.2-68.2l-12.6-160.6c-65.7-37.7-126.2-83.3-180.4-136.1l-157.8 31.9c-5 1-10 1.5-15 1.5-26.8 0-52.3-14.1-66.3-37.9l-117.8-200.3c-16.6-28.3-13.4-64 7.9-88.8l104.5-122.2c-19.7-73-30.1-148.1-31.1-223.9l-134.2-89.1c-27.2-18-40-51.4-31.8-83l58.4-225.2c8.2-31.5 35.5-54.4 68.1-57.2l160.7-12.5c37.8-65.8 83.4-126.3 136.1-180.5l-31.8-157.7c-6.5-32 8.1-64.6 36.1-81.2l200.6-117.9c8.3-4.9 17.2-8 26.3-9.5 4.2-.7 8.4-1.1 12.6-1.1 17.8 0 35.6 6.3 49.8 18.4l122.3 104.6m1782.6 739.2c27.4-16.4 56.4-29.8 86.7-40.1l19.8-66c5.8-19.6 22.4-33.9 42.3-37.2 2.1-.4 4.2-.6 6.3-.7l112-4.5c.8-.1 1.6-.1 2.4-.1 21.6 0 41.3 13.4 49.3 33.8l25.1 64.3c31 7.7 61 18.7 89.7 32.9l60.6-32.7c8-4.3 16.7-6.4 25.3-6.4 13.1 0 26 4.8 36.1 14.1l82.2 75.8c16.7 15.3 21.8 39.6 12.6 60.6l-27.6 63c16.4 27.4 29.9 56.4 40.1 86.7l66.1 19.8c21.6 6.4 36.9 26.1 37.9 48.8l4.5 111.8c.9 22.6-12.6 43.4-33.7 51.7l-64.3 25.1c-7.8 31-18.8 61-32.9 89.7l32.7 60.6c10.7 20 7.6 44.6-7.7 61.3l-75.8 82.3c-10.5 11.2-24.7 17.1-39.2 17.1-7.3 0-14.7-1.5-21.7-4.6l-62.7-27.5c-27.4 16.4-56.4 29.8-86.7 40.1l-19.8 66c-6.7 22-26.3 36.8-49.1 37.9l-111.5 4.6h-2c-22 0-41.7-13.4-49.7-33.8l-25.1-64.2c-31.1-7.8-61.1-18.8-89.7-32.9l-60.7 32.7c-7.9 4.2-16.6 6.3-25.2 6.3-13 0-25.9-4.7-35.9-13.9l-82.4-75.9c-16.7-15.5-21.8-39.8-12.6-60.6l27.5-63c-16.4-27.4-29.8-56.4-40.1-86.7l-66-19.8c-21.8-6.7-36.9-26.3-37.9-48.8l-4.5-111.8c-.9-22.7 12.6-43.5 33.7-51.7l64.3-25.2c7.7-31 18.7-61 32.9-89.6l-32.7-60.7c-10.7-19.9-7.7-44.5 7.7-61.2l75.8-82.3c10.3-11.2 24.6-17.2 39.2-17.2 7.2 0 14.4 1.5 21.3 4.5l63.1 27.6m-3223.6 1717c-57 0-103.1-79.8-103.1-178.1s46.1-178 103.1-178h3785.1c57 0 103.1 79.7 103.1 178s-46.1 178.1-103.1 178.1h-3785.1m1837.5-2527.7-108.1 162.8-33.5-.8c-6.3-.2-12.7-.2-19.1-.2-79 0-157 11.8-232.3 35.2l-32.1 9.9-148.4-126.8-145.3 85.4 38.7 191.4-24.3 23.1c-61.6 58.8-113.1 127-152.9 202.7l-15.6 29.6-194.8 15.3-42.4 163.1 162.8 108.1-.8 33.6c-2 85.5 9.8 170.1 35.1 251.4l9.9 32-126.9 148.4 85.4 145.3 191.4-38.7 23.2 24.3c58.7 61.7 126.9 113.1 202.6 152.9l29.7 15.6 15.2 194.8 163.2 42.4 108.1-162.8 33.5.8c6.5.2 12.9.2 19.3.2 78.9 0 156.9-11.8 232.1-35.2l32.1-10 148.4 126.9 145.3-85.4-38.7-191.4 24.3-23.1c61.7-58.8 113.1-127 152.9-202.7l15.6-29.6 194.8-15.3 42.3-163.1-162.7-108.1.8-33.5c2-85.5-9.8-170.1-35-251.5l-10-32 126.9-148.4-85.4-145.3-191.4 38.6-23.2-24.2c-58.7-61.7-126.9-113.1-202.6-152.9l-29.7-15.6-15.2-194.8-163.2-42.4m-647.1 742.9c-9.9 0-19.9-2.4-29.1-7.4-29.5-16.1-40.3-53-24.2-82.5 53.7-98.4 133.4-180.6 230.6-237.8 67-39.4 139.4-65.4 213.9-77.8 33-5.4 66.5-8.2 100.1-8.2 52.4 0 105.2 6.7 157.3 20.2 160.7 41.8 295.6 143.6 379.7 286.8 84.2 143.2 107.6 310.5 65.8 471.3-41.7 160.7-143.5 295.6-286.7 379.7-96.8 56.9-204.6 86.1-314 86.1-52.4 0-105.2-6.7-157.3-20.3-160.8-41.7-295.6-143.5-379.8-286.7-22.5-38.2-40.8-78.8-54.6-120.5-10.5-31.9 6.8-66.2 38.6-76.8 6.4-2.1 12.8-3.1 19.2-3.1 25.4 0 49.1 16.3 57.6 41.8 11.1 33.5 25.9 66.2 44 97 67.7 115.2 176.2 197.1 305.5 230.7 41.9 10.9 84.4 16.3 126.6 16.3 88 0 174.7-23.4 252.6-69.2 115.2-67.7 197.1-176.2 230.7-305.6 33.6-129.3 14.8-263.9-52.9-379.1-67.7-115.2-176.3-197.1-305.6-230.7-41.9-10.9-84.4-16.3-126.5-16.3-88 0-174.8 23.4-252.7 69.2-78.1 46-142.3 112.1-185.5 191.2-11 20.3-31.8 31.7-53.3 31.7m297.2 395.2c-50.1-50.8-77.4-118.1-76.9-189.5.4-71.4 28.7-138.3 79.5-188.4 40.7-40.2 91.2-64.6 143.7-73.3 14.6-2.4 29.3-3.6 44-3.6 69 0 138 26.5 190.2 79.4 103.4 104.9 102.3 274.4-2.6 377.9-50.3 49.7-116.8 77-187.5 77h-1.9c-71.4-.5-138.3-28.7-188.5-79.6v.1m1979.8-383.8-57.7 2.4-26.3 87.4-24.2 6.8c-37.9 10.5-73.6 27-106.1 49l-20.8 14.1-83.6-36.6-39.1 42.5 43.3 80.4-12.4 21.9c-19.3 34.1-32.8 71-40.2 109.6l-4.8 24.7-85.1 33.3 2.4 57.7 87.5 26.3 6.7 24.2c10.6 37.9 27 73.6 49 106l14.2 20.8-36.6 83.7 42.4 39.1 80.4-43.3 21.9 12.4c34.1 19.3 71 32.8 109.6 40.2l24.7 4.8 33.3 85 57.7-2.3 26.3-87.6 24.2-6.7c37.9-10.5 73.6-26.9 106-49l20.8-14.1 83.7 36.6 39.1-42.5-43.3-80.3 12.4-21.9c19.3-34.1 32.8-71 40.2-109.7l4.8-24.7 85-33.3-2.3-57.7-87.5-26.2-6.7-24.2c-10.6-38-27.1-73.6-49.1-106.1l-14.1-20.8 36.6-83.6-42.4-39.1-80.4 43.2-21.9-12.3c-34.1-19.3-71-32.9-109.7-40.3l-24.7-4.7-33.2-85.1m-272.6 436.4c-3 0-6.1-.3-9.2-.9-24.7-5.1-40.5-29.2-35.4-53.9 11.5-55.7 38.1-107.4 76.9-149.4 48.1-52.2 110.9-86 179.8-97.4 12.9-2.1 26-3.5 39.3-4 4.3-.2 8.7-.3 13-.3 79.4 0 154.8 29.4 213.5 83.5 127.9 117.9 136.1 317.8 18.2 445.7-57.1 61.9-134.9 98-219.1 101.4-4.3.1-8.7.2-13 .2-79.4 0-154.8-29.4-213.6-83.5-16.5-15.2-31.4-32.2-44.2-50.4-14.5-20.6-9.6-49.1 11-63.5 8-5.6 17.1-8.3 26.2-8.3 14.3 0 28.4 6.7 37.3 19.3 9.1 12.9 19.7 25 31.5 35.9 41.8 38.5 95.4 59.4 151.8 59.4 3.1 0 6.2-.1 9.3-.2 59.9-2.5 115.2-28.1 155.8-72.1 83.8-90.9 78-233.1-12.9-316.8-41.8-38.5-95.4-59.4-151.8-59.4-3.1 0-6.2 0-9.3.2-59.9 2.3-115.2 28-155.8 72.1-27.6 29.8-46.5 66.6-54.6 106.1-4.5 21.5-23.5 36.3-44.7 36.3m-1517-385.9c-36.9 0-73.9 13.9-102.3 41.9-27.7 27.3-43.1 63.8-43.3 102.7-.3 38.9 14.6 75.6 42 103.3 27.3 27.7 63.8 43.1 102.7 43.4h.8c8.2 0 16.3-.7 24.2-2 29.4-4.8 56.6-18.6 78.3-40 57.1-56.4 57.8-148.8 1.3-206-28.4-28.9-66-43.3-103.7-43.3"/>
  </g>
  <g clip-path="url(#S)" transform="matrix(.13333 0 0 -.13333 -600.307 4340)">
    <path fill="url(#T)" d="m25615.3 19026.9-5814.8 164.1c-22.2.6-39.9 18-40.2 39.5l-38.9 2847.9c-.2 11.2 4.1 21.2 12.3 29 7.8 7.5 17.8 11.5 28.9 11.6l5877.1 37.1c11.2 0 21.3-4 29.2-11.4 8.3-7.9 12.6-17.9 12.5-29l-24.7-3049c-.2-22-18.8-39.8-41.4-39.8m24.5 3110.1.1-19.1-5877.1-37.1 35.7-2849.7 3.1-1.9 5814.3-164.1 27.3 3050.8-3.4 21.1"/>
  </g>
  <g clip-path="url(#U)" transform="matrix(.13333 0 0 -.13333 -600.307 4340)">
    <path fill="url(#V)" d="M24518.4 21557.6h-3785.1c-57 0-103.1 79.7-103.1 178s46.1 178.1 103.1 178.1h3785.1c57 0 103.1-79.8 103.1-178.1s-46.1-178-103.1-178"/>
  </g>
  <g clip-path="url(#W)" transform="matrix(.13333 0 0 -.13333 -600.307 4340)">
    <path fill="url(#X)" d="M10327.3 29293.9c.3 12.4.7 23.8.9 33.7.8 27.9-10.7 54.5-31.5 73.1-122.2 108.5-579.64 480.5-1223.84 593.7-34.72 6.1-64.72-9.8-81.46-34.6 53.67-6.2 125.64-19.5 222.65-44.4 318.57-81.9 782.3-301.7 1113.25-621.5"/>
  </g>
  <g clip-path="url(#Y)" transform="matrix(.13333 0 0 -.13333 -600.307 4340)">
    <path fill="url(#Z)" d="M9214.05 29915.4c-97.01 24.9-168.98 38.2-222.65 44.4-16.86-25-20.3-59.1-1.6-89.3 10.54-16.9 23.48-35.3 39.36-54.9 101.4-125.6 919.92-956.3 919.92-956.3s258.62-30.2 337.32 16c25.5 15 36.8 283.3 40.9 418.6-330.95 319.8-794.68 539.6-1113.25 621.5"/>
  </g>
  <g clip-path="url(#aa)" transform="matrix(.13333 0 0 -.13333 -600.307 4340)">
    <path fill="url(#ab)" d="m10301 28426.3-2.7 497.5c-.2 42.1-27.2 79.8-67.4 92.4-61.8 19.5-156.8 37.5-242.95 4.7-50.53-19.2-84.31-67.5-88.32-121.4l-34.55-464.7 435.92-8.5"/>
  </g>
  <g clip-path="url(#ac)" transform="matrix(.13333 0 0 -.13333 -600.307 4340)">
    <path fill="url(#ad)" d="M8325.82 28856.1c-6.05 19.5-17.64 35.9-32.43 48-104.28-21.2-321.43-79.8-766.09-239.6-515.49-185.1-665.81-345.2-708.9-430.6 221.65-63.6 725.14-159.9 1445.86-15l142.18 67.6s-11.88 347.5-80.62 569.6"/>
  </g>
  <g clip-path="url(#ae)" transform="matrix(.13333 0 0 -.13333 -600.307 4340)">
    <path fill="url(#af)" d="M7527.3 28664.5c444.66 159.8 661.81 218.4 766.09 239.6-23.07 19-54.11 27.6-85.33 21-256.21-54.8-1030.27-241.4-1433.54-572-40.26-33-28.07-97.7 21.77-112.7 7-2.1 14.41-4.3 22.11-6.5 43.09 85.4 193.41 245.5 708.9 430.6"/>
  </g>
  <g clip-path="url(#ag)" transform="matrix(.13333 0 0 -.13333 -600.307 4340)">
    <path fill="url(#ah)" d="m8675.02 27987.5-305.54 362.1c-29.75 35.3-77.9 49.1-121.65 34.4-48.5-16.2-112.88-49.5-174.99-117.7-28.97-31.9-34.44-78.8-14.5-117l223.15-426.7 393.53 264.9"/>
  </g>
  <g clip-path="url(#ai)" transform="matrix(.13333 0 0 -.13333 -600.307 4340)">
    <path fill="url(#aj)" d="M9797.69 28596.8s370.01 73.1 576.01 3.1c0 0 279.7-1624.5 236-2147.5l-799.49-167s-32.66 1831.8-12.52 2311.4"/>
  </g>
  <g clip-path="url(#ak)" transform="matrix(.13333 0 0 -.13333 -600.307 4340)">
    <path fill="url(#al)" d="M13097.9 25765.8s-2616.4-161.1-3679.09-93.6c-104.09 6.6-196.72 67.7-243.83 160.7-230.15 454.6-920.34 1818.6-980.94 1948.8 0 0 276.07 233.2 480.65 266.3 0 0 975.2-1073.2 1018.73-1623.1 0 0 2241.28 657.8 2463.08 652.8 221.7-4.9 903.3-304.6 903.3-304.6l38.1-1007.3"/>
  </g>
  <g clip-path="url(#am)" transform="matrix(.13333 0 0 -.13333 -600.307 4340)">
    <path fill="url(#an)" d="M16575.7 27824.7s-97.2 199.1-14.4 304.9c82.7 105.9 381.2 433.6 381.2 433.6l33.7 225.6 125.3-366.5-261.8-555.2s-154.1-168.5-264-42.4"/>
  </g>
  <g clip-path="url(#ao)" transform="matrix(.13333 0 0 -.13333 -600.307 4340)">
    <path fill="url(#ap)" d="M17253.2 26899.6c-98.9 340.3-234.1 664-413.5 967.5l-264-42.4 135.3-915.5c100-29.6 372.5-97 542.2-9.6"/>
  </g>
  <g clip-path="url(#aq)" transform="matrix(.13333 0 0 -.13333 -600.307 4340)">
    <path fill="url(#ar)" d="M17429.2 26008.4c-35.5 307.7-93 605.3-176 891.2-169.7-87.4-442.2-20-542.2 9.6l38.9-262.9-102.1 353.8c-124.2 430.2-385.4 808.2-744 1076.5l-249.7 186.9c-245.5 183.6-635.9 117.6-884.3-62-551.5-398.7-1369.7-1066.5-1649-1296.3-60.1-49.3-142.7-60.7-213.9-29.6l-47 20.4c-44.3 19.4-93-16.7-87.3-64.7l125-1088.6 1901.7 32.3c228.1 1.2 888.6 28.3 992.6 231.3l173.5 432.6c414-348.3 944-586.2 1227.6-654.8 130.7-31.7 252.4 83 236.2 224.3"/>
  </g>
  <g clip-path="url(#as)" transform="matrix(.13333 0 0 -.13333 -600.307 4340)">
    <path fill="url(#at)" d="m16077.9 28850.1-581.5-571.2c-38.8-38-42.1-99.9-7-141.3 181.5-213.9 336.9-325.7 465.6-333.5 54.6-3.3 106.2 25.8 135.2 72.1l308.1 491.7-320.4 482.2"/>
  </g>
  <g clip-path="url(#au)" transform="matrix(.13333 0 0 -.13333 -600.307 4340)">
    <path fill="url(#av)" d="m17273.2 26057.8 501.9 198.5 587.2-462-1047-9.6-42.1 273.1"/>
  </g>
  <g clip-path="url(#aw)" transform="matrix(.13333 0 0 -.13333 -600.307 4340)">
    <path fill="url(#ax)" d="M17057.6 28986.7s-76.7-561.5-291.3-735.1c-214.6-173.7-635.2-46.1-779.3 376.1l278.7 724.6 791.9-365.6"/>
  </g>
  <g clip-path="url(#ay)" transform="matrix(.13333 0 0 -.13333 -600.307 4340)">
    <path fill="url(#az)" d="M16236.4 28884.2c16.4-5.2 33.5 5.4 36 22.4 7.5 51.9 26.3 154.5 65.3 224.5 0 0-21 73.5 186.2-36.6s518.4-271.7 700.5-173.4c177.6 95.7 355.4 574-114.8 483-17.9-3.5-34.4 10.7-33.2 28.9 5.4 78.4-3.4 258.9-186.5 315.8-171.2 53.3-264.4-24.4-302.8-71.2-11.2-13.8-32.3-13.7-43.2.4-51.6 66.6-191.5 208.2-395.8 116.8-168.3-75.2-193.9-179.2-190.8-244 1-21-20.2-35.3-39.3-26.6-51.8 23.5-135 35.4-214-64.8-109.3-138.4 48.6-257.1 95.9-288.2 7.8-5.1 12.6-13.6 12.7-22.9.9-71.7 13.7-384.4 171.4-560 13.7-15.2 38.8-10.6 46.6 8.3l119.1 288.3c5.5 13.3 20.4 20.3 34.2 15.9l52.5-16.6"/>
  </g>
  <g clip-path="url(#aA)" transform="matrix(.13333 0 0 -.13333 -600.307 4340)">
    <path fill="url(#aB)" d="M16239.3 28825.8s-75.4 299.8-186.8 201.8c-111.5-98.1 30.9-311.9 159.3-352.1l27.5 150.3"/>
  </g>
  <g clip-path="url(#aC)" transform="matrix(.13333 0 0 -.13333 -600.307 4340)">
    <path fill="url(#aD)" d="M15404.1 27554.9s18.8 694.7-266.6 707.1c-354.4 15.4-922.5-244.5-578-1260.5 190.4-561.4 474.9-977.2 1250.8-1149.8 36.1 285.2 164.2 484.5 259.1 597-316.9 220.8-586.3 566-665.3 1106.2"/>
  </g>
  <g clip-path="url(#aE)" transform="matrix(.13333 0 0 -.13333 -600.307 4340)">
    <path fill="url(#aF)" d="M16033.9 26446.6c-5.6-.1-11.2 1.6-16 4.9-365 254.2-568.7 603.6-641.3 1099.4-.2 1.5-.3 3.2-.3 4.8 5 185.6-28.4 669.3-240 678.5-102.3 4.4-209.5-15.4-301.8-55.9-14.1-6.2-30.5.2-36.6 14.2-6.2 14 .2 30.4 14.2 36.6 100 43.9 216 65.2 326.6 60.6 303.1-13.2 294.4-679.6 293.2-733.1 70.5-478.3 266.8-815.1 617.7-1059.5 12.6-8.8 15.7-26.1 6.9-38.7-5.4-7.7-13.9-11.8-22.6-11.8"/>
  </g>
  <g clip-path="url(#aG)" transform="matrix(.13333 0 0 -.13333 -600.307 4340)">
    <path fill="url(#aH)" d="M15563.4 25892.4c-3 0-6.1.5-9.1 1.5-644 218.4-871.4 657.1-1021.1 1098.6-33.9 100-60.2 196.4-78.1 286.5-3 15.1 6.8 29.7 21.8 32.6 15.1 3.1 29.7-6.7 32.7-21.8 17.4-87.7 43.1-181.7 76.2-279.4 145.2-428.1 365.1-853.3 986.3-1063.9 14.6-4.9 22.3-20.7 17.4-35.2-3.9-11.5-14.6-18.8-26.1-18.9"/>
  </g>
  <g clip-path="url(#aI)" transform="matrix(.13333 0 0 -.13333 -600.307 4340)">
    <path fill="url(#aJ)" d="m17417 25789.2-2.7 269.4s-754.9-20.8-1344.9 390.1c-94.9-112.5-223-311.8-259.1-597 392.6-87.3 910.8-112.4 1606.7-62.5"/>
  </g>
  <g clip-path="url(#aK)" transform="matrix(.13333 0 0 -.13333 -600.307 4340)">
    <path fill="url(#aL)" d="M16449.6 25689.9c1.8 0 3.7-.1 5.5-.1l2401.6 15.7c59.4.4 107.2 48.8 106.8 108.2-.4 59.4-49 108.2-108.2 106.8l-2401.6-15.7c-59.4-.3-107.2-48.8-106.8-108.1.4-57.6 45.9-104.3 102.7-106.8"/>
  </g>
  <g clip-path="url(#aM)" transform="matrix(.13333 0 0 -.13333 -600.307 4340)">
    <path fill="url(#aN)" d="m21003.8 27895.2-2000-10.8c-147.6-.8-281.4-86.7-343.6-220.5l-914-1965.6 2485.5 13.4c95.1.5 180.2 59.1 214.7 147.7l707.2 1818.2c40.8 105-37 218.2-149.8 217.6"/>
  </g>
  <path fill="#91b3fa" d="M2013.053 755.693c-5.68 17.987-1.32 35.4 9.747 38.894 11.066 3.493 24.64-8.254 30.32-26.24 5.68-17.987 1.32-35.4-9.747-38.894-11.067-3.493-24.64 8.254-30.32 26.24"/>
</svg>
