<svg xmlns="http://www.w3.org/2000/svg" xml:space="preserve" viewBox="0 0 3708.344 2947.577">
  <defs>
    <linearGradient id="b" x1="0" x2="1" y1="0" y2="0" gradientTransform="matrix(-304.984 6038.62 6038.62 304.984 21111.5 7310)" gradientUnits="userSpaceOnUse" spreadMethod="pad">
      <stop offset="0" stop-color="#09005d"/>
      <stop offset="1" stop-color="#1a0f91"/>
    </linearGradient>
    <linearGradient id="d" x1="0" x2="1" y1="0" y2="0" gradientTransform="matrix(24139 0 0 -24139 8336.73 19965.6)" gradientUnits="userSpaceOnUse" spreadMethod="pad">
      <stop offset="0" stop-color="#09005d"/>
      <stop offset="1" stop-color="#1a0f91"/>
    </linearGradient>
    <linearGradient id="f" x1="0" x2="1" y1="0" y2="0" gradientTransform="scale(-23853.2902 23853.2902) rotate(-85.569 .322 1.196)" gradientUnits="userSpaceOnUse" spreadMethod="pad">
      <stop offset="0" stop-color="#53d8ff"/>
      <stop offset="1" stop-color="#3840f7"/>
    </linearGradient>
    <linearGradient id="h" x1="0" x2="1" y1="0" y2="0" gradientTransform="scale(-6769.48 6769.48) rotate(-65.513 -.46 3.134)" gradientUnits="userSpaceOnUse" spreadMethod="pad">
      <stop offset="0" stop-color="#09005d"/>
      <stop offset="1" stop-color="#1a0f91"/>
    </linearGradient>
    <linearGradient id="j" x1="0" x2="1" y1="0" y2="0" gradientTransform="matrix(22638.1 0 0 -22638.1 9019.39 25320.6)" gradientUnits="userSpaceOnUse" spreadMethod="pad">
      <stop offset="0" stop-color="#4f52ff"/>
      <stop offset="1" stop-color="#4042e2"/>
    </linearGradient>
    <linearGradient id="l" x1="0" x2="1" y1="0" y2="0" gradientTransform="scale(-12821.22 12821.22) rotate(-88.757 .203 1.308)" gradientUnits="userSpaceOnUse" spreadMethod="pad">
      <stop offset="0" stop-color="#09005d"/>
      <stop offset="1" stop-color="#1a0f91"/>
    </linearGradient>
    <linearGradient id="n" x1="0" x2="1" y1="0" y2="0" gradientTransform="scale(-8588.05502 8588.05502) rotate(-88.644 .283 1.94)" gradientUnits="userSpaceOnUse" spreadMethod="pad">
      <stop offset="0" stop-color="#09005d"/>
      <stop offset="1" stop-color="#1a0f91"/>
    </linearGradient>
    <linearGradient id="p" x1="0" x2="1" y1="0" y2="0" gradientTransform="scale(24486.9205 -24486.9205) rotate(-85.358 .314 -.221)" gradientUnits="userSpaceOnUse" spreadMethod="pad">
      <stop offset="0" stop-color="#4f52ff"/>
      <stop offset="1" stop-color="#4042e2"/>
    </linearGradient>
    <linearGradient id="r" x1="0" x2="1" y1="0" y2="0" gradientTransform="matrix(0 -5122.29 -5122.29 0 21596.2 32672.9)" gradientUnits="userSpaceOnUse" spreadMethod="pad">
      <stop offset="0" stop-color="#febbba"/>
      <stop offset="1" stop-color="#ff928e"/>
    </linearGradient>
    <linearGradient id="t" x1="0" x2="1" y1="0" y2="0" gradientTransform="matrix(0 -5122.29 -5122.29 0 9796.79 32672.9)" gradientUnits="userSpaceOnUse" spreadMethod="pad">
      <stop offset="0" stop-color="#febbba"/>
      <stop offset="1" stop-color="#ff928e"/>
    </linearGradient>
    <linearGradient id="v" x1="0" x2="1" y1="0" y2="0" gradientTransform="rotate(-29.717 23486.318 -16807.594) scale(3956.59)" gradientUnits="userSpaceOnUse" spreadMethod="pad">
      <stop offset="0" stop-color="#febbba"/>
      <stop offset="1" stop-color="#ff928e"/>
    </linearGradient>
    <linearGradient id="x" x1="0" x2="1" y1="0" y2="0" gradientTransform="scale(4053.29 -4053.29) rotate(67.551 2.842 1.268)" gradientUnits="userSpaceOnUse" spreadMethod="pad">
      <stop offset="0" stop-color="#4f52ff"/>
      <stop offset="1" stop-color="#4042e2"/>
    </linearGradient>
    <linearGradient id="z" x1="0" x2="1" y1="0" y2="0" gradientTransform="rotate(147.953 4593.048 6158.588) scale(13870.8601)" gradientUnits="userSpaceOnUse" spreadMethod="pad">
      <stop offset="0" stop-color="#febbba"/>
      <stop offset="1" stop-color="#ff928e"/>
    </linearGradient>
    <linearGradient id="B" x1="0" x2="1" y1="0" y2="0" gradientTransform="scale(4052.92 -4052.92) rotate(55.872 3.05 2.1)" gradientUnits="userSpaceOnUse" spreadMethod="pad">
      <stop offset="0" stop-color="#4f52ff"/>
      <stop offset="1" stop-color="#4042e2"/>
    </linearGradient>
    <linearGradient id="D" x1="0" x2="1" y1="0" y2="0" gradientTransform="rotate(-47.62 20796.388 -10641.377) scale(4192.82)" gradientUnits="userSpaceOnUse" spreadMethod="pad">
      <stop offset="0" stop-color="#e1473d"/>
      <stop offset="1" stop-color="#e9605a"/>
    </linearGradient>
    <linearGradient id="F" x1="0" x2="1" y1="0" y2="0" gradientTransform="scale(2281.88 -2281.88) rotate(49.1 11.06 3.78)" gradientUnits="userSpaceOnUse" spreadMethod="pad">
      <stop offset="0" stop-color="#09005d"/>
      <stop offset="1" stop-color="#1a0f91"/>
    </linearGradient>
    <linearGradient id="H" x1="0" x2="1" y1="0" y2="0" gradientTransform="scale(-1597.78802 1597.78802) rotate(-62.354 2.339 15.095)" gradientUnits="userSpaceOnUse" spreadMethod="pad">
      <stop offset="0" stop-color="#ff928e"/>
      <stop offset="1" stop-color="#fe7062"/>
    </linearGradient>
    <linearGradient id="J" x1="0" x2="1" y1="0" y2="0" gradientTransform="matrix(3423 0 0 -3423 17439.3 10563.2)" gradientUnits="userSpaceOnUse" spreadMethod="pad">
      <stop offset="0" stop-color="#febbba"/>
      <stop offset="1" stop-color="#ff928e"/>
    </linearGradient>
    <linearGradient id="L" x1="0" x2="1" y1="0" y2="0" gradientTransform="scale(1235.49623 -1235.49623) rotate(-86.328 1.23 -11.86)" gradientUnits="userSpaceOnUse" spreadMethod="pad">
      <stop offset="0" stop-color="#febbba"/>
      <stop offset="1" stop-color="#ff928e"/>
    </linearGradient>
    <linearGradient id="N" x1="0" x2="1" y1="0" y2="0" gradientTransform="scale(-3216.17 3216.17) rotate(62.412 -5.911 -2.09)" gradientUnits="userSpaceOnUse" spreadMethod="pad">
      <stop offset="0" stop-color="#febbba"/>
      <stop offset="1" stop-color="#ff928e"/>
    </linearGradient>
    <linearGradient id="P" x1="0" x2="1" y1="0" y2="0" gradientTransform="scale(2127.25702 -2127.25702) rotate(11.345 38.522 30.35)" gradientUnits="userSpaceOnUse" spreadMethod="pad">
      <stop offset="0" stop-color="#09005d"/>
      <stop offset="1" stop-color="#1a0f91"/>
    </linearGradient>
    <linearGradient id="R" x1="0" x2="1" y1="0" y2="0" gradientTransform="scale(-3216.14 3216.14) rotate(62.412 -6.01 -2.15)" gradientUnits="userSpaceOnUse" spreadMethod="pad">
      <stop offset="0" stop-color="#febbba"/>
      <stop offset="1" stop-color="#ff928e"/>
    </linearGradient>
    <linearGradient id="T" x1="0" x2="1" y1="0" y2="0" gradientTransform="scale(-1856.749 1856.749) rotate(-18.158 13.213 31.978)" gradientUnits="userSpaceOnUse" spreadMethod="pad">
      <stop offset="0" stop-color="#09005d"/>
      <stop offset="1" stop-color="#1a0f91"/>
    </linearGradient>
    <linearGradient id="V" x1="0" x2="1" y1="0" y2="0" gradientTransform="scale(16162.1004 -16162.1004) rotate(-4.809 -7.633 -9.645)" gradientUnits="userSpaceOnUse" spreadMethod="pad">
      <stop offset="0" stop-color="#09005d"/>
      <stop offset="1" stop-color="#1a0f91"/>
    </linearGradient>
    <linearGradient id="X" x1="0" x2="1" y1="0" y2="0" gradientTransform="scale(-5024.76 5024.76) rotate(-67.891 .652 3.735)" gradientUnits="userSpaceOnUse" spreadMethod="pad">
      <stop offset="0" stop-color="#4f52ff"/>
      <stop offset="1" stop-color="#4042e2"/>
    </linearGradient>
    <linearGradient id="Z" x1="0" x2="1" y1="0" y2="0" gradientTransform="matrix(6081.37 0 0 -6081.37 23093.9 14255.3)" gradientUnits="userSpaceOnUse" spreadMethod="pad">
      <stop offset="0" stop-color="#4f52ff"/>
      <stop offset="1" stop-color="#4042e2"/>
    </linearGradient>
    <linearGradient id="ab" x1="0" x2="1" y1="0" y2="0" gradientTransform="matrix(6449.49 0 0 -6449.49 19324.5 10305.6)" gradientUnits="userSpaceOnUse" spreadMethod="pad">
      <stop offset="0" stop-color="#09005d"/>
      <stop offset="1" stop-color="#1a0f91"/>
    </linearGradient>
    <linearGradient id="ad" x1="0" x2="1" y1="0" y2="0" gradientTransform="matrix(6449.49 0 0 -6449.49 19324.5 10305.6)" gradientUnits="userSpaceOnUse" spreadMethod="pad">
      <stop offset="0" stop-color="#8480ae"/>
      <stop offset="1" stop-color="#8d87c8"/>
    </linearGradient>
    <linearGradient id="af" x1="0" x2="1" y1="0" y2="0" gradientTransform="scale(10315.1664 -10315.1664) rotate(-86.135 .777 -1.418)" gradientUnits="userSpaceOnUse" spreadMethod="pad">
      <stop offset="0" stop-color="#4f52ff"/>
      <stop offset="1" stop-color="#4042e2"/>
    </linearGradient>
    <linearGradient id="ah" x1="0" x2="1" y1="0" y2="0" gradientTransform="scale(10315.1664 -10315.1664) rotate(-86.135 .777 -1.418)" gradientUnits="userSpaceOnUse" spreadMethod="pad">
      <stop offset="0" stop-color="#d1d2ff"/>
      <stop offset="1" stop-color="#cecef7"/>
    </linearGradient>
    <linearGradient id="aj" x1="0" x2="1" y1="0" y2="0" gradientTransform="scale(10315.1664 -10315.1664) rotate(-86.135 .777 -1.418)" gradientUnits="userSpaceOnUse" spreadMethod="pad">
      <stop offset="0" stop-color="#d1d2ff"/>
      <stop offset="1" stop-color="#cecef7"/>
    </linearGradient>
    <linearGradient id="al" x1="0" x2="1" y1="0" y2="0" gradientTransform="scale(10315.1664 -10315.1664) rotate(-86.135 .777 -1.418)" gradientUnits="userSpaceOnUse" spreadMethod="pad">
      <stop offset="0" stop-color="#d1d2ff"/>
      <stop offset="1" stop-color="#cecef7"/>
    </linearGradient>
    <linearGradient id="an" x1="0" x2="1" y1="0" y2="0" gradientTransform="rotate(-90 27721.888 4948.142) scale(5122.3)" gradientUnits="userSpaceOnUse" spreadMethod="pad">
      <stop offset="0" stop-color="#febbba"/>
      <stop offset="1" stop-color="#ff928e"/>
    </linearGradient>
    <clipPath id="a" clipPathUnits="userSpaceOnUse">
      <path d="m18562.8 14165.4-506.5-4542.9h5876.8l-765.5 4542.9h-4604.8"/>
    </clipPath>
    <clipPath id="c" clipPathUnits="userSpaceOnUse">
      <path d="M29851.5 13054.5c-276.6 0-573.2.6-887.7 1.9 50.3 312 90.3 623.7 121.3 933.9l2693.4-45.9h.6c18.1 0 33 14.6 33.3 32.8.4 18.4-14.3 33.6-32.7 34l-2688.1 45.8c10.6 109.7 20 219 28.3 328.3l1573.4-19.4c4.6-.1 9.4-.1 14-.1 503.4-.1 913.6 407.2 915.5 912.4l34.7 10080.8v2.1c.3 363.6-289.7 661.1-653.4 670l-21252.22 429.3c-6.03.2-12.03.3-18.02.3-399.42 0-725.34-324.1-725.34-725.7v-6748.3l-671.79 17.4v6678.7c0 641.9 512.4 1166.1 1154.11 1180.5 408.09 9.1 945.16 13.3 1583.56 13.3 4751 0 15076-230.4 19008.5-340.6 356.7-10 661-19 903.5-26.8 591.5-18.9 1085.1-456.2 1175.9-1040.9 431.5-2776.7 314.9-8757.6 243.1-11244.9-14.7-508.7-345.6-936.7-802.3-1095.3-117.5-40.8-243.4-63.7-374.3-65.7-368.2-5.4-833.2-7.9-1377.3-7.9"/>
    </clipPath>
    <clipPath id="e" clipPathUnits="userSpaceOnUse">
      <path d="M9008.52 25735V15563.2c0-514.2 412.78-933.2 926.94-940.9l20757.84-256.4c509.8-7.6 927.6 402.5 929.5 912.3l34.7 10080.8c1.4 364.5-289 663.2-653.4 672.1l-21252.22 429.3c-407.59 10-743.36-317.7-743.36-725.4"/>
    </clipPath>
    <clipPath id="g" clipPathUnits="userSpaceOnUse">
      <path d="M25199 8693h-8601.1c-233.7 0-409.2 166.3-364 345l110.4 436.5c33.2 131.3 177.6 227.6 349.1 233l8291.7 258.7c179.2 5.6 337.9-89.5 377-225.9L25561 9045c51.7-180.6-124.6-352-362-352"/>
    </clipPath>
    <clipPath id="i" clipPathUnits="userSpaceOnUse">
      <path d="m31653.5 24179.9 4 1181.3c1.4 364.6-289 662.1-653.4 671L9757.31 26461c-407.59 9.9-737.93-318.3-737.93-726v-1555.1z"/>
    </clipPath>
    <clipPath id="k" clipPathUnits="userSpaceOnUse">
      <path d="M19333 8798.9H6093.03c-83.49 52-139.34 144.6-139.34 249.7l-60.13 2543.2-158.45 6701.3c-4.8 202.9 73.9 398.9 217.74 542.3 139.3 138.9 327.86 216.6 524.12 216.6 6.39 0 12.83-.1 19.24-.3l1840.52-47.6 671.79-17.4 13043.28-337.5c12.5.9 24.8 1.3 37 1.3 325.6 0 502.8-299.1 502.8-455l-1-65.6-12.6-868.4c-92.9-618.4-149.7-1290.1-144.7-2001-95.1 5.8-189.7 11.4-284.4 16.8l35.5 2357c-14.3 485.9-429 669.1-696 669.1-7.6 0-15.1-.1-22.4-.4l-14908.62 400c-4.65.1-9.32.2-13.96.2-137.72 0-270.01-54.7-367.78-152.2-101.07-100.8-156.66-238.8-153.08-381.5l221.72-8838.8c0-153.2 125.31-278.5 278.46-278.5H19335.4c-.9-85-1.7-169.2-2.4-253.3"/>
    </clipPath>
    <clipPath id="m" clipPathUnits="userSpaceOnUse">
      <path d="M19327 7995.2H4718.99c-31.09 0-56.53 25.4-56.53 56.5v690.6c0 31.1 25.44 56.6 56.53 56.6H19333c-2.5-274.6-4.6-543.8-6-803.7"/>
    </clipPath>
    <clipPath id="o" clipPathUnits="userSpaceOnUse">
      <path d="m22171.9 16797 12.5 832c-14.7 499.7-452.8 681.9-718.4 671.3l-14908.62 401.3c-142.7 3.9-280.67-50.4-381.75-151.3-101.06-100.8-156.64-243.8-153.07-386.5l34.17-1366.8z"/>
    </clipPath>
    <clipPath id="q" clipPathUnits="userSpaceOnUse">
      <path d="M21503.7 22278.3c-113.9 0-219.9 60.4-278.8 159.8l-988.6 1666.5c-92.5 156-42.6 358.4 111.4 452.1 153.9 93.6 353.8 43.2 446.3-112.8l686.2-1156.9 907.2 1804.7c81.5 162.1 277.4 226.6 437.4 144.1 160.1-82.6 223.8-280.9 142.3-443.1l-1173.5-2334.4c-53.7-106.8-160.3-175.6-278.5-179.8-3.8-.1-7.6-.2-11.4-.2z"/>
    </clipPath>
    <clipPath id="s" clipPathUnits="userSpaceOnUse">
      <path d="M9704.24 12065.5c-113.9 0-219.85 60.4-278.78 159.7l-988.55 1666.6c-92.53 156-42.68 358.3 111.32 452 153.93 93.7 353.79 43.3 446.32-112.7l686.22-1156.9 907.13 1804.6c81.5 162.2 277.4 226.7 437.5 144.1 160.1-82.5 223.8-280.9 142.3-443l-1173.54-2334.5c-53.66-106.7-160.32-175.6-278.48-179.7-3.81-.2-7.63-.2-11.44-.2z"/>
    </clipPath>
    <clipPath id="u" clipPathUnits="userSpaceOnUse">
      <path d="M11943.3 6235.2c4.1 1.6 2183.7 3818.5 2478.2 4177.7 49.5 60.4 126.2 91.2 203.8 81.9l608.4-72.5 714.6-1546.1-1190.6 693.4c117.8-814.8-1411.7-2025.7-1936.3-2467.6-53.2-44.8-57.6-125.1-9.5-175.4l209.4-219.3c-343.8-348.5-740.6-572.3-1188.3-675.8Z"/>
    </clipPath>
    <clipPath id="w" clipPathUnits="userSpaceOnUse">
      <path d="M12900.2 6825.6s133.6-43.1 178.9-162.2c21.6-56.9-1.7-121.4-51.2-156.9-220.1-157.7-946.1-666.8-1281.1-766.5-27.5-8.1-53.6 16.7-47.4 44.7 17.2 77.8 72.8 233.2 251.9 460.7l-16-32.5c-20.4-41.1 24.4-84 64.4-61.4 224.1 126.5 680.5 403.3 900.5 674.1z"/>
    </clipPath>
    <clipPath id="y" clipPathUnits="userSpaceOnUse">
      <path d="M12792.3 5298.4c3.7 2.4 330.7 790.2 334.3 792.5 299.8 1825.5 1031.4 3388.9 1247.1 3800.3 36.3 69.2 105.2 114.8 183 121.5l610.5 52.1L16180 8695.3l-1306.4 438.1c280.3-774.1-972.5-2269.5-1396.8-2808.4-43.1-54.7-31.1-134.2 26.1-173.8l249.5-172.3c-266.2-410.9-609.4-710.3-1027-902.3z"/>
    </clipPath>
    <clipPath id="A" clipPathUnits="userSpaceOnUse">
      <path d="M13609.8 6070.3s139.7-15.3 208.1-122.7c32.7-51.4 22.9-119.3-18.4-164.1-183.7-198.9-791.6-844.4-1099.5-1009.8-25.2-13.6-55.8 5.5-55.4 34.1 1 79.7 24 243.2 153.5 502.2l-9.2-35.1c-11.6-44.4 40.9-77.3 75.5-47.1 193.9 169.3 584.8 532.7 745.4 842.5z"/>
    </clipPath>
    <clipPath id="C" clipPathUnits="userSpaceOnUse">
      <path d="M18024.5 10353.2s552.2-821.4 597.6-1196c45.3-374.7-152.7-504.3-730.7-552-1720-142.2-2567.9 373.3-2567.9 373.3-117.7 750.2-201.4 941-1184.1 1348.9 0 0 1242.9-98.7 1493.1-1.6 250.1 97.1 2392 27.4 2392 27.4z"/>
    </clipPath>
    <clipPath id="E" clipPathUnits="userSpaceOnUse">
      <path d="M15822.5 14955s384.6 455 793.5-103.3c74-101.1 358.5-17.7 462.8-229.4 53.8-109.3 170.1-171.3 289.9-149.2 298.4 55 786.1 59.6 1026.9-407.9 183.8-356.9 41.9-565.8-141.9-684.9-134.9-87.5-183.1-265-101.5-403.6 78.3-132.9 93-312.9-109.1-529.5-452.9-485.4-1349.4 308.1-1349.4 308.1l-711.8 1682z"/>
    </clipPath>
    <clipPath id="G" clipPathUnits="userSpaceOnUse">
      <path d="M16531.1 10461.9s-643.1 612.4-959.6 1017.9c-171.1 219.3-224.8 507.9-145.7 774.5 144.5 486.9 401.3 991.1 424.8 1069.6 35.9 120.3 756.9 115.3 756.9 115.3s1418.9-920.8 1976.3-2480.7l-626-194.9s-370.5 621.5-736.5 1016.7c0 0 633.3-836.7 655.6-1179.3z"/>
    </clipPath>
    <clipPath id="I" clipPathUnits="userSpaceOnUse">
      <path d="m15305.9 10220.3 483.2 525.7 558-150.2s650.6-100.8 1022.9 0l372.4 100.8 841.4 261.9 132.2-373.5c33.6-94.8-.2-200.1-82.2-258.3-72.7-51.8-158.1-108.6-212.5-132.4-110.8-48.5-2552.6-15.3-2552.6-15.3z"/>
    </clipPath>
    <clipPath id="K" clipPathUnits="userSpaceOnUse">
      <path d="m16112 14306.2 484.6-901.2c-32-196.7-527.5-202.2-604-84.8-7.8 12-12.3 25.8-15.2 39.8l-289.9 602.1c-12.5 58.7 148.5 256.5 201.5 284.7l192.6 102.6c74.2 39.4-235.3 42.6 30.4-43.2z"/>
    </clipPath>
    <clipPath id="M" clipPathUnits="userSpaceOnUse">
      <path d="M15131.2 14517.7s-54.7-304.5 184.6-691.6 477.6-369.6 598.6-231.6c121.1 138.1 266.1 368 200.1 754.1-66 386.1-900.7 557.3-983.3 169.1z"/>
    </clipPath>
    <clipPath id="O" clipPathUnits="userSpaceOnUse">
      <path d="M15824.8 14306.6s-387.4 509-684.9 65.3l5-153.2s-386.9 18-344.9 374.6c41.9 356.6 357.8 600.1 795.6 478.3 437.9-121.8 693.7-260.5 743.1-564.5 49.5-304-198.7-254.4-198.7-254.4s-94.9 209.8-209.3 224.1c-114.5 14.3-73.2-151.6-73.2-151.6z"/>
    </clipPath>
    <clipPath id="Q" clipPathUnits="userSpaceOnUse">
      <path d="M15913.8 14320.2s-200.8 260.5-18.1 314.5c182.8 54.1 175.9-255.2 164-370.2z"/>
    </clipPath>
    <clipPath id="S" clipPathUnits="userSpaceOnUse">
      <path d="M16905.3 10012.2c-1.7-.1-3.4-.1-5.1-.1l-2222.5 2.4c-54.9.1-99.4 44.7-99.4 99.6.1 55 44.8 100.4 99.6 99.4l2222.5-2.4c55-.1 99.5-44.7 99.4-99.6-.1-53.2-41.9-96.7-94.5-99.3z"/>
    </clipPath>
    <clipPath id="U" clipPathUnits="userSpaceOnUse">
      <path d="M12679.8 12030.1h1850.9c136.5 0 260.8-78.8 319.1-202.3l855.6-1814.4h-2300.2c-87.9 0-167 53.8-199.4 135.6l-663.5 1679c-38.3 97 33.2 202.1 137.5 202.1z"/>
    </clipPath>
    <clipPath id="W" clipPathUnits="userSpaceOnUse">
      <path d="M13983.8 11099.8c40.1-124.6 10.4-245.6-66.2-270.3-76.7-24.7-171.3 56.3-211.4 181-40.2 124.6-10.5 245.6 66.1 270.3 76.7 24.6 171.4-56.4 211.5-181z"/>
    </clipPath>
    <clipPath id="Y" clipPathUnits="userSpaceOnUse">
      <path d="M25748.1 6799.1c1.3 93.6 2.7 190.8 4 291 49.5-54.2 99.7-108.3 150.6-162.4-51.5-44-103-86.8-154.6-128.6m937.2 911.7c494.3 1440.3 1003.7 4141.1-511.1 7175.2-309.5 619.9-578.5 1188.4-812.4 1708.2 19.8 533 83.3 1033.6 180.2 1502.1 556.4 2689.8 2214.1 4321.9 3030.1 4983.6 31.4 25.5 68.5 36.7 104.8 36.7 89.9 0 174.4-68.8 153.2-159.3-221.6-943.4 91.5-2738.6 255.7-4901.3 74.3-978.6 118.1-2032 68-3116.1-8.5-183.9-19.7-369.1-33.9-554.6-8.3-109.3-17.7-218.6-28.3-328.3-2.1-22.3-4.3-44.4-6.5-66.7-31-310.2-71-621.9-121.3-933.9-267.9-1658.9-829.6-3328.6-1899.8-4855.9-121.1-172.8-247.9-336-378.7-489.7"/>
    </clipPath>
    <clipPath id="aa" clipPathUnits="userSpaceOnUse">
      <path d="M23672.3 5277c-267.3 0-545 1.6-824.4 4.4-1310.8 12.8-2662.1 51-3184.3 71-177.4 6.8-319.6 173.4-325.2 380.9-14.4 537.1-16.6 1342.6-11.4 2261.9 1.4 259.9 3.5 529.1 6 803.7.7 84.1 1.5 168.3 2.4 253.3 1.2 119.8 2.5 240.9 3.8 362.1 9.8 871.1 23.3 1770.8 37.2 2596.1 3.2 189.7 6.5 375.8 9.7 556.3 17.1 965.5 33.8 1781.4 43.9 2254.9 5.5 262 180.7 476.2 404.3 493.2 176.9 13.4 394.4 19.4 640 19.4 369.2 0 801.9-13.5 1256-35.1 50.6-2.4 101.4-4.9 152.4-7.5 27.1-1.4 54.3-2.8 81.5-4.3 61.3-3.2 123-6.6 184.7-10 94.7-5.4 189.3-11 284.4-16.8 1157.5-71.3 2315.9-177 2825.9-236.7 221.6-26 395.8-232.7 414.5-492.4 128.9-1786.4 106.9-5314.7 78.4-7441.3-1.3-100.2-2.7-197.4-4-291-2.4-168.9-4.9-326.7-7.2-471.3-2.3-137.8-4.4-263.6-6.4-375.9-6.2-349.9-243.9-633.1-542.8-647.7-398.5-19.6-934.2-27.2-1519.4-27.2m-3033.9 9480.4c-180.3 0-338-3.7-465.4-11.8-191.3-12.2-343.4-191.8-351.6-415.7-47.2-1293.3-196.2-5596-148.9-7187.1 6.9-232.5 163.6-420.6 362.1-434.2 577.4-39.5 2138.4-112.7 3428-112.7 536.5 0 1025.8 12.7 1378.1 45.7 215.9 20.2 385.4 224.5 397.1 477.6 60.7 1319.5 235.2 5325.9 189.9 6899.1-7.2 251-173.4 455.9-387.2 478.4-773.9 81.3-3140 260.7-4402.1 260.7m1169.6 372.4c-46.7 0-91.8-.8-134.3-2.6-42.4-1.8-75.7-42.8-75.7-92.4 0-49.2 32.8-89.7 74.7-92.3 207.3-12.7 790.9-48.6 1051.8-66.3 1.6-.1 3.2-.2 4.7-.2 49.2 0 86.8 52.6 77.4 110l-1.7 10.1c-6.7 40.3-35.3 70.7-70.3 74.5-155.1 16.6-585.3 59.2-926.6 59.2"/>
    </clipPath>
    <clipPath id="ac" clipPathUnits="userSpaceOnUse">
      <path d="M22729.2 14876c-1.5 0-3.1.1-4.7.2-260.9 17.7-844.5 53.6-1051.8 66.3-41.9 2.6-74.7 43.1-74.7 92.3 0 49.6 33.3 90.6 75.7 92.4 42.5 1.8 87.6 2.6 134.3 2.6 341.3 0 771.5-42.6 926.6-59.2 35-3.8 63.6-34.2 70.3-74.5l1.7-10.1c9.4-57.4-28.2-110-77.4-110"/>
    </clipPath>
    <clipPath id="ae" clipPathUnits="userSpaceOnUse">
      <path d="m25434.8 13528.8-5637.1 127.7c11.1 312.9 16.4 471 23.7 671.6 8.2 223.9 160.3 404.9 351.6 417.1 127.2 8.1 284.5 11.8 464.5 11.8 1261.9 0 3628.9-179.8 4403-261.1 213.8-22.5 380-228.3 387.2-479.2 4.1-143.2 6.4-314.1 7.1-487.9m-4143.2 639.7c-86.4 0-156.5-70-156.5-156.4s70.1-156.5 156.5-156.5 156.4 70.1 156.4 156.5-70 156.4-156.4 156.4m-486.8 29c-86.4 0-156.4-70-156.4-156.4 0-86.5 70-156.5 156.4-156.5s156.5 70 156.5 156.5c0 86.4-70.1 156.4-156.5 156.4m-521.5 15.1c-86.4 0-156.5-70.1-156.5-156.5s70.1-156.4 156.5-156.4 156.4 70 156.4 156.4-70 156.5-156.4 156.5"/>
    </clipPath>
    <clipPath id="ag" clipPathUnits="userSpaceOnUse">
      <path d="M20283.3 13899.7c-86.4 0-156.5 70-156.5 156.4s70.1 156.5 156.5 156.5 156.4-70.1 156.4-156.5-70-156.4-156.4-156.4"/>
    </clipPath>
    <clipPath id="ai" clipPathUnits="userSpaceOnUse">
      <path d="M20804.8 13884.6c-86.4 0-156.4 70-156.4 156.5 0 86.4 70 156.4 156.4 156.4s156.5-70 156.5-156.4c0-86.5-70.1-156.5-156.5-156.5"/>
    </clipPath>
    <clipPath id="ak" clipPathUnits="userSpaceOnUse">
      <path d="M21291.6 13855.6c-86.4 0-156.5 70.1-156.5 156.5s70.1 156.4 156.5 156.4 156.4-70 156.4-156.4-70-156.5-156.4-156.5"/>
    </clipPath>
    <clipPath id="am" clipPathUnits="userSpaceOnUse">
      <path d="M22703.1 9961c-88.1 0-170.1 46.8-215.7 123.6l-764.9 1289.6c-71.6 120.7-33 277.3 86.1 349.8s273.8 33.5 345.4-87.2l531-895.2 702 1396.4c63 125.5 214.6 175.4 338.5 111.5 123.8-63.8 173.2-217.3 110.1-342.8l-908.1-1806.4c-41.5-82.6-124.1-135.9-215.5-139.1-3-.1-5.9-.2-8.9-.2z"/>
    </clipPath>
  </defs>
  <g clip-path="url(#a)" transform="matrix(.13333 0 0 -.13333 -621.646 3583.457)">
    <path fill="url(#b)" d="m18562.8 14165.4-506.5-4542.9h5876.8l-765.5 4542.9h-4604.8"/>
  </g>
  <g clip-path="url(#c)" transform="matrix(.13333 0 0 -.13333 -621.646 3583.457)">
    <path fill="url(#d)" d="M29851.5 13054.5c-276.6 0-573.2.6-887.7 1.9 50.3 312 90.3 623.7 121.3 933.9l2693.4-45.9h.6c18.1 0 33 14.6 33.3 32.8.4 18.4-14.3 33.6-32.7 34l-2688.1 45.8c10.6 109.7 20 219 28.3 328.3l1573.4-19.4c4.6-.1 9.4-.1 14-.1 503.4-.1 913.6 407.2 915.5 912.4l34.7 10080.8v2.1c.3 363.6-289.7 661.1-653.4 670l-21252.22 429.3c-6.03.2-12.03.3-18.02.3-399.42 0-725.34-324.1-725.34-725.7v-6748.3l-671.79 17.4v6678.7c0 641.9 512.4 1166.1 1154.11 1180.5 408.09 9.1 945.16 13.3 1583.56 13.3 4751 0 15076-230.4 19008.5-340.6 356.7-10 661-19 903.5-26.8 591.5-18.9 1085.1-456.2 1175.9-1040.9 431.5-2776.7 314.9-8757.6 243.1-11244.9-14.7-508.7-345.6-936.7-802.3-1095.3-117.5-40.8-243.4-63.7-374.3-65.7-368.2-5.4-833.2-7.9-1377.3-7.9"/>
  </g>
  <g clip-path="url(#e)" transform="matrix(.13333 0 0 -.13333 -621.646 3583.457)">
    <path fill="url(#f)" d="M9008.52 25735V15563.2c0-514.2 412.78-933.2 926.94-940.9l20757.84-256.4c509.8-7.6 927.6 402.5 929.5 912.3l34.7 10080.8c1.4 364.5-289 663.2-653.4 672.1l-21252.22 429.3c-407.59 10-743.36-317.7-743.36-725.4"/>
  </g>
  <path fill="#7d97f4" d="M3615.567 1724.203h-.08l-3036.07-51.733a4.448 4.448 0 0 1-4.374-4.52 4.446 4.446 0 0 1 4.524-4.373l3036.08 51.72c2.454.053 4.414 2.08 4.36 4.533a4.45 4.45 0 0 1-4.44 4.373"/>
  <g clip-path="url(#g)" transform="matrix(.13333 0 0 -.13333 -621.646 3583.457)">
    <path fill="url(#h)" d="M25199 8693h-8601.1c-233.7 0-409.2 166.3-364 345l110.4 436.5c33.2 131.3 177.6 227.6 349.1 233l8291.7 258.7c179.2 5.6 337.9-89.5 377-225.9L25561 9045c51.7-180.6-124.6-352-362-352"/>
  </g>
  <path fill="#91b3fa" d="M579.49 152.123v1356.24c0 68.56 55.037 124.427 123.592 125.454l2767.712 34.186c67.973 1.014 123.68-53.666 123.933-121.64l4.627-1344.106c.187-48.6-38.533-88.427-87.12-89.614l-2833.63-57.24c-54.345-1.333-99.114 42.36-99.114 96.72"/>
  <g clip-path="url(#i)" transform="matrix(.13333 0 0 -.13333 -621.646 3583.457)">
    <path fill="url(#j)" d="m31653.5 24179.9 4 1181.3c1.4 364.6-289 662.1-653.4 671L9757.31 26461c-407.59 9.9-737.93-318.3-737.93-726v-1555.1H31653.5"/>
  </g>
  <path fill="#91b3fa" d="M794.181 239.83c0 17.92-14.534 32.44-32.454 32.44s-32.44-14.52-32.44-32.44c0-17.92 14.52-32.453 32.44-32.453 17.92 0 32.454 14.533 32.454 32.453m112.4 0c0 17.92-14.52 32.44-32.44 32.44-17.92 0-32.44-14.52-32.44-32.44 0-17.92 14.52-32.453 32.44-32.453 17.92 0 32.44 14.533 32.44 32.453m108.946 0c0 17.92-14.52 32.44-32.44 32.44-17.92 0-32.453-14.52-32.453-32.44 0-17.92 14.533-32.453 32.453-32.453s32.44 14.533 32.44 32.453"/>
  <path fill="#bdd0fb" d="m3430.674 1593.843-2660.427-38.346c-40.44-.587-72.91-33.534-72.91-73.974v-266.266c0-37.627 30.737-68.014 68.364-67.587l2666.68 30.32c30.613.347 55.253 25.267 55.253 55.893v303.827c0 31.32-25.64 56.587-56.96 56.133m-957.8-479.453-1700.653-24.467c-41.534-.6-74.884-34.426-74.884-75.96v-526.48c0-29.733 24.097-53.84 53.83-53.84h1710.387c34.147 0 61.813 27.68 61.813 61.814v569.16c0 27.773-22.72 50.173-50.493 49.773m958.587.733h-810.215c-28.613 0-51.813-23.2-51.813-51.813V498.19c0-35.653 28.893-64.547 64.547-64.547h814.706c21.507 0 38.947 17.44 38.947 38.947v586.36c0 31.027-25.147 56.173-56.173 56.173"/>
  <g clip-path="url(#k)" transform="matrix(.13333 0 0 -.13333 -621.646 3583.457)">
    <path fill="url(#l)" d="M19333 8798.9H6093.03c-83.49 52-139.34 144.6-139.34 249.7l-60.13 2543.2-158.45 6701.3c-4.8 202.9 73.9 398.9 217.74 542.3 139.3 138.9 327.86 216.6 524.12 216.6 6.39 0 12.83-.1 19.24-.3l1840.52-47.6 671.79-17.4 13043.28-337.5c12.5.9 24.8 1.3 37 1.3 325.6 0 502.8-299.1 502.8-455l-1-65.6-12.6-868.4c-92.9-618.4-149.7-1290.1-144.7-2001-95.1 5.8-189.7 11.4-284.4 16.8l35.5 2357c-14.3 485.9-429 669.1-696 669.1-7.6 0-15.1-.1-22.4-.4l-14908.62 400c-4.65.1-9.32.2-13.96.2-137.72 0-270.01-54.7-367.78-152.2-101.07-100.8-156.66-238.8-153.08-381.5l221.72-8838.8c0-153.2 125.31-278.5 278.46-278.5H19335.4c-.9-85-1.7-169.2-2.4-253.3"/>
  </g>
  <path fill="#91b3fa" d="M210.925 2339.363c0 20.427 16.708 37.134 37.128 37.134h2034.421c20.427 0 37.133-16.707 37.133-37.134l16.667-1107.146c-1.96-66.627-60.373-90.574-95.787-89.16l-1987.815-53.334a69.465 69.465 0 0 0-50.9 20.267c-13.475 13.44-20.887 31.84-20.41 50.867l29.563 1178.506"/>
  <g clip-path="url(#m)" transform="matrix(.13333 0 0 -.13333 -621.646 3583.457)">
    <path fill="url(#n)" d="M19327 7995.2H4718.99c-31.09 0-56.53 25.4-56.53 56.5v690.6c0 31.1 25.44 56.6 56.53 56.6H19333c-2.5-274.6-4.6-543.8-6-803.7"/>
  </g>
  <g clip-path="url(#o)" transform="matrix(.13333 0 0 -.13333 -621.646 3583.457)">
    <path fill="url(#p)" d="m22171.9 16797 12.5 832c-14.7 499.7-452.8 681.9-718.4 671.3l-14908.62 401.3c-142.7 3.9-280.67-50.4-381.75-151.3-101.06-100.8-156.64-243.8-153.07-386.5l34.17-1366.8H22171.9"/>
  </g>
  <path fill="#fff" d="M2297.621 1813.39h-.08c-3-.04-5.4-2.507-5.36-5.52l1.32-89.787a5.438 5.438 0 0 1 5.44-5.36h.053a5.443 5.443 0 0 1 5.387 5.52l-1.32 89.787a5.438 5.438 0 0 1-5.44 5.36"/>
  <path fill="#bdd0fb" d="M2300.861 1593.363h-.094c-3-.04-5.4-2.52-5.36-5.52l5.054-343.893c-.094-20.427-6.294-36.733-18.427-48.36-22.653-21.707-58.627-20.6-60.133-20.533l-635.36-17.027a5.428 5.428 0 0 1-5.28-5.587c.066-3.013 2.373-5.56 5.573-5.293l634.973 17.04c3.96-.24 42.254-.893 67.747 23.533 14.347 13.747 21.68 32.694 21.787 56.28l-5.054 344a5.435 5.435 0 0 1-5.426 5.36m-864.947 314.534H321.666c-27.71 0-50.173-22.467-50.173-50.174v-409.6c0-27.72 22.463-50.173 50.173-50.173h1114.248c27.707 0 50.173 22.453 50.173 50.173v409.6c0 27.707-22.466 50.174-50.173 50.174"/>
  <path fill="#bdd0fb" d="M2239.781 1907.897h-654.387c-19.853 0-35.947-16.094-35.947-35.947v-438.053c0-19.854 16.094-35.947 35.947-35.947h654.387c19.853 0 35.946 16.093 35.946 35.947v438.053c0 19.853-16.093 35.947-35.946 35.947m-8.227 420.32H315.676c-24.402 0-44.183-19.787-44.183-44.187v-257.787c0-24.4 19.78-44.173 44.183-44.173h1915.88c24.4 0 44.172 19.773 44.172 44.173v257.787c0 24.4-19.773 44.187-44.173 44.187"/>
  <path fill="#91b3fa" d="M312.7 1213.27c0 14.107-11.43 25.533-25.528 25.533-14.1 0-25.528-11.426-25.528-25.533 0-14.093 11.43-25.52 25.528-25.52 14.098 0 25.527 11.427 25.527 25.52m85.092 2.467c0 14.093-11.429 25.533-25.526 25.533-14.1 0-25.528-11.44-25.528-25.533 0-14.094 11.428-25.534 25.528-25.534 14.097 0 25.526 11.44 25.526 25.534m79.42 4.733c0 14.093-11.429 25.52-25.528 25.52-14.098 0-25.526-11.427-25.526-25.52 0-14.107 11.428-25.533 25.526-25.533 14.1 0 25.528 11.426 25.528 25.533"/>
  <path fill="#fff" d="M2608.207 421.817c0 195.973-156.866 354.84-350.36 354.84-193.493 0-350.346-158.867-350.346-354.84 0-195.974 156.853-354.84 350.346-354.84 193.494 0 350.36 158.866 350.36 354.84"/>
  <g clip-path="url(#q)" transform="matrix(.13333 0 0 -.13333 -621.646 3583.457)">
    <path fill="url(#r)" d="M21503.7 22278.3c-113.9 0-219.9 60.4-278.8 159.8l-988.6 1666.5c-92.5 156-42.6 358.4 111.4 452.1 153.9 93.6 353.8 43.2 446.3-112.8l686.2-1156.9 907.2 1804.7c81.5 162.1 277.4 226.6 437.4 144.1 160.1-82.6 223.8-280.9 142.3-443.1l-1173.5-2334.4c-53.7-106.8-160.3-175.6-278.5-179.8-3.8-.1-7.6-.2-11.4-.2"/>
  </g>
  <path fill="#fff" d="M1034.954 1783.523c0 195.974-156.867 354.84-350.36 354.84-193.499 0-350.357-158.866-350.357-354.84 0-195.973 156.858-354.84 350.356-354.84 193.494 0 350.361 158.867 350.361 354.84"/>
  <g clip-path="url(#s)" transform="matrix(.13333 0 0 -.13333 -621.646 3583.457)">
    <path fill="url(#t)" d="M9704.24 12065.5c-113.9 0-219.85 60.4-278.78 159.7l-988.55 1666.6c-92.53 156-42.68 358.3 111.32 452 153.93 93.7 353.79 43.3 446.32-112.7l686.22-1156.9 907.13 1804.6c81.5 162.2 277.4 226.7 437.5 144.1 160.1-82.5 223.8-280.9 142.3-443l-1173.54-2334.5c-53.66-106.7-160.32-175.6-278.48-179.7-3.81-.2-7.63-.2-11.44-.2"/>
  </g>
  <g clip-path="url(#u)" transform="matrix(.13333 0 0 -.13333 -621.646 3583.457)">
    <path fill="url(#v)" d="M11943.3 6235.2c4.1 1.6 2183.7 3818.5 2478.2 4177.7 49.5 60.4 126.2 91.2 203.8 81.9l608.4-72.5 714.6-1546.1-1190.6 693.4c117.8-814.8-1411.7-2025.7-1936.3-2467.6-53.2-44.8-57.6-125.1-9.5-175.4l209.4-219.3c-343.8-348.5-740.6-572.3-1188.3-675.8l110.3 203.7"/>
  </g>
  <g clip-path="url(#w)" transform="matrix(.13333 0 0 -.13333 -621.646 3583.457)">
    <path fill="url(#x)" d="M12900.2 6825.6s133.6-43.1 178.9-162.2c21.6-56.9-1.7-121.4-51.2-156.9-220.1-157.7-946.1-666.8-1281.1-766.5-27.5-8.1-53.6 16.7-47.4 44.7 17.2 77.8 72.8 233.2 251.9 460.7l-16-32.5c-20.4-41.1 24.4-84 64.4-61.4 224.1 126.5 680.5 403.3 900.5 674.1"/>
  </g>
  <g clip-path="url(#y)" transform="matrix(.13333 0 0 -.13333 -621.646 3583.457)">
    <path fill="url(#z)" d="M12792.3 5298.4c3.7 2.4 330.7 790.2 334.3 792.5 299.8 1825.5 1031.4 3388.9 1247.1 3800.3 36.3 69.2 105.2 114.8 183 121.5l610.5 52.1L16180 8695.3l-1306.4 438.1c280.3-774.1-972.5-2269.5-1396.8-2808.4-43.1-54.7-31.1-134.2 26.1-173.8l249.5-172.3c-266.2-410.9-609.4-710.3-1027-902.3l66.9 221.8"/>
  </g>
  <g clip-path="url(#A)" transform="matrix(.13333 0 0 -.13333 -621.646 3583.457)">
    <path fill="url(#B)" d="M13609.8 6070.3s139.7-15.3 208.1-122.7c32.7-51.4 22.9-119.3-18.4-164.1-183.7-198.9-791.6-844.4-1099.5-1009.8-25.2-13.6-55.8 5.5-55.4 34.1 1 79.7 24 243.2 153.5 502.2l-9.2-35.1c-11.6-44.4 40.9-77.3 75.5-47.1 193.9 169.3 584.8 532.7 745.4 842.5"/>
  </g>
  <g clip-path="url(#C)" transform="matrix(.13333 0 0 -.13333 -621.646 3583.457)">
    <path fill="url(#D)" d="M18024.5 10353.2s552.2-821.4 597.6-1196c45.3-374.7-152.7-504.3-730.7-552-1720-142.2-2567.9 373.3-2567.9 373.3-117.7 750.2-201.4 941-1184.1 1348.9 0 0 1242.9-98.7 1493.1-1.6 250.1 97.1 2392 27.4 2392 27.4"/>
  </g>
  <g clip-path="url(#E)" transform="matrix(.13333 0 0 -.13333 -621.646 3583.457)">
    <path fill="url(#F)" d="M15822.5 14955s384.6 455 793.5-103.3c74-101.1 358.5-17.7 462.8-229.4 53.8-109.3 170.1-171.3 289.9-149.2 298.4 55 786.1 59.6 1026.9-407.9 183.8-356.9 41.9-565.8-141.9-684.9-134.9-87.5-183.1-265-101.5-403.6 78.3-132.9 93-312.9-109.1-529.5-452.9-485.4-1349.4 308.1-1349.4 308.1l-711.8 1682-159.4 517.7"/>
  </g>
  <g clip-path="url(#G)" transform="matrix(.13333 0 0 -.13333 -621.646 3583.457)">
    <path fill="url(#H)" d="M16531.1 10461.9s-643.1 612.4-959.6 1017.9c-171.1 219.3-224.8 507.9-145.7 774.5 144.5 486.9 401.3 991.1 424.8 1069.6 35.9 120.3 756.9 115.3 756.9 115.3s1418.9-920.8 1976.3-2480.7l-626-194.9s-370.5 621.5-736.5 1016.7c0 0 633.3-836.7 655.6-1179.3l-1345.8-139.1"/>
  </g>
  <g clip-path="url(#I)" transform="matrix(.13333 0 0 -.13333 -621.646 3583.457)">
    <path fill="url(#J)" d="m15305.9 10220.3 483.2 525.7 558-150.2s650.6-100.8 1022.9 0l372.4 100.8 841.4 261.9 132.2-373.5c33.6-94.8-.2-200.1-82.2-258.3-72.7-51.8-158.1-108.6-212.5-132.4-110.8-48.5-2552.6-15.3-2552.6-15.3l-562.8 41.3"/>
  </g>
  <g clip-path="url(#K)" transform="matrix(.13333 0 0 -.13333 -621.646 3583.457)">
    <path fill="url(#L)" d="m16112 14306.2 484.6-901.2c-32-196.7-527.5-202.2-604-84.8-7.8 12-12.3 25.8-15.2 39.8l-289.9 602.1c-12.5 58.7 148.5 256.5 201.5 284.7l192.6 102.6c74.2 39.4-235.3 42.6 30.4-43.2"/>
  </g>
  <g clip-path="url(#M)" transform="matrix(.13333 0 0 -.13333 -621.646 3583.457)">
    <path fill="url(#N)" d="M15131.2 14517.7s-54.7-304.5 184.6-691.6 477.6-369.6 598.6-231.6c121.1 138.1 266.1 368 200.1 754.1-66 386.1-900.7 557.3-983.3 169.1"/>
  </g>
  <g clip-path="url(#O)" transform="matrix(.13333 0 0 -.13333 -621.646 3583.457)">
    <path fill="url(#P)" d="M15824.8 14306.6s-387.4 509-684.9 65.3l5-153.2s-386.9 18-344.9 374.6c41.9 356.6 357.8 600.1 795.6 478.3 437.9-121.8 693.7-260.5 743.1-564.5 49.5-304-198.7-254.4-198.7-254.4s-94.9 209.8-209.3 224.1c-114.5 14.3-73.2-151.6-73.2-151.6l-32.7-18.6"/>
  </g>
  <g clip-path="url(#Q)" transform="matrix(.13333 0 0 -.13333 -621.646 3583.457)">
    <path fill="url(#R)" d="M15913.8 14320.2s-200.8 260.5-18.1 314.5c182.8 54.1 175.9-255.2 164-370.2l-145.9 55.7"/>
  </g>
  <g clip-path="url(#S)" transform="matrix(.13333 0 0 -.13333 -621.646 3583.457)">
    <path fill="url(#T)" d="M16905.3 10012.2c-1.7-.1-3.4-.1-5.1-.1l-2222.5 2.4c-54.9.1-99.4 44.7-99.4 99.6.1 55 44.8 100.4 99.6 99.4l2222.5-2.4c55-.1 99.5-44.7 99.4-99.6-.1-53.2-41.9-96.7-94.5-99.3"/>
  </g>
  <g clip-path="url(#U)" transform="matrix(.13333 0 0 -.13333 -621.646 3583.457)">
    <path fill="url(#V)" d="M12679.8 12030.1h1850.9c136.5 0 260.8-78.8 319.1-202.3l855.6-1814.4h-2300.2c-87.9 0-167 53.8-199.4 135.6l-663.5 1679c-38.3 97 33.2 202.1 137.5 202.1"/>
  </g>
  <g clip-path="url(#W)" transform="matrix(.13333 0 0 -.13333 -621.646 3583.457)">
    <path fill="url(#X)" d="M13983.8 11099.8c40.1-124.6 10.4-245.6-66.2-270.3-76.7-24.7-171.3 56.3-211.4 181-40.2 124.6-10.5 245.6 66.1 270.3 76.7 24.6 171.4-56.4 211.5-181"/>
  </g>
  <g clip-path="url(#Y)" transform="matrix(.13333 0 0 -.13333 -621.646 3583.457)">
    <path fill="url(#Z)" d="M25748.1 6799.1c1.3 93.6 2.7 190.8 4 291 49.5-54.2 99.7-108.3 150.6-162.4-51.5-44-103-86.8-154.6-128.6m937.2 911.7c494.3 1440.3 1003.7 4141.1-511.1 7175.2-309.5 619.9-578.5 1188.4-812.4 1708.2 19.8 533 83.3 1033.6 180.2 1502.1 556.4 2689.8 2214.1 4321.9 3030.1 4983.6 31.4 25.5 68.5 36.7 104.8 36.7 89.9 0 174.4-68.8 153.2-159.3-221.6-943.4 91.5-2738.6 255.7-4901.3 74.3-978.6 118.1-2032 68-3116.1-8.5-183.9-19.7-369.1-33.9-554.6-8.3-109.3-17.7-218.6-28.3-328.3-2.1-22.3-4.3-44.4-6.5-66.7-31-310.2-71-621.9-121.3-933.9-267.9-1658.9-829.6-3328.6-1899.8-4855.9-121.1-172.8-247.9-336-378.7-489.7"/>
  </g>
  <path fill="#7d97f4" d="M3109.741 768.577c-18.507 87.706-35.014 175.693-47.76 264.066-13.28 88.307-23.467 176.92-30.44 265.68-6.56 88.774-11.214 177.64-11.467 266.547-.733 88.893 2.96 177.72 7.04 266.893 3.493 89.147 7.6 178.934 1.067 269.347-6.414 90.24-25.414 181.267-63.107 266.587-9.413 21.266-19.32 42.466-30.573 62.96-10.827 20.666-22.707 40.933-35.014 61.013-24.826 40.04-52.786 78.747-83.946 115.467-62.52 73.333-137.947 138.386-221.027 193.44-8.747 5.8-21.28 4.373-27.987-3.187-6.586-7.413-5.12-17.973 3.214-23.84l.066-.04c19.774-13.88 39.32-27.947 58.094-42.72 9.52-7.253 18.653-14.853 27.946-22.307 8.947-7.746 18.254-15.2 26.92-23.186 35.28-31.4 67.96-64.894 97.614-100.32 59.64-70.52 107.386-149.094 143.56-230.547 17.56-40.92 31.6-82.893 41.853-125.64 10.213-42.76 16.627-86.267 20.187-130.133 7.106-87.76 3.893-176.654 1.146-265.814-2.613-89.173-4.533-178.813-2.186-268.373a3245.703 3245.703 0 0 1 5.906-134.24c1.294-22.347 3.094-44.68 4.84-67.013 2.014-22.32 4.147-44.627 6.507-66.907 9.6-89.133 22.36-177.96 38.333-266.32 16.48-88.293 35.667-176.173 58.734-263.28.653-2.48 3.533-4.04 6.413-3.467 2.8.547 4.573 2.92 4.067 5.334"/>
  <path fill="#7d97f4" d="M2833.327 2661.123c19.56 20.747 53.96 14.774 65.72-11.2 64.934-143.346 211.867-565.226-30.8-1051.266-204.92-410.44-277.026-652.467-302.146-764.614-5.307-23.706-37.814-26.853-47.614-4.626-108.226 245.293-393.973 1079.653 314.84 1831.706"/>
  <path fill="#91b3fa" d="M2868.847 2645.99c.707.12 1.414.187 2.147.173 6.147-.093 11.067-5.16 10.973-11.306-.12-6.974-13.68-703.72-272.826-1287.267-2.494-5.627-9.067-8.16-14.694-5.667-5.613 2.507-8.146 9.08-5.653 14.707 257.253 579.307 270.787 1271.653 270.893 1278.573a11.154 11.154 0 0 0 9.16 10.787"/>
  <g clip-path="url(#aa)" transform="matrix(.13333 0 0 -.13333 -621.646 3583.457)">
    <path fill="url(#ab)" d="M23672.3 5277c-267.3 0-545 1.6-824.4 4.4-1310.8 12.8-2662.1 51-3184.3 71-177.4 6.8-319.6 173.4-325.2 380.9-14.4 537.1-16.6 1342.6-11.4 2261.9 1.4 259.9 3.5 529.1 6 803.7.7 84.1 1.5 168.3 2.4 253.3 1.2 119.8 2.5 240.9 3.8 362.1 9.8 871.1 23.3 1770.8 37.2 2596.1 3.2 189.7 6.5 375.8 9.7 556.3 17.1 965.5 33.8 1781.4 43.9 2254.9 5.5 262 180.7 476.2 404.3 493.2 176.9 13.4 394.4 19.4 640 19.4 369.2 0 801.9-13.5 1256-35.1 50.6-2.4 101.4-4.9 152.4-7.5 27.1-1.4 54.3-2.8 81.5-4.3 61.3-3.2 123-6.6 184.7-10 94.7-5.4 189.3-11 284.4-16.8 1157.5-71.3 2315.9-177 2825.9-236.7 221.6-26 395.8-232.7 414.5-492.4 128.9-1786.4 106.9-5314.7 78.4-7441.3-1.3-100.2-2.7-197.4-4-291-2.4-168.9-4.9-326.7-7.2-471.3-2.3-137.8-4.4-263.6-6.4-375.9-6.2-349.9-243.9-633.1-542.8-647.7-398.5-19.6-934.2-27.2-1519.4-27.2m-3033.9 9480.4c-180.3 0-338-3.7-465.4-11.8-191.3-12.2-343.4-191.8-351.6-415.7-47.2-1293.3-196.2-5596-148.9-7187.1 6.9-232.5 163.6-420.6 362.1-434.2 577.4-39.5 2138.4-112.7 3428-112.7 536.5 0 1025.8 12.7 1378.1 45.7 215.9 20.2 385.4 224.5 397.1 477.6 60.7 1319.5 235.2 5325.9 189.9 6899.1-7.2 251-173.4 455.9-387.2 478.4-773.9 81.3-3140 260.7-4402.1 260.7m1169.6 372.4c-46.7 0-91.8-.8-134.3-2.6-42.4-1.8-75.7-42.8-75.7-92.4 0-49.2 32.8-89.7 74.7-92.3 207.3-12.7 790.9-48.6 1051.8-66.3 1.6-.1 3.2-.2 4.7-.2 49.2 0 86.8 52.6 77.4 110l-1.7 10.1c-6.7 40.3-35.3 70.7-70.3 74.5-155.1 16.6-585.3 59.2-926.6 59.2"/>
  </g>
  <path fill="#91b3fa" d="M2021.207 1672.803c-6.293 172.44-26.16 746.134-19.853 958.28.92 31 21.813 56.08 48.28 57.894 109.013 7.453 480.933 23.906 640.813 8.933 28.787-2.693 51.387-29.933 52.947-63.68 8.093-175.933 31.36-710.12 25.32-919.88-.96-33.467-23.12-60.787-51.627-63.787-117.933-12.386-513.133-41.853-649-33.186-25.506 1.626-45.786 25.573-46.88 55.426"/>
  <g clip-path="url(#ac)" transform="matrix(.13333 0 0 -.13333 -621.646 3583.457)">
    <path fill="url(#ad)" d="M22729.2 14876c-1.5 0-3.1.1-4.7.2-260.9 17.7-844.5 53.6-1051.8 66.3-41.9 2.6-74.7 43.1-74.7 92.3 0 49.6 33.3 90.6 75.7 92.4 42.5 1.8 87.6 2.6 134.3 2.6 341.3 0 771.5-42.6 926.6-59.2 35-3.8 63.6-34.2 70.3-74.5l1.7-10.1c9.4-57.4-28.2-110-77.4-110"/>
  </g>
  <g clip-path="url(#ae)" transform="matrix(.13333 0 0 -.13333 -621.646 3583.457)">
    <path fill="url(#af)" d="m25434.8 13528.8-5637.1 127.7c11.1 312.9 16.4 471 23.7 671.6 8.2 223.9 160.3 404.9 351.6 417.1 127.2 8.1 284.5 11.8 464.5 11.8 1261.9 0 3628.9-179.8 4403-261.1 213.8-22.5 380-228.3 387.2-479.2 4.1-143.2 6.4-314.1 7.1-487.9m-4143.2 639.7c-86.4 0-156.5-70-156.5-156.4s70.1-156.5 156.5-156.5 156.4 70.1 156.4 156.5-70 156.4-156.4 156.4m-486.8 29c-86.4 0-156.4-70-156.4-156.4 0-86.5 70-156.5 156.4-156.5s156.5 70 156.5 156.5c0 86.4-70.1 156.4-156.5 156.4m-521.5 15.1c-86.4 0-156.5-70.1-156.5-156.5s70.1-156.4 156.5-156.4 156.4 70 156.4 156.4-70 156.5-156.4 156.5"/>
  </g>
  <path fill="#bfd3fc" d="M2388.514 2147.163h-307.36c-18.173 0-32.907-15.173-32.907-33.88V1843.39c0-16.853 13.28-30.453 29.547-30.453.24 0 .48.013.733.013l310.214 7.64c17.066.413 30.68 14.773 30.68 32.36v262.387c0 17.573-13.84 31.826-30.907 31.826m333.027 0h-262.987c-6.613 0-11.987-5.373-11.987-11.986v-304.48c0-5.174 4.2-9.36 9.36-9.36h266.24c5.2 0 9.414 4.213 9.414 9.413v306.36c0 5.547-4.494 10.053-10.04 10.053m.4 264.48h-674.055c-5.893 0-10.68-4.786-10.68-10.68V2198.55c0-4.773 3.88-8.653 8.667-8.653h675.64c5.56 0 10.067 4.506 10.067 10.066v202.027c0 5.333-4.32 9.653-9.64 9.653m-61.466 250.334h-.853l-591.067-8.24c-17.52-.254-31.573-13.027-31.573-28.707v-143.08c0-13.8 12.506-24.987 27.933-24.987h621.787c14.746 0 26.72 10.68 26.76 23.867l.386 133.24c.08 26.48-23.893 47.907-53.373 47.907"/>
  <g clip-path="url(#ag)" transform="matrix(.13333 0 0 -.13333 -621.646 3583.457)">
    <path fill="url(#ah)" d="M20283.3 13899.7c-86.4 0-156.5 70-156.5 156.4s70.1 156.5 156.5 156.5 156.4-70.1 156.4-156.5-70-156.4-156.4-156.4"/>
  </g>
  <g clip-path="url(#ai)" transform="matrix(.13333 0 0 -.13333 -621.646 3583.457)">
    <path fill="url(#aj)" d="M20804.8 13884.6c-86.4 0-156.4 70-156.4 156.5 0 86.4 70 156.4 156.4 156.4s156.5-70 156.5-156.4c0-86.5-70.1-156.5-156.5-156.5"/>
  </g>
  <g clip-path="url(#ak)" transform="matrix(.13333 0 0 -.13333 -621.646 3583.457)">
    <path fill="url(#al)" d="M21291.6 13855.6c-86.4 0-156.5 70.1-156.5 156.5s70.1 156.4 156.5 156.4 156.4-70 156.4-156.4-70-156.5-156.4-156.5"/>
  </g>
  <path fill="#fff" d="M2686.101 2107.363c0 151.654-121.387 274.587-271.107 274.587-149.733 0-271.12-122.933-271.12-274.587 0-151.64 121.387-274.573 271.12-274.573 149.72 0 271.107 122.933 271.107 274.573"/>
  <g clip-path="url(#am)" transform="matrix(.13333 0 0 -.13333 -621.646 3583.457)">
    <path fill="url(#an)" d="M22703.1 9961c-88.1 0-170.1 46.8-215.7 123.6l-764.9 1289.6c-71.6 120.7-33 277.3 86.1 349.8s273.8 33.5 345.4-87.2l531-895.2 702 1396.4c63 125.5 214.6 175.4 338.5 111.5 123.8-63.8 173.2-217.3 110.1-342.8l-908.1-1806.4c-41.5-82.6-124.1-135.9-215.5-139.1-3-.1-5.9-.2-8.9-.2"/>
  </g>
</svg>
