<svg xmlns="http://www.w3.org/2000/svg" xml:space="preserve" viewBox="0 0 3828.16 3820.222">
  <defs>
    <clipPath id="a" clipPathUnits="userSpaceOnUse">
      <path d="M17354.6 3898.3c-583.4 0-1183.1 40.9-1798.7 130.9C12772 4436.3 10609.2 5711 9238.41 6759.7c3118.39-34.4 6716.59-38.7 8338.09-38.7h238.8c376.6.1 689.2 233.9 719.7 539.7 55.1 553 59.9 1397 36.6 2328.9h10230.6c-431.4-527.6-892.1-1024.3-1380.4-1484.3-626.6-590.3-4589.6-4207-10067.2-4207m14063 10042.2 150.9 10422.2c0 244-277.1 712-786.7 712-19 0-38.3-.6-57.9-2l-4679.5 121.1c-377.3 2457.5-2368 4460-4969.5 4754.9-217.9 24.7-434.6 36.8-648.9 36.8-2676.7 0-5004.2-1881.6-5540.3-4503l-4732.9 122.5c-311 927-472.7 2014.4-548.78 3064.2 3035.08 2452.9 6933.08 3559.5 10550.98 3559.5 1243.4 0 2453.6-130.7 3584.6-382.2 1578.1-351.1 4753.4-1057.3 6934-3808.6 2873.2-3625.1 2807.2-9271.9 744-14097.4M4381.02 15161c-248.22 1844.4-130.9 3773.4 317.02 5619.3 170.45-584.5 382.18-1134.5 621.1-1649.6l83.22-3519.8c-54.88.2-107.65.4-158.7.5h-3.61c-381.07 0-710.31-183.2-859.03-450.4"/>
    </clipPath>
    <clipPath id="c" clipPathUnits="userSpaceOnUse">
      <path d="M30900.7 9589.6H18571.6c-3.8 153.3-8.4 308.7-13.7 465.9h11742.2c239.6 0 435.7 196 435.7 435.7l195.6 12993.4c-22.4 760.3-671.2 1047.1-1089.1 1047.1-11.9 0-23.5-.3-35-.7l-3705.5 99.4c-9.7 190.1-28.9 377.9-57.4 563.4l4679.5-121.1c19.6 1.4 38.9 2 57.9 2 509.6 0 786.7-468 786.7-712l-150.9-10422.2-56.3-3890.8c0-253-207.3-460.1-460.6-460.1M5860.18 15609c-164.09.8-317.12 1.4-457.82 1.9l-83.22 3519.8-104.72 4428.5-15.07 637.5-7.54 318.8c-7.51 317.5 115.64 624.2 340.72 848.6 158.25 157.7 357.15 265 571.8 312 51.24 11.2 103.37 19 156.07 23.2 30.58 2.4 61.36 3.6 92.25 3.6 10.03 0 20.07-.1 30.12-.4l2007.86-51.9 97.24-2.5 1664.93-43.1 4732.9-122.5c-33.4-163.4-59.9-329.9-79.1-498.8-1.9-16.8-3.7-33.3-5.4-50.1l-8323.4 223.3c-7.29.2-14.59.3-21.87.3-215.48 0-422.55-85.5-575.48-238.1-158.09-157.8-244.44-373.7-238.84-597l218.57-8713.1"/>
    </clipPath>
    <clipPath id="e" clipPathUnits="userSpaceOnUse">
      <path d="M4376 8401.5h28374.9c36.6 0 66.5 29.9 66.5 66.4v1124.7c0 36.5-29.9 66.4-66.5 66.4H4376c-36.57 0-66.48-29.9-66.48-66.4V8467.9c0-36.5 29.91-66.4 66.48-66.4z"/>
    </clipPath>
    <clipPath id="g" clipPathUnits="userSpaceOnUse">
      <path d="M17576.5 6721c-1621.5 0-5219.7 4.3-8338.09 38.7-1821.64 20.1-3479.51 50.4-4483.48 96.2-297.98 13.5-533.38 213.1-538.31 456.3-24.29 1202.7-58.8 5610.6 81.56 7574.3 6.99 97.7 35.96 190.3 82.84 274.5 148.72 267.2 477.96 450.4 859.03 450.4h3.61c51.05-.1 103.82-.3 158.7-.5 140.7-.5 293.73-1.1 457.82-1.9 2802.96-13 8833.32-71 11708.72-326.5 372.5-33.1 664.8-277.7 696.1-582 83.4-813.7 232.3-2828.1 292.9-4645 5.3-157.2 9.9-312.6 13.7-465.9 23.3-931.9 18.5-1775.9-36.6-2328.9-30.5-305.8-343.1-539.6-719.7-539.7h-238.8m538.4 4623.4c-73 0-134.4-49.3-131.2-111.8 18.3-357.9 54-1158.5 66.6-1442.7 2.5-57.6 59.9-103.6 130.5-105 1.1 0 2.2-.1 3.3-.1 69.8 0 127.9 44 131.5 101.1 30.8 482.5-30 1212.8-52.3 1454.9-4.4 48.1-47.3 88.2-105.2 98.5l-14.4 2.5c-9.7 1.7-19.4 2.6-28.8 2.6"/>
    </clipPath>
    <clipPath id="i" clipPathUnits="userSpaceOnUse">
      <path d="M18184.1 9684.8c-1.1 0-2.2.1-3.3.1-70.6 1.4-128 47.4-130.5 105-12.6 284.2-48.3 1084.8-66.6 1442.7-3.2 62.5 58.2 111.8 131.2 111.8 9.4 0 19.1-.9 28.8-2.6l14.4-2.5c57.9-10.3 100.8-50.4 105.2-98.5 22.3-242.1 83.1-972.4 52.3-1454.9-3.6-57.1-61.7-101.1-131.5-101.1"/>
    </clipPath>
    <clipPath id="k" clipPathUnits="userSpaceOnUse">
      <path d="M16282.6 15928.3c-35.2-1665.5-149.7-7410.2-95.1-9445.9 5.8-215.7 153.6-388.8 338-395.8 911.7-35 4254.3-123.4 5745.7-50.2 310.6 15.2 557.6 309.6 564.1 673.2 31 1748.1 99.3 6664.8-63.2 8917.1-19.5 269.9-200.5 484.8-430.9 511.8-992.9 116.2-4349.9 400.2-5638.3 302.4-232.4-17.6-414.5-240.3-420.3-512.6z"/>
    </clipPath>
    <clipPath id="m" clipPathUnits="userSpaceOnUse">
      <path d="M11406.1 9916.2c-91.5-6-176.7 36.6-224.1 112.7l-796.1 1278.4c-74.6 119.8-34.4 283.9 89.7 366.5 124.1 82.5 285.1 52.4 359.6-67.4l552.1-887.4 728.5 1483.7c65.4 133.2 222.4 194.2 350.7 136.5 128.3-57.7 179.3-212.4 114-345.5l-941.4-1918.9c-43.1-87.8-128.8-148.3-223.8-157.8-3-.3-6.1-.6-9.2-.8z"/>
    </clipPath>
    <clipPath id="o" clipPathUnits="userSpaceOnUse">
      <path d="M8208.06 21019.6c-101.95-6.6-196.81 40.8-249.58 125.6l-886.33 1423.2c-83.06 133.4-38.31 316.1 99.92 408 138.11 91.9 317.35 58.3 400.31-75l614.68-987.9 811.06 1651.8c72.78 148.2 247.66 216.2 390.49 151.9 142.81-64.2 199.63-236.4 126.94-384.6l-1048.11-2136.3c-48-97.9-143.41-165.2-249.14-175.8l-10.24-.9z"/>
    </clipPath>
    <clipPath id="q" clipPathUnits="userSpaceOnUse">
      <path d="M19438.1 10363.6c-83.3-5.5-160.9 33.3-204 102.6l-724.4 1163.2c-67.9 109-31.3 258.3 81.7 333.4 112.8 75.1 259.3 47.7 327.1-61.3l502.4-807.4 662.9 1350c59.5 121.2 202.4 176.8 319.1 124.2 116.8-52.5 163.2-193.2 103.8-314.3l-856.6-1746.1c-39.3-79.9-117.2-134.9-203.7-143.6-2.7-.3-5.5-.5-8.3-.7z"/>
    </clipPath>
    <clipPath id="s" clipPathUnits="userSpaceOnUse">
      <path d="M26315.5 20114.9c1732.9-51 2141.5-456.9 2141.5-456.9l-971.9-1209.4s-1683.1 223.5-2786.9 1291.4c253.7 218.1 441.2 469.7 565.6 667.9 297.1-164.6 647.5-281 1051.7-293z"/>
    </clipPath>
    <clipPath id="u" clipPathUnits="userSpaceOnUse">
      <path d="M24698.2 19740c-145.5 140.8-280.9 296.2-401.1 467.7 178.1 164.2 346 340 502 526.1 136.8-117.6 291.7-230 464.7-325.9-124.4-198.2-311.9-449.8-565.6-667.9"/>
    </clipPath>
    <clipPath id="w" clipPathUnits="userSpaceOnUse">
      <path d="M20453 18892.4c-207.2 0-416.6 11.7-627.4 35.5-3007.6 341-5170.8 3042.8-4831.7 6034.6 315.4 2782.2 2683.5 4835.4 5432.6 4835.4 207.1 0 416.6-11.6 627.3-35.5 3007.6-341 5170.9-3042.7 4831.7-6034.6-315.4-2782.2-2683.5-4835.5-5432.5-4835.4m-171.8 10184.9c-2448.3 0-4557.4-1828.6-4838.3-4306.5-302.1-2664.6 1624.5-5070.8 4303.2-5374.5 187.7-21.2 374.2-31.6 558.7-31.6 2448.3-.1 4557.4 1828.6 4838.3 4306.5 302.1 2664.6-1624.5 5070.8-4303.2 5374.5-187.7 21.2-374.2 31.6-558.7 31.6m5206.1-4364.9h-1.5c-19.1-1.3-33.5-17.8-32.2-36.8 13.9-209.1 14.5-421.8 1.8-632.1-1.2-19 13.4-35.4 32.4-36.6h2.1c18.2 0 33.4 14.1 34.5 32.5 12.9 213.2 12.3 428.8-1.8 640.8-1.2 18.5-17.1 32.2-35.3 32.2m-5060.2 4631.7c191.9 0 384.5-10.9 575.6-32.6 1896-214.9 3486.3-1455.3 4150.2-3237.1 5.2-14 18.4-22.5 32.4-22.5 4.1 0 8.1.7 12.1 2.1 17.9 6.7 27 26.6 20.4 44.6-323 866.7-878.1 1630.3-1605.4 2208.2-747.5 594-1647.2 965.2-2601.9 1073.4-193.8 22-389.1 33.1-583.8 33.1-113.2 0-226.2-3.8-338.5-11.3-19.1-1.2-33.5-17.7-32.2-36.8 1.2-18.5 17.3-32.2 35.3-32.2h1.5c110.9 7.4 222.5 11.1 334.3 11.1"/>
    </clipPath>
    <clipPath id="y" clipPathUnits="userSpaceOnUse">
      <path d="M25489.9 24006.9h-2.1c-19 1.2-33.6 17.6-32.4 36.6 12.7 210.3 12.1 423-1.8 632.1-1.3 19 13.1 35.5 32.2 36.8h1.5c18.2 0 34.1-13.7 35.3-32.2 14.1-212 14.7-427.6 1.8-640.8-1.1-18.4-16.3-32.5-34.5-32.5"/>
    </clipPath>
    <clipPath id="z" clipPathUnits="userSpaceOnUse">
      <path d="M25452.3 24006.9h85v705.504h-85z"/>
    </clipPath>
    <clipPath id="B" clipPathUnits="userSpaceOnUse">
      <path d="M25185.3 26051.9c-14 0-27.2 8.5-32.4 22.5-663.9 1781.8-2254.2 3022.2-4150.2 3237.1-191.1 21.7-383.7 32.6-575.6 32.6-111.8 0-223.4-3.7-334.3-11.1h-1.5c-18 0-34.1 13.7-35.3 32.2-1.3 19.1 13.1 35.6 32.2 36.8 112.3 7.5 225.3 11.3 338.5 11.3 194.7 0 390-11.1 583.8-33.1 954.7-108.2 1854.4-479.4 2601.9-1073.4 727.3-577.9 1282.4-1341.5 1605.4-2208.2 6.6-18-2.5-37.9-20.4-44.6-4-1.4-8-2.1-12.1-2.1"/>
    </clipPath>
    <clipPath id="D" clipPathUnits="userSpaceOnUse">
      <path d="M20304.8 19364.7c-184.5 0-371 10.4-558.7 31.6-2678.7 303.7-4605.3 2709.9-4303.2 5374.5 280.9 2477.9 2390 4306.5 4838.3 4306.5 184.5 0 371-10.4 558.7-31.6 2678.7-303.7 4605.3-2709.9 4303.2-5374.5-280.9-2477.9-2390-4306.6-4838.3-4306.5"/>
    </clipPath>
    <clipPath id="H" clipPathUnits="userSpaceOnUse">
      <path d="M29052.3 7446.9s134.9-190.6 194.3-740.4c5.6-51.2-32.9-97.1-84.4-99.7l-977.1-49.5c-39.3-2-69.3 35.1-58.6 73 48.6 172.4 200.8 594.3 575.1 850z"/>
    </clipPath>
    <clipPath id="J" clipPathUnits="userSpaceOnUse">
      <path d="m29184.8 7745.8-107-454.9c-9.2-39.2-44-67.6-84.3-67.7-53.9-.1-131.6 4.3-205.4 25.2-67 18.9-109.3 85.3-101.4 154.5l50.1 445.2z"/>
    </clipPath>
    <clipPath id="L" clipPathUnits="userSpaceOnUse">
      <path d="M26820.8 7413.1s197.3-284.4 207.2-683.8c2.4-94.1-73.8-171.8-167.8-175.1l-1518.7-52.9c-71.1-2.5-103.1 87.9-46.4 130.8 280.4 211.8 832 608.5 1235.4 770.9z"/>
    </clipPath>
    <clipPath id="N" clipPathUnits="userSpaceOnUse">
      <path d="m26858.6 7897.9-38.9-583.8c-4.3-65.3-60.6-116.5-125.8-111.1-39.6 3.3-87.3 13.5-140 37.2-50 22.5-80.9 74.1-78.8 128.9l26.4 704.4z"/>
    </clipPath>
    <clipPath id="P" clipPathUnits="userSpaceOnUse">
      <path d="M29882 15598.6s367.3-405.6 395.3-846.8c27.9-441.2-1059-7439-1059-7439s-415.5-21.9-611.3 129.2c0 0 265.1 4591.2 194.5 5666.9 0 0-1526.9-4614.6-1898.6-5437.6 0 0-398.3-3.5-516.5 85.5 0 0 951.2 6097.8 1401.1 7150.2z"/>
    </clipPath>
    <clipPath id="R" clipPathUnits="userSpaceOnUse">
      <path d="M28835 13240.7c23.9 0 46.5 14.5 55.5 38.1l239.9 623.3 380.4 187.6c29.5 14.6 41.6 50.2 27.1 79.7-14.6 29.4-50.2 41.5-79.7 27l-401.3-197.9c-13.4-6.6-23.8-18-29.2-32l-248.2-644.9c-11.8-30.7 3.5-65.1 34.2-76.9 7-2.7 14.2-4 21.3-4z"/>
    </clipPath>
    <clipPath id="T" clipPathUnits="userSpaceOnUse">
      <path d="M25665.2 19423.5c677.8 583.1 1862.2 747.6 2542.4 793.3 298 20 567.5-174.9 639.6-464.7 209-840.2 788.3-3029.9 905.7-3408.2 96.4-310.4 199.3-614.6 265-804.9 39.2-113.7-20.2-237.7-133.8-277.5-591.2-207-1634.7-399.1-2057.3-472.3-92.9-16.1-174.9 61.6-164.3 155.3 8.9 79.5-3.9 160-37.1 232.7l-1258.2 2756.5c-1086.4-961.9-1943.1-964.4-2566.3-656.8 147.3 325.3 256.9 655.4 329.4 990.4 978.3 56.2 1534.9 1156.2 1534.9 1156.2z"/>
    </clipPath>
    <clipPath id="V" clipPathUnits="userSpaceOnUse">
      <path d="m22564.3 18625.8 199.2 211.4c517.3-448.3 975.7-592.4 1366.8-569.9-72.5-335-182.1-665.1-329.4-990.4-821 405.2-1236.6 1348.9-1236.6 1348.9z"/>
    </clipPath>
    <clipPath id="X" clipPathUnits="userSpaceOnUse">
      <path d="m22827.8 18671.9-957-223.3-983.3 324.8c112.1 104.4 864.2 79.9 864.2 79.9s731.3 259.1 935.2 298.6c169.3 32.9 192-215.3 194.8-300.3.6-17.4.3-27.9.3-27.9z"/>
    </clipPath>
    <clipPath id="Z" clipPathUnits="userSpaceOnUse">
      <path d="m27425.7 21516.2 373.1-1314.3s-637.7-342.8-1109.2-250.2l-129.6 1158.6z"/>
    </clipPath>
    <clipPath id="ab" clipPathUnits="userSpaceOnUse">
      <path d="M26652.5 22470.7c-13.6-15.4-521.2-1277.6-521.2-1277.6l726.9-274.5 658.8 1124.9s-635.5 684.6-864.5 427.2z"/>
    </clipPath>
    <clipPath id="ad" clipPathUnits="userSpaceOnUse">
      <path d="m27214.9 21895.3-300.4-619.3c-3.9-7.9-8.6-15.1-14.5-21.7-35.8-40.5-169.4-170.5-294.1-25.8-113.1 131.4-218.3 249.6-324.3 280.8-47.6 14-97.9-10.3-116.4-56.3-46.1-114.7-145.2-375.1-196.7-614.4-10.5-48.6 18.4-96.8 65.9-111.5 143-44.2 447.3-129.1 708-140 35.4-1.5 68.6 16.1 86.8 46.4 88.9 147.7 360.6 595.8 455.7 708.9 89.2 106.2 275.7 81.9 353.4 66.1 25.4-5.1 51.6.3 72.9 15.1 75.4 52.4 223.2 191.2 60.3 395.6-34.1 42.8-26 104.7 17.8 137.5 87.2 65.3 186.3 187.3 73.4 365.2-114.9 180.8-294.1 174.3-406.6 147.1-45.5-11.1-91 12.8-110.2 55.4-11 24.3-32.6 44.2-73.9 45.3-55.6 1.4-96.7 52.6-89.5 107.8 13.9 106-9 244.4-186.8 322.5-315.4 138.6-554.9-154.2-601.6-387.6-46.8-233.4 303.7-364.2 517.6-372.2 162.6-6.1 264.3-179.4 303.8-262.2 12.4-26.2 12.1-56.6-.6-82.7z"/>
    </clipPath>
    <clipPath id="af" clipPathUnits="userSpaceOnUse">
      <path d="M27173.2 21118s98.9 403.2 271.4 404c172.5.9 322.3-157.6 127.2-368.2-242.6-261.9-398.6-35.8-398.6-35.8z"/>
    </clipPath>
    <clipPath id="F" clipPathUnits="userSpaceOnUse">
      <path d="M22253.1 13128.5v211.3c-220.3 8.8-438.3 60.8-593.1 128.6-55.2 24.2-83.4 86.2-67.5 144.4l53.7 196.9c19.7 72.2 98.2 109.6 167.2 80.6 153.6-64.3 343.2-115.3 547.6-115.3 212.2 0 370.5 72 370.5 219.5 0 133-122.3 212.2-417.3 291.3-420.8 115.1-722.9 298.5-722.9 669 0 334.5 244.6 589.9 669 658.2v211.4c0 68 55.1 123.2 123.1 123.2h124.2c68 0 123.2-55.2 123.2-123.2v-189.8c203.8-8.1 352.2-43 470-84.4 60.4-21.2 93.3-86.2 76.6-147.9l-49.4-182.1c-19-70.2-94.1-108.6-162.1-82.9-108.4 41-261.7 83.7-461 83.7-251.8 0-323.7-104.3-323.7-197.8 0-115.1 151-194.3 478.3-295 467.6-140.3 661.9-334.5 661.9-683.4 0-320.1-237.4-607.9-697.8-679.8v-236.5c0-68-55.2-123.2-123.2-123.2h-124.2c-68 0-123.1 55.2-123.1 123.2z"/>
    </clipPath>
    <linearGradient id="b" x1="0" x2="1" y1="0" y2="0" gradientTransform="matrix(17509.4 -25365.2 -25044.9 -17899.4 5246.03 38179.3)" gradientUnits="userSpaceOnUse" spreadMethod="pad">
      <stop offset="0" stop-color="#dae3fe"/>
      <stop offset="1" stop-color="#e9effd"/>
    </linearGradient>
    <linearGradient id="d" x1="0" x2="1" y1="0" y2="0" gradientTransform="rotate(108.435 6502.512 12817.322) scale(18601.57)" gradientUnits="userSpaceOnUse" spreadMethod="pad">
      <stop offset="0" stop-color="#09005d"/>
      <stop offset="1" stop-color="#1a0f91"/>
    </linearGradient>
    <linearGradient id="f" x1="0" x2="1" y1="0" y2="0" gradientTransform="matrix(497.6 2875.02 2875.02 -497.6 18491 8611.8)" gradientUnits="userSpaceOnUse" spreadMethod="pad">
      <stop offset="0" stop-color="#09005d"/>
      <stop offset="1" stop-color="#1a0f91"/>
    </linearGradient>
    <linearGradient id="h" x1="0" x2="1" y1="0" y2="0" gradientTransform="matrix(176.105 8834.89 -9266.81 184.446 11323.9 6705.9)" gradientUnits="userSpaceOnUse" spreadMethod="pad">
      <stop offset="0" stop-color="#09005d"/>
      <stop offset="1" stop-color="#1a0f91"/>
    </linearGradient>
    <linearGradient id="j" x1="0" x2="1" y1="0" y2="0" gradientTransform="matrix(176.105 8834.89 -9266.81 184.446 11323.9 6705.9)" gradientUnits="userSpaceOnUse" spreadMethod="pad">
      <stop offset="0" stop-color="#8480ae"/>
      <stop offset="1" stop-color="#8d87c8"/>
    </linearGradient>
    <linearGradient id="l" x1="0" x2="1" y1="0" y2="0" gradientTransform="matrix(6703.28 0 0 -6703.28 16173 11234.6)" gradientUnits="userSpaceOnUse" spreadMethod="pad">
      <stop offset="0" stop-color="#09005d"/>
      <stop offset="1" stop-color="#1a0f91"/>
    </linearGradient>
    <linearGradient id="n" x1="0" x2="1" y1="0" y2="0" gradientTransform="scale(-6776.93 6776.93) rotate(-64.612 .882 2.77)" gradientUnits="userSpaceOnUse" spreadMethod="pad">
      <stop offset="0" stop-color="#ff928e"/>
      <stop offset="1" stop-color="#fe7062"/>
    </linearGradient>
    <linearGradient id="p" x1="0" x2="1" y1="0" y2="0" gradientTransform="scale(-7544.91 7544.91) rotate(-64.612 2.225 2.96)" gradientUnits="userSpaceOnUse" spreadMethod="pad">
      <stop offset="0" stop-color="#ff928e"/>
      <stop offset="1" stop-color="#fe7062"/>
    </linearGradient>
    <linearGradient id="r" x1="0" x2="1" y1="0" y2="0" gradientTransform="scale(-6166.45 6166.45) rotate(-64.612 .32 4.04)" gradientUnits="userSpaceOnUse" spreadMethod="pad">
      <stop offset="0" stop-color="#ff928e"/>
      <stop offset="1" stop-color="#fe7062"/>
    </linearGradient>
    <linearGradient id="t" x1="0" x2="1" y1="0" y2="0" gradientTransform="rotate(-86.179 26303.146 -1699.747) scale(5190.856)" gradientUnits="userSpaceOnUse" spreadMethod="pad">
      <stop offset="0" stop-color="#e1473d"/>
      <stop offset="1" stop-color="#e9605a"/>
    </linearGradient>
    <linearGradient id="v" x1="0" x2="1" y1="0" y2="0" gradientTransform="rotate(173.569 12082.925 11335.777) scale(1687.498)" gradientUnits="userSpaceOnUse" spreadMethod="pad">
      <stop offset="0" stop-color="#febbba"/>
      <stop offset="1" stop-color="#ff928e"/>
    </linearGradient>
    <linearGradient id="x" x1="0" x2="1" y1="0" y2="0" gradientTransform="scale(-12935.1 12935.1) rotate(-69.821 .863 2.51)" gradientUnits="userSpaceOnUse" spreadMethod="pad">
      <stop offset="0" stop-color="#ff928e"/>
      <stop offset="1" stop-color="#fe7062"/>
    </linearGradient>
    <linearGradient id="A" x1="0" x2="1" y1="0" y2="0" gradientTransform="scale(-12935.1 12935.1) rotate(-69.821 .863 2.51)" gradientUnits="userSpaceOnUse" spreadMethod="pad">
      <stop offset="0" stop-color="#ffdad8"/>
      <stop offset="1" stop-color="#ffcec9"/>
    </linearGradient>
    <linearGradient id="C" x1="0" x2="1" y1="0" y2="0" gradientTransform="scale(-12935.1 12935.1) rotate(-69.821 .863 2.51)" gradientUnits="userSpaceOnUse" spreadMethod="pad">
      <stop offset="0" stop-color="#ffdad8"/>
      <stop offset="1" stop-color="#ffcec9"/>
    </linearGradient>
    <linearGradient id="E" x1="0" x2="1" y1="0" y2="0" gradientTransform="scale(-12935.1 12935.1) rotate(-69.821 .863 2.51)" gradientUnits="userSpaceOnUse" spreadMethod="pad">
      <stop offset="0" stop-color="#ffb3b0"/>
      <stop offset="1" stop-color="#fe9b91"/>
    </linearGradient>
    <linearGradient id="I" x1="0" x2="1" y1="0" y2="0" gradientTransform="rotate(-177.094 14703.977 3158.58) scale(1125.7879)" gradientUnits="userSpaceOnUse" spreadMethod="pad">
      <stop offset="0" stop-color="#09005d"/>
      <stop offset="1" stop-color="#1a0f91"/>
    </linearGradient>
    <linearGradient id="K" x1="0" x2="1" y1="0" y2="0" gradientTransform="matrix(-453.719 51.1387 -51.1387 -453.719 29157 7499.7)" gradientUnits="userSpaceOnUse" spreadMethod="pad">
      <stop offset="0" stop-color="#febbba"/>
      <stop offset="1" stop-color="#ff928e"/>
    </linearGradient>
    <linearGradient id="M" x1="0" x2="1" y1="0" y2="0" gradientTransform="rotate(-178 13570.456 3259.13) scale(1766.416)" gradientUnits="userSpaceOnUse" spreadMethod="pad">
      <stop offset="0" stop-color="#09005d"/>
      <stop offset="1" stop-color="#1a0f91"/>
    </linearGradient>
    <linearGradient id="O" x1="0" x2="1" y1="0" y2="0" gradientTransform="rotate(-172.172 13707.378 2918.655) scale(454.0823)" gradientUnits="userSpaceOnUse" spreadMethod="pad">
      <stop offset="0" stop-color="#febbba"/>
      <stop offset="1" stop-color="#ff928e"/>
    </linearGradient>
    <linearGradient id="Q" x1="0" x2="1" y1="0" y2="0" gradientTransform="rotate(173.569 14636.936 6543.471) scale(3095.798)" gradientUnits="userSpaceOnUse" spreadMethod="pad">
      <stop offset="0" stop-color="#4f52ff"/>
      <stop offset="1" stop-color="#4042e2"/>
    </linearGradient>
    <linearGradient id="S" x1="0" x2="1" y1="0" y2="0" gradientTransform="scale(-6905.6 6905.6) rotate(-87.847 -.316 3.98)" gradientUnits="userSpaceOnUse" spreadMethod="pad">
      <stop offset="0" stop-color="#4f52ff"/>
      <stop offset="1" stop-color="#4042e2"/>
    </linearGradient>
    <linearGradient id="U" x1="0" x2="1" y1="0" y2="0" gradientTransform="scale(-7286.11 7286.11) rotate(-63.8 1.116 5.936)" gradientUnits="userSpaceOnUse" spreadMethod="pad">
      <stop offset="0" stop-color="#ff928e"/>
      <stop offset="1" stop-color="#fe7062"/>
    </linearGradient>
    <linearGradient id="W" x1="0" x2="1" y1="0" y2="0" gradientTransform="rotate(-57.638 30124.33 -8902.472) scale(5820.13)" gradientUnits="userSpaceOnUse" spreadMethod="pad">
      <stop offset="0" stop-color="#febbba"/>
      <stop offset="1" stop-color="#ff928e"/>
    </linearGradient>
    <linearGradient id="Y" x1="0" x2="1" y1="0" y2="0" gradientTransform="rotate(-40.301 37727.426 -17596.834) scale(5820.32)" gradientUnits="userSpaceOnUse" spreadMethod="pad">
      <stop offset="0" stop-color="#febbba"/>
      <stop offset="1" stop-color="#ff928e"/>
    </linearGradient>
    <linearGradient id="aa" x1="0" x2="1" y1="0" y2="0" gradientTransform="rotate(-67.874 30467.434 -7460.945) scale(7387.35)" gradientUnits="userSpaceOnUse" spreadMethod="pad">
      <stop offset="0" stop-color="#febbba"/>
      <stop offset="1" stop-color="#ff928e"/>
    </linearGradient>
    <linearGradient id="ac" x1="0" x2="1" y1="0" y2="0" gradientTransform="rotate(-94.566 23714.502 -1277.174) scale(2588.264)" gradientUnits="userSpaceOnUse" spreadMethod="pad">
      <stop offset="0" stop-color="#febbba"/>
      <stop offset="1" stop-color="#ff928e"/>
    </linearGradient>
    <linearGradient id="ae" x1="0" x2="1" y1="0" y2="0" gradientTransform="rotate(138.348 9705.074 15766.4) scale(1864.37)" gradientUnits="userSpaceOnUse" spreadMethod="pad">
      <stop offset="0" stop-color="#09005d"/>
      <stop offset="1" stop-color="#1a0f91"/>
    </linearGradient>
    <linearGradient id="ag" x1="0" x2="1" y1="0" y2="0" gradientTransform="rotate(92.614 4424.287 22894.227) scale(1793.526)" gradientUnits="userSpaceOnUse" spreadMethod="pad">
      <stop offset="0" stop-color="#febbba"/>
      <stop offset="1" stop-color="#ff928e"/>
    </linearGradient>
    <linearGradient id="G" x1="0" x2="1" y1="0" y2="0" gradientTransform="scale(-2980.67498 2980.67498) rotate(-87.397 -.82 6.794)" gradientUnits="userSpaceOnUse" spreadMethod="pad">
      <stop offset="0" stop-color="#ff928e"/>
      <stop offset="1" stop-color="#fe7062"/>
    </linearGradient>
  </defs>
  <g clip-path="url(#a)" transform="matrix(.13333 0 0 -.13333 -559.242 4339.995)">
    <path fill="url(#b)" d="M17354.6 3898.3c-583.4 0-1183.1 40.9-1798.7 130.9C12772 4436.3 10609.2 5711 9238.41 6759.7c3118.39-34.4 6716.59-38.7 8338.09-38.7h238.8c376.6.1 689.2 233.9 719.7 539.7 55.1 553 59.9 1397 36.6 2328.9h10230.6c-431.4-527.6-892.1-1024.3-1380.4-1484.3-626.6-590.3-4589.6-4207-10067.2-4207m14063 10042.2 150.9 10422.2c0 244-277.1 712-786.7 712-19 0-38.3-.6-57.9-2l-4679.5 121.1c-377.3 2457.5-2368 4460-4969.5 4754.9-217.9 24.7-434.6 36.8-648.9 36.8-2676.7 0-5004.2-1881.6-5540.3-4503l-4732.9 122.5c-311 927-472.7 2014.4-548.78 3064.2 3035.08 2452.9 6933.08 3559.5 10550.98 3559.5 1243.4 0 2453.6-130.7 3584.6-382.2 1578.1-351.1 4753.4-1057.3 6934-3808.6 2873.2-3625.1 2807.2-9271.9 744-14097.4M4381.02 15161c-248.22 1844.4-130.9 3773.4 317.02 5619.3 170.45-584.5 382.18-1134.5 621.1-1649.6l83.22-3519.8c-54.88.2-107.65.4-158.7.5h-3.61c-381.07 0-710.31-183.2-859.03-450.4"/>
  </g>
  <path fill="#bdd0fb" d="M689.735 8.569C699.752-7.458 724.66.609 723.29 19.462c-13.256 182.293-33.039 661.413 92.947 964.88 205.146 494.107 213.186 1179.213-116.866 1413.546 0 0-1101.05-642.266-9.637-2389.32"/>
  <path fill="#d9e4fd" d="m572.474 920.249-12.966-.334c3.336-60.866 7.686-121.653 13.244-182.346 7.286-80.507 15.839-160.894 26.46-241.014 5.364-40.04 11.095-80.04 17.324-119.973 3.183-19.947 6.384-39.907 9.862-59.813l5.413-29.827 2.876-14.893c1.073-5.014 1.904-9.787 3.355-15.174a2.296 2.296 0 0 1 2.205-1.693c.199 0 .4.027.601.093a2.275 2.275 0 0 1 1.63 2.72l-.116.494c-1.032 4.413-1.898 9.586-2.816 14.48l-2.534 14.893-4.742 29.88c-3.067 19.933-5.988 39.893-8.82 59.867-5.56 39.96-10.624 80-15.32 120.066a6282.766 6282.766 0 0 0-23.83 240.867c-4.696 60.52-8.699 121.093-11.825 181.707"/>
  <path fill="#bdd0fb" d="M698.023 2469.155s92.375-245.213-53.797-589.48C508.6 1560.235 161.982 808.09 150.55 463.97c-.505-15.24-21.277-19.12-27.097-5.027-62.422 151.24-188.99 542.293-78.267 1025.88 142.783 623.6 652.836 984.333 652.836 984.333"/>
  <path fill="#dbe5fd" d="M136.014 1198.769c-14.284-69.68-22.492-140.574-25.047-211.574-.633-9.053-.327-18.133-.39-27.2l.054-27.186 1.19-27.16.6-13.574c.29-4.52.743-9.04 1.109-13.546 2.694-36.107 7.434-72.174 16.598-107.214.035-.12.15-.2.276-.2h.075c.15.04.237.2.203.36-3.956 17.6-5.942 35.587-8.083 53.454l-2.37 26.933c-.715 8.973-.93 17.987-1.42 26.987-.191 4.493-.471 8.986-.59 13.48l-.085 13.52-.16 27 .97 26.973c.452 8.987.335 17.987 1.178 26.96 2.556 42.533 7.154 84.933 13.882 126.987l2.01 85"/>
  <g clip-path="url(#c)" transform="matrix(.13333 0 0 -.13333 -559.242 4339.995)">
    <path fill="url(#d)" d="M30900.7 9589.6H18571.6c-3.8 153.3-8.4 308.7-13.7 465.9h11742.2c239.6 0 435.7 196 435.7 435.7l195.6 12993.4c-22.4 760.3-671.2 1047.1-1089.1 1047.1-11.9 0-23.5-.3-35-.7l-3705.5 99.4c-9.7 190.1-28.9 377.9-57.4 563.4l4679.5-121.1c19.6 1.4 38.9 2 57.9 2 509.6 0 786.7-468 786.7-712l-150.9-10422.2-56.3-3890.8c0-253-207.3-460.1-460.6-460.1M5860.18 15609c-164.09.8-317.12 1.4-457.82 1.9l-83.22 3519.8-104.72 4428.5-15.07 637.5-7.54 318.8c-7.51 317.5 115.64 624.2 340.72 848.6 158.25 157.7 357.15 265 571.8 312 51.24 11.2 103.37 19 156.07 23.2 30.58 2.4 61.36 3.6 92.25 3.6 10.03 0 20.07-.1 30.12-.4l2007.86-51.9 97.24-2.5 1664.93-43.1 4732.9-122.5c-33.4-163.4-59.9-329.9-79.1-498.8-1.9-16.8-3.7-33.3-5.4-50.1l-8323.4 223.3c-7.29.2-14.59.3-21.87.3-215.48 0-422.55-85.5-575.48-238.1-158.09-157.8-244.44-373.7-238.84-597l218.57-8713.1"/>
  </g>
  <path fill="#7d97f4" d="M239.234 2941.168c0 31.96 26.142 58.094 58.098 58.094h3183.439c31.946 0 58.093-26.134 58.093-58.094l26.08-1732.453c-3.067-104.253-94.48-141.733-149.88-139.52l-3110.6-83.453a108.618 108.618 0 0 0-111.492 111.307l46.262 1844.12"/>
  <path fill="#bdd0fb" d="M3504.464 2117.488h-.12c-4.347-.066-7.813-3.653-7.747-7.986l2.054-140.507c.066-4.347 3.64-7.507 7.986-7.76 4.347.067 7.827 3.653 7.76 8l-2.066 140.493c-.067 4.307-3.574 7.76-7.867 7.76m5.053-344.293h-.106a7.88 7.88 0 0 1-7.76-8l7.893-538.12c-.147-32.146-9.907-57.826-29.027-76.146-35.626-34.134-92.16-32.374-94.573-32.294l-994.147-26.653c-4.346-.12-7.773-3.733-7.653-8.08.107-4.28 3.613-7.667 7.867-7.667h.213l993.6 26.667c6.16-.293 65.867-1.387 105.587 36.653 22.306 21.4 33.72 50.867 33.88 87.6l-7.907 538.28c-.053 4.307-3.573 7.76-7.867 7.76"/>
  <g clip-path="url(#e)" transform="matrix(.13333 0 0 -.13333 -559.242 4339.995)">
    <path fill="url(#f)" d="M4376 8401.5h28374.9c36.6 0 66.5 29.9 66.5 66.4v1124.7c0 36.5-29.9 66.4-66.5 66.4H4376c-36.57 0-66.48-29.9-66.48-66.4V8467.9c0-36.5 29.91-66.4 66.48-66.4"/>
  </g>
  <g clip-path="url(#g)" transform="matrix(.13333 0 0 -.13333 -559.242 4339.995)">
    <path fill="url(#h)" d="M17576.5 6721c-1621.5 0-5219.7 4.3-8338.09 38.7-1821.64 20.1-3479.51 50.4-4483.48 96.2-297.98 13.5-533.38 213.1-538.31 456.3-24.29 1202.7-58.8 5610.6 81.56 7574.3 6.99 97.7 35.96 190.3 82.84 274.5 148.72 267.2 477.96 450.4 859.03 450.4h3.61c51.05-.1 103.82-.3 158.7-.5 140.7-.5 293.73-1.1 457.82-1.9 2802.96-13 8833.32-71 11708.72-326.5 372.5-33.1 664.8-277.7 696.1-582 83.4-813.7 232.3-2828.1 292.9-4645 5.3-157.2 9.9-312.6 13.7-465.9 23.3-931.9 18.5-1775.9-36.6-2328.9-30.5-305.8-343.1-539.6-719.7-539.7h-238.8m538.4 4623.4c-73 0-134.4-49.3-131.2-111.8 18.3-357.9 54-1158.5 66.6-1442.7 2.5-57.6 59.9-103.6 130.5-105 1.1 0 2.2-.1 3.3-.1 69.8 0 127.9 44 131.5 101.1 30.8 482.5-30 1212.8-52.3 1454.9-4.4 48.1-47.3 88.2-105.2 98.5l-14.4 2.5c-9.7 1.7-19.4 2.6-28.8 2.6"/>
  </g>
  <path fill="#91b3fa" d="M1723.37 3370.488c-247.946 3.694-1072.754 14.467-1377.38-.24-44.526-2.146-79.978-31.493-81.86-67.813-7.744-149.533-21.234-659.48 4.652-878.08 4.66-39.36 44.414-69.533 92.933-70.693 252.997-6.067 1021.15-22.64 1322.362-8.347 48.054 2.267 86.707 33.413 90.24 72.547 14.574 161.906 46.134 704.12 29.96 889.986-3.04 34.894-37.986 62-80.906 62.64"/>
  <g clip-path="url(#i)" transform="matrix(.13333 0 0 -.13333 -559.242 4339.995)">
    <path fill="url(#j)" d="M18184.1 9684.8c-1.1 0-2.2.1-3.3.1-70.6 1.4-128 47.4-130.5 105-12.6 284.2-48.3 1084.8-66.6 1442.7-3.2 62.5 58.2 111.8 131.2 111.8 9.4 0 19.1-.9 28.8-2.6l14.4-2.5c57.9-10.3 100.8-50.4 105.2-98.5 22.3-242.1 83.1-972.4 52.3-1454.9-3.6-57.1-61.7-101.1-131.5-101.1"/>
  </g>
  <g clip-path="url(#k)" transform="matrix(.13333 0 0 -.13333 -559.242 4339.995)">
    <path fill="url(#l)" d="M16282.6 15928.3c-35.2-1665.5-149.7-7410.2-95.1-9445.9 5.8-215.7 153.6-388.8 338-395.8 911.7-35 4254.3-123.4 5745.7-50.2 310.6 15.2 557.6 309.6 564.1 673.2 31 1748.1 99.3 6664.8-63.2 8917.1-19.5 269.9-200.5 484.8-430.9 511.8-992.9 116.2-4349.9 400.2-5638.3 302.4-232.4-17.6-414.5-240.3-420.3-512.6"/>
  </g>
  <path fill="#bdd0fb" d="M1666.024 2284.355c-6.547 179.227-27.187 775.493-20.64 995.987.96 32.226 22.68 58.293 50.187 60.173 113.306 7.76 499.853 24.853 666.026 9.293 29.934-2.813 53.414-31.12 55.027-66.186 8.413-182.854 32.6-738.067 26.32-956.08-1-34.787-24.027-63.187-53.653-66.294-122.574-12.88-533.334-43.506-674.547-34.493-26.507 1.68-47.587 26.573-48.72 57.6"/>
  <path fill="#fff" d="M1210.677 2841.155c0 127.133-103.066 230.2-230.213 230.2-127.133 0-230.197-103.067-230.197-230.2 0-127.147 103.064-230.213 230.197-230.213 127.147 0 230.213 103.066 230.213 230.213"/>
  <g clip-path="url(#m)" transform="matrix(.13333 0 0 -.13333 -559.242 4339.995)">
    <path fill="url(#n)" d="M11406.1 9916.2c-91.5-6-176.7 36.6-224.1 112.7l-796.1 1278.4c-74.6 119.8-34.4 283.9 89.7 366.5 124.1 82.5 285.1 52.4 359.6-67.4l552.1-887.4 728.5 1483.7c65.4 133.2 222.4 194.2 350.7 136.5 128.3-57.7 179.3-212.4 114-345.5l-941.4-1918.9c-43.1-87.8-128.8-148.3-223.8-157.8-3-.3-6.1-.6-9.2-.8"/>
  </g>
  <path fill="#fff" d="m822.144 1416.595 13.574 2.667.026.013c3.894.76 6.427 4.547 5.667 8.44-.773 3.894-4.547 6.427-8.44 5.654l-.267-.054-13.52-3.2c-3.72-.88-6.013-4.613-5.133-8.333.853-3.627 4.427-5.907 8.053-5.2l.04.013m45.214 8.64 13.6 2.44h.04c4.386.787 7.306 4.987 6.52 9.374-.787 4.386-4.974 7.306-9.36 6.506l-.307-.053-13.573-2.973a7.805 7.805 0 0 1-5.96-9.294c.906-4.106 4.88-6.746 8.986-6.013l.054.013m45.32 7.787 13.613 2.147.067.013a8.96 8.96 0 0 1 7.453 10.227c-.773 4.893-5.36 8.226-10.24 7.453l-.333-.053-13.654-2.694c-4.706-.92-7.773-5.493-6.84-10.2.907-4.586 5.267-7.613 9.854-6.906l.08.013m45.412 6.747 13.64 1.786.08.014c5.388.706 9.188 5.64 8.48 11.026-.706 5.387-5.64 9.174-11.026 8.48l-.373-.066-13.733-2.334c-5.214-.88-8.707-5.826-7.827-11.04.867-5.08 5.587-8.533 10.653-7.88l.107.014m45.507 5.466 13.666 1.36.107.014c5.893.586 10.187 5.84 9.6 11.72-.573 5.893-5.827 10.2-11.72 9.613-.12-.013-.293-.027-.413-.053l-13.814-1.907c-5.706-.787-9.706-6.067-8.92-11.787.774-5.573 5.814-9.506 11.36-8.973l.134.013m45.559 3.974 13.654.866h.133c6.387.414 11.24 5.92 10.84 12.307-.4 6.4-5.92 11.253-12.307 10.853-.133-.013-.32-.026-.453-.04l-13.867-1.413c-6.226-.627-10.76-6.2-10.133-12.427.627-6.066 5.933-10.533 11.973-10.16l.16.014m45.587 2.266 13.667.32h.16c6.88.174 12.346 5.894 12.173 12.787-.16 6.893-5.88 12.347-12.773 12.187-.147-.014-.334-.014-.48-.027l-13.96-.867c-6.734-.426-11.854-6.213-11.427-12.96.4-6.56 5.933-11.6 12.453-11.453l.187.013m45.586.427 13.667-.227h.16c7.374-.133 13.467 5.747 13.587 13.134.133 7.386-5.76 13.466-13.133 13.6h-.52l-13.987-.307c-7.227-.147-12.973-6.133-12.813-13.373.146-7.054 5.853-12.694 12.84-12.814l.2-.013m45.533-1.413 13.64-.787h.16c7.853-.453 14.587 5.547 15.04 13.413.44 7.854-5.56 14.587-13.413 15.04-.174.014-.387.014-.547.027l-14 .253c-7.72.147-14.093-6-14.24-13.72-.133-7.533 5.707-13.786 13.16-14.213l.2-.013m45.44-3.2 13.613-1.28.147-.014c8.32-.786 15.707 5.32 16.493 13.64.774 8.334-5.333 15.707-13.653 16.494-.173.013-.4.026-.573.04l-13.974.773c-8.186.467-15.213-5.813-15.666-14.013-.44-8 5.52-14.867 13.426-15.627l.187-.013m45.346-4.8 13.587-1.72.134-.027c8.773-1.107 16.786 5.107 17.906 13.88 1.107 8.773-5.106 16.8-13.88 17.907a9.574 9.574 0 0 1-.613.066l-13.92 1.227c-8.667.76-16.307-5.653-17.067-14.32-.746-8.453 5.334-15.933 13.68-17l.174-.013"/>
  <path fill="#fff" d="m1321.904 1436.302 13.56-2.08.107-.027c9.226-1.413 17.853 4.92 19.28 14.134 1.413 9.226-4.907 17.866-14.134 19.28-.2.026-.453.066-.64.08l-13.866 1.6c-9.134 1.053-17.374-5.507-18.427-14.627-1.027-8.907 5.187-16.973 13.96-18.333l.16-.027"/>
  <path fill="#fff" d="m1367.064 1428.995 13.52-2.386.093-.014c9.667-1.693 18.894 4.76 20.587 14.44 1.707 9.68-4.76 18.894-14.427 20.6-.2.027-.48.067-.68.107l-13.786 1.88c-9.587 1.307-18.427-5.4-19.734-14.987-1.28-9.36 5.08-17.986 14.294-19.613l.133-.027"/>
  <path fill="#fff" d="m1412.13 1420.782 13.507-2.6.067-.013c10.133-1.96 19.92 4.666 21.867 14.786 1.96 10.134-4.667 19.92-14.787 21.867-.213.04-.493.093-.707.12l-13.76 2.12c-10.04 1.533-19.44-5.36-20.973-15.4-1.507-9.8 5.013-18.973 14.667-20.853l.12-.027m-599.641-80.12c0 141.547-114.744 256.293-256.29 256.293-141.545 0-256.29-114.746-256.29-256.293 0-141.533 114.745-256.28 256.29-256.28 141.546 0 256.29 114.747 256.29 256.28"/>
  <g clip-path="url(#o)" transform="matrix(.13333 0 0 -.13333 -559.242 4339.995)">
    <path fill="url(#p)" d="M8208.06 21019.6c-101.95-6.6-196.81 40.8-249.58 125.6l-886.33 1423.2c-83.06 133.4-38.31 316.1 99.92 408 138.11 91.9 317.35 58.3 400.31-75l614.68-987.9 811.06 1651.8c72.78 148.2 247.66 216.2 390.49 151.9 142.81-64.2 199.63-236.4 126.94-384.6l-1048.11-2136.3c-48-97.9-143.41-165.2-249.14-175.8l-10.24-.9"/>
  </g>
  <path fill="#fff" d="m2033.65 1912.648-4.533 12.627-.133.373c-2.787 7.747-11.307 11.76-19.053 8.987-7.614-2.747-11.614-11.067-9.094-18.707l4.48-13.48c2.627-7.893 11.147-12.173 19.04-9.546 7.894 2.626 12.16 11.146 9.547 19.04l-.093.266-.16.44m-13.961 42.68-3.573 13.054-.08.28c-2.08 7.64-9.96 12.133-17.6 10.053-7.506-2.053-11.986-9.747-10.133-17.267l3.4-13.72c1.92-7.773 9.787-12.52 17.56-10.586 7.773 1.92 12.52 9.786 10.587 17.56l-.067.266-.093.36m-10.921 43.854-2.76 13.32-.04.226c-1.546 7.454-8.84 12.24-16.28 10.694-7.346-1.52-12.093-8.627-10.76-15.96l2.52-13.84c1.374-7.574 8.64-12.6 16.214-11.227 7.573 1.387 12.6 8.64 11.227 16.227l-.054.266-.066.294m-8.361 44.586-2.08 13.494-.026.186c-1.107 7.214-7.853 12.16-15.067 11.054-7.106-1.094-12.013-7.667-11.106-14.76l1.8-13.907c.946-7.333 7.653-12.507 14.986-11.56 7.334.947 12.507 7.653 11.56 14.987l-.026.266-.04.24m-6.201 45.107-1.48 13.6-.026.16c-.76 6.947-7 11.973-13.96 11.213-6.84-.746-11.813-6.826-11.24-13.653l1.173-13.947c.6-7.053 6.814-12.293 13.867-11.693 7.067.587 12.307 6.8 11.707 13.867l-.027.24-.013.213m-4.321 45.427-.96 13.666v.134c-.48 6.68-6.266 11.706-12.933 11.24-6.56-.467-11.546-6.107-11.24-12.64l.64-13.96c.307-6.76 6.054-12 12.827-11.694 6.773.307 12 6.054 11.693 12.827l-.013.24-.013.187m-2.641 45.626-.493 13.707v.12c-.226 6.373-5.586 11.36-11.96 11.133-6.266-.226-11.2-5.44-11.133-11.68l.16-13.946c.08-6.48 5.387-11.667 11.853-11.587 6.48.08 11.667 5.387 11.587 11.853v.227l-.013.173m-1.121 45.747-.066 13.733v.107c-.027 6.067-4.973 10.973-11.04 10.933-5.987-.026-10.827-4.826-10.947-10.773l-.266-13.933c-.134-6.16 4.773-11.254 10.933-11.374 6.16-.133 11.253 4.774 11.373 10.934l.014.213v.16m.266 45.8.334 13.747.013.093c.133 5.76-4.413 10.547-10.173 10.693-5.68.134-10.414-4.293-10.694-9.933l-.68-13.907c-.28-5.853 4.227-10.826 10.08-11.12 5.84-.28 10.814 4.227 11.107 10.08l.013.2v.147m1.587 45.813.733 13.734v.08c.294 5.453-3.893 10.106-9.346 10.4-5.36.28-9.96-3.787-10.374-9.107l-1.066-13.88c-.427-5.533 3.706-10.373 9.24-10.8 5.533-.427 10.373 3.72 10.8 9.253l.013.187v.133m2.866 45.774 1.107 13.72.014.08c.4 5.133-3.427 9.626-8.547 10.04-5.067.413-9.493-3.307-10.027-8.32l-1.453-13.84c-.547-5.214 3.24-9.88 8.453-10.427a9.482 9.482 0 0 1 10.427 8.453l.013.174.014.12m4.119 45.706 1.494 13.694v.066c.52 4.814-2.96 9.147-7.773 9.667-4.734.52-9-2.867-9.64-7.56l-1.827-13.8c-.653-4.893 2.787-9.387 7.68-10.027 4.893-.653 9.387 2.787 10.04 7.68l.013.174.014.106m5.399 45.587 1.88 13.64.014.067c.613 4.493-2.533 8.64-7.027 9.266-4.413.6-8.506-2.44-9.213-6.826l-2.227-13.734c-.746-4.573 2.36-8.88 6.92-9.613a8.368 8.368 0 0 1 9.614 6.933l.026.16.014.107m6.746 45.4 2.294 13.573.013.08c.707 4.174-2.107 8.12-6.28 8.827-4.093.693-8-2.027-8.787-6.093l-2.653-13.654c-.827-4.253 1.947-8.36 6.187-9.173 4.24-.827 8.346 1.947 9.173 6.187l.027.146.026.107m8.187 45.16 2.76 13.467.013.08c.8 3.84-1.68 7.6-5.52 8.386-3.773.774-7.48-1.613-8.346-5.36l-3.12-13.56a7.265 7.265 0 0 1 5.44-8.72 7.284 7.284 0 0 1 8.72 5.454l.026.133.027.12m243.853 252.507c0 115.68-93.786 209.453-209.466 209.453s-209.467-93.773-209.467-209.453c0-115.694 93.787-209.467 209.467-209.467s209.466 93.773 209.466 209.467"/>
  <g clip-path="url(#q)" transform="matrix(.13333 0 0 -.13333 -559.242 4339.995)">
    <path fill="url(#r)" d="M19438.1 10363.6c-83.3-5.5-160.9 33.3-204 102.6l-724.4 1163.2c-67.9 109-31.3 258.3 81.7 333.4 112.8 75.1 259.3 47.7 327.1-61.3l502.4-807.4 662.9 1350c59.5 121.2 202.4 176.8 319.1 124.2 116.8-52.5 163.2-193.2 103.8-314.3l-856.6-1746.1c-39.3-79.9-117.2-134.9-203.7-143.6-2.7-.3-5.5-.5-8.3-.7"/>
  </g>
  <g clip-path="url(#s)" transform="matrix(.13333 0 0 -.13333 -559.242 4339.995)">
    <path fill="url(#t)" d="M26315.5 20114.9c1732.9-51 2141.5-456.9 2141.5-456.9l-971.9-1209.4s-1683.1 223.5-2786.9 1291.4c253.7 218.1 441.2 469.7 565.6 667.9 297.1-164.6 647.5-281 1051.7-293"/>
  </g>
  <g clip-path="url(#u)" transform="matrix(.13333 0 0 -.13333 -559.242 4339.995)">
    <path fill="url(#v)" d="M24698.2 19740c-145.5 140.8-280.9 296.2-401.1 467.7 178.1 164.2 346 340 502 526.1 136.8-117.6 291.7-230 464.7-325.9-124.4-198.2-311.9-449.8-565.6-667.9"/>
  </g>
  <path fill="#fff" d="M1414.97 1008.835c-46.773 412.627 251.574 785.253 666.387 832.28 414.814 47.013 789-249.36 835.774-662 46.773-412.64-251.574-785.266-666.387-832.28-414.8-47.026-789 249.36-835.773 662"/>
  <g clip-path="url(#w)" transform="matrix(.13333 0 0 -.13333 -559.242 4339.995)">
    <path fill="url(#x)" d="M20453 18892.4c-207.2 0-416.6 11.7-627.4 35.5-3007.6 341-5170.8 3042.8-4831.7 6034.6 315.4 2782.2 2683.5 4835.4 5432.6 4835.4 207.1 0 416.6-11.6 627.3-35.5 3007.6-341 5170.9-3042.7 4831.7-6034.6-315.4-2782.2-2683.5-4835.5-5432.5-4835.4m-171.8 10184.9c-2448.3 0-4557.4-1828.6-4838.3-4306.5-302.1-2664.6 1624.5-5070.8 4303.2-5374.5 187.7-21.2 374.2-31.6 558.7-31.6 2448.3-.1 4557.4 1828.6 4838.3 4306.5 302.1 2664.6-1624.5 5070.8-4303.2 5374.5-187.7 21.2-374.2 31.6-558.7 31.6m5206.1-4364.9h-1.5c-19.1-1.3-33.5-17.8-32.2-36.8 13.9-209.1 14.5-421.8 1.8-632.1-1.2-19 13.4-35.4 32.4-36.6h2.1c18.2 0 33.4 14.1 34.5 32.5 12.9 213.2 12.3 428.8-1.8 640.8-1.2 18.5-17.1 32.2-35.3 32.2m-5060.2 4631.7c191.9 0 384.5-10.9 575.6-32.6 1896-214.9 3486.3-1455.3 4150.2-3237.1 5.2-14 18.4-22.5 32.4-22.5 4.1 0 8.1.7 12.1 2.1 17.9 6.7 27 26.6 20.4 44.6-323 866.7-878.1 1630.3-1605.4 2208.2-747.5 594-1647.2 965.2-2601.9 1073.4-193.8 22-389.1 33.1-583.8 33.1-113.2 0-226.2-3.8-338.5-11.3-19.1-1.2-33.5-17.7-32.2-36.8 1.2-18.5 17.3-32.2 35.3-32.2h1.5c110.9 7.4 222.5 11.1 334.3 11.1"/>
  </g>
  <g clip-path="url(#y)" transform="matrix(.13333 0 0 -.13333 -559.242 4339.995)">
    <g clip-path="url(#z)">
      <path fill="url(#A)" d="M25486 24006v1h-5v1h-3v1h-3v1h-2v1h-1v1h-2v1h-2v1h-1v1h-1v1h-1v1h-1v1h-1v1h-1v2h-1v1h-1v2h-1v2h-1v2h-1v3h-1v4h-1v19h1v16h1v19h1v25h1v26h1v25h1v26h1v55h1v78h1v61h-1v54h-1v54h-1v37h-1v22h-1v22h-1v22h-1v22h-1v21h-1v15h-1v15h-1v15h1v4h1v3h1v2h1v2h1v2h1v1h1v2h1v1h1v1h1v1h1v1h1v1h1v1h2v1h1v1h2v1h2v1h2v1h3v1h4v1h11v-1h4v-1h4v-1h2v-1h2v-1h2v-1h1v-1h1v-1h2v-1h1v-1h1v-1h1v-1h1v-1h1v-1h1v-2h1v-2h1v-1h1v-3h1v-2h1v-4h1v-10h1v-15h1v-15h1v-21h1v-22h1v-22h1v-22h1v-23h1v-33h1v-54h1v-54h1v-82h-1v-78h-1v-49h-1v-25h-1v-26h-1v-25h-1v-25h-1v-19h-1v-16h-1v-13h-1v-5h-1v-2h-1v-3h-1v-2h-1v-1h-1v-2h-1v-1h-1v-2h-1v-1h-1v-1h-1v-1h-2v-1h-1v-1h-1v-1h-2v-1h-2v-1h-1v-1h-3v-1h-3v-1h-6v-1"/>
    </g>
  </g>
  <g clip-path="url(#B)" transform="matrix(.13333 0 0 -.13333 -559.242 4339.995)">
    <path fill="url(#C)" d="M25185.3 26051.9c-14 0-27.2 8.5-32.4 22.5-663.9 1781.8-2254.2 3022.2-4150.2 3237.1-191.1 21.7-383.7 32.6-575.6 32.6-111.8 0-223.4-3.7-334.3-11.1h-1.5c-18 0-34.1 13.7-35.3 32.2-1.3 19.1 13.1 35.6 32.2 36.8 112.3 7.5 225.3 11.3 338.5 11.3 194.7 0 390-11.1 583.8-33.1 954.7-108.2 1854.4-479.4 2601.9-1073.4 727.3-577.9 1282.4-1341.5 1605.4-2208.2 6.6-18-2.5-37.9-20.4-44.6-4-1.4-8-2.1-12.1-2.1"/>
  </g>
  <g clip-path="url(#D)" transform="matrix(.13333 0 0 -.13333 -559.242 4339.995)">
    <path fill="url(#E)" d="M20304.8 19364.7c-184.5 0-371 10.4-558.7 31.6-2678.7 303.7-4605.3 2709.9-4303.2 5374.5 280.9 2477.9 2390 4306.5 4838.3 4306.5 184.5 0 371-10.4 558.7-31.6 2678.7-303.7 4605.3-2709.9 4303.2-5374.5-280.9-2477.9-2390-4306.6-4838.3-4306.5"/>
  </g>
  <g clip-path="url(#F)" transform="matrix(.30778 0 0 -.30778 -4763.188 5534.765)">
    <path fill="url(#G)" d="M22253.1 13128.5v211.3c-220.3 8.8-438.3 60.8-593.1 128.6-55.2 24.2-83.4 86.2-67.5 144.4l53.7 196.9c19.7 72.2 98.2 109.6 167.2 80.6 153.6-64.3 343.2-115.3 547.6-115.3 212.2 0 370.5 72 370.5 219.5 0 133-122.3 212.2-417.3 291.3-420.8 115.1-722.9 298.5-722.9 669 0 334.5 244.6 589.9 669 658.2v211.4c0 68 55.1 123.2 123.1 123.2h124.2c68 0 123.2-55.2 123.2-123.2v-189.8c203.8-8.1 352.2-43 470-84.4 60.4-21.2 93.3-86.2 76.6-147.9l-49.4-182.1c-19-70.2-94.1-108.6-162.1-82.9-108.4 41-261.7 83.7-461 83.7-251.8 0-323.7-104.3-323.7-197.8 0-115.1 151-194.3 478.3-295 467.6-140.3 661.9-334.5 661.9-683.4 0-320.1-237.4-607.9-697.8-679.8v-236.5c0-68-55.2-123.2-123.2-123.2h-124.2c-68 0-123.1 55.2-123.1 123.2"/>
  </g>
  <g clip-path="url(#H)" transform="matrix(.13333 0 0 -.13333 -559.242 4339.995)">
    <path fill="url(#I)" d="M29052.3 7446.9s134.9-190.6 194.3-740.4c5.6-51.2-32.9-97.1-84.4-99.7l-977.1-49.5c-39.3-2-69.3 35.1-58.6 73 48.6 172.4 200.8 594.3 575.1 850l350.7-33.4"/>
  </g>
  <g clip-path="url(#J)" transform="matrix(.13333 0 0 -.13333 -559.242 4339.995)">
    <path fill="url(#K)" d="m29184.8 7745.8-107-454.9c-9.2-39.2-44-67.6-84.3-67.7-53.9-.1-131.6 4.3-205.4 25.2-67 18.9-109.3 85.3-101.4 154.5l50.1 445.2 448-102.3"/>
  </g>
  <g clip-path="url(#L)" transform="matrix(.13333 0 0 -.13333 -559.242 4339.995)">
    <path fill="url(#M)" d="M26820.8 7413.1s197.3-284.4 207.2-683.8c2.4-94.1-73.8-171.8-167.8-175.1l-1518.7-52.9c-71.1-2.5-103.1 87.9-46.4 130.8 280.4 211.8 832 608.5 1235.4 770.9l290.3 10.1"/>
  </g>
  <g clip-path="url(#N)" transform="matrix(.13333 0 0 -.13333 -559.242 4339.995)">
    <path fill="url(#O)" d="m26858.6 7897.9-38.9-583.8c-4.3-65.3-60.6-116.5-125.8-111.1-39.6 3.3-87.3 13.5-140 37.2-50 22.5-80.9 74.1-78.8 128.9l26.4 704.4 357.1-175.6"/>
  </g>
  <g clip-path="url(#P)" transform="matrix(.13333 0 0 -.13333 -559.242 4339.995)">
    <path fill="url(#Q)" d="M29882 15598.6s367.3-405.6 395.3-846.8c27.9-441.2-1059-7439-1059-7439s-415.5-21.9-611.3 129.2c0 0 265.1 4591.2 194.5 5666.9 0 0-1526.9-4614.6-1898.6-5437.6 0 0-398.3-3.5-516.5 85.5 0 0 951.2 6097.8 1401.1 7150.2l2094.5 691.6"/>
  </g>
  <g clip-path="url(#R)" transform="matrix(.13333 0 0 -.13333 -559.242 4339.995)">
    <path fill="url(#S)" d="M28835 13240.7c23.9 0 46.5 14.5 55.5 38.1l239.9 623.3 380.4 187.6c29.5 14.6 41.6 50.2 27.1 79.7-14.6 29.4-50.2 41.5-79.7 27l-401.3-197.9c-13.4-6.6-23.8-18-29.2-32l-248.2-644.9c-11.8-30.7 3.5-65.1 34.2-76.9 7-2.7 14.2-4 21.3-4"/>
  </g>
  <g clip-path="url(#T)" transform="matrix(.13333 0 0 -.13333 -559.242 4339.995)">
    <path fill="url(#U)" d="M25665.2 19423.5c677.8 583.1 1862.2 747.6 2542.4 793.3 298 20 567.5-174.9 639.6-464.7 209-840.2 788.3-3029.9 905.7-3408.2 96.4-310.4 199.3-614.6 265-804.9 39.2-113.7-20.2-237.7-133.8-277.5-591.2-207-1634.7-399.1-2057.3-472.3-92.9-16.1-174.9 61.6-164.3 155.3 8.9 79.5-3.9 160-37.1 232.7l-1258.2 2756.5c-1086.4-961.9-1943.1-964.4-2566.3-656.8 147.3 325.3 256.9 655.4 329.4 990.4 978.3 56.2 1534.9 1156.2 1534.9 1156.2"/>
  </g>
  <g clip-path="url(#V)" transform="matrix(.13333 0 0 -.13333 -559.242 4339.995)">
    <path fill="url(#W)" d="m22564.3 18625.8 199.2 211.4c517.3-448.3 975.7-592.4 1366.8-569.9-72.5-335-182.1-665.1-329.4-990.4-821 405.2-1236.6 1348.9-1236.6 1348.9"/>
  </g>
  <g clip-path="url(#X)" transform="matrix(.13333 0 0 -.13333 -559.242 4339.995)">
    <path fill="url(#Y)" d="m22827.8 18671.9-957-223.3-983.3 324.8c112.1 104.4 864.2 79.9 864.2 79.9s731.3 259.1 935.2 298.6c169.3 32.9 192-215.3 194.8-300.3.6-17.4.3-27.9.3-27.9l-54.2-151.8"/>
  </g>
  <g clip-path="url(#Z)" transform="matrix(.13333 0 0 -.13333 -559.242 4339.995)">
    <path fill="url(#aa)" d="m27425.7 21516.2 373.1-1314.3s-637.7-342.8-1109.2-250.2l-129.6 1158.6 865.7 405.9"/>
  </g>
  <g clip-path="url(#ab)" transform="matrix(.13333 0 0 -.13333 -559.242 4339.995)">
    <path fill="url(#ac)" d="M26652.5 22470.7c-13.6-15.4-521.2-1277.6-521.2-1277.6l726.9-274.5 658.8 1124.9s-635.5 684.6-864.5 427.2"/>
  </g>
  <g clip-path="url(#ad)" transform="matrix(.13333 0 0 -.13333 -559.242 4339.995)">
    <path fill="url(#ae)" d="m27214.9 21895.3-300.4-619.3c-3.9-7.9-8.6-15.1-14.5-21.7-35.8-40.5-169.4-170.5-294.1-25.8-113.1 131.4-218.3 249.6-324.3 280.8-47.6 14-97.9-10.3-116.4-56.3-46.1-114.7-145.2-375.1-196.7-614.4-10.5-48.6 18.4-96.8 65.9-111.5 143-44.2 447.3-129.1 708-140 35.4-1.5 68.6 16.1 86.8 46.4 88.9 147.7 360.6 595.8 455.7 708.9 89.2 106.2 275.7 81.9 353.4 66.1 25.4-5.1 51.6.3 72.9 15.1 75.4 52.4 223.2 191.2 60.3 395.6-34.1 42.8-26 104.7 17.8 137.5 87.2 65.3 186.3 187.3 73.4 365.2-114.9 180.8-294.1 174.3-406.6 147.1-45.5-11.1-91 12.8-110.2 55.4-11 24.3-32.6 44.2-73.9 45.3-55.6 1.4-96.7 52.6-89.5 107.8 13.9 106-9 244.4-186.8 322.5-315.4 138.6-554.9-154.2-601.6-387.6-46.8-233.4 303.7-364.2 517.6-372.2 162.6-6.1 264.3-179.4 303.8-262.2 12.4-26.2 12.1-56.6-.6-82.7"/>
  </g>
  <g clip-path="url(#af)" transform="matrix(.13333 0 0 -.13333 -559.242 4339.995)">
    <path fill="url(#ag)" d="M27173.2 21118s98.9 403.2 271.4 404c172.5.9 322.3-157.6 127.2-368.2-242.6-261.9-398.6-35.8-398.6-35.8"/>
  </g>
  <path fill="#fff" d="m1603.784 1719.408-10.32 8.854-.187.16c-6.253 5.373-15.68 4.64-21.053-1.614-5.32-6.2-4.653-15.493 1.413-20.893l10.52-9.347c6.214-5.52 15.734-4.946 21.254 1.267 5.52 6.213 4.96 15.733-1.267 21.253l-.133.12-.227.2m-33.934 30.147-9.906 9.347-.133.133c-5.854 5.507-15.054 5.24-20.574-.6-5.453-5.773-5.24-14.853.427-20.387l10.013-9.786c5.8-5.654 15.08-5.547 20.747.253 5.653 5.8 5.547 15.08-.253 20.747l-.12.106-.2.187m-32.667 31.707-9.587 9.76-.106.106c-5.467 5.587-14.44 5.667-20.014.187-5.52-5.413-5.653-14.253-.36-19.84l9.627-10.147c5.427-5.72 14.453-5.96 20.173-.533 5.72 5.427 5.96 14.467.534 20.187l-.107.12-.16.16m-31.587 32.946-9.28 10.094-.08.093c-5.146 5.6-13.853 5.96-19.453.813-5.533-5.08-5.947-13.666-.973-19.266l9.28-10.44c5.093-5.734 13.866-6.254 19.6-1.16 5.72 5.093 6.24 13.866 1.146 19.6l-.106.12-.134.146m-30.6 33.974-9 10.373-.066.08c-4.84 5.573-13.28 6.173-18.867 1.333-5.52-4.8-6.147-13.12-1.48-18.693l8.96-10.68c4.787-5.72 13.307-6.467 19.013-1.667 5.707 4.787 6.454 13.294 1.667 19l-.107.12-.12.134m-29.693 34.84-8.733 10.6-.067.08c-4.56 5.533-12.747 6.32-18.28 1.76-5.467-4.52-6.28-12.574-1.893-18.107l8.68-10.893c4.506-5.667 12.746-6.6 18.413-2.094 5.653 4.507 6.587 12.747 2.08 18.414l-.093.12-.107.12m-28.854 35.6-8.493 10.8-.053.066c-4.293 5.467-12.213 6.414-17.68 2.12-5.413-4.253-6.387-12.053-2.24-17.506l8.413-11.094c4.24-5.586 12.214-6.68 17.8-2.44 5.6 4.254 6.68 12.214 2.44 17.814l-.093.12-.093.12m-28.054 36.253-8.266 10.987-.04.066c-4.054 5.387-11.707 6.467-17.094 2.427-5.32-4.013-6.44-11.547-2.533-16.92l8.16-11.267c4-5.506 11.707-6.733 17.213-2.733 5.507 4 6.734 11.693 2.734 17.2l-.08.12-.094.12m-27.293 36.853-8.04 11.174-.053.053c-3.8 5.293-11.187 6.493-16.48 2.68-5.227-3.76-6.454-11.04-2.8-16.32l7.946-11.413c3.747-5.414 11.187-6.747 16.6-2.987 5.4 3.747 6.747 11.187 2.987 16.587l-.08.12-.08.106m-26.56 37.427-7.813 11.32-.04.067c-3.587 5.186-10.694 6.48-15.894 2.906-5.12-3.546-6.453-10.56-3.013-15.733l7.707-11.56c3.533-5.307 10.693-6.747 16-3.213 5.293 3.533 6.733 10.693 3.2 15.986l-.067.12-.08.107m-25.814 37.947-7.613 11.48-.026.053c-3.374 5.08-10.214 6.467-15.294 3.107-5.013-3.334-6.426-10.067-3.2-15.134l7.48-11.706c3.307-5.2 10.2-6.72 15.387-3.4 5.187 3.306 6.707 10.2 3.4 15.386l-.067.107-.066.107m-25.094 38.44-7.386 11.64-.04.053c-3.147 4.96-9.72 6.427-14.68 3.28-4.894-3.12-6.387-9.587-3.374-14.533l7.254-11.854c3.093-5.066 9.72-6.666 14.786-3.573 5.067 3.107 6.667 9.72 3.56 14.787l-.066.106-.054.094m-24.347 38.946-7.16 11.774-.026.053a10.237 10.237 0 0 1-14.08 3.427c-4.787-2.894-6.333-9.107-3.52-13.92l7.013-12c2.894-4.934 9.24-6.6 14.174-3.72 4.946 2.893 6.6 9.24 3.72 14.186l-.067.094-.053.106m-23.587 39.414-6.92 11.92-.027.053c-2.733 4.707-8.76 6.307-13.466 3.573-4.654-2.706-6.267-8.64-3.654-13.32l6.774-12.146c2.68-4.8 8.76-6.52 13.56-3.84 4.813 2.68 6.533 8.76 3.853 13.56l-.053.106-.067.094m-22.774 39.893-6.653 12.067-.04.053c-2.52 4.573-8.28 6.227-12.853 3.707-4.52-2.507-6.187-8.174-3.787-12.72l6.52-12.28c2.48-4.68 8.28-6.454 12.96-3.974 4.667 2.48 6.44 8.28 3.96 12.96l-.053.094-.053.093m-21.907 40.387-6.387 12.2-.04.053c-2.32 4.44-7.8 6.147-12.24 3.827a9.08 9.08 0 0 1-3.893-12.107l6.24-12.427a9.184 9.184 0 0 1 12.333-4.08 9.184 9.184 0 0 1 4.08 12.334l-.04.093-.053.107m-20.974 40.853-6.093 12.36-.04.053a8.664 8.664 0 0 1-11.613 3.947c-4.253-2.093-6.027-7.213-4.013-11.493l5.946-12.574c2.067-4.386 7.32-6.266 11.707-4.186 4.4 2.066 6.267 7.306 4.2 11.706l-.053.094-.04.093m-19.934 41.347-5.76 12.52-.04.066a8.277 8.277 0 0 1-10.986 4.054c-4.12-1.894-5.934-6.734-4.12-10.867l5.6-12.733c1.88-4.254 6.84-6.174 11.08-4.307a8.391 8.391 0 0 1 4.306 11.08l-.04.093-.04.094m-18.76 41.88-5.386 12.666-.027.08a7.9 7.9 0 0 1-10.347 4.187c-3.973-1.693-5.853-6.253-4.24-10.24l5.214-12.893c1.666-4.107 6.333-6.094 10.44-4.427 4.106 1.653 6.08 6.333 4.426 10.427l-.04.093-.04.107m-17.413 42.426-4.92 12.84-.027.08c-1.493 3.88-5.826 5.814-9.693 4.334-3.827-1.467-5.76-5.734-4.373-9.574l4.76-13.093c1.44-3.96 5.813-6 9.773-4.56 3.96 1.44 6 5.813 4.56 9.773l-.04.08-.04.12m-15.787 43.027-4.373 13.027-.027.093a7.126 7.126 0 0 1-9.013 4.493c-3.68-1.24-5.68-5.2-4.52-8.893l4.213-13.293a7.217 7.217 0 0 1 9.08-4.707c3.8 1.2 5.92 5.267 4.707 9.067l-.027.08-.04.133"/>
  <text xml:space="preserve" x="19163.398" y="-24832.043" fill="#d45500" fill-opacity="0" stroke-width="7.5" font-size="999.997" transform="translate(-559.242 4339.995) scale(.13333)"><tspan x="19163.398" y="-24832.043" fill="#fff">s</tspan></text>
</svg>
